/* XPM */
/* Drawn for the K Desktop Environment */
/* See http://www.kde.org */
static char*sounds[]={
"16 16 6 1",
"# c #000000",
"a c #ffffff",
"b c #ffff00",
"d c #c05800",
"c c #ffa858",
". c None",
".......###......",
"......#aa#......",
".....#a###......",
".....##aa#......",
".....#a###......",
"...####bc#......",
"..#bc##cd#......",
"..#cd#.##.......",
"...##...........",
"......###.......",
".......#a#......",
"........#.#.....",
".......##.......",
"......#bc#......",
"......#cd#......",
".......##......."};

