/* XPM */
/* Drawn for the K Desktop Environment */
/* See http://www.kde.org */
static char*colors[]={
"32 32 9 1",
". c None",
"g c #ffdca8",
"d c #00c000",
"b c #c000c0",
"c c #00c0c0",
"# c #000000",
"e c #ffa858",
"a c #0000ff",
"f c #ff0000",
"...............##...............",
"...............#a##.............",
"..............##aaa##...##......",
"..............#b##aaa##.#a##....",
"..............#bbb##aaa##aaa##..",
"..........##..#bbbbb##aaaaaaa#..",
"..........#c###bbbbbbb##aaaaa#..",
".........##ccc##bbb##bbb##aaa##.",
".........#d##ccc##b#c##bbb##aaa#",
".........#ddd##ccc##ccc##bbb##a#",
".....##..#ddddd##ccccccc#bbbb#a#",
".....#e###ddddddd##ccccc#bbbb#a#",
"....##eee##ddd##ddd##ccc##bbb#a#",
"....#f##eee##d#e##ddd##ccc#bb#a#",
"....#fff##eee##eee##ddd##c#bb#a#",
"....#fffff##eeeeeee#dddd#c#bb#a#",
"....#fffffff##eeeee#dddd#c#bb#a#",
"....#fffffffff##eee##ddd#c#bb#a#",
"....#fffffffffff##eee#dd#c#bb#a#",
"..#####fffffffffff##e#dd#c##b###",
".#ggggg#fffffffffff#e#dd#c#.###.",
"#ggg#########ffffff#e#dd#c#.....",
"#ggggggggggg#ffffff#e#dd#c#.....",
"#gggg#######fffffff#e#dd#c#.....",
"#gggggggg#fffffffff#e##d###.....",
"#gggg#####fffffffff#e#.###......",
"#ggggggg#.##fffffff#e#..........",
"#gggg####...##fffff#e#..........",
".#ggggg#......##fff#e#..........",
"..#####.........##f###..........",
"..................###...........",
"................................"};
