/* XPM */
static char * palette_xpm[] = {
"32 32 9 1",
" 	c None",
".	c #FFFFFFFF0000",
"X	c #FFFF0000FFFF",
"o	c #000000000000",
"O	c #00000000FFFF",
"+	c #0000FFFF0000",
"@	c #FFFF00000000",
"#	c #861700008617",
"$	c #BEFB0000BEFB",
"                                ",
"                                ",
"        oooooo                  ",
"       o......o                 ",
"     o.........ooo              ",
"    o.......XXX...o             ",
"    o.....XXXXX....o            ",
"   o......XXXXX....o     oo     ",
"  o.......XXXX.....o    oo      ",
"  o......OOXXX.....o   oo       ",
"  o...+++.OOOOO....o   oo       ",
"  o..++++...........o oo        ",
"  o..++++...........ooo         ",
"  o..++++...........ooo         ",
"  o...............  oo.o        ",
"  o..............  oo ..o       ",
"   o...@@@....... oo  .....o    ",
"    o..@@@@......    ...####o   ",
"    o.@@@@@........  ...####.o  ",
"    o.@@@@@............#####.o  ",
"     o@@@....OOO..OOO..#####.o  ",
"      o......OOOOOOOO..####..o  ",
"       o.....OOOOOOOO...###..o  ",
"        o....OOOOOO..........o  ",
"         o.....OOO..........o   ",
"         oooooo..........ooo    ",
"         ooo   o........o       ",
"        ooo     oooooooo        ",
"        $$o                     ",
"        $$                      ",
"                                ",
"                                "};
