/* XPM */
static char * top_right_xpm[] = {
"78 128 20 1",
" 	c None",
".	c #10400C300C30",
"X	c #3CF334D338E3",
"o	c #71C65D755965",
"O	c #820769A66185",
"+	c #618551445965",
"@	c #596545144514",
"#	c #2CB2249228A2",
"$	c #8E3871C66185",
"%	c #186110401451",
"&	c #208118611C71",
"*	c #000000000000",
"=	c #A6998E3871C6",
"-	c #34D320811451",
";	c #492430C21861",
":	c #596541032081",
">	c #6DB64D3434D3",
",	c #861761854103",
"<	c #34D328A21451",
"1	c #9A6982076595",
"                                                                              ",
"                                                                              ",
"                                                                              ",
"                                                                              ",
"                           .XoO+@#.                                           ",
"                        .X+OO+o@@@+@#.                                        ",
"                     .#+OO+oOOo@X#X@@+@#.                                     ",
"                  .#+OOooO$$$Oo@X##XX#X@+@#.                                  ",
"               .#@OO+@++oO$$$O+XXXXX#%.&X+++X#.                               ",
"             #@OOoX#X@oOOOOOO+@XXXXX#%.%X+OO+++X&.                            ",
"          &@OOoooX##X+OOOOOo+@XXXXXX#..%X@O$$$o+++X&                          ",
"       &@OOo+@+o+X&#X+OOOO+@XXXXXXX#&..&X@oOOOo@XX@+@X&                       ",
"    %@OOOOOOo+++@#%&X+OOOo@XX#XXXX##&.%#X@@+@@@@X##&X@+@X%                    ",
" .XoO+XX+O$$Oo+@X&%&X+oOo+X####X##&%..&#XXXXXXXXX&%.%%&X@+@X.                 ",
" OoX&.%X+O$$OO@X#%&#X@@++@X##&##&%%..%&#XX#######%..%.%&XX@@+                 ",
"*oX...&X+O$=$O@#%.&#XXXXXXX##&&%%%%%%&###&%%%%&&&..%%%.%#X+O#                 ",
"*Xo..%#X+O$$OoX&..###X#######&%%&#####&&&...%&&&&%&&&&&%&X+O&                 ",
"*%O&&#X@+OOOo@X%..&##&&%%%%&&%.&#XXXX#&%...%##XX##&&###%%X++%                 ",
".*oXXX@@@+++@X#...&&&&%...%%%%&#X+@@X#%.%%#XX@@@@X#####%%X+X.                 ",
"%*XoX+++@XXX#&%.....%......%%%#X+Oo+X#..&#XX@ooo+@X####%.#+&                  ",
"&*%O@oo+X#&%%.......%%%%&&&###X@+OOo@&..#XX+oOOOo+@XX##%%X+%                  ",
"-.*O+oo@#&%.%......%&&%%&#XXXXX@oO$O@&.%XX@oOO$$OO+@X#&.&XX.                  ",
";%*@o+@X#%&&#&&%%%&###&%#X+oo+@@oOOO@#%&X@+oO$$$$OO+X#%.&X&                   ",
";&*&O@X#%%&##X#&%%#XX#&&X+O$$O++oOOo@#&#@++OO$$$$$OoX&..#@%                   ",
":X.*O@#%..&XXXX#%&#####X@O$$$OOooOO+X&&#@++OO$$OO$$OX%.%XX.                   ",
">+%*@+%...&X@@@#%%####X@O$$$$$$Oo++@X&%#@++OOOOOO$$OX%.%X&                    ",
",$&*&O%..%&X@+@#%.&%&#@O$$OOO$$Oo+@XX%.&X@+OOOOOOOOoX&%#X%                    ",
",$X.*OX.%&#X@+@#&.%.&X+OOOooO$$O+@XX#%.&XX@OOOOOOOO+X&&#X.                    ",
">,@%*@+%&#X@@@XX#%%.&@OOo++oO$$O+@XX#&%%#X@O$OOOOOo@#%&#&                     ",
":::&*#O%#X@+@XXX#&&%#+OO+@+O$$OO+@XX#&&%&X@O$$O$OO+X#%&#%                     ",
";;:<..OX#@+o@XX#X&&&Xo$Oo+oO$$Ooo+@XX##%%#@O$$$$Oo@#&%&#.                     ",
"-;:@%*@@X+OO+X##X&.&@O$$OOO$$Oooo+@@XX#%%#@OO$OOo+X&..&&                      ",
";:>,&*#O@OOO+XX##..#@O$$$$$$OOOOOo+@@XX%%#@+oOoo+@X&..&%                      ",
":>,,X..O@O$$o@X&%.%X+OOOOOOOOOOOOOo+@XX%.%X@@@@@@X#%..&.                      ",
":>,,@%*@+OOOO@X%.%#X+ooo++ooOOOOOOOo+X#%..##XXX@XX#%%%&                       ",
">,,>:&*#O+OOO+X&%#X@@@@@@@@+oOOOO$OO+X#&%%&%%&XXX#&%%%%                       ",
">>>>:<..O@OOO@X##XX@XXXXXX@+oOO$$$$O@XX#XX#&.%#XX#&%%%.                       ",
">>>>>@%**@oOo@###XXX#&&&#XX@+oO$$$Oo@XXX@@X#%.%###&%..                        ",
">,,,$$&**O++@X&&###&%..%#XXX@oO$$$O+@@@+oO+@X&.&##&%..                        ",
",$1=11X..O@@X#%.%&&&%..%#XXX@+O$$Oo@@+O$$$Oo@#.%##&%..                        ",
"$1===1+%*+@X#&%.%%&##%.%#XXXX+O$OO++oO$$$$$O+#%&##&%.                         ",
"1===11O&*XO#&&&&###X#%.%#XXXX+oOO++OO$$OO$$$oX%%##&%.                         ",
"=1$$111X..OX&##XX@@XX&.%#XXXX@++++oO$Oo+OO$O+X&%&&%%.                         ",
"1,,,,11+%*+@#XX@+++@X&..##XXX@@@@+OOOo@@+O$O+X#&%...                          ",
",>>>,11O&*XoX@+ooo+@X&..&##XX@@@@oOOo@@@+OOO@XX##%..                          ",
">:::>1=$#..OX+OOOOo@X&...%#XX@@X@O$O+XX@oOO+XXXXX#%.                          ",
">:::,1=O&*%OXoO$$Oo@X&%...&XX@@@+O$O+X@oOO+@XX@+@X#%                          ",
">::,111+%*XoXo$$$Oo@#&%%%..#X++oo$$O+@+OOO@XXX+OO+X&                          ",
",>>1=1,X.*o@Xo$$$Oo@#&&&#..&@oOOO$$OooOOOo@XX@+OOO+#.                         ",
"1$111,>&*%O#X+O$$Oo@X####%.&Xo$$O$$$OOOOo@@X@+o$$$o#.                         ",
"1=1$,::%*Xo&X@O$$$O+X####%%&XO$$O$$$$OOo@@@@@+O$$$oX%                         ",
"11$,>:<.*O@&#X+O$$Oo@X#&&..&@O$$OO$OOo+@@X@@+oO$$OoX&.                        ",
",,>>>:&*&OX##X@O$$$O+X#%%..#@O$$OOOo@XXXX@@++oOOOO+@X%                        ",
">>>>>:%**oX#&#Xo$$$O+X#.%.&X@OO$$$O+X###X@+++oOOOo+@X&                        ",
"::>>><.*O+X###X+O$OOoX&.&#XX@+oO$$O@#%%#X@+++++ooo++@X.                       ",
";:>>>&*&O@XX##X+O$$$o#..#X@@XX@oOOoX&..&X+o+@@@+ooooo+%                       ",
":>>>:%*@o@XXXX@+O$$O+#.&X@@XX#XX+o+X%..&X+++@@@+oOOOOO&                       ",
":,,><.*O@XX@@++oOOOO@#%#@+@X#&&XX@X#%..&X@@@XX@+ooOO$$X.                      ",
",,,,&*&OXX@+oOOOOOo+X##X++XX&%&##X#&..%&XXXXX@@++oOOOO+%                      ",
",1$@%*@+#X@oO$$Oo+@X&&X@+@X#%.%%%%%...%&##XX@@+@+oOOO@@&                      ",
"111X**OX#X@O$$$Oo@X&.&X@@X#&%.....%...%%&&#X@++++OOO+XXX.                     ",
"=1$&**O##X+O$$$OoX#%%#XXXX#%......%%%%%%%&#X@++++O$O@XX+%                     ",
"==+%*@+XX@OOO$$O+X&%##XXX##%..%%%&##X#&%&#X@++++oO$O@X@+&                     ",
"==X..O@X@+O$$$$O+X&&#XXX##&%..&%&&#X@X#&&XX@+++oO$$O@@@oX.                    ",
"1O&*#O@@+OO$$$OO+X&&######&%..&&&#X@+@X##X@++++oO$$O+++O+%                    ",
"$X.*++++oO$$$OOo@X#%%&####&...&&#X@oO+X##X+oo++oOO$OooOOO&                    ",
",&*.O@oOOOO$OOo+@X#%.%#XX##%..##X@+OO+X##@oOO+++oO$OOOOOOX.                   ",
"@%*#OOOOOOOOOO+@XX#&%.%#XX#%.%#X@oOOo@X##@OOOo@@+O$$OO$OOo&                   ",
"X.*+oOOOOOOOOO+X#####%.&XXX&.&X@oOOO+X#&#@OOOo@@@O$$OO$OOOX.                  ",
"&**OoOOooOO$$O@X&%#XX&%&X@X&.&@oOOOo@X&&X@oOOo@X@o$OOOOO$$+%                  ",
"%*XOOOo+oOO$$O@#%.&XX#&#X@@&.#+O$OO+@#%%XX@oo+@XX+OOOoOO$$O&                  ",
".*++$Oo++O$$$oX#%.%#XX#&#X@#.XO$$$o@X&.%#XX@++@XX@oooooO$$$X.                 ",
"*.OoOOo+oO$$O+X&%.%&###&&#X&%XO$$O+X#.%%##X@++@XXX+oOOOOOOO+%                 ",
"*XOOOOOoOO$OO+X&%..%&##&%%&.&XO$$O@#%...%&XX@@@XXX+OO$OOo+oO&                 ",
"*o+$$OOOOOOO+@X&%...%&##&...&Xo$$O@#.....&XX@@XXXX+O$$$Oo+oOX.                ",
"*O+$$$$OOOo++@X&.....%####&%&X+OOO@&.....&XXXXXXX@+OO$$OOooO@.                ",
"*.XO$$$$OO++@X#%..%..%#XX@X###X+Oo@#%....&XXXXXXX@@++oOOOOo**.                ",
"**.&X+O$$O+@X#%.%%&..%#X@+@X##X@++@X&....%#XXXXXXXXX@@oOO+X&*                 ",
"****.%&X+O+XX%.%&&%%%#X@++@XX##X@@@X#%....&#XXXXXXXXX@+X&%.**                 ",
"*.*****.%&XX&.%&#&%%&XX+++@XX###X@@XX&....&#XXXX#&&&#&%.******                ",
",>@&.*****.%%%#X#%.%#X@+++@XX###XXXXX#%...%#XXXX&%%%.*****&@1=%               ",
"1O,,>@&.*****.%&#%.&X@+++@@XXXX##XXXX#&...&##X#&%.*****&+1=11OX.              ",
"$==1,>,>@&.*****.%%#X@+++@XXXXXX##XXX#&%.%&&&%.****.#+1=111===O&              ",
"===1>;;>,,>@&.*****.%&X++@XXXXXX#&##XX#&%%%.****.<o1=111=======X.             ",
"==1,:::>,1$,,>@&.*****.%&X@XXXXX#&&###&%.****.XO==11111===111==+%             ",
"==1>;;>,11==1$,,>@&.*****.%&XXX##&%%%.****.@O==1111=11==11$$$1=O&             ",
"=1,:<;>$1======1$,,>@&.*****.%&#&%.****%@O=1$>,$1======1,,,,,$1=X.            ",
"11,:-:,1=====1111=1$,,>@&.*****.****%@1=1$,>>>$1======1,>>>>,$1=+%            ",
"1$>:;>1====1111$1===1$,>,>@&.**.&@>$11,,>>>>>,11==1111$,>:>>,11=O&            ",
"$,:;:,1===111$$11=11$,>:;:>,>:@,1,>:;:>>>>>>,$1===1111,>>>>,111=1X.           ",
",>::,1==111$$,$1==1,,,>:<<;:>>>:;<-<::>>>>>>,$1===111$,,>>,11=11,>&           ",
">:;>1===111$$11==1,,>>:;-<;:;;;;<--<:::::::>>,1===111$,,,,11==1,>:<.          ",
":::,1=11111111=11,,>>>:;-<;::;;<--<;;;;:::::>,1111111$$,$11=11$,>;-.          ",
";;>1=====111===1,>>::::;-<::;;-------<;;::::>$111$$$$$$$$1==11,>:;-&          ",
"-:,11=========1,>>:::::<-<::;---<--&--;;:::>,111,,,$$1111===1$,>:<<<.         ",
"<:,$11111====1$,>:::>::<-<;;<----<-&&-;;:::,11$,>>,11======11,>:<--<%         ",
";:>,,,$$11==11,>:::>>>:;--<------<;---;;::,1=1>>>,$1======1$,>:<-&--&         ",
"<::>>,,$11==1,>::::>>>:<-&-&--<<<;;--<;::>$11,>>,11111==11,,>:;-<<<--.        ",
"-<::>>,$1111$,>:::>>>:;--&---<;;;;<-<;::>,111,,$111$,$$$,,>::<<;:;<--.        ",
"<-;:>>,$111$,>:::>>>>:;----<;;;;;<--<;::>$1111111$,>>,,,>>:;<-;::;-&-&        ",
";<;:>,,$$1$,>:::>>>>:;<---;;;:;;<----;::,$11===1,>::>>>>::;--;::;--&<<.       ",
":;;:>>,,$$,>:::>>>>::;<--<;;;;;<-----;:>,$11==1,>:;:::::;---<;:;<&-<:@%       ",
";;::>>,,,,,>>>>>>>>::;<--<;;<<--<---<;:>>,$111,>:;;::::;<---;;;<-&<:>,&       ",
"-;:>>>>,,,,,>,,,,>>>::<--<<<--<<<---;::>>,$1$,>:;;;;;;<--&&-<<-&--:>,$X.      ",
"-;>>>>,,$$$$$$,,,,>>>:;<-<<---;;;--<:::>>,$$,,::;;;;;;<--------&-;:>,,@%      ",
"<:>>>>,$111111$,,,,,>:;;;;;<-<;<--;;:::>,,$$,>:;;;:;;;<<<---<;;--;:>>>>&      ",
":>>>>,,11====11$$$,,>:::::;<<;;<-;::::>>,$$,,>::::::;;;;;;;;:::;<;::::;<.     ",
":>>>,,11=====111$$$,>>:::;<<<<<;;:::>>>,,$$,>:::::::;;;;;;:::>>:<<;;<--<%     ",
">>,,,$1==11===111$$,>>:::<--;<;::>>>>>,,,$,,>:::>:::;;;;;::>>>>:<----&-;%     ",
">,,,$1=11111==1111$,,>>:<---;;::>>>>>,,,,,,>>:>>::;<<--<;:>,,>:;---&--;:%     ",
",,,$1111$,11==111$$,>>:<-&<<;:>>>>>>,,,,,>>>:::::;-----<:>>,>>:<--<<;::@%     ",
"$11111$,,,$1==111$$,>:;---<;:>>>>>>,,,>>>::::::;;;;;;-&;:>,,>:;---;;:>>X.     ",
"1===1$,>,,$1==11$$,,>;--;;;:>>>>>>>,,>::::::::;<<:::;<;:>,,>>:<-<;::>>,&      ",
"===1$,,>,$1==1$$$$,>;<;--;:>>>>>>>,,>::;;:::;<<<;:::<;:>,,,>:;--<;:>>>@%      ",
"==11$,,,$1==1$,,,,>;-<:;-:>,>>>>>,>>:;<<;::;;<;::>:;-:>,,,>::<--<;::>>X.      ",
"=111$,$11=11$,,,,,:;--;;:>,,,>>,,,>:;---;;<-<;:>>::;;>,,,>:;;---<:::::&       ",
"=111111==11,,,,,,>:;;--;>,,,,,,,>>:;<--<;<-<::>>>:;;:>>>>:;;<---;::::;%       ",
"=========1$,,,,,>:<-;<;:,$,,,,,>:;<----<;;;:>,,,>:-;:>::;<--<--<;::;;<.       ",
"========1$,,,,,,>;-&-;:>,,,,,>>:;-<<;;;::>>,,$$,>;-<::;<---<;--<;:;<-&        ",
"=======1$,>>,,,>:--%-;:>,,,>>:;;;::::>>,,,$1111,>;--<<-&&&-<;-&-;;<--%        ",
"111111$,,>>>>>>:<-<--<:>>>>::;;:>,>>,,$1111=11$,>:;-------<;;---<<---         ",
"1111$,,>>:>>>::<-<;<-<;::::;;;:,,$$$111======1,>::;-&&---<;;;<------&         ",
"111$,>>:::::::<<;;;;<-<;::;;:>,11111==11===11,,>::;---;;;;;;;;<-----          ",
"11$,>::;;::::<--;::;;-<;;<-;>,1=111===1===11,,>::;<<;::;;;;::;;----<          ",
"11,>:;;<;::::<-<:::;<-<;;<;:,11======11==1$,>>:::<-:>>:;<;::::;---<&          ",
"1$>:<&--<:::;<<;::;<--<---:>$1==========1$,>:::;<<:>>>:;<;::::;---<%          ",
"$,:<-&--<:::;;;:::;---<--;>,111========1$,>::::<-:>,>:;--;::::;----.          ",
">:;<<;;<-;:;-;::::<-&&--<:,$1111======1$,::;;<<-;:>,>;-&-;::::;<--&           "};
