/* XPM */
static char*edit[]={
"32 32 17 1",
"i c #808080",
"j c #c3c3c3",
"o c #000080",
"l c #c0c0c0",
"f c #808000",
"d c #ffffbe",
"# c #000000",
"c c #ffa85a",
"e c #ff8000",
"b c #400000",
"n c #004040",
"g c #303030",
"a c #800000",
". c None",
"k c #ffffc0",
"m c #585858",
"h c #ffffff",
"................................",
"................................",
"................................",
"................................",
"................................",
"............................###.",
"...........................#abb#",
"..........................#ca#a#",
".........................#cdeaa#",
"........................#cdeef#.",
".............##........#cdeef#..",
"............#..#......#cdeef#...",
".........##.#..#.....#cdeef#....",
"........#..#.g###...#cdeef#.....",
".....##.#..###hii###cdeef#......",
"....#..#.g##hiihhh#cdeef#.......",
".##.#..###hiihhjj#cdeef#........",
"#..#.g##hiihhjjhh#dgef###.......",
"#..###hiihhjjhhi#kgdf#hii##.....",
".g##hiilhjjhhiih#gk##iihhjl##...",
"##hiilhjjhhiihhj###iihhjjhhhl##.",
"##mmljjhhiihhjjhhgihhjjhhhlmm#..",
"#miimmhiihhjjhhiiggjjhhhlmmll##.",
"##mmiimmhjjhhiihhggghhlmmllmm#..",
"##nnmmiimmhiihhjjggggmmllmmnn##.",
"..##nnmmiimmljjhhggmmilmmnn##...",
"....##nnmmilmmlhlmmiimmnn##.....",
"......##nnmmllmmmiimmnn##.......",
"........##nommlllmmnn##.........",
"..........##oommmoo##...........",
"............##ooo##.............",
"..............###..............."};
