/* XPM */
static char *magick[] = {
/* columns rows colors chars-per-pixel */
"32 32 40 1",
"  c #000000",
". c #00003c",
"X c #003c00",
"o c #3c0000",
"O c #3c3c00",
"+ c #303030",
"@ c #595959",
"# c #000080",
"$ c #0000be",
"% c #0000ff",
"& c #008000",
"* c #00be00",
"= c #00ff00",
"- c #008080",
"; c #00bebe",
": c #00ffff",
"> c #800000",
", c #be0000",
"< c #be5900",
"1 c #ff0000",
"2 c #800080",
"3 c #be00be",
"4 c #ff00ff",
"5 c #808000",
"6 c #bebe00",
"7 c #ff8200",
"8 c #ffaa59",
"9 c #ffff00",
"0 c #808080",
"q c #a0a0a4",
"w c #bebeff",
"e c #beffbe",
"r c #beffff",
"t c #ffbebe",
"y c #ffbeff",
"u c #ffdfaa",
"i c #ffffbe",
"p c #c0c0c0",
"a c #dfdfdf",
"s c #ffffff",
/* pixels */
"&&&&&&&&                   &&&&&",
"&&&&&&& ssswssswssswssswss  &&&&",
"&&&&&&& sssasssasssasssass s &&&",
"&&&&&&& aaaaaaaaaaaaaaaaaa sw &&",
"&                sp0   ass wss &",
" ;;;;;;;;;;;;;;;;  <ii 0ss      ",
" :--------------+  6uui sss0000 ",
" ;--------------- 0 <ua 0wwwppw ",
" ;-+ = == =   :-+ 0 <uus ssasss ",
" :-- = =   =  ;-- 00 5ui 0swsss ",
" ;-+ =  = ==  :-+ 00 7uui sasss ",
" :-;;;;;;;;;;;;-- -w0 <ua 0aaaa ",
" ;--------------+ 0p0 5uus wsss ",
" :-pppppppppppp-- 0pp0 <ui 0sss ",
" ;-p@@ p@@ p@@ -+ 0pp0 6uui sss ",
" :-a@@ p@@ a@@ --.-www0 <ua 0aa ",
" ;-            -+ 0psp0 <uus ss ",
" :-pppppppppppp-- 0pssp0 5ui 0s ",
" ;-p@@ a@@ p@@ -+ 0pssp0 7uui s ",
" :-a@@ p@@ a@@ -- -wwwww0 <ui p ",
" ;-            -+ 0psssw0 <uui  ",
" :-pppppppptttt-- 0pssswp0 <us  ",
" ;-p@@ p@@ t,, -+ 0pssswp0 6us> ",
" :-p@@ a@@ t11 --.-waaaaaw0  >> ",
" ;-            -+ 0pssswspp00   ",
" ---------------- 0psssasspwp00 ",
" ++++++++++++++++ 0pssswssswppp ",
"&                ;;waaaaaaaaaaa ",
"&&&&&&& 000-000-00wwrrrwsssasss ",
"&&&&&&& pppwpppwwwqwsssassswsss ",
"&&&&&&& ssswssswsssassswsssasss ",
"&&&&&&&&                       &"
};
