/* XPM */
/* Drawn for the K Desktop Environment */
/* See http://www.kde.org */
static char*xcalc[]={
"32 32 7 1",
"# c #000000",
"e c #ffffff",
"d c #c0c0c0",
"c c #004040",
"b c #008080",
"a c #c0ffff",
". c None",
"................................",
"................................",
"................................",
"................................",
"................................",
"................................",
"..#############################.",
".#aaaaaaaaaaaaaaaaaaaaaaaaaaaaa#",
".#abbbbbbbbbbbbbbbbbbbbbbbbbbbc#",
".#abbbbbbbbbb###############bbc#",
".#abbbbbbbbbbdeeeeeeeeeeeee#bbc#",
".#abbbbbbbbbbdddddddddddddd#bbc#",
".#abbbbbbbbbb###############bbc#",
".#abbbbbbbbbbbbbbbbbbbbbbbbbbbc#",
".#abbaa#baa#baa#baa#baa#baa#bbc#",
".#abbad#bad#bad#bad#bad#bad#bbc#",
".#abb###b###b###b###b###b###bbc#",
".#abbbbbbbbbbbbbbbbbbbbbbbbbbbc#",
".#abbaa#baa#baa#baa#baa#baa#bbc#",
".#abbad#bad#bad#bad#bad#bad#bbc#",
".#abb###b###b###b###b###ba##bbc#",
".#abbbbbbbbbbbbbbbbbbbbbbbbbbbc#",
".#abbaaaaaa#baa#baa#baa#baa#bbc#",
".#abbaddddd#bad#bad#bad#bad#bbc#",
".#abb#######b###b###b###b###bbc#",
".#abbbbbbbbbbbbbbbbbbbbbbbbbbbc#",
".#acccccccccccccccccccccccccccc#",
"..#############################.",
"................................",
"................................",
"................................",
"................................"};

