/* XPM */
/* Drawn for the K Desktop Environment */
/* See http://www.kde.org */
static char*mathematica[]={
"32 32 22 1",
"# c #000000",
"a c #800080",
"b c #808080",
"c c #ff00ff",
"d c #c0c0c0",
"e c #585858",
"f c #303030",
"g c #800000",
"h c #0000c0",
"i c #0000ff",
"j c #585858",
"k c #c05800",
"l c #a0a0a4",
"m c #000080",
"n c #ffa858",
"o c #400000",
"p c #ff8000",
"q c #004000",
"r c #008000",
"s c #000000",
"t c #800080",
". c None",
".............#..................",
"............#a#........b#.......",
"....##b....b#cc#...db####.......",
"....#ef##bd#accg#b###hih#.......",
"....e#bbj###ccccg#hiiih##.......",
"....b#jbbb#acccca#iiii#k#.......",
"....l##bbb#ccccccg#iim#n#.......",
".....#m#b#accccccc#hi#nn#.......",
".....bmm##ccccccccc##nnn#.......",
".....l#m#cccccccccco#nnn#b......",
".....b######################b...",
"...b##g#j#mmmm#nnnnnn#occcgg###b",
".b##gcc#bj#mmm#nnnnnp##cccccccc#",
"##gccc#ebb#omm#nnnnn#ih#cccccc#.",
"#cccce#bbbb#mm#nnnnkhiih#cccc#..",
".#ccc#bbbbbj#m#nnnk#iiii#occ##..",
"..#b#ebbbbbb#m#nnp#iiiiih#o#bb#.",
"...##bbbbbbbjo#nn#iiiih####bbbb#",
"..##bbbbbbbbb##n#iiih#qrr#bbbe#.",
".#rr#####jebbj##iih##r####bb##..",
".b##rrrre###########jjebbsf#b...",
"...b#####hhiiii#jbbbbbbbb##.....",
".....b#iiiiiii#p#bbbbbbbj#......",
"......#hiiiii#nn##bbbbbb##b.....",
"......#hiiii#nnn#m#bbbbb#gj.....",
"......j#iii#nnnp#mm#bbbj#c#.....",
"......b#ii#nnp####mm#bb#gc#.....",
".......#i#np##b.#p##t#b#cc#.....",
".......#jn##b....#p###j#j##.....",
".......###b.......#..b#.........",
".......b........................",
"................................"};

