/* XPM */
/* Drawn for the K Desktop Environment */
/* See http://www.kde.org */
static char*nedit[]={
"32 32 8 1",
". c None",
"b c #000080",
"d c #c0c0c0",
"f c #585858",
"e c #a0a0a4",
"a c #000000",
"# c #0000ff",
"c c #ffffff",
"................................",
"####.....####a..................",
"a#bba....a#baa..................",
".#bb#a....#ba...................",
".#bbb#a...#ba...................",
".#babb#a..#ba...................",
".#baabb#a.#ba...................",
".#baaabb#a#ba...................",
".#bacaabb##ba...................",
".#baccaabbbba...................",
".#bacaaaaaaaaaaaaaaaaaaaaaaaaaa.",
".#bacaddddddddddddddddddddddddae",
"##bacadeeeeeeeeeeeeeeeeeeeeeeeae",
"bbbbaadeedddedddddddeeeeeedddeae",
"aaaaaadeedddedddddddeeeeeedddeae",
".....adffffffffffffffffffffffeae",
".....adfccccccccccccccccccccdeae",
".....adfceaaaaaaecfcccccccccdeae",
".....adfccccccccccccccccccccdeae",
".....adfccccccccccccccccccccdeae",
".....adfceffeeaaecffccccccccdeae",
".....adfccccccccccccccccccccdeae",
".....adfcccaeaacccccccccccccdeae",
".....adfccccccccccccccccccccdeae",
".....adfccccccccccccccccccccdeae",
".....adfceaaaaaaefccccccccccdeae",
".....adfccccccccccccccccccccdeae",
".....adfdddddddddddddddddddddeae",
".....adeeeeeeeeeeeeeeeeeeeeeeeae",
".....aaaaaaaaaaaaaaaaaaaaaaaaaae",
"......eeeeeeeeeeeeeeeeeeeeeeeeee",
"................................"};
