/* XPM */
static char * nogo_xpm[] = {
"32 32 7 1",
" 	c None",
".	c #FFFF00000000",
"X	c #000000000000",
"o	c #C71BC30BC71B",
"O	c #FFFFFFFFFFFF",
"+	c #596559655965",
"@	c #861782078617",
"                                ",
" ..                          .. ",
" ...               XXXXXXXX ... ",
" X...             XoOOO+XXX...X ",
"  X...            XOOOoXXX...X  ",
"   X...          XoOOO+XX...X   ",
"    X...  XXX    XOOOoXX...X    ",
"     X...XoOoXX XoOOO+X...X     ",
"      X...OOOOoXXOOOoX...X      ",
"       X...OOo+X@OOO+...X       ",
"      XXX...o+XX@OOo...X        ",
"      XooX...XXX@OO...X         ",
"      XoOoX...XX@O...XX         ",
"      XoOOOX...X@...XX          ",
"      XoOOO@X......XXX          ",
"      XoOOO@XX....XXXX          ",
"      XoOOO@XX....XXXXX         ",
"      XoOOO@X......XXXXX        ",
"      XoOOO@...XX...XXXXX       ",
"      XoOOO...XXXX...XXXXX      ",
"      XoOO...XXX++X...XXXXX     ",
"      XoO...XXXX   X...XXXX     ",
"      Xo...XXXXX    X...XX      ",
"      X...X@XXXX     X...       ",
"      ...XO@XXXX      X...      ",
"     ...XOO@XXXX       X...     ",
"    ...XOOO@XXXX        X...    ",
"   ...XoOOO@XXXX         X...   ",
"  ...XXoOOO@XXXX          X...  ",
" ...X XXooO@XXX            X... ",
" ..X    XX@@XX              X.. ",
"          XXX                   "};
