/* XPM */
static char *magick[] = {
/* columns rows colors chars-per-pixel */
"48 48 16 1",
"  c #000000",
". c #00003c",
"X c #3c0000",
"o c #3c3c00",
"O c #303030",
"+ c #595959",
"@ c #be5900",
"# c #808000",
"$ c #bebe00",
"% c #ffaa59",
"& c #808080",
"* c #a0a0a4",
"= c #c0c0c0",
"- c #dfdfdf",
"; c #ffffff",
": c None",
/* pixels */
":::::::::::::::::::::::        :::::::::::::::::",
"::-;;;;;;;;;;;;;;;;;;;       ++ ;;;;;;;;;;;;;;.:",
":-;;;-;;;-;;;-;;;-;;;         +O ;;;;;-;;;;;;&.:",
":;-;-;-;-;-;-;-;-;-;              --;-;-;;;;;+.:",
":;;-;;;-;;;-;;;-;;;-              ;;-;;;;;;;*&.:",
":;-;-;-;-;-;-;-;-;-;   O           -;-;--;;**+.:",
":;;;;-               .*+.  +*-+.         +***&.:",
":;-;-; +++&+++&&&&&& ;-;; .-;;*    &&&&&&;&**+O:",
":;;-;; +++++&&&&&&&& - O;.O; &;O   ++ O++;***+.:",
":;-;-; +&+&&&&&**&** - O+.X; &-+   + X+O+;*=*+.:",
":;;;;- ++&&&&&&&**** O+$$$$$ +;    XXOO++;***+.:",
":;-;-; +&&&*********  $$$$$$$$$     OO+++;***&.:",
":;;-;; &&&&&&******* @$$$$$$$$$X   OO++++;***+.:",
":;-;-; &&*********** o$$$$$$@$$  . O+++&&;***&.:",
":;;;;- &&&&***&**&**O+#$$$@$$$=O  + +++++;***+.:",
":;-;-; &&***********O&=@$$$*=---    .++++;***&.:",
":;;-;; &&&&***&**&** &-*&&==-;;;.    ++++;***+.:",
":;-;-; &&**********. -;--**-;;;;-     ++&;***&.:",
":;;;;- &&&&&**&&*&O *;;;--;;;;;;;     +++;***+.:",
":;-;-; &&**&***&** .;;;;;;;;;;;;;*     ++;***&.:",
":;;-;; &&&&&&*&*=  &;;;;;;;;;;;;;-      +;***+.:",
":;-;-; +&&&**&**   *--;;--;;;-----O     O;***&.:",
":;;;;- ++&&&&&&&  X-;;;;-;;;;;;---; O    ;*&*+ :",
":;-;-; ++&&&&&&   *;;;-;;;;;;;;;;--       **&+.:",
":;;-;; ++++&&&& O ;;;;;;;;;;;;;;;;--      &&&+.:",
":;-;-; +&+&+&&&  &;;;;;;;;;;;;;;;;;;.     &&&+ :",
":;;;;- ++++++& O ;;;;;;-;;;;;;;;;;;;.      &&+ :",
":;-;-- +++&+++  +;;;;;;-;;;;;;;;;;;;+      &&+ :",
":;;--- ++++++   -;;;;;;-;;;;;;;;;;;;&      &&+ :",
":;---- +&+++& . -;;;;;;-;;;;;;;;;;;;*       &+ :",
":;---- +++++  O -;;;;;;-;;;;;;;;;;;;*       &+ :",
":;---- +++&+  . -;;;;;;-;;;;;;;;;;;;-       &+ :",
":;----*;;;;; $#O;;;;;;;-;;;;;;;;;;;;&.      &+ :",
":;--------=-$$$@+;;;;;;-;;;;;;;;;;=$$      &&+ :",
":;---------%$$$$#.;;;;;-;;;;;;;;;;$$$     $$&+ :",
":;--------=$$$$$$  -;;;;;;;;;;;;;;%$$    #$$&+ :",
":;*&+&+&&$$$$$$$$$  -;;;;;;;;;;;;-$$$@oo@$$$O+ :",
":&     $$$$$$$$$$$o  +-;;;;;;;;;;-$$$$$$$$$$$  :",
":::::::$$$$$$$$$$$$   -;;;;;;;;;;-@$$$$$$$$$$$::",
":::::::$$$$$$$$$$$$$  -;;;;;;;;;;*@$$$$$$$$$$$%:",
":::::::$$$$$$$$$$$$$=;;;;;;;;;;;* @$$$$$$$$$$$$$",
":::::::$$$$$$$$$$$$$$-;;;;;;;;;O  @$$$$$$$$$$$$:",
":::::::$$$$$$$$$$$$$$#;;;;;;;&   X@$$$$$$$$$$$::",
":::::::$$$$$$$$$$$$$$@           X$$$$$$$$$$::::",
":::::::@$$$$$$$$$$$$$@X          X@$$$$$$$@:::::",
":::::::&   @@@@$$$$$@#X          X@@$$$$@:::::::",
"::::::::::::::#@@@@@#o::::::::::::#@@@@@::::::::",
":::::::::::::::::o#o+::::::::::::::o##o:::::::::"
};
