/* XPM */
/* Drawn for the K Desktop Environment */
/* See http://www.kde.org */
static char*wabi[]={
"32 32 11 1",
"i c #000000",
"g c #0000c0",
". c None",
"d c #ffffc0",
"c c #c0c0c0",
"e c #585858",
"# c #000000",
"b c #808080",
"h c #ffff00",
"f c #0000ff",
"a c #ffffff",
"................................",
"................................",
"....................#######.....",
"................####aaaaaaa#....",
"............####aaaaaaaaaaa#....",
"........####aaabcadadadadad#....",
"....####adaadaabcdddddddddd#....",
"...#edddddddddabcddfddddddd#....",
"...#eddddddddddbcdgfddddfdd#....",
"...#eddddddddddbcddgfdhdhdh#....",
"...#eddgdhdgddffchfhhfffdhd#....",
"...#edffhddfhfhfchfhfhhfhhh#....",
"...#edhfdfhfdfhfffhfhhhffhh#....",
"...#ehdgfffhhffbchhhhhhheee#....",
"...#ehhffhhhhhhbchhheeeeaaa#....",
"...#ehhhhhhhhhhbbeeeaaaaaaa#....",
"...#ehhhhhhheeebcaaaaaaaaaaa#...",
"...#ehhheeeeaaabcaaaddddddda#...",
"...#eeeeaaaaaaabcadddddddddd#...",
"...#eaaaaaaaaaaebdddddhdhddd#...",
"...#eaadddddddaebddhdhdhdddh#...",
"...#eddddddddddebdddhdddhhdd#...",
"...#edddhdhdhddebddhdhdhdhhh#...",
"...#eddhdhdhdddebdhdhhhhhhhd#...",
"...#edhdhdhdhdhebdddhdhhhddh#...",
"...#edhdhhdhdhdebdhdhhhhhhhd#...",
"...#ehdhddddhdhebddhdhhhi###....",
"...#eddhhhhhhhhebdhh####........",
"...#ehhdhhhhhhhe####............",
"...#edhhhhhh####................",
"...#ehdh####....................",
"....####........................"};
