/* XPM */
/* Drawn for the K Desktop Environment */
/* See http://www.kde.org */
static char*xclock[]={
"32 32 10 1",
"# c #000000",
". c None",
"c c #800000",
"d c #c00000",
"h c #585858",
"g c #ffffff",
"b c #ff0000",
"e c #808080",
"f c #c0c0c0",
"a c #ffc0c0",
"................................",
"................................",
"................................",
"................................",
"....#######################.....",
"...#aaaaaaaaaaaaaaaaaaaaaaa#....",
"...#abbbbbbbbbbbbbbbbbbbbbc#....",
"...#abdddddd#######dddddddc#....",
"...#abdddd##eeeeeee##dddddc#....",
"...#abddd#eeefffffeee#ddddc#....",
"...#abdd#eeffggeggffee#dddc#....",
"...#abd#eefgeggfggegfee#ddc#....",
"...#abd#efgggfgegbgggfe#ddc#....",
"...#ab#hefeggggegbggefee#dc#....",
"...#ab#efggfgggebggfggfe#dc#....",
"...#ab#efggggggebgggggfe#dc#....",
"...#ab#efefggggbggggfefe#dc#....",
"...#ab#efggggggbggggggfe#dc#....",
"...#ab#efggfgggggggfggfe#dc#....",
"...#ab#hefegggggggggefee#dc#....",
"...#abd#efgggfgggfgggfe#ddc#....",
"...#abd#eefgeggfggegfee#ddc#....",
"...#abdd#eeffggeggffee#dddc#....",
"...#abddd#eeefffffeee#ddddc#....",
"...#abdddd##eeeeeeedddddddc#....",
"...#abdddddd#######dddddddc#....",
"...#adddddddddddddddddddddc#....",
"...#ccccccccccccccccccccccc#....",
"....#############ccc#######.....",
"................................",
"................................",
"................................"};
