/* XPM */
/* Drawn for the K Desktop Environment */
/* See http://www.kde.org */
static char*edit[]={
"32 32 6 1",
"# c #000000",
". c None",
"b c #585858",
"a c #a0a0a4",
"d c #dcdcdc",
"c c #c0c0c0",
"...##########################...",
"..#aaaaaaaaaaaaaaaaaaaaaaaaaa#..",
"..#abaaaaaaaaaaaaaaaaaaaaaabb#..",
"..#abccccccccccaaaaaaaaaaaabb#..",
"..#bbbbbbbbbbbbbbbbbbbbbbbbbb#..",
"..#bddddddddddddddddddddddddb#..",
"..#bddbbbbbbddddddddddddddddb#..",
"..#bdddddcccccdccccdcdccccddb#..",
"..#bdddddcccccdcccddcddccdddb#..",
"..#bdddddaaacaaadccaacaacdddb#..",
"..#bddddddddddddddddddddddddb#..",
"..#bddbbbbbbbbbdddddddddddddb#..",
"..#bdddddaaaccadaccdcdacadddb#..",
"..#bddddddccddddcccddddcddddb#..",
"..#bdddddaaaadcdaaacdaacddddb#..",
"..#bddddddddddddddddddddddddb#..",
"..#bddbbbbbbbbddddddddddddddb#..",
"..#bdddddacdaaccdaacccaccdddb#..",
"..#bdddddccddddcdcddddddddddb#..",
"..#bdddddcacdddcacdddaddddddb#..",
"..#bdddddaaacaaadcdaacaacdddb#..",
"..#bddddddddddddddddddddddddb#..",
"..#bddbbbbbbbbbbddddddddddddb#..",
"..#bdddddcacdddcccdddcddcdddb#..",
"..#bdddddcccdddcccdddcddcdddb#..",
"..#bddddddddddddddddddddddddb#..",
"..#bddbbbbbbddddddddddddddddb#..",
"..#bddddcccccccccccccccccdddb#..",
"..#bddddddddddddddddddddddddb#..",
"..#bdddddddddddddddddddddddcb#..",
"..#bbbbbbbbbbbbbbbbbbbbbbbbb##..",
"...##########################..."};
