/* XPM */
/* Drawn for the K Desktop Environment */
/* See http://www.kde.org */
static char*xemacs[]={
"32 32 9 1",
"# c #000000",
"a c #ffffff",
"d c #808080",
"c c #c0c0c0",
"f c #a0a0a4",
"b c #585858",
"e c #ff0000",
"g c #ffff00",
". c None",
".....##########################.",
".....#aaaaaaaaaaaaaaaaaaaaaaaa#.",
".....#aaaaaaaaaaaaaaaaaaaaaaaa#b",
".....#aaaaaaaaaaaaaaaaaaaaaaaa#b",
".....#aaaaaaccbbbbdcddcaaaaaaa#b",
".....#aaaaabaaaaaaaaabaaaaaaaa#b",
"eeee##aeeeebaeeeeeeeebbdccaaaa#b",
".eee##aeeebaaeeeeeeeebaaaaaaaa#b",
".eeee#eeeebfaeeeeeeeebffaaaaaa#b",
"..eeeeeeebffaeeeebgggfggggggga#b",
"..eeeeeeebffaeeeebaaaaggggggga#b",
"...eeeeebfffaeeeeeeeebffccggga#b",
"...eeeeebffaaeeeeeeeebggggggga#b",
"...eeeeebffaaeeeebbbbbfbdddcaa#b",
"..eeeeeeebffaeeeebffffcfaaaaaa#b",
"..eee#eeebffaeeeebaaaaffaaaaaa#b",
".eee#f#eeebfaeeeeeeeebaaaaaaaa#b",
".eee#f#eeebfaeeeeeeeebbbddbdba#b",
"#####f#bbbbbbbbbbbbbbbffaaaaaa#b",
"..ffff#aafffffaaffffffffaaaaaa#b",
"......#aaaaaaaaaaaaaaaaaaaaaaa#b",
"......#aaaaaaaaabbcddbcdccaaaa#b",
"......#aaafeaaaaaaaaaaaaaaaaaa#b",
"......#aaeeeecbdccbbdcaaaaaaaa#b",
"......#aafeefaaaaaaaaaaaaaaaaa#b",
"......#aaadeaaaaaaaaaaaaaaaaaa#b",
"......#aaaaaaaaaaacdbcfdddcaaa#b",
"......#aaaaaaaaaaaaaaaaaaaaaaa#b",
"......#aaaaaaaaaaaaaaaabdbdcca#b",
"......#aaaaaaaaaaaaaaaaaaaaaaa#b",
"......#########################b",
"........bbbbbbbbbbbbbbbbbbbbbbbb"};

