/* XPM */
static char * xfig_cpm[] = {
"64 38 10 1",
" 	s None	c None",
".	c white",
"X	c #000000000000",
"o	c #EFBEEBADEBAD",
"O	c green",
"+	c pink",
"@	c blue",
"#	c orange",
"$	c #FFFF00000000",
"%	c yellow",
"                               ..                               ",
"                             ..XX...                            ",
"                            .XXooXXX...                         ",
"                          ..XoooooooXXX..                       ",
"                         .XXoooooooooooXX...                    ",
"                       ..XoooooooooooooooXXX...                 ",
"                      .XXoooooooooooXXooooooXXX...              ",
"                    ..XooooooooooooXOOXooooooooXXX...           ",
"                   .XXooooooooooooXOOOOXXoooooooooXXX..         ",
"                 ..XoooooooooooooXOOOOOOOXoooooooooooXX...      ",
"                .XXoooooooooooooXOOOOOOOOOXooooooooooooXXX...   ",
"              ..XoXooooooooXooooXOOOOOOOOOOXXoooooooooooooXXX...",
"             .XXXX+XXoooooXXoooXOOOOOOOOOOOOOXoXXXoooooooooooXX.",
"           ..XooX+++XoooXX@XooXXXXXXXXOOOOOOOXX###XoooooooooooX.",
"          .XXooX+++++XoX@@@XoX$$$$$$$$XXXXXOXX#####XoooooooooX. ",
"        ..XoooooX+++XoX@@@@XX$$$XXXXXXXOOOOOXX#####XooooooooX.  ",
"       .XXooooooXX+XXX@@@@@XXXXXoXOOOOOOOOOXoX#####XoooooooX.   ",
"     ..XooooooooooXXX@@@@@@XooooooXOOOOOOOOXooX###XoooooooX.    ",
"    .XXoooooooooooX@@@@@@@@XXXXXooXOOOOOOOXooooXXXoooooooX.     ",
"   .XooooooooooooXXXX@@@@@X%%%%%XooXOOOOOOXooooooooooooooX.     ",
"   .XXoooooooooooooooXXXXX%%%%%%%XoXOOOOOXooooooooooooooX.      ",
"    ..XXoooooooooooooooooX%%%%%%%XooXOOOOXoooooooooooooX.       ",
"      ..XXoooooooooooooooX%%%%%%%XooXOOOXoooooooooooooX.        ",
"        ..XXXooooooooooooX%%%%%%%XoooXOOXooooooooooooX.         ",
"          ...XXooooooooooX%%%%%%%XoooXOXooooooooooooX.          ",
"             ..XXoooooooooX%%%%%XoooooXXoooooooooooX.           ",
"               ..XXXoooooooXXXXXooooooXoooooooooooX.            ",
"                 ...XXoooooooooooooooooooooooooooX.             ",
"                    ..XXooooooooooooooooooooooooX.              ",
"                      ..XXoooooooooooooooooooooX.               ",
"                        ..XXXoooooooooooooooooX.                ",
"                          ...XXoooooooooooooooX.                ",
"                             ..XXooooooooooooX.                 ",
"                               ..XXXooooooooX.                  ",
"                                 ...XXoooooX.                   ",
"                                    ..XXooX.                    ",
"                                      ..XX.                     ",
"                                        ..                      "};
