/* XPM */
/* Drawn for the K Desktop Environment */
/* See http://www.kde.org */
static char*xfig[]={
"32 32 14 1",
"# c #000000",
"h c #ffffff",
"k c #a0a0a4",
"g c #004000",
"i c #008000",
"j c #00c000",
"l c #303030",
"b c #404000",
"d c #808000",
"c c #c0c000",
"a c #ffff00",
"f c #c05800",
"e c #ffa858",
". c None",
"......................##........",
".....................#ab#.......",
"....................#accd#......",
"...................#acccd#......",
"..................#accccd#......",
"..................#acccc#..###..",
".###..............#accccd##aaa#.",
".#ee####....######dccccccaacccd#",
".###eeee####fffff#dcdcccccccccd#",
"....####ffff#####dcddcccccccdcd#",
"........######dddccccdcccccdccd#",
"........#ghh#dcccccccccccddcccd#",
".......#i#h#dcccccccccdcccccccd#",
"......#ji#h#dcccccccccdcccccdd#.",
"......#j#hh#ddd#kcccccdcccdd##..",
".....#jii#hh###h#ccccccdcccd#...",
"....#jiii#hhhhh#dccdccccdcccd#..",
"....#jiii#hhhh#dcdccccccdcccd#..",
"...#jiiiii#hh#dccccd#cccdccccd#.",
"..#jiiiiiii#h#dcccd#h#cccdcccd#.",
"..#jiiiiiii#h#dcccd##dcccdcccd#.",
".#jiijiiiii#h#dccd#.#dcccdcccd#.",
"#jiijiiiiiig##ddd##.#dcccdcccd#.",
"#jiijiiiiiig#.###...#dcccdcccd#.",
"#jiiiiiiiiig#.......#dcccdccd#..",
"#jiiiiiiiiig#.......#dccccccd#..",
"#jiiiiiiiiig#........#dccccdd...",
"#jiiiggiiiig#.........#dccd#....",
".bgigiigiig#...........#dd#.....",
"..#gggggggl.............##......",
"...##ggb##......................",
".....###........................"};

