/* XPM */
/* Drawn for the K Desktop Environment */
/* See http://www.kde.org */
static char*xv[]={
"32 32 8 1",
"# c #000000",
"c c #ffffff",
"e c #ff0000",
"f c #000000",
"a c #ffffc0",
"d c #ff8000",
"b c #ffa858",
". c None",
"................................",
"................................",
"................................",
"................................",
"................................",
"......................##........",
".......###......######aa#....#..",
"......#aaa#...##aaaaaaaa#..##a#.",
"......#aba#..#aba##babab#.#bab#.",
"......#bab#.#bba#cc#baba##bab##.",
"......#bbb##bbb#ccc#bbb#c#bbb#..",
"......#bdb#bdb#ccc#dbdb#c#dbd##.",
"......#dbdbdb#cccc#bdb#cc#bdbd#.",
"......#ddddd#cccc#dddd#cc#dddd#.",
"......#dede#ccccc#ede#ccc#e####.",
"......#ede#ccccc#eded#cc#ed#....",
".....#eeee#cccc#eeee#ccc#e#.....",
"....#eeeee#ccc#eeeee#cc#ee#.....",
"...#eeeeee#cc#eeeee#cc#ee#......",
"..#eeeeeee#c#eeeeee#c#eee#......",
".#eeee#eee##ee#feee##eee#.......",
"#eeee##eeeeee#.#eeeeeee#........",
"#eee#.#eeeee#..#eeeeee#.........",
"#ee#...#eee#....#eeee#..........",
"#ee#....#e#.....#eee#...........",
".##......#.......###............",
"................................",
"................................",
"................................",
"................................",
"................................",
"................................"};

