/* XPM */
static char * mini_folder_xpm[] = {
"16 16 9 1",
" 	c None",
".	c #000000",
"+	c #424242",
"@	c #CECEFF",
"#	c #9C9CFF",
"$	c #525252",
"%	c #FFFFFF",
"&	c #6363CE",
"*	c #212121",
" .#$            ",
".#+##$          ",
".@@#+##$@.      ",
".@@@@#+###@     ",
".@@@@@@#+##$    ",
".@@@@@@@@#+#.   ",
".@@@@@@@@@@..   ",
".@@@@@@@@@@..   ",
".@@@@@@@@@@..   ",
".@@@@@@@@@@..   ",
" +#@@@@@@@@..   ",
"   +#@@@@@@..   ",
"     +#@@@@..$  ",
"       +#@@..*$ ",
"         +&..*+ ",
"           .*   "};
