/* XPM */
static char*floppy_mount[]={
"16 16 8 1",
"e c #008000",
"a c #a0a0a4",
"# c #000000",
"d c #303030",
". c None",
"c c #585858",
"f c #00c000",
"b c #ffffff",
".......##.......",
"......#ab##.....",
".....#abbbb##...",
"....#cccbbccc##.",
"...#ccccccccccc#",
"..#ccccd#cccccc#",
".#ccccc#.ccccc#.",
"#cccccccccccc#..",
"#ccccadccccc#...",
".##cadccccc#....",
"...##ccccc#.....",
".....##cc#......",
".......##..#####",
"...........#eef#",
"...........#fff#",
"...........#####"};
