/* XPM */
/* Drawn  by Jonathan Buzzard and Mark Donohoe for the K Desktop Environment */
/* See http://www.kde.org */
static char*floppy_mount[]={
"16 16 8 1",
"# c #000000",
"e c #008000",
"b c #dcdcdc",
"c c #ffffff",
"f c #00c000",
"a c #585858",
"d c #ffffff",
". c None",
".......##.......",
"......#aa##.....",
".....#aaaa###...",
"....#aaaa##aa##.",
"...#aaaa##aaaaa#",
"..#aaaa##aaaaaa#",
".#aaaaaaaaaaaa#.",
"#aaaaaaaaaaaa#..",
"#aaabbaaaaaa#...",
".##abcdbaaa#....",
"...##abdca#.....",
".....##aa#......",
".......##..#####",
"...........#eef#",
"...........#fff#",
"...........#####"};

