/* XPM */
/* Drawn  by Mark Donohoe for the K Desktop Environment */
/* See http://www.kde.org */
static char*binary[]={
"16 16 3 1",
"# c #000000",
"a c #ffffff",
". c None",
".#...###....###.",
".#..#aaa#..#aaa#",
".#..#aaa#..#aaa#",
"##..#aaa#..#aaa#",
"##..#aaa#..#aaa#",
"##..#aaa#..#aaa#",
"##...###....###.",
"................",
"................",
".###....#...###.",
"#aaa#...#..#aaa#",
"#aaa#...#..#aaa#",
"#aaa#..##..#aaa#",
"#aaa#..##..#aaa#",
"#aaa#..##..#aaa#",
".###...##...###."};

