/* XPM */
static char*cdrom_mount[]={
"16 16 14 1",
"d c #808080",
"k c #008000",
"b c #004000",
"e c #ffc0c0",
"# c #000000",
"h c #c0ffc0",
"f c #004040",
"j c #303030",
"g c #008080",
". c None",
"a c #c0ffff",
"l c #00c000",
"i c #dcdcdc",
"c c #00c0c0",
"...#######......",
"....#aaaaa#.....",
".....#aaaaa#....",
"....#b#aaacc#...",
"...#bdd#ccccc#..",
"..#b.edb#ccccc#.",
".#fd..#fb#cccg#.",
"#gfd..h#dd#cgf#.",
".#gb.h..edd#f#..",
"..#id....djf#...",
"...#ibdddbf#....",
"....#gffff#.....",
".....#ggf#.#####",
"......###..#kkl#",
"...........#lll#",
"...........#####"};
