/* XPM */
/* Drawn  by Mark Donohoe for the K Desktop Environment */
/* See http://www.kde.org */
static char*folder_locked[]={
"18 18 12 1",
"# c #000000",
"j c #808080",
"c c #ffdca8",
"i c #ffa858",
"f c #c05800",
"e c #585858",
"g c #c0c0c0",
"h c #a0a0a4",
"d c #ffffff",
"b c #ffa858",
"a c #585858",
". c None",
"..................",
"..#a#.............",
".#abc####.........",
".#dae#fff#........",
".#ddd#f##b#.......",
".#ddd#f#bcb##.....",
".#ddccc#daaab#....",
".#dgbbbcchhh#b....",
".#ggb#fbbhhh#b....",
".#ggibf#bhhh#b....",
".#gggbbfbhhh#b....",
".##jg#fbbhhh#b....",
"...###f#hhhh#b....",
".....#f#hhhh#b....",
"......###hhh#b##..",
".........##h#b##..",
"...........####...",
".................."};

