/* XPM */
/* Drawn  by Nico Shirwing for the K Desktop Environment */
/* See http://www.kde.org */
static char*graphics_package[]={
"16 16 33 1",
"# c #000000",
"d c #c0c0c0",
"C c #ffffff",
"f c #808080",
"e c #585858",
"g c #800000",
"h c #008000",
"i c #000080",
"j c #008080",
"k c #800080",
"b c #808000",
"n c #c00000",
"o c #00c000",
"p c #0000c0",
"q c #00c0c0",
"r c #c000c0",
"c c #c0c000",
"t c #ff0000",
"u c #00ff00",
"v c #0000ff",
"w c #00ffff",
"x c #ff00ff",
"y c #ffff00",
"z c #ffc0c0",
"A c #c0ffc0",
"B c #c0c0ff",
"D c #ffc0ff",
"a c #ffffc0",
"s c #ff8000",
"l c #c05800",
"m c #ffa858",
"E c #ffdca8",
". c None",
".....##...#.....",
"...##aa###a##...",
".##aa##bc#aaa##.",
"#aa##bbbcc##aaa#",
"###bbbbbcccc####",
".#a##bbbccc#a#..",
".#aaa##bc##cc#..",
".#aaaaa#########",
".#aaaaa#deffedd#",
"########ghijkbl#",
"#mmmmmm#nopqrcs#",
"#ssssss#tuvwxym#",
"########zABCDaE#",
"..##caa#########",
"....##ca##......",
"......##........"};

