/* XPM */
/* Drawn  by Mark Donohoe for the K Desktop Environment */
/* See http://www.kde.org */
static char*l_src[]={
"16 16 2 1",
"# c #000080",
". c None",
"................",
"................",
".......##.......",
".......##.......",
".......##.......",
".......##.......",
".......##.......",
".......##.......",
".......##.......",
".......##.......",
".......##.......",
".......##.......",
".......##.......",
"................",
"................",
"................"};

