/* XPM */
/* Drawn  by Nico Shirwing for the K Desktop Environment */
/* See http://www.kde.org */
static char*settings_package[]={
"16 16 9 1",
"# c #000000",
"f c #c0c0c0",
"e c #ffffff",
"g c #808080",
"d c #a0a0a4",
"b c #808000",
"c c #c0c000",
"a c #ffffc0",
". c None",
".....##...#.....",
"...##aa###a##...",
".##aa##bc##aa##.",
"#aa##bbbccc##aa#",
"###bbbbbccccc###",
".#a##bbbccc###..",
".#a#a##bc###c#..",
".#aaa#a#####c#..",
".#aaaaa#d#ef#e#.",
".#aaaaaa#ffff#..",
".#aaaaa#efg#ff#.",
".#aaaaa#ff#cef#.",
".#caaaaa#ffef#..",
"..##caa#e#ff#f#.",
"....##ca####.#..",
"......##........"};

