/* XPM */
static char*system_package[]={
"16 16 8 1",
"f c #808080",
"c c #c0c000",
"b c #808000",
"# c #000000",
"d c #ff8000",
"a c #ffffc0",
". c None",
"e c #ffffff",
".....##...#.....",
"...##aa###a##...",
".##aa##bc##aa##.",
"#aa##bbbccc##aa#",
"###bbbbbccccc###",
".#a##bbbc#####..",
".#aaa##bc###b#..",
".#aaaaa###ddd#..",
".#aaaaa#b######.",
".#aaaae###e###e#",
".#aaaa####e####.",
".#aaaaaa##ef##..",
".#caaaaa#eeee#..",
"..##caaa#eeee#..",
"....##ca#d##d#..",
"......####..##.."};
