/* XPM */
/* Drawn  by Mark Donohoe for the K Desktop Environment */
/* See http://www.kde.org */
static char*trash[]={
"16 16 9 1",
"a c #ffffff",
"g c #808080",
"b c #c0c0c0",
"c c #a0a0a4",
"e c #585858",
"# c #004000",
"d c #004040",
"f c #404000",
". c None",
"......####......",
"....##abcb##....",
"...#aaaadcaa#...",
"..#aabef##caa#..",
".#abe######cab#.",
".#be########ba#.",
"#bg########baag#",
"#g#####f##caaac#",
"#e#####b#gaaaab#",
"#e####babaaaacf#",
".####caaaaaab##.",
".###eaaaaaab###.",
"..###gaaabg###..",
"...###gacf###...",
"....###cg###....",
"......####......"};

