/* XPM */
static char *magick[] = {
/* columns rows colors chars-per-pixel */
"16 16 14 1",
"  c #000000",
". c #003c00",
"X c #303030",
"o c #000080",
"O c #0000be",
"+ c #0000ff",
"@ c #008000",
"# c #00be00",
"$ c #00ff00",
"% c #008080",
"& c #bebeff",
"* c #beffbe",
"= c #ffffff",
"- c None",
/* pixels */
"------oooo------",
"----oo*=&&oo----",
"---o&*$$#OO+o---",
"--o+%#$$##.++o--",
"-o#+%####@O+++o-",
"-o#+o###@O++++o-",
"o.#++X##o+++++Oo",
"o.o++%@@O+++++Oo",
"oO++++.@@.++++Oo",
"oOO++++.$$@++OOo",
"-oOO++++@##.OOo-",
"-oOOOO++.#@@oOo-",
"--oOOOOOo.@.Oo--",
"---oOOOOOo.Oo---",
"----ooOOOOoo----",
"------oooo------"
};
