/* XPM */
static char *magick[] = {
/* columns rows colors chars-per-pixel */
"16 16 10 1",
"  c #000000",
". c #595959",
"X c #008000",
"o c #00be00",
"O c #008080",
"+ c #ff0000",
"@ c #ffbebe",
"# c #c0c0c0",
"$ c #ffffff",
"% c None",
/* pixels */
"%%%%%%%%%%%%%%%%",
"%%%%%%%   %%%%%%",
"%%%%%% ...  %%%%",
"%%%%% ....##  %%",
"%%%% .  ......  ",
"%%% . $+  ..... ",
"%% . $@+OO  .. %",
"% . $$$OOOO . %%",
" . $$$$$$O . %%%",
"  ..$$$@$ . %%%%",
"%%  ..@$ . %%%%%",
"%%%%  . . %%%%%%",
"%%%%%%   %%     ",
"%%%%%%%%%%% XXo ",
"%%%%%%%%%%% ooo ",
"%%%%%%%%%%%     "
};
