/* XPM */
/* Drawn for the K Desktop Environment */
/* See http://www.kde.org */
static char*acroread[]={
"16 14 3 1",
". c None",
"# c #ff0000",
"a c #ffffff",
"......#.........",
".....#a#........",
".....###........",
"......##........",
"......##........",
"......#a#.......",
".....#aaa#####..",
".....#aa####aa#.",
".....####...##..",
"....##..........",
"...##...........",
".###............",
".#a#............",
".##............."};
