/* XPM */
/* Drawn for the K Desktop Environment */
/* See http://www.kde.org */
static char*emacs[]={
"16 15 8 1",
". c None",
"a c #303030",
"f c #c0c0c0",
"d c #585858",
"b c #a0a0a4",
"# c #000000",
"e c #808080",
"c c #ffffff",
"..#a##......##b.",
".#a...........#.",
"##b...##.##...##",
"##...#######..##",
"#####cbcbdeb###.",
".###cccbccbc##b.",
"..#bccc#cc#c#...",
"..#ccfccffc#....",
"..#dfcccfd#.....",
"...#cfccccc#....",
"...#ccccbbb#....",
"....#c#ccee.....",
".....#c#cf#.....",
"......#.#f#.....",
".........#......"};
