/* XPM */
/* Drawn for the K Desktop Environment */
/* See http://www.kde.org */
static char*nedit[]={
"16 16 7 1",
"# c None",
". c #000080",
"c c #c0c0c0",
"e c #585858",
"d c #a0a0a4",
"a c #000000",
"b c #ffffff",
"...#...#########",
"#.a##.##########",
"#a.a#.##########",
"#aa.a.##########",
"#aba..##########",
"#aaaaaaaaaaaaaaa",
"..acccccccccccda",
"##aeeeeeeeeeeeda",
"##aebbbbbbbbbbda",
"##aebeeebbbbbbda",
"##aebbbbbbbbbbda",
"##aebeeeebbbbbda",
"##aebbbbbbbbbbda",
"##aeccccccccccda",
"##aaaaaaaaaaaaaa",
"################"};
