/* XPM */
static char*quake2[]={
"16 16 6 1",
"b c #808080",
"c c #004000",
"d c #404000",
"a c #303030",
". c None",
"# c #585858",
"....#......#....",
"...#........#...",
"...#........#a..",
"..a..........#..",
"..#..........#..",
"..a.........a#..",
"..#.........#a..",
"...a...##...b...",
"...c#..ac.a#a...",
"....da#a##ad....",
"......#b#b......",
".......da.......",
".......##.......",
".......##.......",
".......#........",
"................"};
