/* XPM */
static char*vmware[]={
"16 16 23 1",
"b c #808080",
"r c #ffa858",
"f c #a0a0a0",
"# c #c3c3c3",
"m c #000080",
"t c #00ff00",
"n c #808000",
"q c #800080",
"d c #000000",
"p c #0000c0",
"h c #400000",
"l c #004040",
"u c #303030",
"e c #800000",
". c None",
"k c #008080",
"g c #c00000",
"c c #585858",
"s c #00c000",
"a c #dcdcdc",
"i c #ffffff",
"o c #ff0000",
"j c #00c0c0",
"................",
".####aaaaaaaaab.",
".#cdeedddddddfb.",
".#ghhghijkjkdfb.",
".#gehggjbelkdfb.",
".#cdeeekkmnjdfb.",
".#cdgoboklkjdfb.",
".acdbgobpmmqdfb.",
".acd#ogocddrbfb.",
".acdo#bgeddi#fb.",
".aa##iiaaaa###b.",
".aaaiiaaa##fstb.",
"....uccbccu.....",
"....duubcud.....",
"...#########....",
"................"};
