/* XPM */
/* Drawn for the K Desktop Environment */
/* See http://www.kde.org */
static char*x[]={
"16 16 3 1",
". c None",
"# c #000000",
"a c #ffffff",
"................",
"................",
"................",
".#####.......#..",
"..#####.....#...",
"...#####...#....",
"....#####.#.....",
".....###a#......",
"......#a###.....",
".....#.#####....",
"....#...#####...",
"...#.....#####..",
"..#.......#####.",
"................",
"................",
"................"};
