/* XPM */
static char*xpdf[]={
"16 16 6 1",
"d c #c05800",
"# c #800000",
". c None",
"a c #c00000",
"c c #dcdcdc",
"b c #ff0000",
"................",
"................",
".#a#.........a..",
"..aaa.......a...",
"...#b#.....a.cc.",
"....#aa...c.c...",
".....aad.ac.c...",
"......#ab.c.c...",
"..ccc..dccc.cc..",
"..c..cacdac.c...",
"..c..c.c.#cac...",
"..ccc...cccbc...",
"..ca.......#c#..",
"..c.........aaa.",
"..c.............",
"................"};
