/* XPM */
/* Drawn for the K Desktop Environment */
/* See http://www.kde.org */
static char*xv[]={
"16 16 6 1",
"d c #ff8000",
". c None",
"b c #ffffc0",
"# c #000000",
"a c #ffa858",
"e c #ff0000",
"................",
"................",
"................",
"....#..######...",
"...#a##bb#bbb###",
"...#aaaa#.#a#aa#",
"...#aaa#.#d#.#a#",
"...#ee#.#ee#.e#.",
"..#ee#.#ee#.#e#.",
".#eee##ee#.#e#..",
"#ee#e#e#ee#e#...",
"#e##ee#.#ee#....",
"##..##..###.....",
"................",
"................",
"................"};
