/* XPM */
static char * large_kcmscsi_xpm[] = {
"48 48 109 2",
"  	c None",
". 	c #000000",
"+ 	c #898989",
"@ 	c #ADADAD",
"# 	c #D1D1D1",
"$ 	c #F7F7F7",
"% 	c #AFAFAF",
"& 	c #F4F4F4",
"* 	c #F1F1F1",
"= 	c #EEEEEE",
"- 	c #FAFAFA",
"; 	c #EBEBEB",
"> 	c #F9F9F9",
", 	c #E8E8E8",
"' 	c #F6F6F6",
") 	c #E5E5E5",
"! 	c #8C8C8C",
"~ 	c #E2E2E2",
"{ 	c #C4C4C4",
"] 	c #6ED5F4",
"^ 	c #DFDFDF",
"/ 	c #74D6F4",
"( 	c #DBDBDB",
"_ 	c #7AD8F5",
": 	c #80DAF6",
"< 	c #D8D8D8",
"[ 	c #87DCF6",
"} 	c #8DDEF7",
"| 	c #D5D5D5",
"1 	c #7A7A7A",
"2 	c #93E0F8",
"3 	c #9AE2F8",
"4 	c #D2D2D2",
"5 	c #A0E4F9",
"6 	c #A6E6FA",
"7 	c #CFCFCF",
"8 	c #ADE8FA",
"9 	c #B3EAFB",
"0 	c #CCCCCC",
"a 	c #474747",
"b 	c #B9ECFC",
"c 	c #C0EEFC",
"d 	c #C9C9C9",
"e 	c #494949",
"f 	c #C6F0FD",
"g 	c #CCF2FE",
"h 	c #C6C6C6",
"i 	c #4C4C4C",
"j 	c #F3F3F3",
"k 	c #D2F4FF",
"l 	c #4F4F4F",
"m 	c #F0F0F0",
"n 	c #C3EAF6",
"o 	c #515152",
"p 	c #EDEDED",
"q 	c #545455",
"r 	c #EAEAEA",
"s 	c #CACACA",
"t 	c #575757",
"u 	c #CCCCCD",
"v 	c #E7E7E7",
"w 	c #C8C8C8",
"x 	c #C7C7C7",
"y 	c #59595A",
"z 	c #C9C9CA",
"A 	c #E4E4E4",
"B 	c #C5C5C5",
"C 	c #5C5C5D",
"D 	c #565656",
"E 	c #C6C6C7",
"F 	c #E1E1E1",
"G 	c #5F5F60",
"H 	c #C3C3C4",
"I 	c #DDDDDD",
"J 	c #DCDCDC",
"K 	c #616163",
"L 	c #C0C0C2",
"M 	c #DADADA",
"N 	c #D9D9D9",
"O 	c #646465",
"P 	c #BDBDBF",
"Q 	c #D7D7D7",
"R 	c #D6D6D6",
"S 	c #676768",
"T 	c #BABABC",
"U 	c #D4D4D4",
"V 	c #D3D3D3",
"W 	c #69696B",
"X 	c #B7B7B9",
"Y 	c #D0D0D0",
"Z 	c #6C6C6E",
"` 	c #B4B4B7",
" .	c #CECECE",
"..	c #CDCDCD",
"+.	c #6F6F71",
"@.	c #B1B1B4",
"#.	c #CBCBCB",
"$.	c #717173",
"%.	c #AEAEB1",
"&.	c #747476",
"*.	c #ABABAE",
"=.	c #777779",
"-.	c #A8A8AC",
";.	c #79797C",
">.	c #00FF00",
",.	c #A5A5A9",
"'.	c #7C7C7F",
").	c #A2A2A6",
"!.	c #7F7F81",
"                                                                                                ",
"                                                                                                ",
"                                                . . . .                           .             ",
"                                        . . . . + @ # + .                       .               ",
"                                . . . . + @ # $ $ $ $ $ + .                   .                 ",
"                        . . . . + @ # $ $ $ $ $ $ $ $ $ $ + .                 .                 ",
"                      . + @ # $ $ $ $ $ $ $ $ $ $ $ $ $ $ $ + .               .                 ",
"                        . + % $ $ $ $ $ $ $ $ $ $ $ $ $ $ $ $ + .               .               ",
"                          . + % & & & & & & & & & & & & & & & & + .               .             ",
"                            . + % * * * * * * * * * * * * * * * * + .             .             ",
"                              . + % = = = = = = = = = = = = = = = = + .         .               ",
"                            . - . + % ; ; ; ; ; ; ; ; ; ; ; ; ; ; ; ; + .     .                 ",
"                          . - > $ . + % , , , , , , , , , , , , , , , , + . .                   ",
"                        . - > $ ' & . + % ) ) ) ) ) ) ) ) ) ) ) ) ) ) ) ) + .                   ",
"                      . - > $ ' & ! @ . + % ~ ~ ~ ~ ~ ~ ~ ~ ~ ~ ~ ~ ~ ~ ~ ~ + .                 ",
"                    . - > $ ' & ! @ { ] . + % ^ ^ ^ ^ ^ ^ ^ ^ ^ ^ ^ ^ ^ ^ ^ ^ + .               ",
"                  . - > $ ' & ! @ { ] ] / . + % ( ( ( ( ( ( ( ( ( ( ( ( ( ( ( ( + .             ",
"                . - > $ ' & ! @ { ] ] / _ : . + % < < < < < < < < < < < < < < < < + .           ",
"              . - > $ ' & ! @ { ] ] / _ : [ } . + % | | | | | | | | | | | | | | | @ 1 .         ",
"            . - > $ ' & ! @ { ] ] / _ : [ } 2 3 . + % 4 4 4 4 4 4 4 4 4 4 4 4 4 4 4 % + .       ",
"          . - > $ ' & ! @ { ] ] / _ : [ } 2 3 5 6 . + % 7 7 7 7 7 7 7 7 7 7 7 7 7 % + . .       ",
"        . - > $ ' & ! @ { ] ] / _ : [ } 2 3 5 6 8 9 . + % 0 0 0 0 0 0 0 0 0 0 0 % + . a .       ",
"      . - > $ ' & ! @ { ] ] / _ : [ } 2 3 5 6 8 9 b c . + % d d d d d d d d d % + . e a .       ",
"      . > $ ' & ! @ { ] ] / _ : [ } 2 3 5 6 8 9 b c f g . + % h h h h h h h % + . i e a .       ",
"      . . ' & j * ! ] ] / _ : [ } 2 3 5 6 8 9 b c f g k g . + % h h h h h % + . l i e .         ",
"      . | . j * m = ! / _ : [ } 2 3 5 6 8 9 b c n g k g f c . + % h h h % + . o l i .           ",
"      . | 4 . m = p ; ! : [ } 2 3 5 6 8 9 b c f g k g f c b 9 . + % h % + . q o l .             ",
"      . + 4 7 . p ; r , ! } 2 3 5 6 8 9 b c f g k g f c b 9 ! s . + % + . t q o .               ",
"        . + 7 u . r , v ) ! 3 5 6 8 9 b c f g k g f c b 9 ! s w x . + . y t q .                 ",
"          . + u z . v ) A ~ ! 6 8 9 b c f g k g f c b 9 ! s w x B { . C y D .                   ",
"            . + z E . A ~ F ^ ! 9 b c f g k g f c b 9 ! s w x B { . G C D .                     ",
"              . + E H . F ^ I J ! c f g k g f c b 9 ! s w x B { . K G D .                       ",
"                . + H L . I J M N ! g k g f c b 9 ! s w x B { . O K D .                         ",
"                  . + L P . M N Q R ! g f c b 9 ! s w x B { . S O D .                           ",
"                    . + P T . Q R U V ! c b 9 ! s w x B { . W S D .                             ",
"                      . + T X . U V # Y ! 9 ! s w x B { . Z W D .                               ",
"                        . + X ` . # Y  ...! s w x B { . +.Z D .                                 ",
"                          . + ` @..  ...#.s w x B { . $.+.D .                                   ",
"                            . + @.%.. #.s w x B { . &.$.D .                                     ",
"                              . + %.*.. w x B { . =.&.D .                                       ",
"                                . + *.-.. B { . ;.=.D .                                         ",
"                                  . + >.,.. . '.;.D .                                           ",
"                                    . + ,.).!.'.D .                                             ",
"                                      . + ).!.D .                                               ",
"                                        . + D .                                                 ",
"                                          . .                                                   ",
"                                                                                                ",
"                                                                                                "};
