/* XPM */
static char *rock[] = {
/* width height num_colors chars_per_pixel */
"    60    50       16            1",
/* colors */
". c #626244",
"# c #596647",
"a c #4b5c3f",
"b c #4b5a3f",
"c c #45553c",
"d c #3f503b",
"e c #3a4e39",
"f c #364b39",
"g c #314538",
"h c #2e4238",
"i c #273c36",
"j c #233935",
"k c #203432",
"l c #182a2a",
"m c #111e1e",
"n c #0d1517",
/* pixels */
"............................................................",
"............................................................",
"............................................................",
"............................................................",
"............................................................",
"............................................................",
"############################################################",
"aaaaaaaaaaaaaaaaaaaaaaaaaaaaaaaaaaaaaaaaaaaaaaaaaaaaaaaaaaaa",
"aaababababbbababababababababbbababababababababbbabababababab",
"abbcbcbcbcbcbccbcbccbcbccbcbcbcbcbcbcbcbcbcbcbcbcbcbcbccbcbb",
"bcbcbcbcbcbcbccbcbccbcbccbcbcbcbcbcbcbcbcbcbcbcbcbcbcbccbcbb",
"ccdcdcdcdcdcdccdcdccdcdccdcdcdcdcdcdcdcdcdcdcdcdcdcdcdccdcdc",
"dddfdeeeeeeeedfdeeedeeedfdeeeeeeeeeeeeeeeeeeeeeeeeeeeedfdeee",
"efdeffdeedeeeffeedffedeffeedeedeedeedeedeedeedeedeedeeffeeef",
"deeeeeedeeedeeedeeeeeeeeedeeeeedeeeeedeeeeedeeeeedeeedeeedee",
"fedeedeeedeeedeeedeedeedeeedeeeeedeeeeedeeeeedeeeeedeeedeeed",
"ffedeeedeedeeeedeedeedeeedeedeedeeedeeeedeedeeedeeeeedeeedee",
"deeddedeededddeddeddeddedeededeeedeeedeeedeeedeeedeeeddedeed",
"edeedeedeeeeedefdeeedfeeeddfdededeeddeddededededdeddeedeedee",
"eedfdedfdedeeededeedededeeedfdeeddeeeeedeedeedeeeeedeeedfded",
"deedededeeddedededeeeddeededdedeeeddedeededeededdeeddeeedded",
"eededeeeededeedeededeeededeeededeeedeeededeedeeedeeeedeeedee",
"dedeedddfeeddfeddfdedeeddfddeefddeeeddedeededeeeddeededeeedd",
"eeedfdfeddeeeddfededfddfedeedddfdddeedeedfdfdedeeddeeeddedfd",
"dedfdeddfdedeeedfdfddfdededfdfdfdfdedfdfddfdededfdfddeedeedf",
"eeddedeedededeedddededededededededededededddedededededededed",
"deeedededeededeeedeededfdedeedededfdeededeeededeedeededeeded",
"eeddfdedfdedfeddfededfedeeeddfdfdfdedfdedfddefdedfdedfeddfde",
"deeedefddfdfddfeddeeeddfddefdedfddedfddfedefddeeedeeeddfeded",
"ededfddfdfddfddeeededfdeeedeeeedfdfddfddfddeeedfdededfdedfdf",
"eededededdedededededededededdedddededeeddeeddeddedededededed",
"deededeedfdedeeedeeedeeeedeeedfdfdedfdeeedeeedfdeedeedeedede",
"eedeeeddfdedfddeeddeedddfeddeedfdefddfddeeddefdedfdedfdedfed",
"deeddfdfddfddfdfdfdfdfdfddefdedfdddfddfdedfdfddeedeeedeeeddf",
"eedfdfddfdfdfdfddfddfdfdeedfdedeeeedfdfdfdeddfdedfddfdedefdd",
"deededeededededeedededdededdeeedededededdeeedeededeedeeddeed",
"efffffffffffffffffffffffffffffffffffffffffffffffffffffffffff",
"efgfffgffffgffgffgffgffgffgffgffgffgffgffgffgffgffgfffgffgff",
"gggggggghggggggggggggggggggggggggggggggggggggggggggghggggggg",
"fggggggggggggggggggggggggggggggggggggggggggggggggggggggggggg",
"hhghhhhhghhhhhghhhhhghhhhhghhhhhghhhhhghhhhhghhhhhghhhhhghhh",
"jiijiiiiijiiiiijiiiiijiiiiijiiiiijiiiiijiiiiijiiiiijiiiiijii",
"jjjjjjkjjjjjkjjjjjkjjjjjkjjjjjjjjjjjkjjjjjkjjjjjkjjjjjkjjjjj",
"klkllklklkklklkkllklklklkklkllklkllklklkklklkkllklklklkklkll",
"lllllllllmllmlllllllllmllllmllllmlllllllllmlllllllllmllllmll",
"mmmmmmmmmmmmlmmmmmlmmmlmmmmmlmmmlmmmmmlmmmmlmmmmlmmmlmmmmmlm",
"mmmmmmmmmmmmmmmmmmmmmmmmmmmmmmmmmmmmmmmmmmmmmmmmmmmmmmmmmmmm",
"nmmnmnmnmmnmnnnmnnnnmnnmnnnmnnnnmnmnnnnnnmnnnnmnnnnnnnnmnnnm",
"nnnmnnmnnnnnnmnnnnmnnnnnnmnnnmnmnnnnmnnmnnmnnnnmnmnnmnnnmnnn",
"mnnnmnnnnnmnnnmnmnnnmnmnnnmnnnmnnnnmnmnnmnnmnmnnnnmnnmnnmnmn"
};
