/* XPM */
static char * wm_bottom_xpm[] = {
"100 7 24 1",
" 	c None",
".	c #3C564F",
"+	c #43615A",
"@	c #42615A",
"#	c #618B87",
"$	c #425F58",
"%	c #415E58",
"&	c #425E58",
"*	c #405D57",
"=	c #405C56",
"-	c #355852",
";	c #375953",
">	c #395851",
",	c #244644",
"'	c #2C4644",
")	c #244244",
"!	c #2C4A4C",
"~	c #2C4A44",
"{	c #2C4244",
"]	c #2C463C",
"^	c #34463C",
"/	c #344234",
"(	c #2C4634",
"_	c #34423C",
"                                                                                                    ",
"                                                                                                    ",
"                                                                                                    ",
"                                                                                                    ",
".........................+......+@#@+@@@.@............$$.%&$%&%%&%$................*.........===...*",
".-..-..-..........-.....;..........................................>........................>>.>....",
",'')!',~,'')!,'!'!!'''){''''''~'''''''''''~~'''']]''']~'''^~^]^^^]^]]]^{]^^^^'^^^]^]^^]^]^]/((^((_(^"};
