/* XPM */
/* Drawn  by Mark Donohoe for the K Desktop Environment */
/* See http://www.kde.org */
static char*launch[]={
"32 32 9 1",
"# c #000000",
"b c #ffffff",
"d c #808080",
"a c #c0c0c0",
"f c #a0a0a4",
"c c #585858",
"g c #000040",
"e c #404000",
". c None",
"................................",
"................................",
"...................########.....",
"..................#abbbc###.....",
"..................#bbba####.....",
".................#abbbc###......",
"..........###....#bbba####......",
".........#aba##.#abbbc###.......",
"........#abbbba##bbba####.......",
".......#abbbbac#dbbbc###........",
"......###abbac##dbbae###........",
"......#aae#fc###dbbc###.........",
"......#abaad####dbag###.........",
"......#abbbd####dbc###..........",
"......#abbbd####dae###..........",
"......#abbbd####dd####..........",
"......#abbbd###########.........",
"......#abbbd############........",
"......#abbbd#############.......",
"......#abbbd##############......",
"......#abbbd####cc#########.....",
"......#abbbd####...########.....",
"......#abbbd####....######......",
"......#abbbd####.....####.......",
"......#abbbd####......##........",
"......#abbbd####................",
"......#abbbd####................",
"......#abbbd####................",
"......#abbbd####................",
"......##aabd###.................",
"........##dd##..................",
"..........###..................."};
