/* XPM */
static char *noname[] = {
/* width height ncolors chars_per_pixel */
"48 48 19 1",
/* colors */
"  c #000000",
". c #BEC7C7",
"X c none",
"o c #96BED7",
"O c #D7DFEF",
"+ c #86AEC7",
"@ c #DFD7CF",
"# c #49718E",
"$ c #E0E0E0",
"% c #C0C0C0",
"& c #A0A0A0",
"* c #808080",
"= c #606060",
"- c #6996AE",
"; c #FFFFFF",
": c #FBFFFB",
"> c #306179",
", c #404040",
"< c #202020",
/* pixels */
"XXXXXXXXXXXXXXXXXXXXXXXXXXXXXXXXXXXXXXXXXXXXXXXX",
"XXXXXXXXXXXXXXXXXXXXXXXXXXXXXXXXXXXXXXXXXXXXXXXX",
"XXXXXXXXXXXXXXXXXXXXXXXXXXXXXXXXXXXXXXXXXXXXXXXX",
"XXXXXXXXXXXXXXXXXXXXXXXXXXXXXXXXXXXXXXXXXXXXXXXX",
"XXXXXXXXXXXXXXXXO..+++++...OOXXXXXXXXXXXXXXXXXXX",
"XXXXXXXXXXXXX%+++------------........++%XXXXXXXX",
"XXXXXXXXXXXX++.O+-=,,====###---++++++++%%%XXXXXX",
"XXXXXXXXXXX+OO;O+-=,,<<,,,===###-------++%%XXXXX",
"XXXXXXXXXXX+O;;O++*<,*&-+++-+-O.O.%%&->+:+%XXXXX",
"XXXXXXXXXX++$::;.+#,=OOO:OO:O:OO:O@O%+-+:++XXXXX",
"XXXXXXXXXX#+O:;;.+#=>O@OO@:O:::::@O:@O-+:++XXXXX",
"XXXXXXXXX.=+O$:OO+->>+O@O.......$:::::++:O+XXXXX",
"XXXXXXXXX.<-OO:;O+-#>+OO.*******.:::::++:O+XXXXX",
"XXXXXXXXX*=-OO:;O+-#=OO$.:O$O::..:;::OO+:O-XXXXX",
"XXXXXXXX%---OO$:;O+#>+O$.$$:::$:.:::::O+OO-XXXXX",
"XXXXXXX%%.##OO$:;O+-#+:O.@:$......:::OO+O:-XXXXX",
"XXXXXX.%OO#,+OO:;O+-#-OO.$;.*******:::O+O:-+XXXX",
"XXXXX.%$OO-,+oO$;O++#-O$$.;:.$:$@$.:::;+OO-+XXXX",
"XXXXX*OO:O+=%oO$;O++#-:$$.:..::::@.O;:O+O:-+XXXX",
"XXXXX&+O:O.=-+o;;O++-#OOO***.:::::.O::;+OO--XXXX",
"XXXXX--$::+=-+oO;O++-#.::$.$.:::::.$OO;++O--XXXX",
"XXXXX*#%$OO=#.ooO;.--#.::::..$:::$.$$OO++:--XXXX",
"XXXXX*=%:OO#=+oo$O.+-#+:::;O.::;::..:@:+-:-=XXXX",
"XXXXX*=++++#=%+oO$.++#+:::::.@$:::..:.O+-O-,XXXX",
"XXXXX&,-+O+#,++o$OO+-#+:@::O.&&&&&&O@O$+-O-<$XXX",
"XXXXX*<#+++#<-++$OO-+--::O@O:..$.O$.@@O+-O-,$XXX",
"XXXXX*<=+++-,-++o$O+.--:OO:::O::::::::;O+O-<$XXX",
"XXXXX%<,-++%,-++oOO%+--;:::::::::::::O;O+O-,$XXX",
"XXXXX%,<=-+-,-+++$O++--OO@O@O@O@OOO@O.@O++-,%XXX",
"XXXXXX<<<#+.>-+.+oO.+.>+$......++++...++OO-,%XXX",
"XXXXXX=<<<##>-+-.oO+++-++++++++++++++++O++-,%XXX",
"XXXXXX* <,>>,#..-+O++.++.+.+.+..+.++++---===%XXX",
"XXXXXX.<<<==,#+-+-#+>=>-#-#--#&==,=,,,,,,,<%XXXX",
"XXXXXXX%*< <<#-#=<=<<<<<<<<<<, <<<<<,,,==*%XXXXX",
"XXXXXXXXX%,<<,,,<,<>=<<<<<<==**=*=*%$O%XXXXXXXXX",
"XXXXXXXX&+-><>><<,<<<,<,>=&.+.%%$$$+*=*%XXXXXXXX",
"XXXXXXX.---%%.+++--=>>==*&++O+%O+@.&*&*<%XXXXXXX",
"XXXXXXX*<--.OOO$$O..+&%%%+%.%%%%:::;O;%<%XXXXXXX",
"XXXXXXX*<##-+ooO$$$$&%%%%%%.%%%+%O++O++<%XXXXXXX",
"XXXXXXX-<,===+++ooOO*%&%+.+++++++---=##<&XXXXXXX",
"XXXXXXXX+>,<,--+++oo=%+++---====>=======XXXXXXXX",
"XXXXXXXXXX&&<<<,&&++=##==,,<<<,,=&&%%XXXXXXXXXXX",
"XXXXXXXXXXXXX%*>,==*,,<<<<==%%%XXXXXXXXXXXXXXXXX",
"XXXXXXXXXXXXXXXXXX**,,,=**XXXXXXXXXXXXXXXXXXXXXX",
"XXXXXXXXXXXXXXXXXXXXXXXXXXXXXXXXXXXXXXXXXXXXXXXX",
"XXXXXXXXXXXXXXXXXXXXXXXXXXXXXXXXXXXXXXXXXXXXXXXX",
"XXXXXXXXXXXXXXXXXXXXXXXXXXXXXXXXXXXXXXXXXXXXXXXX",
"XXXXXXXXXXXXXXXXXXXXXXXXXXXXXXXXXXXXXXXXXXXXXXXX"
};
