/* XPM */
static char * window_list_xpm[] = {
"32 32 54 1",
" 	c None",
".	c #000000",
"+	c #D5D5D3",
"@	c #AEAEAC",
"#	c #3535FF",
"$	c #4E4E4C",
"%	c #2A2CE6",
"&	c #2024CD",
"*	c #CACAC9",
"=	c #61616D",
"-	c #161CB4",
";	c #0B139C",
">	c #E4E4E4",
",	c #FCFCFC",
"'	c #CACAC3",
")	c #FFFFFF",
"!	c #808080",
"~	c #ECECEC",
"{	c #CECECC",
"]	c #B4B3B1",
"^	c #CFCFCD",
"/	c #E9E8E7",
"(	c #00B8BC",
"_	c #D3D3D2",
":	c #EEEEEE",
"<	c #BCBCB9",
"[	c #01ACAE",
"}	c #B3B3B2",
"|	c #F4F2F2",
"1	c #029FA1",
"2	c #029394",
"3	c #F4F3F3",
"4	c #038687",
"5	c #037A7A",
"6	c #E6E6E6",
"7	c #FDFDFD",
"8	c #E6E5E4",
"9	c #B3B0AE",
"0	c #213636",
"a	c #BFBFBD",
"b	c #FBFBFB",
"c	c #C4C4C2",
"d	c #E7E7E7",
"e	c #D1D1CF",
"f	c #C9C9C7",
"g	c #C8C8C6",
"h	c #B7B7B8",
"i	c #C7C7C5",
"j	c #E8E8E8",
"k	c #DBDBDB",
"l	c #FEFEFE",
"m	c #9C9C9A",
"n	c #C7C7C4",
"o	c #181819",
"                                ",
"             ..                 ",
"             .+..               ",
"             .@+...             ",
"     ..      .@@.##..           ",
"     .+..    .$@.##%&..         ",
"     .@+...  .*=.##%&-;..       ",
"     .@@.##...>,*=.%&-;;...     ",
"     .$@.##%&..'>,*=.-;;.++..   ",
"     .*=.##%&-;..'>,*=.;.@@$+.. ",
"     .))*=.%&-;;...'>,*=.!@$@+. ",
"     .))))*=.-;;.++..'>,*=$$@@. ",
"     .))))))*=.;.@@$+..'~)*=$!. ",
"     .))))))))*=.!@$@+.{~)))]$. ",
" ..  .))))))))))*=$$@@.^~)))]/. ",
" .(..._:))))))))))*=$!.^~)))]<. ",
" .(([..}_:))))))))))]$.^~)))]|. ",
" .(([12..}_:))))))))]/.^~)))]3. ",
" ..([1245..}_6,7))))]<.^~)))]|. ",
" .8901245.+..a6b))))]|.^~)))]|. ",
" .))89045.@+.cdb))))]3.e~)))]|. ",
" .))))890.@@.fd,))))]|.^~)))]|. ",
" .))))))8=$!.gd7))))]|.h^)))]3. ",
" .))))))))8$.ij7))))]|...:k)]|. ",
" .kl)))))))).md)))))]|.  ..@]n. ",
" ..@k)))))))...@k)))]3.    ..@. ",
"   ..@kb)l)).  ..@k)]|.      .. ",
"     ..@k7)7.    ..@]n.         ",
"       ..@k,.      ..@.         ",
"         ..@.        ..         ",
"           o.                   ",
"                                "};
