/* XPM */
static char * large_desktop_settings_xpm[] = {
"48 48 99 2",
"  	c None",
". 	c #000000",
"+ 	c #00FFFF",
"@ 	c #00C0C0",
"# 	c #008080",
"$ 	c #FFFFFF",
"% 	c #0000FF",
"& 	c #0000F6",
"* 	c #0000EE",
"= 	c #0000E6",
"- 	c #0000DD",
"; 	c #0000D5",
"> 	c #0000CD",
", 	c #0000C5",
"' 	c #0000BC",
") 	c #0000B4",
"! 	c #0000AC",
"~ 	c #0000A3",
"{ 	c #00009B",
"] 	c #000093",
"^ 	c #00008B",
"/ 	c #000083",
"( 	c #00007F",
"_ 	c #AEAEAC",
": 	c #60605F",
"< 	c #0000E5",
"[ 	c #0000CC",
"} 	c #0000C4",
"| 	c #0000B3",
"1 	c #0000AB",
"2 	c #00009A",
"3 	c #000092",
"4 	c #00008A",
"5 	c #000081",
"6 	c #4E4E4C",
"7 	c #0000F7",
"8 	c #0000EF",
"9 	c #0000E7",
"0 	c #0000DE",
"a 	c #0000D6",
"b 	c #0000CE",
"c 	c #0000C6",
"d 	c #0000BE",
"e 	c #0000B6",
"f 	c #0000AD",
"g 	c #0000A5",
"h 	c #00009E",
"i 	c #000096",
"j 	c #00008F",
"k 	c #000088",
"l 	c #0000F8",
"m 	c #0000F0",
"n 	c #0000E8",
"o 	c #0000E0",
"p 	c #0000D8",
"q 	c #0000D0",
"r 	c #0000C8",
"s 	c #0000C0",
"t 	c #0000B8",
"u 	c #0000B0",
"v 	c #0000A9",
"w 	c #0000A1",
"x 	c #000094",
"y 	c #C0C0C0",
"z 	c #585858",
"A 	c #808080",
"B 	c #FEFEBD",
"C 	c #FEFDBC",
"D 	c #FEFDBB",
"E 	c #FEFDBA",
"F 	c #FEFDB9",
"G 	c #FEFDB8",
"H 	c #FEFDB7",
"I 	c #FEFCB6",
"J 	c #FEFCB5",
"K 	c #FEFCB4",
"L 	c #FEFCB3",
"M 	c #FEFCB2",
"N 	c #FEFCB1",
"O 	c #FEFBB0",
"P 	c #FEFBAF",
"Q 	c #DDDBDB",
"R 	c #FEFBAE",
"S 	c #FEFBAD",
"T 	c #FEFBAC",
"U 	c #FEFBAB",
"V 	c #FEFAAA",
"W 	c #FEFAA9",
"X 	c #FEFAA8",
"Y 	c #FEFAA7",
"Z 	c #FEFAA6",
"` 	c #FEFAA5",
" .	c #FEF9A4",
"..	c #FEF9A3",
"+.	c #FEF9A2",
"@.	c #FEF9A1",
"#.	c #FEF9A0",
"$.	c #FEF99F",
"%.	c #FEF89F",
"                                                                                                ",
"                                                                                                ",
"    . . . . . . . . . . . . . . . . . . . . . . . . . . . . . . . . . . . . . . . . . . . .     ",
"    . + + + + + + + + + + + + + + + + + + + + + + + + + + + + + + + + + + + + + + + + + + .     ",
"    . + @ @ @ @ @ @ @ @ @ @ @ @ @ @ @ @ @ @ @ @ @ @ @ @ @ @ @ @ @ @ @ @ @ @ @ @ @ @ @ @ # .     ",
"    . + @ @ @ @ @ @ @ @ @ @ @ @ @ @ @ @ @ @ @ @ @ @ @ @ @ @ @ @ @ @ @ @ @ @ @ @ @ @ @ @ # .     ",
"    . + @ @ @ @ @ @ @ @ @ @ @ @ @ @ @ @ @ @ @ @ @ @ @ @ @ @ @ @ @ @ @ @ @ @ @ @ @ @ @ @ # .     ",
"    . + @ @ . . . . . . . . . . . . . . . . . . . . . . . . . . . . . . . . . . . . @ @ # .     ",
"    . + @ @ . $ $ $ $ $ . % & * = - ; > , ' ) ! ~ { ] ^ / ( . $ $ $ $ $ $ $ $ $ $ . @ @ # .     ",
"    . + @ @ . $ _ _ _ : . % & * < - ; [ } ' | 1 ~ 2 3 4 5 ( . $ _ _ _ : $ _ _ _ : . @ @ # .     ",
"    . + @ @ . $ _ _ _ 6 . % & * = - ; > , ' ) ! ~ { ] ^ / ( . $ _ _ _ 6 $ _ _ _ 6 . @ @ # .     ",
"    . + @ @ . $ _ _ _ 6 . % 7 8 9 0 a b c d e f g h i j k / . $ _ _ _ 6 $ _ _ _ 6 . @ @ # .     ",
"    . + @ @ . : 6 6 6 6 . % l m n o p q r s t u v w 2 x j ^ . : 6 6 6 6 : 6 6 6 6 . @ @ # .     ",
"    . + @ @ . . . . . . . . . . . . . . . . . . . . . . . . . . . . . . . . . . . . @ @ # .     ",
"    . + @ @ . y y y y y y y y y y y y y y y y y y y y y y y y y y y y y y y y y y . @ @ # .     ",
"    . + @ @ . y y y y y y y y y y y y y y y y y y y y y y y y y y y y y y y y y y . @ @ # .     ",
"    . + @ @ . y y y y y y y y y y y y y y y y y y y y y y y y y y y y y y y y y y . @ @ # .     ",
"    . + @ @ . y z z z z z z z z z z z z z z z z z z z z z z z z z z z z z z z A y . @ @ # .     ",
"    . + @ @ . y z B B C D D E F G H H I J J K K L M M M N N N O O O O A _ _ _ $ y . @ @ # .     ",
"    . + @ @ . y z B B C D E F G H H I J K K L L M N N N O O O P P P P A _ Q _ $ y . @ @ # .     ",
"    . + @ @ . y z B C D E F G H H I J K K L M M N O O O P P P R R R R A _ _ _ $ y . @ @ # .     ",
"    . + @ @ . y z C D E F G G H I J K L L M N N O O P P R R S S S S S A Q Q Q $ y . @ @ # .     ",
"    . + @ @ . y z C D E F G H I J K L L M N O O P P R S S S T T T T T A Q Q Q $ y . @ @ # .     ",
"    . + @ @ . y z D E F G H I J K K L M N O O P R R S T T T U U U U U A Q Q Q $ y . @ @ # .     ",
"    . + @ @ . y z E F F G H I J K L M N O O P R S S T U U U V V V V V A Q Q Q $ y . @ @ # .     ",
"    . + @ @ . y z E F G H I J K L M N O O P R S T T U U V V W W W X X A _ _ _ $ y . @ @ # .     ",
"    . + @ @ . y z E G H I J K K L M N O P R S T T U V V W W X X Y Y Y A _ _ _ $ y . @ @ # .     ",
"    . + @ @ . y z F G H I J K L M N O P R S T T U V W W X Y Y Y Z Z Z A _ _ _ $ y . @ @ # .     ",
"    . + @ @ . y z F G H I J L M N O O P R S T U V W X X Y Y Z Z ` ` ` A _ _ _ $ y . @ @ # .     ",
"    . + @ @ . y z G H I J K L M N O P R S T U V W X X Y Z Z ` `  . . .A _ _ _ $ y . @ @ # .     ",
"    . + @ @ . y z G H I J K L M N O P S T U U V W X Y Z ` `  . .......A _ _ _ $ y . @ @ # .     ",
"    . + @ @ . y z G H I K L M N O P R S T U V W X Y Z `  . .....+.+.+.A Q Q Q $ y . @ @ # .     ",
"    . + @ @ . y z H I J K L M N O P R S T U V W Y Y Z `  ...+.+.@.@.@.A Q Q Q $ y . @ @ # .     ",
"    . + @ @ . y z H I J K L M N O P S T U V W X Y Z `  ...+.@.@.#.#.$.A Q Q Q $ y . @ @ # .     ",
"    . + @ @ . y z H I J K L M O P R S T U V W X Y Z `  ...+.@.#.$.$.%.A Q Q Q $ y . @ @ # .     ",
"    . + @ @ . y z H I J K L N O P R S T U V W Y Z `  ...+.@.#.$.%.%.%.A _ _ _ $ y . @ @ # .     ",
"    . + @ @ . y z H I J K M N O P R S T U V X Y Z `  ...+.@.#.$.%.%.%.A _ Q _ $ y . @ @ # .     ",
"    . + @ @ . y z H I J K M N O P R S T U V X Y Z `  ...+.@.$.%.%.%.%.A _ _ _ $ y . @ @ # .     ",
"    . + @ @ . y A $ $ $ $ $ $ $ $ $ $ $ $ $ $ $ $ $ $ $ $ $ $ $ $ $ $ $ $ $ $ $ y . @ @ # .     ",
"    . + @ @ . y y y y y y y y y y y y y y y y y y y y y y y y y y y y y y y y y y . @ @ # .     ",
"    . + @ @ . . . . . . . . . . . . . . . . . . . . . . . . . . . . . . . . . . . . @ @ # .     ",
"    . + @ @ @ @ @ @ @ @ @ @ @ @ @ @ @ @ @ @ @ @ @ @ @ @ @ @ @ @ @ @ @ @ @ @ @ @ @ @ @ @ # .     ",
"    . + @ @ @ @ @ @ @ @ @ @ @ @ @ @ @ @ @ @ @ @ @ @ @ @ @ @ @ @ @ @ @ @ @ @ @ @ @ @ @ @ # .     ",
"    . + @ @ @ @ @ @ @ @ @ @ @ @ @ @ @ @ @ @ @ @ @ @ @ @ @ @ @ @ @ @ @ @ @ @ @ @ @ @ @ @ # .     ",
"    . + # # # # # # # # # # # # # # # # # # # # # # # # # # # # # # # # # # # # # # # # # .     ",
"    . . . . . . . . . . . . . . . . . . . . . . . . . . . . . . . . . . . . . . . . . . . .     ",
"                                                                                                ",
"                                                                                                "};
