/* XPM */
static char * close_xpm[] = {
"20 20 154 2",
"  	c None",
". 	c #E5E5E5",
"+ 	c #D8D8D8",
"@ 	c #D7D7D7",
"# 	c #D6D6D6",
"$ 	c #D4D4D4",
"% 	c #D3D3D3",
"& 	c #D2D2D2",
"* 	c #D1D1D1",
"= 	c #CCCCCC",
"- 	c #C9C9C9",
"; 	c #C6C6C6",
"> 	c #C5C5C5",
", 	c #C3C3C3",
"' 	c #C2C2C2",
") 	c #C1C1C1",
"! 	c #BFBFBF",
"~ 	c #BEBEBE",
"{ 	c #BDBDBD",
"] 	c #BCBCBC",
"^ 	c #BABABA",
"/ 	c #B9B9B9",
"( 	c #B8B8B8",
"_ 	c #B7B7B7",
": 	c #B6B6B6",
"< 	c #B4B4B4",
"[ 	c #B3B3B3",
"} 	c #B2B2B2",
"| 	c #B0B0B0",
"1 	c #AFAFAF",
"2 	c #ADADAD",
"3 	c #ACACAC",
"4 	c #ABABAB",
"5 	c #AAAAAA",
"6 	c #A9A9A9",
"7 	c #A8A8A8",
"8 	c #A7A7A7",
"9 	c #A6A6A6",
"0 	c #A5A5A5",
"a 	c #A4A4A4",
"b 	c #A3A3A3",
"c 	c #A2A2A2",
"d 	c #A1A1A1",
"e 	c #A0A0A0",
"f 	c #9F9F9F",
"g 	c #9E9E9E",
"h 	c #9D9D9D",
"i 	c #9C9C9C",
"j 	c #9B9B9B",
"k 	c #999999",
"l 	c #989898",
"m 	c #979797",
"n 	c #969696",
"o 	c #959595",
"p 	c #939393",
"q 	c #929292",
"r 	c #919191",
"s 	c #8D8D8D",
"t 	c #8C8C8C",
"u 	c #8B8B8B",
"v 	c #8A8A8A",
"w 	c #888888",
"x 	c #878787",
"y 	c #868686",
"z 	c #858585",
"A 	c #848484",
"B 	c #838383",
"C 	c #828282",
"D 	c #818181",
"E 	c #808080",
"F 	c #7F7F7F",
"G 	c #7E7E7E",
"H 	c #7D7D7D",
"I 	c #7C7C7C",
"J 	c #7B7B7B",
"K 	c #797979",
"L 	c #787878",
"M 	c #777777",
"N 	c #757575",
"O 	c #747474",
"P 	c #727272",
"Q 	c #717171",
"R 	c #707070",
"S 	c #6E6E6E",
"T 	c #6D6D6D",
"U 	c #6C6C6C",
"V 	c #6B6B6B",
"W 	c #6A6A6A",
"X 	c #696969",
"Y 	c #686868",
"Z 	c #676767",
"` 	c #666666",
" .	c #656565",
"..	c #636363",
"+.	c #626262",
"@.	c #616161",
"#.	c #606060",
"$.	c #5F5F5F",
"%.	c #5E5E5E",
"&.	c #5D5D5D",
"*.	c #5B5B5B",
"=.	c #5A5A5A",
"-.	c #595959",
";.	c #585858",
">.	c #565656",
",.	c #555555",
"'.	c #545454",
").	c #535353",
"!.	c #525252",
"~.	c #4C4C4C",
"{.	c #444444",
"].	c #414141",
"^.	c #404040",
"/.	c #3F3F3F",
"(.	c #3D3D3D",
"_.	c #3C3C3C",
":.	c #3B3B3B",
"<.	c #3A3A3A",
"[.	c #393939",
"}.	c #373737",
"|.	c #343434",
"1.	c #323232",
"2.	c #313131",
"3.	c #2E2E2E",
"4.	c #2D2D2D",
"5.	c #2C2C2C",
"6.	c #2B2B2B",
"7.	c #2A2A2A",
"8.	c #292929",
"9.	c #272727",
"0.	c #262626",
"a.	c #252525",
"b.	c #242424",
"c.	c #232323",
"d.	c #222222",
"e.	c #212121",
"f.	c #1F1F1F",
"g.	c #1E1E1E",
"h.	c #1D1D1D",
"i.	c #1C1C1C",
"j.	c #1B1B1B",
"k.	c #1A1A1A",
"l.	c #191919",
"m.	c #181818",
"n.	c #171717",
"o.	c #161616",
"p.	c #151515",
"q.	c #141414",
"r.	c #131313",
"s.	c #121212",
"t.	c #111111",
"u.	c #101010",
"v.	c #0F0F0F",
"w.	c #000000",
"d.r.q.o.n.n.o.p.p.p.p.p.o.m.l.n.k.7.(...",
"i.o.i.g.f.h.j.j.h.g.g.g.c.0.e.e.4.:.'.R ",
"a.d.{.X +.@.W K F F F E J Q L s y Y U u ",
"7.8.=.A v f 3 5 f f g h g | ) ( | y K G ",
"7.8.).y 6 ) ^ a d 8 0 2 ; # ! [ [ s  .J ",
"8.0.!.h ) u >.k - ' , $ * ..V 8 _ L W x ",
"9.b.*.5 _ '.w.o.h ' = + ^.w.d.m e O P H ",
"0.b.` 9 e 1 |.w.u.j & ^.w.u.%.k o G V U ",
"0.0.U g e > _ 5.w.n.1.w.v.-.o d k D $.Z ",
"a.9.U i 9 ' ~ ( }.w.w.p.%.t / 0 j E &.` ",
"a.9.U i 0 , = * _.w.w.t.M : , 8 j E &.` ",
"0.8.T k 3 $ @ ^.w.o.e.w.s.j ; e i F *.` ",
"9.3.X k > * ].w.v.*.v 5.w.r.B p a K >.` ",
"4.2.#.7 % T w.r.;.s [ : 1.w.i.C c U ,.V ",
"2.4.` { ] C /.$.o / , > j 1.[.z n +.-.R ",
"5.6.K < } 7 e h b 9 8 d p t t o A ..$.O ",
"2.<.O 2 } ^ 7 m l j j i b 0 m z E T Z K ",
"{.~.Y u q H L C y A A A I S  .` Q S P E ",
";.X F u M K B I S W W Y ..+.` S N u 5 s ",
"G v 0 p r g p F M M M M L G B w t h . 4 "};
