/* XPM */
static char * mini-question_xpm[] = {
"16 14 5 1",
" 	c None",
".	c red",
"X	c white",
"o	c black",
"O	c gray50",
"     ......     ",
"    .X......    ",
"   .X..oo...o   ",
"   ...o  ...o   ",
"    oo   ...o   ",
"        ...o    ",
"       ...o     ",
"      ..oo      ",
"      ....o     ",
"      O.oO      ",
"      OX..      ",
"      ....O     ",
"       ..oO     ",
"        oO      "};
