/* XPM */
static char * mini-roach_xpm[] = {
"16 14 4 1",
" 	c None",
".	c black",
"X	c gray50",
"#      c white",
"                ",
"     ..         ",
"   ..           ",
"  .   ..        ",
" .  ..          ",
" . .            ",
"  .. XX....XX   ",
"   ...........  ",
"  ..##......... ",
"  ............. ",
"     . .  . .   ",
"   .. .    . .. ",
"                ",
"                "};
