/* XPM */
static char * mini-move_xpm[] = {
"16 14 2 1",
" 	c None",
".	c red",
"                ",
"       ..       ",
"      ....      ",
"     ......     ",
"   .   ..   .   ",
"  ..   ..   ..  ",
" .............. ",
" .............. ",
"  ..   ..   ..  ",
"   .   ..   .   ",
"     ......     ",
"      ....      ",
"       ..       ",
"                "};
