/* XPM */
static char * titlebar_xpm[] = {
"256 20 253 2",
"  	c None",
". 	c #4A5A17",
"+ 	c #3A4804",
"@ 	c #657422",
"# 	c #6D7B27",
"$ 	c #6C7427",
"% 	c #4C5608",
"& 	c #575D07",
"* 	c #404805",
"= 	c #444F07",
"- 	c #384004",
"; 	c #364705",
"> 	c #506221",
", 	c #425605",
"' 	c #506209",
") 	c #3E5204",
"! 	c #4C5104",
"~ 	c #545605",
"{ 	c #7A752E",
"] 	c #999644",
"^ 	c #A49650",
"/ 	c #B6A857",
"( 	c #BFAD64",
"_ 	c #B19E57",
": 	c #A6A847",
"< 	c #B0B547",
"[ 	c #747C19",
"} 	c #929B49",
"| 	c #7D8322",
"1 	c #ABA860",
"2 	c #888E3C",
"3 	c #7C7D18",
"4 	c #A2AA4C",
"5 	c #A2AA1C",
"6 	c #9CA61C",
"7 	c #97A217",
"8 	c #989E17",
"9 	c #929E15",
"0 	c #92A21C",
"a 	c #99A634",
"b 	c #919C37",
"c 	c #ADB358",
"d 	c #A0A256",
"e 	c #73752A",
"f 	c #646E12",
"g 	c #6B7305",
"h 	c #646808",
"i 	c #282904",
"j 	c #2F2904",
"k 	c #362A04",
"l 	c #2D2204",
"m 	c #3F3A05",
"n 	c #3F4004",
"o 	c #64620D",
"p 	c #5B6216",
"q 	c #646918",
"r 	c #646A28",
"s 	c #7C843E",
"t 	c #869054",
"u 	c #828E54",
"v 	c #768644",
"w 	c #6E7E3C",
"x 	c #758430",
"y 	c #818E37",
"z 	c #7B8430",
"A 	c #88923C",
"B 	c #747C2A",
"C 	c #7B7C35",
"D 	c #90963C",
"E 	c #747418",
"F 	c #8F9038",
"G 	c #9F9D56",
"H 	c #7D8A31",
"I 	c #566A04",
"J 	c #738323",
"K 	c #89963B",
"L 	c #667A1C",
"M 	c #5D6E0E",
"N 	c #3D4E06",
"O 	c #303F04",
"P 	c #2F3A04",
"Q 	c #505B0A",
"R 	c #5D681E",
"S 	c #464805",
"T 	c #596209",
"U 	c #495C06",
"V 	c #5B680E",
"W 	c #8F9147",
"X 	c #ADAE61",
"Y 	c #A9A25D",
"Z 	c #B2A863",
"` 	c #C7B869",
" .	c #CEBA74",
"..	c #B9AE4B",
"+.	c #6C7417",
"@.	c #9BA22D",
"#.	c #747D08",
"$.	c #768410",
"%.	c #303404",
"&.	c #C0BA5C",
"*.	c #979C2B",
"=.	c #A8A737",
"-.	c #AAAA4D",
";.	c #96922F",
">.	c #989047",
",.	c #8B843E",
"'.	c #847C38",
").	c #5C550C",
"!.	c #665D19",
"~.	c #5E5C08",
"{.	c #4A4A08",
"].	c #4D5117",
"^.	c #6B7C1A",
"/.	c #989E47",
"(.	c #7B7D29",
"_.	c #838436",
":.	c #999D55",
"<.	c #99A24D",
"[.	c #546608",
"}.	c #515B1E",
"|.	c #283304",
"1.	c #6D6E2B",
"2.	c #B8B46D",
"3.	c #BFB676",
"4.	c #A89D5B",
"5.	c #C2BE73",
"6.	c #919A28",
"7.	c #AAB234",
"8.	c #909A16",
"9.	c #8E9616",
"0.	c #818E17",
"a.	c #2F2E04",
"b.	c #8C8A3F",
"c.	c #A0A244",
"d.	c #8C8A18",
"e.	c #B8BA5C",
"f.	c #9C925A",
"g.	c #6C6E10",
"h.	c #373A04",
"i.	c #D5D08E",
"j.	c #C0BA72",
"k.	c #B7AD6B",
"l.	c #AEAE4E",
"m.	c #848A32",
"n.	c #B2BA48",
"o.	c #A6AE34",
"p.	c #969A1B",
"q.	c #B7B462",
"r.	c #A8A240",
"s.	c #A09D40",
"t.	c #847C18",
"u.	c #B2AA50",
"v.	c #958A41",
"w.	c #625E04",
"x.	c #818E2B",
"y.	c #A4A85F",
"z.	c #66750D",
"A.	c #181E04",
"B.	c #363504",
"C.	c #C6C17C",
"D.	c #B6AA7C",
"E.	c #838A1D",
"F.	c #888E15",
"G.	c #130B04",
"H.	c #1E1504",
"I.	c #4E4617",
"J.	c #525109",
"K.	c #BABE64",
"L.	c #8B8532",
"M.	c #D6CE74",
"N.	c #D2C674",
"O.	c #C0B65A",
"P.	c #C9BF69",
"Q.	c #A69A40",
"R.	c #988E1C",
"S.	c #747407",
"T.	c #CACA80",
"U.	c #889217",
"V.	c #7D860F",
"W.	c #4E4404",
"X.	c #65612C",
"Y.	c #ACA646",
"Z.	c #82761C",
"`.	c #948A1B",
" +	c #6C6906",
".+	c #848521",
"++	c #5D7207",
"@+	c #282E04",
"#+	c #585D15",
"$+	c #C8C684",
"%+	c #858A45",
"&+	c #7C8A17",
"*+	c #909128",
"=+	c #B2B361",
"-+	c #C8C087",
";+	c #CCC098",
">+	c #3E3604",
",+	c #A79E46",
"'+	c #9E921F",
")+	c #6C6A16",
"!+	c #72860C",
"~+	c #979A45",
"{+	c #A0A730",
"]+	c #766E34",
"^+	c #281C04",
"/+	c #62560C",
"(+	c #A49C2E",
"_+	c #A0962A",
":+	c #A5A231",
"<+	c #A39B23",
"[+	c #7C7C09",
"}+	c #5E7604",
"|+	c #71820C",
"1+	c #211D04",
"2+	c #A0A64F",
"3+	c #9E9D29",
"4+	c #1C0E04",
"5+	c #AEA733",
"6+	c #746C04",
"7+	c #8A820C",
"8+	c #838512",
"9+	c #928624",
"0+	c #736D17",
"a+	c #899026",
"b+	c #7A7418",
"c+	c #97961F",
"d+	c #9E9E1C",
"e+	c #7C7608",
"f+	c #B6C66C",
"g+	c #1E2204",
"h+	c #7B8214",
"i+	c #909628",
"j+	c #7A6E0C",
"k+	c #8B8612",
"l+	c #0E1604",
"m+	c #202A04",
"n+	c #46420C",
"o+	c #8F9119",
"p+	c #C2C254",
"q+	c #B8B248",
"r+	c #847C08",
"s+	c #565624",
"t+	c #667C06",
"u+	c #768E14",
"v+	c #6B7C07",
"w+	c #768A14",
"x+	c #BCBF6F",
"y+	c #161204",
"z+	c #8A841C",
"A+	c #9A9630",
"B+	c #B2BA5C",
"C+	c #A4AE54",
"D+	c #B2AE34",
". + + @ # $ % % & % * = = - ; > , ' , ) ! = ~ { ] ^ / ( _ _ ( / : < [ } | 1 2 3 4 5 5 6 7 7 8 9 0 a b c d e e f g h ~ * i j j k j l m m n o p q r s t t u v w x y # z b A B C D $ E e z F G G G H I J K K A L M N = ) N + ; . + + @ # $ % % & % * = = - ; > , ' , ) ! = ~ { ] ^ / ( _ _ ( / : < [ } | 1 2 3 4 5 5 6 7 7 8 9 0 a b c d e e f g h ~ * i j j k j l m m n o p q r s t t u v w x y # z b A B C D $ E e z F G G G H I J K K A L M N = ) N + ; . + + @ # $ % % & % * = = - ; > , ' , ) ! = ~ { ] ^ / ( _ _ ( / : < [ } ",
"O O P Q R @ Q S T * P O ) ) N . , U , = V B W X ( Y Z ( `  .` ..: 4 +.h ~ B ! [ @.6 7 6 6 7 7 9 #.$.$.V n %.p &.D *.< =.-.;.>.,.{ { '.).!.~.{.%.%.- = % ].) > @ H ^.x /.W B s 2 e e (._.W :.G <.D +.^.^.^.J @ [.* + + + N N O O P Q R @ Q S T * P O ) ) N . , U , = V B W X ( Y Z ( `  .` ..: 4 +.h ~ B ! [ @.6 7 6 6 7 7 9 #.$.$.V n %.p &.D *.< =.-.;.>.,.{ { '.).!.~.{.%.%.- = % ].) > @ H ^.x /.W B s 2 e e (._.W :.G <.D +.^.^.^.J @ [.* + + + N N O O P Q R @ Q S T * P O ) ) N . , U , = V B W X ( Y Z ( `  .` ..: 4 +.h ",
"N N O P - & & = - = ~ }.= |.|.N , ) ! [.1.q '.2.2. .3.4.^ ^ Z 5.c 6.+.* * ~ - *.< 7.5 6 7 8.9.0.8.[ % |.a.i a.b.c./.d.e.e.5.^ 4.f.,.,.{.g.o ~ h.- h.* N P ; M y H ^.B A s $ C W B (.z b.W G G d <.z M V V M @ ' ' U ! ) % > N N O P - & & = - = ~ }.= |.|.N , ) ! [.1.q '.2.2. .3.4.^ ^ Z 5.c 6.+.* * ~ - *.< 7.5 6 7 8.9.0.8.[ % |.a.i a.b.c./.d.e.e.5.^ 4.f.,.,.{.g.o ~ h.- h.* N P ; M y H ^.B A s $ C W B (.z b.W G G d <.z M V V M @ ' ' U ! ) % > N N O P - & & = - = ~ }.= |.|.N , ) ! [.1.q '.2.2. .3.4.^ ^ Z 5.c 6.+.* ",
"; , N ; + Q Q * Q & Q % N + N ' ) + ; - - ! 2 i.3.j.Y >.4.k.k.3.l.m.h S {.! & n.o.5 7 p.8.8 9 8 g & ! %.a.i h.e q.r.s.t...u.j.2.q.u.v.~.'.g w.~ g.= * ].O + w <.x.[ H H B $ x A C x (._.W :.d y.:.K V Q , U z.' V , N * , . ; , N ; + Q Q * Q & Q % N + N ' ) + ; - - ! 2 i.3.j.Y >.4.k.k.3.l.m.h S {.! & n.o.5 7 p.8.8 9 8 g & ! %.a.i h.e q.r.s.t...u.j.2.q.u.v.~.'.g w.~ g.= * ].O + w <.x.[ H H B $ x A C x (._.W :.d y.:.K V Q , U z.' V , N * , . ; , N ; + Q Q * Q & Q % N + N ' ) + ; - - ! 2 i.3.j.Y >.4.k.k.3.l.m.h * ",
", , ) ; O N & T $ x z B f U , T O = - A.B.,.C.5.2.3.D.4.k.k.1 1 l.B Q S * ! E.< 7 8 9 8.9.9.F.E.h ~ m i G.H.I.J.^ K.s.;.L.M.N.O.P.` Q.R.;.S.~ & e S h.n P + @ H y H K K w f B z z B B x m.D :.y.K } f Q = * T Q V % + + , ' , , ) ; O N & T $ x z B f U , T O = - A.B.,.C.5.2.3.D.4.k.k.1 1 l.B Q S * ! E.< 7 8 9 8.9.9.F.E.h ~ m i G.H.I.J.^ K.s.;.L.M.N.O.P.` Q.R.;.S.~ & e S h.n P + @ H y H K K w f B z z B B x m.D :.y.K } f Q = * T Q V % + + , ' , , ) ; O N & T $ x z B f U , T O = - A.B.,.C.5.2.3.D.4.k.k.1 1 l.B & S ",
"U U U N N O ) % ! e A A B & * * * n %.B.$ T.i.G Z 3.j.q.1 4.y.j.y.B ! * - & *.a 7 6 7 8 U.V.S.g S.~ - W.m I.X.l j !.q.Y.] Z.Y.` / =.`.;.d.h ~. +.+Q - * n * p @ x.H H # R R # H z B +.B s s t t u W B V Q % Q Q f & ) * = U U U U N N O ) % ! e A A B & * * * n %.B.$ T.i.G Z 3.j.q.1 4.y.j.y.B ! * - & *.a 7 6 7 8 U.V.S.g S.~ - W.m I.X.l j !.q.Y.] Z.Y.` / =.`.;.d.h ~. +.+Q - * n * p @ x.H H # R R # H z B +.B s s t t u W B V Q % Q Q f & ) * = U U U U N N O ) % ! e A A B & * * * n %.B.$ T.i.G Z 3.j.q.1 4.y.j.y.B ! * ",
"' I L ++@ % + @++ * h.* q +.h Q V n n #+,.2.$+2.1 G G 1 1 1 1 y.%++.J.- * &+@.7 U.9.9.9.F.F.F.*+=+q.$+i.-+;+;+D.>+H.W.O.P.O.,+Q...r.'+R.`.o S.S.;.)+* * = * = ) ++[.' Q Q f s y H # M $ B # $ $ $ e e p #+Q * . [.% + + * , ' I L ++@ % + @++ * h.* q +.h Q V n n #+,.2.$+2.1 G G 1 1 1 1 y.%++.J.- * &+@.7 U.9.9.9.F.F.F.*+=+q.$+i.-+;+;+D.>+H.W.O.P.O.,+Q...r.'+R.`.o S.S.;.)+* * = * = ) ++[.' Q Q f s y H # M $ B # $ $ $ e e p #+Q * . [.% + + * , ' I L ++@ % + @++ * h.* q +.h Q V n n #+,.2.$+2.1 G G 1 1 1 1 y.%+g.~ - ",
"!+L ^.Q M > p = - P @+|.! q q p B C ~+d F _.F b.>.;.1 =+2 p ! S #+~.% %.! {+8.8.9 8.9.F.E.F.*.: q.1 Y ]+W.k H.l ^+G./+,+u...N...(+_+:+<+<+S.d.[+F +.{.* J.! * * + - N Q R x H w y L @ L w 1.p }.].% X.J.#+! P * & % ) ! ' I !+L ^.Q M > p = - P @+|.! q q p B C ~+d F _.F b.>.;.1 =+2 p ! S #+~.% %.! {+8.8.9 8.9.F.E.F.*.: q.1 Y ]+W.k H.l ^+G./+,+u...N...(+_+:+<+<+S.d.[+F +.{.* J.! * * + - N Q R x H w y L @ L w 1.p }.].% X.J.#+! P * & % ) ! ' I !+L ^.Q M > p = - P @+|.! q q p B C ~+d F _.F b.>.;.1 =+2 p ! S #+#+% %.",
"}+I |+[.- O . * * - 1+|.{.% 1.e 2 2+K.=+] _.*+c.~+l.e.c.f V % % #+! n * V F.9 9.7 9.U.9.3+:+2+: q.b.).>+^+G.4+l ^+/+Q.&.O...(+_+'+`._+<+5+6+7+8+9+0+~ S ! ! ! * O = ! . @ K H x x.x.V f ++R * + B.* ].n ~ * @+* Q & ! = Q p }+I |+[.- O . * * - 1+|.{.% 1.e 2 2+K.=+] _.*+c.~+l.e.c.f V % % #+! n * V F.9 9.7 9.U.9.3+:+2+: q.b.).>+^+G.4+l ^+/+Q.&.O...(+_+'+`._+<+5+6+7+8+9+0+~ S ! ! ! * O = ! . @ K H x x.x.V f ++R * + B.* ].n ~ * @+* Q & ! = Q p }+I |+[.- O . * * - 1+|.{.% 1.e 2 2+K.=+] _.*+c.~+l.e.c.f V % % & ! * n ",
"++I ' + ) O * ].= {.P S n i h.! 2 s.l.c.a+3 d.*.s.*.D H h ^.' Q & J.* ~ #.8.0 9.9 9.8 =.{+*.b+! B.,.3.v.!./+/+).,.v.9+9+R.'+<+'+'+<+5+c+d+e+d.#.3 .+(.q #+p & = q # H y } } z # x K @ @ }., }.|.@+l h.- %.S S q & % = % R p ++I ' + ) O * ].= {.P S n i h.! 2 s.l.c.a+3 d.*.s.*.D H h ^.' Q & J.* ~ #.8.0 9.9 9.8 =.{+*.b+! B.,.3.v.!./+/+).,.v.9+9+R.'+<+'+'+<+5+c+d+e+d.#.3 .+(.q #+p & = q # H y } } z # x K @ @ }., }.|.@+l h.- %.S S q & % = % R p ++I ' + ) O * ].= {.P S n i h.! 2 s.l.c.a+3 d.*.s.*.D H h ^.' & #+J.n Q ",
"m.a+b b f+A ' }.. ! * }.{.g+i {.V.| a+.+h+3 .+a+*.D i+b m.a+f ' Q ! * g U.8.6 9.0 8 *.| ! {.J.n {.o 0+~.I./+X.j+_ ,+^ '+Q.(+R.Z.`.'+<+7+`.e+k+S..+(. +#+1.%+_.f R B 2 t :.<.K z H K z.V U % #+l+@+%.m j n m+~+}.!.& & B } } H a+b b f+A ' }.. ! * }.{.g+i {.V.| a+.+h+3 .+a+*.D i+b m.a+f ' Q ! * g U.8.6 9.0 8 *.| ! {.J.n {.o 0+~.I./+X.j+_ ,+^ '+Q.(+R.Z.`.'+<+7+`.e+k+S..+(. +#+1.%+_.f R B 2 t :.<.K z H K z.V U % #+l+@+%.m j n m+~+}.!.& & B } } H a+b b f+A ' }.. ! * }.{.g+i {.V.| a+.+h+3 .+a+*.D i+b E.A V [.Q ! * g ",
"2 A F /.f+H Q , #+N O = Q - * p J V.8+U.9.*.3+@.F.a+i+6.H B ! Q ! = * $.7 U.9 8.5 V..+E {.S J.n n+n {. +E  +b+`.,+r.r.,+<+_+'+`.7+7+7+e+7+S.k+k+~+q B.- R %+u C B W 2 C K } } J z x.+.V % ' ; A.>+n+n+i {.J.X S & p r z /./.F A F /.f+H Q , #+N O = Q - * p J V.8+U.9.*.3+@.F.a+i+6.H B ! Q ! = * $.7 U.9 8.5 V..+E {.S J.n n+n {. +E  +b+`.,+r.r.,+<+_+'+`.7+7+7+e+7+S.k+k+~+q B.- R %+u C B W 2 C K } } J z x.+.V % ' ; A.>+n+n+i {.J.X S & p r z /./.F A F /.f+H Q , #+N O = Q - * p J V.8+U.9.*.3+@.F.a+i+b H [ U % ! ! * $.",
"-.D d -.y.z # V ' U ) N & U & f g z.#.8+9.8.o+F.i+i+a+x.z.[.- U ! ! Q E.9 U.9 a U.T h E ~ {.).J. +0++. +E *+c p+q+< q+5+:+(+(+:+5+'+_+c+(+p.c.=.-.E B.i - R $ # C s B e W s 2 # z U.x z.% & |.% X.m n a.i G n B.#+1.C z D d -.D d -.y.z # V ' U ) N & U & f g z.#.8+9.8.o+F.i+i+a+x.z.[.- U ! ! Q E.9 U.9 a U.T h E ~ {.).J. +0++. +E *+c p+q+< q+5+:+(+(+:+5+'+_+c+(+p.c.=.-.E B.i - R $ # C s B e W s 2 # z U.x z.% & |.% X.m n a.i G n B.#+1.C z D d -.D d -.y.z # V ' U ) N & U & f g z.#.8+9.8.o+F.i+i+a+a+z.T ; Q = % Q 0.",
"f.,.q.=+b z V.' & M z.I M ^.z.[ &+U.9.@.{+a 6.o+*.*.K *+| h O & = Q g 0.8.9.8.7 8+J.J.w.J.W.o { +.[ [+[+R.{+d+d.k+k+k+k+k+7+r+j+ +o o ).~.o ~.! h.B y.W R ].R 1.= ~ 1.2 X 0+B [ K 2 | h % R * r s+1+1+j B.W g+S ~ e C s 2 :.f.,.q.=+b z | ' & M z.I M ^.z.[ &+U.9.@.{+a 6.o+*.*.K *+| h O & = Q g 0.8.9.8.7 8+J.J.w.J.W.o { +.[ [+[+R.{+d+d.k+k+k+k+k+7+r+j+ +o o ).~.o ~.! h.B y.W R ].R 1.= ~ 1.2 X 0+B [ K 2 | h % R * r s+1+1+j B.W g+S ~ e C s 2 :.f.,.q.=+b z | ' & M z.I M ^.z.[ &+U.9.@.{+a 6.o+@.*.a+a+(.V O Q = ~ g F.",
"f.v.Z ] B B x.I ' t+u+t+v+w+|+w+0.U.8.6.8.8.U.U.U.i+a+K B Q @+% ! & 0.U.9.0 0.9.@.& n+w.(.C E h w.V [ U.9.U.9.7 8 9.o+d.`.k+7+7+r+j+e+ +6+6+~.J.n S - a.%.* * %.S ]+G 2.x+q e +.D x.x [.& R C * y+G.1+m ]+C '._.~+y.y.G <.:.f.v.D.] B [ x.I ' t+u+t+v+w+|+w+0.U.8.6.8.8.U.U.U.i+a+K B Q @+% ! & 0.U.9.0 0.9.@.& n+w.(.C E h w.V [ U.9.U.9.7 8 9.o+d.`.k+7+7+r+j+e+ +6+6+~.J.n S - a.%.* * %.S ]+G 2.x+q e +.D x.x [.& R C * y+G.1+m ]+C '._.~+y.y.G <.:.f.v.D.] B [ x.I ' t+u+t+v+w+|+w+0.U.8.6.8.8.U.F.U.6.F K B Q @+% ! & &+U.",
"f.G D.b.(.| 0.' [.++|+++}+|+M v+&+U.9.i+U.U.9.i+a+*.D a+f * @+h ) & 8.0.9.5 #.3 @. +! & E E )+)+h g #.d.9.p.9.9.c+p.:+:+o+7+[+Z.z+o 6+e+e+g.! w.J.! S - P @+|.%.%.F T.x+=+q .+e [ E.b q & = y.g+l+a.X.e ]+W :.W :.G ~+~+:.D f.G Z b.(.| 0.' [.++|+++}+|+M v+&+U.9.i+U.U.9.i+a+*.D a+f * @+h ) & 8.0.9.5 #.3 @. +! & E E )+)+h g #.d.9.p.9.9.c+p.:+:+o+7+[+Z.z+o 6+e+e+g.! w.J.! S - P @+|.%.%.F T.x+=+q .+e [ E.b q & = y.g+l+a.X.e ]+W :.W :.G ~+~+:.D f.G Z b.(.| 0.' [.++|+++}+|+M v+&+U.9.i+U.U.9.i+a+*.6.a+h * @+h , & 6.U.",
"4.1 2.(.(.B t+t+[.++v+v+g g g [+@.3+8.9.*+i+c+6.i+@.b *+h T , & I !+|+b b & @+h 3 q+:+:+c+*+6+ +w.6+[+o+[+p.d+p.d+p.c+;.F z+b+ + +h S.[ h * * V }.- A.A.|.|.|.P ~.x+=+x+C.f +.f q 4 x Q V @ $ = . @ w w z y A D c 4 2+d :.:.4.Z 2.(.z B t+t+[.++v+v+g g g [+@.3+8.9.*+i+c+6.i+@.b *+h T , & I !+|+b b & @+h 3 q+:+:+c+*+6+ +w.6+[+o+[+p.d+p.d+p.c+;.F z+b+ + +h S.[ h * * V }.- A.A.|.|.|.P ~.x+=+x+C.f +.f q 4 x Q V @ $ = . @ w w z y A D c 4 2+d :.:.4.Z 2.(.z B t+t+[.++v+v+g g g [+@.3+8.i+o+i+i+6.*+@.~+b h T , Q I &+#./.",
"2.3.X | | $.++t+M z.++#.[+e+_+5+3+3+c+c+c+c+i+c+F *./.i+&+[ #.$.U.V.i+2 1.i a.W.E 3+o+c+d+R.e+S.e+*+q+5+5+;.r+:+A+3+3 ! >+! o )+h E g.! = * ! #+r ].|.m+|.|.|.O p e.c D 2+| 2+g.f 2+m.V #+#+f * U [.[.[.M @ B H 2+<./.<.y.X 2.3.X | | $.++t+M z.++#.[+e+_+5+3+3+c+c+c+c+i+c+F *./.i+&+[ #.$.U.V.i+2 1.i a.W.E 3+o+c+d+R.e+S.e+*+q+5+5+;.r+:+A+3+3 ! >+! o )+h E g.! = * ! #+r ].|.m+|.|.|.O p e.c D 2+| 2+g.f 2+m.V #+#+f * U [.[.[.M @ B H 2+<./.<.y.X 2.3.X | | $.++t+M z.++#.[+e+_+5+3+3+c+c+c+c+i+A+a+A+*.*+&+#.#.h+U.|+i+2 ",
"3.-+G 2 E.$.z.v+!+#.i+a+*+c+e+[+d+p.c+9.i+p.i+i+9.c+@.a+6..+i+i+a $.| g.! 1+h.J.E E.[+8+d+o+d.k+3+o {+:+: : k+3 F F  +- i n ~.V [ V & = ! - ! R R s+P @+|.|.|.P #+| %+D -.m.B+B V B q T ! = R = , , , ' M V +.H D D G C+2.j.3.-+G m.E.$.z.v+!+#.i+a+*+c+e+[+d+p.c+9.i+p.i+i+9.c+@.a+6..+i+i+a $.| g.! 1+h.J.E E.[+8+d+o+d.k+3+o {+:+: : k+3 F F  +- i n ~.V [ V & = ! - ! R R s+P @+|.|.|.P #+| %+D -.m.B+B V B q T ! = R = , , , ' M V +.H D D G C+2.j.3.-+G m.E.$.z.v+!+#.i+a+*+c+e+[+d+p.c+9.i+p.i+6.6.6.a *+b .+i+9.6 !+| g.",
"3.$+b.A i+V.v+!+0.<.[ T ! w.=.D+p.p.c+c+p.p.p.p.@.*.*.i+6.i+6.6.@.E.~ J.S n n+_.E.[+S.#.3+d.;.*+r+f J.@.s.3 C.h {.h.%.m ! Q h g.g.Q * Q & * O p . % ; |.|.|.|.- q S p D c m.x+2 & Q * * = = }.) + N ) U T U & g.| F d =+x+j.2.$+b.A i+V.v+!+0.<.[ T ! w.=.D+p.p.c+c+p.p.p.p.@.*.*.i+6.i+6.6.@.E.~ J.S n n+_.E.[+S.#.3+d.;.*+r+f J.@.s.3 C.h {.h.%.m ! Q h g.g.Q * Q & * O p . % ; |.|.|.|.- q S p D c m.x+2 & Q * * = = }.) + N ) U T U & g.| F d =+x+j.2.$+b.A i+V.v+!+0.<.[ T ! w.=.D+p.p.c+c+c+p.p.p.3+*.*.U.6.i+6.b @.E.% ~ "};
