/* XPM */
static char*kcmscsi[]={
"16 16 12 1",
"i c #a0a0a4",
"g c #c0c0c0",
"# c #000000",
"e c #004040",
"j c #303030",
"d c #008080",
". c None",
"c c #c0ffff",
"h c #585858",
"b c #dcdcdc",
"a c #ffffff",
"f c #00c0c0",
".......###....#.",
"....###aab#...#.",
"...#aaaaaab#.#..",
"....#aaaaaab#...",
"...#a#abababb#..",
"..#acdebbbbbbb#.",
".#acdffegbgbgbg#",
"#acdffffegggggh#",
"#aaefffffegggh#.",
"#iaaeffffejgh#..",
".#iaaeffeaaj#...",
"..#iaaeeaah#....",
"...#iaaaah#.....",
"....#iaah#......",
".....#ih#.......",
"......##........"};
