/* XPM */
static char*mini[]={
"16 14 9 1",
". c #c3c3c3",
"# c #c00000",
"a c None",
"b c #0000c0",
"c c #ffffff",
"d c #808080",
"e c #000000",
"f c None",
"g c #c0c0c0",
"...........#####",
"aaaaaaaa...bbbbb",
"aaaaaaaaaaaccccc",
"ddddddddddddddde",
"dffffffffffffffe",
"dfgfdgfdgfdgfdge",
"dfgdegdegdegdege",
"dffdgfdgfdgfdgge",
"dfdegdegdegdegge",
"dfggggggggggggge",
"deeeeeeeeeeeeeee",
"aaaaaaaaaaaaaaaa",
"aaaaaaaaaaaaaaaa",
"aaaaaaaaaaaaaaaa"};
