/* XPM */
static char*kdisknavb[]={
"16 16 12 1",
"f c #ffa858",
"j c #a0a0a4",
"i c #c0c0c0",
"c c #808000",
"# c #404000",
"d c #000000",
"b c #ffff00",
"g c #ffdca8",
"a c #ffffc0",
". c None",
"h c #585858",
"e c #ffffff",
".....###........",
"....#abbcd......",
"...#eab#fgddd...",
"..#eab#hhdggfd..",
".#eab#ccihfggh..",
"#aabbbbbbchhhfd.",
".##caabb#iiijdfh",
"...#eab#iiijjdfh",
"..#eab#iiijjjdfh",
".#eabcccijjjjdfh",
"#aabbbbbcjjjjdfh",
".##cab#cjjjjjdfh",
"...cb#.ddjjjjdfh",
"..cb#....ddjjdfd",
".#b#.......djdfd",
".##.........dddd"};
