/* XPM */
static char * mini_kthememgr_xpm[] = {
/* width height num_colors chars_per_pixel */
"16 16 9 1",
/* colors */
" 	c None",
".	c #008000",
"X	c #00c000",
"o	c black",
"O	c #303030",
"+	c white",
"@	c #c0c000",
"#	c #f8fcc0",
"$	c #808000",
/* pixels */
"                ",
"    .     XXX   ",
"  ..XX. oX. ..  ",
"  .X  X.X.OX..  ",
"   .X.X..XX.o   ",
"  o+..X..O@##o$ ",
" .XX.....@..O@o ",
" X.@X.O+X.O.@@o ",
" .o#X.#o..@.@@o ",
"  o#X.##O@@.@@O ",
"  o#X.##O@@.@@O ",
"  o#X.##O@@.@@O ",
"  o@X.##O@@.@$O ",
"   oX.@#O@@.oO  ",
"     Oo@O@oo    ",
"       oOo      "};
