/* XPM */
/* Drawn  by Nico Shirwing for the K Desktop Environment */
/* See http://www.kde.org */
static char*kcontrol[]={
"32 32 29 1",
"# c #000000",
"i c #c0c0c0",
"d c #ffffff",
"j c #808080",
"k c #585858",
"h c #a0a0a4",
"o c #800000",
"b c #008000",
"l c #008080",
"m c #808000",
"a c #00c000",
"q c #00c0c0",
"r c #c0c000",
"p c #ff0000",
"u c #00ff00",
"g c #0000ff",
"t c #00ffff",
"v c #ffff00",
"A c #ffc0c0",
"y c #c0ffc0",
"f c #c0c0ff",
"x c #c0ffff",
"e c #ffffc0",
"s c #ff8000",
"n c #c05800",
"w c #ffa858",
"z c #ffdca8",
"c c #004000",
". c None",
"..###############...............",
"###aaaaaaaaaaaaa###############.",
"#aaabbbbbbbbbbbc#dddddddddddddd#",
"#eebbfgbbhbhbbbc#iiiiiiiiiiiiij#",
"#abbbbhbjjjjjbbc#jjjjjjjjjjjjij#",
"#eehhhhhjkkk#hbc############dij#",
"#abbbbbbjkkk#bbc############dij#",
"#eehhhhhjkkk#hbc##l#b#m#n#o#dij#",
"#abbbbhb#####bbc##l#b#m#n#o#dij#",
"#eebbbhbbhbhbbbc############dij#",
"#abbbbhbbhbhhpbc##q#a#r#s#d#dij#",
"#eebbjjjbhbhbobc##q#a#r#s#d#dij#",
"#bbbbjk#hhhhbbbc############dij#",
"#bbbb###bhbhbfbc##t#u#v#w#p#dij#",
"###abhbbbhbhhgbc##t#u#v#w#p#dij#",
"#d#abqbhhhbhbbbc############dij#",
"#d#abqbhbbbhhfbc##x#y#e#z#A#dij#",
"#d#abbbhbbbhbgbc##x#y#e#z#A#dij#",
"#d#abbjjjbjjjbbc############dij#",
"#d#abhjkjhjkjhbc############dij#",
"#d#abbjk#bjk#bbc#ddddddddddddij#",
"#d#abhjk#hjk#hbc#iiiiiiiiiiiiij#",
"#d#abb###b###bbc#jijijijibubiij#",
"#d#abbbhbbbhbbbc#iiiiiiiiiiiiij#",
"#j#abbbbbbbbbbbc#jjjjjjjjjjjjjj#",
".##ccccccccccccc###############.",
"..###############iihjk#.........",
".........#kjhiiddiihjk#.........",
"......####################......",
".....#dddddddddddddddddddd#.....",
".....#jjjjjjjjjjjjjjjjjjjj#.....",
".....######################....."};

