/* XPM */
static char * blockdevice_xpm[] = {
/* columns rows colors chars-per-pixel */
"32 32 8 1",
" 	c None",
".	c #808080",
"X	c #fbfffb",
"o	c #e0e0e0",
"O	c #dfd7cf",
"+	c black",
"@	c #c0c0c0",
"#	c White",
/* pixels */
"                                ",
"                                ",
"                                ",
"             .........          ",
"           ..XXooooooo..        ",
"         ..OOXXoooooooOo..      ",
"        .OOOOOXXoooooooOoO+     ",
"       .OOOOOOXXooooooOoOOO+    ",
"      .oooOOOOXXoooooOoOOOO+    ",
"     .ooooooOOOXooooOoOOOOXO+   ",
"     .ooooooooo....OOXOXOXOX+   ",
"    .ooooooooo.@##@+XOXOXOXO+   ",
"    .XXXXXXXX+####@+XXXXXXXX+   ",
"    .OXOXOXOX+@#@.+ooooooooo+   ",
"    .XOXOXOXOO++++.oooooooo++   ",
"    .OXOOOOOOOOoooXOOoooooo++   ",
"    ..OOOOOOOXOOooXXOOOooo+o+   ",
"    ..OOOOOOXOOooooXXOOOO+o++   ",
"    .O.OOOOXOoooooooXXOO+oo++   ",
"    ..O..OXOoooooooooX++oo+o+   ",
"    ..OOO..ooooooooo++OOO+o+    ",
"    .O.OOOO.........XXOO+oo+    ",
"     .O..OXOoooooooooX++oo+     ",
"     .OOO..ooooooooo++OOO+      ",
"      .OOOO.........XXOO+       ",
"       ..OXOoooooooooX++        ",
"         ..ooooooooo++          ",
"           .........            ",
"                                ",
"                                ",
"                                ",
"                                "};
