/* XPM */
static char * cdrom_unmount_xpm[] = {
/* columns rows colors chars-per-pixel */
"32 32 9 1",
" 	c None",
".	c #c0c0c0",
"X	c #fbfffb",
"o	c #e0e0e0",
"O	c #d7dfef",
"+	c #dfd7cf",
"@	c #a0a0a0",
"#	c White",
"$	c #808080",
/* pixels */
"                                ",
"                                ",
"                                ",
"                                ",
"           ...........          ",
"        ...Xoooooooooo...       ",
"      ..ooXoXooooooooO+O+..     ",
"     .oooooXooooooooO+O+O+o.    ",
"    .oooooooXooooooo+O+Ooooo@   ",
"   .oooooooooXooooooO+Ooooooo@  ",
"  .oooooooooooXooooO+Oooooooo@  ",
" .ooooooooooooXXXXXoOooooooooo@ ",
" .oooooooooooX.....Xoooooooooo@ ",
".oooooooooooX.+++++@Xooooooooo@ ",
".ooooooooooX.+####+@Xooooooooo@ ",
".ooooooooooX.+#XX#$@Xooooooooo@ ",
".ooooooooooX.++++$@Xoooooooooo@ ",
".oooooooooooX@@@@@XoXooooooooo@ ",
".ooooooooooOXXXXXXoooXoXooooo@  ",
".oooooooo+OoooooooooooXoXoooo@  ",
" .oooooO+OoooooooooooooXoXoo@   ",
" .ooooO+O+ooooooooooooooXoo@    ",
"  .ooO+O+OoooooooooooooXoX@     ",
"   .O+O+Ooooooooooooooooo@      ",
"    ..+Oooooooooooooooo@@       ",
"      ...ooooooooooo@@@         ",
"         @@@@@@@@@@@            ",
"                                ",
"                                ",
"                                ",
"                                ",
"                                "};
