/* XPM */
static char * char_dev_xpm[] = {
"32 32 17 1",
" 	c None",
".	c #c0c0c0",
"X	c #a0a0a0",
"o	c #808080",
"O	c #d8d8d8",
"+	c #404040",
"@	c white",
"#	c #202020",
"$	c #fbfffb",
"%	c #6d6d6d",
"&	c green",
"*	c #a0a0a0",
"=	c #5a5a5a",
"-	c #939393",
";	c #606060",
":	c #2c2c2c",
">	c black",
"         .X.XX.....             ",
"      o..oooooooooo.........    ",
"     .X.Oo+++++ooooooX..X.o..   ",
"     .@@OXo#+++++++++++++++Xo.  ",
"    X$$$@Xo++++++++++++++++.XX  ",
"    %O$@@Xoo+++++++++++++++oXX  ",
"   .+O@$OXoo+++&++&&&&&+++*XOX  ",
"   o+OO$@Xoo+++++++++++++++XOo  ",
"  .ooXO$$OXo+++++++++++++++XO=  ",
"  ..%OO$$XXo+&&&&++&&&&&+++X@=  ",
"....oXOOOOoX+++++++++++++++OOoX ",
"-.@OX.OOOOXX+++++++++++++++X$oX ",
"XX@O.oXX@OXX++&&&++&&+&&&++XO=o ",
"oo@@XoXXOOXX+++++++++++++++XOoo ",
"-+@OO;XXOO.X+++++++++++++++X@=+ ",
"o+XXX+.XO@.X+++++++&&+&&&++oO=+ ",
"X+XOX+XXXOOX+++++++++++++++XO%:.",
"-#XXX#oXXOOo++++++++++++++++Oo+.",
".#oXX+oXXOO.+++++++++++++++OOo+.",
".+;oX=oXX@OXX=+++++++++++++OX=+.",
" :#%X+oX.OO.X%X+.....XXX..XXOo+X",
" =#:%+oXoOOX*oXXXXXXXXXXXXXOX=+.",
" .#:++%Xoo%o+%o%ooo%X++++++++#. ",
"  -#>#%o%#+#:######+>###++++o.  ",
"   .+#++++#++####++ooo%-OO..    ",
"  XXo#++#+####++;.X..OOoooo.    ",
"  #ooOO$@O..X...X....$$$O@.#    ",
"  #%%.X.$@$OX.........OXOX*#    ",
"  #++;X..$$OoX.X.XXXXXoo;%%#    ",
"    X:##+XO.;%+++###+%XX.       ",
"      .o+=%-+####%...           ",
"          -o+++o-               "};
