/* XPM */
static char * info_xpm[] = {
"32 32 14 1",
" 	c None",
".	c #AEBAAEBAAEBA",
"X	c #9E799E79BEFB",
"o	c #BEFBBEFBBEFB",
"O	c #FFFFFFFFFFFF",
"+	c #9E799E79A699",
"@	c #492479E769A6",
"#	c #FFFF00000000",
"$	c #410341034103",
"%	c #514451445144",
"&	c #000000000000",
"*	c #596559655965",
"=	c #208120812081",
"-	c #410341038E38",
"                                ",
"                                ",
"                                ",
"                                ",
"             ..    XoX          ",
"            .OO.. .OOO..        ",
"           .OOOOO.OOOOOO.+      ",
"          .OOOOO.OOOOOOOOO..    ",
"         .OOOOO.OOOOOOOOOOOO..  ",
"        .OOOOO.OOOOOOOOOOOOOOO+ ",
"       .OOOOO.OOOOOO.OOOOOOOOOO@",
"  ##  ##OOO##OO######..O####OO$.",
"  ## .###OO##OO##O.OOOO##OO##%.&",
"  ##.O###O.##OO##.OOOO##O..O##&.",
"  ##OO##O#O##OO##OOOOO##OOO.##. ",
"  ##OO##.#O##OO#####OO##OOOO##. ",
" .##OO##OO###O.##OOOOO##OOOO##O%",
".O##OO##OO###.O##OOOOO##OOOO##$.",
"%*##O.##.OO##OO##OOOOOO##OO##%.&",
".&##oO##==*##OO##OOOOOOO####%.&.",
"  .&%*oOO%.OOOOOOOOOOOOOOOO%.&. ",
"    .&%%..OOOOOOOOOOOOOOOO%.&.  ",
"      .%.OOOOOOOOOOOOOOOO$.&.   ",
"       .OOOOOOOOOOOOOOOO-.&.    ",
"      %.OOOOOOOOOOOOOOO-.&.     ",
"      .%*.OOOOOOOOOOOO%.&.      ",
"       .&=*.OOOOOOOOO%.&.       ",
"         .&=*.OOOOOO%.&.        ",
"           .&=*.OOO%.&.         ",
"             .&=*.%.&.          ",
"               .&$.&.           ",
"                 .&.            "};
