/* XPM */
static char * java_src_xpm[] = {
"32 32 8 1",
" 	c None",
".	c #c0c0c0",
"X	c white",
"o	c #404040",
"O	c #f72820",
"+	c #808080",
"@	c #517996",
"#	c black",
"                                ",
"                                ",
"                                ",
"                                ",
"             ..    ...          ",
"            .XX.. .XXX..        ",
"           .XoXXO.OOXXOX..      ",
"          .XXXXOXXXXXOXXXX..    ",
"         .XoXXOXXOXOXOXXXXXX..  ",
"        .XXXXXXOXOXXXOXXXXXXXX. ",
"       .XoXXXXXXOXOXOXXXXXXXXXX+",
"      .XXXXXX@@@@@@@@X@@@XXXoX+.",
"     .XoXXXX@X@OXXOXX@XXX@XXX+.#",
"    .XXXXX.X@XX@@@@@@X@XX@XX+.#.",
"   .XoXXX.XX@@XXXXXXX@XX@XX..#. ",
"  .XXXXX.XXXX@X@X@@X@XX@XXXXX.. ",
" .XoXXX.XoXXX@@XXXXXX@@XXXXXXXX+",
".XXXXX.XXXXXXX@XXXXXXX@@XXXXoX+.",
"++.XX.oo.XXX@XX@@@@@@@XX@XXXX+.#",
".#++.XX.oo+.@XXXXXXXXXX@XXoX+.#.",
"  .#++.XX+.XX@@@XXXXX@@XXXX+.#. ",
"    .#++..XoXXXX@@@@@XXXoX+.#.  ",
"      .+.XXXXXXXXXXXXXXXX+.#.   ",
"       .XoXXXXXXXXXXXXoX+.#.    ",
"      +.XXXXXXXXXXXXXXX+.#.     ",
"      .++.XXXXXXXXXXoX+.#.      ",
"       .#o+.XXXXXXXXX+.#.       ",
"         .#o+.XXXXoX+.#.        ",
"           .#o+.XXX+.#.         ",
"             .#o+.+.#.          ",
"               .#+.#.           ",
"                 .#.            "};
