/* XPM */
static char *kfm_fulltrash[] = {
"32 32 9 1",
" 	m None	c None",
".	m black	c black",
"X	m white	c #fbfffb",
"a	m white	c #404040",
"A	m black	c #404040",
"b	m white	c #808080",
"B	m black	c #808080",
"c	m white	c #a0a0a0",
"C	m black	c #a0a0a0",
"             ......             ",
"            .XXXXXX.            ",
"      ....................      ",
"     .XXXXXXXXccccccccbbbb.     ",
"      ....................      ",
"      .XXXXXXXcccccbbbbba.      ",
"      .XXXXXXXcccbbbbbbaa.      ",
"      .XXXXBXXcccccbbAbba.      ",
"     .XXXXBXcXBcccAbbbAaaa.     ",
"     .XXXXCXXXBccbAbbbAbaa.     ",
"    .XXXXCXXcBcccccAbbbBaaa.    ",
"    .XXXXCXXXBcccbbAbbb.aaa.    ",
"   .XXXXXCXXcBccccbAbba.aaaa.   ",
"   .XXXXCXXXXBcccbbAbbbb.aaa.   ",
"   .XXXXCXXXBXccccbbAbba.aaa.   ",
"   .XXXXCXXcBccccbbbAbbb.aaa.   ",
"   .XXXXCXXXBcccccbb.baa.aaa.   ",
"   .XXXXCXXcBcccbbbb.bba.aaa.   ",
"   .XXXXCXXXBccccbbb.baa.aaa.   ",
"   .XXXXBXXcBcccbbbb.bba.aaa.   ",
"   .XXXXBXcXBccccbbb.aba.aaa.   ",
"   .XXXXBXXccAcbbbb.bbaa.aaa.   ",
"   .XXXXXBXccAccbbb.baa.aaaa.   ",
"    .XXXcBcccAbbbbb.bba.aaa.    ",
"    .XXcXBcccAcbbbb.aaa.aaa.    ",
"     .cXccBcccAbbb.bba.aaa.     ",
"     .XcccAcbcAbbb.aaa.aaa.     ",
"     .ccccAccbAbbb.baa.aaa.     ",
"      .ccccAbbbbbbbaaAaaa.      ",
"      .cccbcbbbbbaaaaaaaa.      ",
"      .ccbcbbbbabaaaaaaaa.      ",
"       ..................       "};
