/* XPM */
static char * moc_src_xpm[] = {
"32 32 11 1",
" 	c None",
".	c #c0c0c0",
"X	c white",
"o	c #404040",
"O	c #517996",
"+	c #6996ae",
"@	c #fbfffb",
"#	c #808080",
"$	c #f72820",
"%	c black",
"&	c #ffd700",
"                                ",
"                                ",
"                                ",
"                                ",
"             ..    ...          ",
"            .XX.. .XXX..        ",
"           .XoXXX.XoXXXX..      ",
"          .XXXXX.XXXXXXXXX..    ",
"         .XoXXOOOOXXXXXXXXXX..  ",
"        .XXX+O@@@@O+XXXXXXXXXX. ",
"       .XoXXO+@@@@+O.XXXXXXXXXX#",
"      .XXXXXO@OOOO@OX..XXXXXoX#.",
"     .XoXXX.O@@@@@@OX$X..XXXX#.%",
"    .XXXXX.XO@@@@@@O$$$XX..X#.%.",
"   .XoXXX.XoO@@@@@@O@$@$XXX..%. ",
"  .XXXXX.XXXO@@@@@@O@$@@$XXXX.. ",
" .XoXXX.XoXXO@@@@@@O@$@@@$XXXXX#",
".XXXXX.XXXXXO@@@@&&&&&&@@@$XoX#.",
"##.XX.oo.XXXOO@@&@@@@&&@@$XXX#.%",
".%##.XX.oo#.XOO&@@@@&@&@$XoX#.%.",
"  .%##.XX#.XXX&&&&&&@@&$XXX#.%. ",
"    .%##..XoXX&@@@@&@@&XoX#.%.  ",
"      .#.XXXXX&@@@@&@@&XX#.%.   ",
"       .XoXXXX&@@@@&@&XX#.%.    ",
"      #.XXXXXX&@@@@&&XX#.%.     ",
"      .##.XXXX&&&&&&XX#.%.      ",
"       .%o#.XXXXXXXXX#.%.       ",
"         .%o#.XXXXoX#.%.        ",
"           .%o#.XXX#.%.         ",
"             .%o#.#.%.          ",
"               .%#.%.           ",
"                 .%.            "};
