/* XPM */
static char * readonly_xpm[] = {
"32 32 5 1",
" 	c None",
".	c white",
"X	c black",
"o	c #d7dfef",
"O	c #c0c0c0",
"                                ",
"                                ",
"                                ",
"                                ",
"                                ",
"                                ",
"                                ",
"                                ",
"                                ",
"                                ",
"                                ",
"                                ",
"                                ",
"                                ",
"                                ",
"                                ",
"                                ",
"                                ",
"                                ",
"                ...             ",
"               .XXX.        ... ",
"              .XX..X.      .XXX.",
"             .XX. .X.     .XX..X",
"           ..XX. .X..... .XX. .X",
"          .XXXX. . .XXXX.XX.  .X",
"         .XXooXX...XXooXXX.  .X.",
"        .XXoOooXXXXXooOoXX.   . ",
"        .XooooOoXXXooooOoX.     ",
"        .XooooOoX.XoOooOoX.     ",
"        .XXoOOoXX.XXoOOoXX.     ",
"         .XXooXX. .XXooXX.      ",
"          .XXXX.   .XXXX.       "};
