/* XPM */
static char * tgz_xpm[] = {
"32 32 7 1",
" 	c None",
".	c #c0c0c0",
"X	c white",
"o	c #f72820",
"O	c #808080",
"+	c #404040",
"@	c black",
"                                ",
"                                ",
"                                ",
"                                ",
"                                ",
"                                ",
"              ..    ...         ",
"             .XX.. .XXX..       ",
"            .XXXXX.XXXXXX..     ",
"    oo     .XXXXX.XXXXXXXXX.    ",
"   ooo    .XXXXX.XXXXXXXXXXXO   ",
"  oooo   .XX++X.XXX..XXXXXXO.   ",
" ooooo  .XXXXX.XX+.XX..XXXO.@   ",
"oooooo .XX++X.XXX.XXXXX..O.@.   ",
"OOOOOO.XXXXX.XX+.XXXXXXXX.@.    ",
"     .XX++X.XXX.XXXXXXXXXX..    ",
"    .XXXXX.XX+.XXXXXXXXXXXXXO   ",
"   .XX++X.XXX.XX++XXXXXXXXXO.   ",
"  .XXXXX.XX+.XXXXX++XXXXXXO.@   ",
" .XXXXX.XXX.XX++XXXX++XXXO.@.   ",
" OO.XX.++O.XXXXX++XXXXXXO.@.    ",
" .@OO.XXO.XX++XXXX++XXXO.@.     ",
"   .@OO..XXXXX++XXXXXXO.@.      ",
"     .O.XX++XXXX++XXXO.@.       ",
"      .XXXXX++XXXXXXO.@.oooooo  ",
"     O.XXXXXXX++XXXO.@. oooooO  ",
"     .OO.XXXXXXXXXO.@.  ooooO   ",
"      .@+O.XXXXXXO.@.   oooO    ",
"        .@+O.XXXO.@.    ooO     ",
"          .@+O.O.@.     oO      ",
"            .@O.@.              ",
"              .@.               "};
