/* XPM */
static char *magick[] = {
/* columns rows colors chars-per-pixel */
"32 32 12 1",
"  c #000000",
". c #595959",
"X c #008080",
"o c #00bebe",
"O c #00ffff",
"+ c #ffff00",
"@ c #808080",
"# c #a0a0a4",
"$ c #ffffbe",
"% c #c0c0c0",
"& c #ffffff",
"* c None",
/* pixels */
"************      **************",
"*********** &&&&&& *************",
"********** &&$$$$$+ ************",
"********** &$$  $$+ ************",
"********** &$$  $$+   **********",
"********** &$$  $$+ OO  ********",
"********** &$$  $$+ ooOO  ******",
"********** &$$$$$$+ ooooOO  ****",
"********** &&$  $++ ooooooOO  **",
"********* O &$  $+ oooooooooOO  ",
"******** Oo &&$$++ ooooooooooX *",
"******* Oooo &+++ ooooooooooX  *",
"****** Oooooo    ooooooooooX % *",
"***** Ooooooo &@ oooooooooX %% *",
"**** Ooooooo  %.  oooooooX %%% *",
"*** Ooooooooo &@ oooooooX %%%%o ",
"** Ooooooooo  %.  oooooX %%%%o *",
"* Ooooooooooo &@ oooooX %%%%o **",
"  XXooooooooo    ooooX %%%%o ***",
"    XXoooooooo  XXXXX #%%%o ****",
"  %%  XXooooooXXXXXX ##%%o *****",
"  %&&%  XXoooooXXXX ###%o ******",
"  %&&&&%  XXooooXX ####o *******",
" o%&&&&&&%  XXooX ####X ********",
"  oo%&&&&&&%  XX ####X *********",
"**  oo%&&&&&&%  ####X **********",
"****  oo%&&&&&&####X ***********",
"******  oo%&&&&###X ************",
"********  oo%&&##X *************",
"**********  oo%#X **************",
"************  oo ***************",
"**************  ****************"
};
