/* XPM */
static char * kdehelp_xpm[] = {
"32 32 229 2",
"  	c None",
". 	c #020204",
"+ 	c #525254",
"@ 	c #DADAD4",
"# 	c #FEFEDA",
"$ 	c #FEFA94",
"% 	c #FEFE8C",
"& 	c #FEFEA4",
"* 	c #BAB2AC",
"= 	c #665254",
"- 	c #FAFADC",
"; 	c #FEFEE4",
"> 	c #FEFEC0",
", 	c #FEFEF1",
"' 	c #FAF2F4",
") 	c #52522C",
"! 	c #C6C64C",
"~ 	c #FAFAF9",
"{ 	c #BEB2B4",
"] 	c #FEFE84",
"^ 	c #FEFEFC",
"/ 	c #FEFAB8",
"( 	c #FEFE9C",
"_ 	c #FEFECC",
": 	c #FEFE74",
"< 	c #02AEAD",
"[ 	c #FEFA84",
"} 	c #02FEFC",
"| 	c #02B2B1",
"1 	c #76767C",
"2 	c #02FAF4",
"3 	c #02F6F4",
"4 	c #04EEEC",
"5 	c #02D6D4",
"6 	c #7E7A44",
"7 	c #E6D2BC",
"8 	c #32E6EC",
"9 	c #02F2F0",
"0 	c #02E2DF",
"a 	c #02DAD4",
"b 	c #02D2CC",
"c 	c #023E3C",
"d 	c #8AB6AC",
"e 	c #F6F6B4",
"f 	c #CED2C4",
"g 	c #A6F6F4",
"h 	c #02CECA",
"i 	c #02C2C1",
"j 	c #02BEBC",
"k 	c #02BABA",
"l 	c #069694",
"m 	c #5AFAFC",
"n 	c #DCFEFC",
"o 	c #CEC6D4",
"p 	c #E2D284",
"q 	c #FEFE58",
"r 	c #FEFE3C",
"s 	c #D2AE74",
"t 	c #9EBAC4",
"u 	c #C6FEFC",
"v 	c #02EAEC",
"w 	c #02CAC9",
"x 	c #02AAAB",
"y 	c #16E6E4",
"z 	c #B2FEFC",
"A 	c #FAFEF4",
"B 	c #62BEC4",
"C 	c #76562C",
"D 	c #D2CA74",
"E 	c #EAE284",
"F 	c #C2AA5C",
"G 	c #824E2C",
"H 	c #0EE2E4",
"I 	c #32FEFC",
"J 	c #8EFEFC",
"K 	c #36EAEC",
"L 	c #06C2C4",
"M 	c #1A4E4C",
"N 	c #0EDEDC",
"O 	c #9AFAF4",
"P 	c #2EF6F4",
"Q 	c #0ED2D4",
"R 	c #726E74",
"S 	c #CECEC9",
"T 	c #EAE6E4",
"U 	c #E2DAD4",
"V 	c #6A6A6C",
"W 	c #0AE6E4",
"X 	c #62EEEC",
"Y 	c #B6F6F4",
"Z 	c #2EDEDC",
"` 	c #0AC6C4",
" .	c #0E4644",
"..	c #A29EA1",
"+.	c #7EEAE4",
"@.	c #92EEEC",
"#.	c #02E6E4",
"$.	c #426664",
"%.	c #827264",
"&.	c #929284",
"*.	c #827A6C",
"=.	c #92827C",
"-.	c #3E9694",
";.	c #06E2E4",
">.	c #4EDEDC",
",.	c #9AF2EC",
"'.	c #2ED6D4",
").	c #164A4C",
"!.	c #928E8C",
"~.	c #D2D2D4",
"{.	c #62E2DC",
"].	c #7EEEEC",
"^.	c #06DEDC",
"/.	c #12C2C4",
"(.	c #C6BAB4",
"_.	c #DEE2E4",
":.	c #CAB6B4",
"<.	c #726A64",
"[.	c #4ADADC",
"}.	c #1E4E4C",
"|.	c #8E8A8C",
"1.	c #C6C6C4",
"2.	c #56DAD4",
"3.	c #72E6E4",
"4.	c #468684",
"5.	c #AEAAAC",
"6.	c #767274",
"7.	c #665E54",
"8.	c #5E5654",
"9.	c #36766C",
"0.	c #264A4C",
"a.	c #DAD6CC",
"b.	c #C6C2C0",
"c.	c #C2CACC",
"d.	c #4AC6C4",
"e.	c #2AC2BC",
"f.	c #4AD2CC",
"g.	c #06BABC",
"h.	c #02C6C4",
"i.	c #968E7C",
"j.	c #5E726C",
"k.	c #0AD6D4",
"l.	c #C2C2C4",
"m.	c #D2CED4",
"n.	c #D2CECC",
"o.	c #46C2C4",
"p.	c #0EB2AC",
"q.	c #0EAEAC",
"r.	c #02B6B3",
"s.	c #A28674",
"t.	c #725A54",
"u.	c #526A7C",
"v.	c #16A6A4",
"w.	c #9A9694",
"x.	c #CACAC4",
"y.	c #4ACAC4",
"z.	c #027274",
"A.	c #027E7C",
"B.	c #02A6A4",
"C.	c #167A7C",
"D.	c #064E4C",
"E.	c #0A5654",
"F.	c #12867C",
"G.	c #0E9E9C",
"H.	c #129A94",
"I.	c #169A94",
"J.	c #0E8E8C",
"K.	c #124240",
"L.	c #7A767C",
"M.	c #C6CACC",
"N.	c #226264",
"O.	c #0A3A3C",
"P.	c #02A29C",
"Q.	c #06AEAC",
"R.	c #169E98",
"S.	c #169694",
"T.	c #129294",
"U.	c #0A4244",
"V.	c #7E7A7F",
"W.	c #AEAEAC",
"X.	c #CAC6C9",
"Y.	c #4ECACC",
"Z.	c #2A7674",
"`.	c #1E5A5C",
" +	c #028280",
".+	c #128A88",
"++	c #128E8C",
"@+	c #0E8A88",
"#+	c #164244",
"$+	c #AAA6A4",
"%+	c #C6CECC",
"&+	c #46BEBC",
"*+	c #2A6664",
"=+	c #FEC6AC",
"-+	c #E9EAE4",
";+	c #029294",
">+	c #0E9A94",
",+	c #0A8A84",
"'+	c #0E4244",
")+	c #228A8C",
"!+	c #028E8C",
"~+	c #069A94",
"{+	c #0A827C",
"]+	c #163E3C",
"^+	c #827E7C",
"/+	c #AAA2A4",
"(+	c #9EA2A4",
"_+	c #36B6B4",
":+	c #9EF6F4",
"<+	c #A6A6A9",
"[+	c #32B6B4",
"}+	c #F0FEFC",
"|+	c #064A4C",
"1+	c #867E84",
"2+	c #A6A2A4",
"3+	c #3ABEBC",
"4+	c #5E5E5C",
"5+	c #B6B2AC",
"6+	c #9EA6AC",
"7+	c #36B2AC",
"8+	c #F6F6F4",
"9+	c #BABABC",
"0+	c #A69EA4",
"a+	c #3ABABC",
"b+	c #F2F2EC",
"c+	c #BEB6B4",
"d+	c #A2AEAC",
"e+	c #2AD6D4",
"f+	c #1ECECC",
"                                                                ",
"                          . . . . . .                           ",
"                        + @ # $ % & * +                         ",
"                      = - - ; - > , ; ' )                       ",
"                    . ! , ; , ; , , ~ , { .                     ",
"                    . ] , , , ^ ^ , , , / . .                   ",
"                    . ( ( ; ^ ^ ^ ^ ^ _ : ) < . .               ",
"                    . ( / , ^ ^ ^ , ^ # [ ) } } | . .           ",
"                    . [ , ^ ^ ^ ^ ^ ^ , / 1 2 3 4 5 | . .       ",
"                      6 # , , # , , , # 7 8 } 9 0 a b b | . .   ",
"                    c d - # , > > , , e f g 3 9 0 5 h i j k l . ",
"                  . m n o p q r q q s t u n m v 0 5 w i i x .   ",
"                . y z A B C D E p F G H I J u K 5 h w L | M .   ",
"              . N O O P Q R S T U * V W 3 4 X Y Z ` w x  ....   ",
"            . N +.@.#.9 v $.%.&.*.=.-.3 v ;.a >.,.'.x ).!.~..   ",
"          . N {.].Q ^.4 /.C (._.T :.<.W 0 a 5 w [.+.}.|.1.1..   ",
"        . 5 2.3.i w h ^.9 4.5.6.7.8.9.0 5 b w h < 0.* a.b.c.d.. ",
"      . N e.f.g.i h.w h g.C i.1.S (.j.k.b w w |  .|.l.m.n.o..   ",
"    . N p.` q.r.r.j i L h 4.i.s.t.= u.v.q.h.|  .w.x.l.c.y..     ",
"  . z.A.x B.B.< | | k j i w C.D.E.F.G.H.I.J.K.L.x.b.M.y..       ",
"  . N.+ O.P.| < Q.Q.r.r.k j H.R.R.S.S.T.T.U.V.W.X.X.Y..         ",
"  . Z.^ T + `. +< Q.x x < | r..+++@+++@+#+V.$+$+%+&+.           ",
"  . *+=+^ ~ -++ c ;+r.Q.x x Q.>+@+++,+'+L.$+..$+d..             ",
"  . )+^ ^ ^ ^ ~ T + }.!+x x B.~+F.{+]+^+W./+(+_+.               ",
"    . j :+^ A ^ ^ , -++ D. +x < l O.L.<+....[+.                 ",
"      . . j ,.}+^ ^ ^ ~ T + K.!+|+1+5.2+(+3+.                   ",
"          . . j ,.^ ~ ~ A ^ T 4+1+5+..6+7+.                     ",
"              . . j :+A ^ A ^ 8+9+5.0+a+.                       ",
"                  . . j ,.^ ^ b+c+d+[+.                         ",
"                      . . j ,.' { 7+.                           ",
"                          . . e+f+.                             ",
"                              . .                               "};
