/* XPM */
/* Drawn for the K Desktop Environment */
/* See http://www.kde.org */
static char*background[]={
"32 32 10 1",
"c c #ffffff",
"a c #c0c0c0",
"b c #a0a0a4",
"d c #808080",
"g c #585858",
"h c #00ff00",
"e c #00c000",
"f c #008080",
"# c #000000",
". c None",
"..................##............",
".................#ab##..........",
"................#aaaab##........",
"......##.......#aaaaaaab##......",
".....#ab##....#aaaaaaaaaab##....",
"....#aaaab##.#aaaaaaaaaaaaab##..",
"...#aaaaaaab#caaaaaaaaaaaaaaab##",
"..#aaaaaaaaa#accaaaaaaaaaaaaaad#",
".#aaaaaaaaaa#aaaccaaaaaaaaaaadd#",
"#caaaaaaaaaa#a##baccaaaaaaaaddd#",
"#accaaaaaaaa#a#e##baccaaaaadddd#",
"#aaaccaaaaaa#a#eee##baccaaddddd#",
"#a##baccaaaa#a#eeeee##bacdddddd#",
"#a#f##baccaa#a#eeeeeee#dadddddd#",
"#a#fff##bacc#a#eeeeeeeecadddddd#",
"#a#fffff##ba#a#eeeeeeeecadddddd#",
"#a#fffffff#d#acceeeeeeecadddddd#",
"#a#ffffffffca#bacceeeeecadddddg#",
"#a#ffffffffc#b##bacceeecaddddg#.",
"#accfffffffc#aab##baccecadddg#d#",
".#baccfffffc#ahaab##baccaddg#dd#",
"#b##baccfffc#aaaaaab##baadg#ddd#",
"#aab##baccfc##baaaggbb##bg#dddg#",
"#ahaab##baccad##baccggbb##dddg#.",
"#aaaaaab##baadg###bbccggbdddg#..",
"##baaaggbb##bg#ddd##bbccaddg#...",
"..##baccggbb##dddg#.##baadg#....",
"....##bbccggbdddg#....##bg#.....",
"......##bbccaddg#.......##......",
"........##baadg#................",
"..........##bg#.................",
"............##.................."};

