/* XPM */
static char * large_binary2_xpm[] = {
"48 48 186 2",
"  	c None",
". 	c #020204",
"+ 	c #ECDEA0",
"@ 	c #D0C292",
"# 	c #F0ECA0",
"$ 	c #FAF0C3",
"% 	c #D3CC84",
"& 	c #FEFED9",
"* 	c #E6E6E4",
"= 	c #EEEEEC",
"- 	c #060604",
"; 	c #E5DE92",
"> 	c #FAFAFC",
", 	c #F6F6F4",
"' 	c #CECECC",
") 	c #9E9E9C",
"! 	c #969694",
"~ 	c #D6D6D4",
"{ 	c #FAFAD2",
"] 	c #E1DE99",
"^ 	c #BEA57D",
"/ 	c #9A9A9C",
"( 	c #929294",
"_ 	c #8E8E8C",
": 	c #868684",
"< 	c #B2B2B4",
"[ 	c #FAF7CA",
"} 	c #F3F3C3",
"| 	c #FEFAC3",
"1 	c #EAEAE4",
"2 	c #C2C2C4",
"3 	c #DADADC",
"4 	c #A6A6A4",
"5 	c #B6B6B4",
"6 	c #EAEAEC",
"7 	c #0E0E0C",
"8 	c #F3F0BC",
"9 	c #FAF7C3",
"0 	c #FEFACA",
"a 	c #FEFEBC",
"b 	c #FEFAAE",
"c 	c #E5DEA0",
"d 	c #FEFEFC",
"e 	c #F2F2F4",
"f 	c #BABABC",
"g 	c #0E0A04",
"h 	c #F3F0B5",
"i 	c #F7F3B5",
"j 	c #FAF7B5",
"k 	c #FAFAB5",
"l 	c #FAFAAE",
"m 	c #FEFAA7",
"n 	c #CACACC",
"o 	c #C6C6C4",
"p 	c #AAAAAC",
"q 	c #727274",
"r 	c #8A8A8C",
"s 	c #0A0A04",
"t 	c #F7F3C3",
"u 	c #F0ECAE",
"v 	c #ECE8A0",
"w 	c #F3F0A7",
"x 	c #F7F3A0",
"y 	c #FAFAA7",
"z 	c #DAD092",
"A 	c #ACAC3D",
"B 	c #BEBEBC",
"C 	c #AEAEAC",
"D 	c #666664",
"E 	c #626264",
"F 	c #5E5E5C",
"G 	c #7A7A7C",
"H 	c #F3F0AE",
"I 	c #DEDA92",
"J 	c #F0ECA7",
"K 	c #F3F0A0",
"L 	c #FAF7A0",
"M 	c #9E9E36",
"N 	c #DEDEDC",
"O 	c #E2E2E4",
"P 	c #6A6A6C",
"Q 	c #0A0604",
"R 	c #F7F099",
"S 	c #E1DA76",
"T 	c #6E6E6C",
"U 	c #828284",
"V 	c #E8E5A0",
"W 	c #D3CC61",
"X 	c #7E7E7C",
"Y 	c #767674",
"Z 	c #DED792",
"` 	c #12120C",
" .	c #D3C97D",
"..	c #E5E192",
"+.	c #ECE599",
"@.	c #F0EC99",
"#.	c #5A5A5C",
"$.	c #7A7A74",
"%.	c #1A160C",
"&.	c #D0C97D",
"*.	c #DEDA8B",
"=.	c #948D36",
"-.	c #A2A2A4",
";.	c #424244",
">.	c #363634",
",.	c #262614",
"'.	c #D0C976",
").	c #CCC276",
"!.	c #D7D084",
"~.	c #DED776",
"{.	c #4A4A4C",
"].	c #323234",
"^.	c #72726C",
"/.	c #26220C",
"(.	c #CCC576",
"_.	c #D3CC7D",
":.	c #DAD37D",
"<.	c #CCC55A",
"[.	c #565654",
"}.	c #2E2E2C",
"|.	c #6A6A64",
"1.	c #1E1A0C",
"2.	c #E1DE8B",
"3.	c #A29E36",
"4.	c #464644",
"5.	c #4E4E4C",
"6.	c #2A2A2C",
"7.	c #1A1A0C",
"8.	c #C5BB68",
"9.	c #C9BE6F",
"0.	c #D7D07D",
"a.	c #3E3E3C",
"b.	c #BEB468",
"c.	c #C5BE6F",
"d.	c #CCC56F",
"e.	c #3A3A3C",
"f.	c #262624",
"g.	c #C2B768",
"h.	c #BBB061",
"i.	c #CCC268",
"j.	c #D0C95A",
"k.	c #222224",
"l.	c #C2B761",
"m.	c #BEB461",
"n.	c #525254",
"o.	c #0E0E04",
"p.	c #C5BE68",
"q.	c #D3C968",
"r.	c #BBB461",
"s.	c #1E1E1C",
"t.	c #C9C268",
"u.	c #1A1A1C",
"v.	c #C2BB61",
"w.	c #161614",
"x.	c #CCBB68",
"y.	c #121214",
"z.	c #C9BE61",
"A.	c #868236",
"B.	c #0A0A0C",
"C.	c #121204",
"D.	c #42423C",
"E.	c #3E3A1C",
"F.	c #423E1C",
"G.	c #A29B5A",
"H.	c #C9BE68",
"I.	c #898236",
"J.	c #36361C",
"K.	c #ACA25A",
"L.	c #B4A95A",
"M.	c #D0C568",
"N.	c #A59E5A",
"O.	c #C5BB61",
"P.	c #C5BE61",
"Q.	c #464224",
"R.	c #C2BB68",
"S.	c #D0C968",
"T.	c #D7CC6F",
"U.	c #D0C961",
"V.	c #9B973D",
"W.	c #A59E3D",
"X.	c #CCBE61",
"Y.	c #D0C57D",
"Z.	c #D7C984",
"`.	c #D7D06F",
" +	c #D3C57D",
".+	c #E5D776",
"                                                                                                ",
"                                                                                                ",
"                                      . .                                                       ",
"                                      . + . .                                                   ",
"                                    . @ # $ % . .                                               ",
"                                    . . & & & $ % . . .                                         ",
"                                . . * = . - & & & & ; % . . . .                                 ",
"                            . . > , ' ) ! ~ . - & & & & { ] % ^ . . . .                         ",
"                        . . > > , ~ ) / ( _ : < . . [ $ } [ { | | ] % ^ . . . .                 ",
"                    . . 1 2 3 3 4 ) / ( _ 5 ~ * 6 = - 7 8 8 8 } 9 0 a | b c % ^ . . . .         ",
"                . . d e > > f 4 4 / ! f 3 , e e e 6 6 6 - g $ 8 h 8 i j i k j l m c % ^ . .     ",
"            . . > d e n f o = e p / 4 e , e = = e 1 4 q r = - s t u u u v w w x l y m z A .     ",
"        . . d d > , ' B 5 < 4 C ~ , 5 3 , > , e = < D D E F G 1 - s h H I H J # K x L c M .     ",
"    . . > N 2 * ~ 2 B 5 < 2 O > , , > e = / C 5 P D D F F _ * 3 * * - Q J J v # # K R S M .     ",
"    . n d d e o 2 2 B 2 O > d , , , > e = = ! T P E F r 6 * * * 6 * U . V V ; # K K R W M .     ",
"    . o o n d > , ' B ' > > > e / _ U X Y T 4 3 r D ( * * 6 6 6 : U X s Z I I v K K x M .       ",
"    . o o n n n d > > * e > , p _ : _ O = _ E T N * B N * * : U U X X `  . .Z ..+.@.R M .       ",
"    - n o ! ) 5 n ' d d > > = _ : ( O = C P E #.~ 6 6 * : : : D #.Y $.%.% &.*.....@.z =..       ",
"    - n ) _ _ r -.n n ' d d , = _ X U q P E F < = = r r : G ;.>.>.;.G ,.'.).!.*.*.+.~.M .       ",
"    . n _ r C ! : B ' o n n , , = O n B n 3 6 = r : : : r {.>.;.].].^./.).(.(._.:.*.<.=..       ",
"    . n r : < p U _ n -.r / 4 ' , e , , = e _ r q D X : Y >.[.F }.}.|.1.(.(. .'._.2.3..         ",
"    - ' r : < < X U n 2 r Y Y X o n e e r : U #.{.4.5.X F ].E T 6.6.D 7.8.9.(.'.0.z =..         ",
"    . n / X p B G $.o n ) q T C 2 o o r r r #.{.[.;.a.D a.}.F Y 6.6.T %.8.b.c.d.:.:.M .         ",
"    - ' n U r < G Y 2 n -.T T p n n n r r X {.[.X a.e.D }.].4.T f.}.D ` g.h.9.g.i.j.=..         ",
"    . n n ) $.: Y $.2 o / P P p o o o r r F {.[.U ;.>.D ;.6.].a.k.[.D 7 l.m.l.m.d.M .           ",
"    . n n o r q q ! n n / D E p 2 2 2 r r n.4.n.U a.].E E 6.f.f.a.P E o.g.m.m.8.).=..           ",
"    - n n n n o < o o / ! E F 4 o 2 2 _ r 5.;.5.U >.}.Y q 4.f.4.D E E g 9.m.l.p.q.M .           ",
"    . n 2 -.B f o o o ! F #.#.) 2 2 2 : : {.;.4.E ].5.q q T P E a.F #.o.g.r.b.p.<.=..           ",
"    . n 5 T P G ) 2 o 2 ! #.n.F 5 B 2 r : [.e.>.].e.G q T T ;.s.}.F [.o.8.l.g.t.M .             ",
"    . o n p E E q 2 2 o 2 5 / #.G B B U : Y 5.].a.T q q T 4.s.u.}.#.n.7 8.l.v.b.M .             ",
"    - o o B F F / 2 2 2 4 ) 2 f C f B : U X Y Y T P T P E a.u.w.6.[.[.Q c.x.l.d.=.. . .         ",
"    . o 2 f #.[.-.2 2 G 5.5.X f B B 5 U U G G F ].k.;.P P E w.w.6.n.{.- t.p.l.<.=.. . . . .     ",
"    . o o f [.n.) 2 2 #.;.5.a.F f 5 < X U G n.6.6.f.k.F E E w.y.f.5.{.Q t.l.i.M . . . . . .     ",
"    - 2 p < 5.{./ B B 4.a.) e.].r 5 5 X G Y 6.].E s.s.].F [.y.` k.{.;.s 9.l.z.=.. . . . . .     ",
"    . 2 _ 5.{.4.r f f e.>.p T }.n.C C G G n.f.e.P f.u.}.#.[.7 7 w.f.a.- r.l.t.A.. . . . .       ",
"    . 2 B q 4.;.[.5 f ;.].4 / 6.f.C C Y Y ].k.>.P f.s.4.[.[.7 B.- k.a.C.i.q.M . . . . .         ",
"    . - B f < E e.^.5 n.}.q ) s.s.-.p G q }.s.].E k.s.[.5.7 B.k.a.D.%.E.W q.=.. . . . .         ",
"        . . 5 < < Y C 4 k.>.r u.w.) 4 q T }.s.}.F u.}.[.5.f.;.a.s F.G.H.W i.I.. . . .           ",
"            . . 5 < C C [.w.f.y.w.) -.q T 6.s.w.}.s.5.5.{.4.Q J.K.L.t.H.M.=.. . . .             ",
"                . . C C 4 4.7 y.#.4 -.T P F f.w.y.;.n.n.7.F.N.O.l.P.i.W j.A.. . . .             ",
"                    . . p 4 -.X / ) ) P D E [.].[.[.y.Q.L.R.l.O.z.i.d.<.=.. . . .               ",
"                        . . ) ) -./ / D E F #.[.. /.L.O.v.O.P.z.O.S.T.U.A.. . .                 ",
"                            . . / / / D F #.. - . V.A W.x.X.Y.Z.`. +~.=.. . .                   ",
"                                . . / F . .       . . - =.M =.I.q..+`.A.. .                     ",
"                                    . -                 . . . . I.A.A.. .                       ",
"                                                                . . . .                         ",
"                                                                                                ",
"                                                                                                "};
