/* XPM */
static char * dvi_xpm[] = {
"48 48 253 2",
"  	c None",
". 	c #020204",
"+ 	c #261E04",
"@ 	c #62521C",
"# 	c #827234",
"$ 	c #5E562C",
"% 	c #524E2C",
"& 	c #6A5A1C",
"* 	c #423A14",
"= 	c #86762C",
"- 	c #7E6A2C",
"; 	c #7E6E2B",
"> 	c #9E8644",
", 	c #867A34",
"' 	c #8E824C",
") 	c #9A7E2C",
"! 	c #9A8234",
"~ 	c #927A34",
"{ 	c #8E762C",
"] 	c #6A5E1C",
"^ 	c #464644",
"/ 	c #96825C",
"( 	c #8A864C",
"_ 	c #6E6224",
": 	c #4E4A14",
"< 	c #5A5A5C",
"[ 	c #766624",
"} 	c #8A7E44",
"| 	c #827E14",
"1 	c #6A561C",
"2 	c #5E5A24",
"3 	c #5A5224",
"4 	c #6A6A4C",
"5 	c #7E7A4C",
"6 	c #766A2C",
"7 	c #76721C",
"8 	c #6E662C",
"9 	c #5E4A14",
"0 	c #72621C",
"a 	c #6E6E3C",
"b 	c #9A8E54",
"c 	c #AA9E74",
"d 	c #5A6254",
"e 	c #9E964C",
"f 	c #6A5E34",
"g 	c #8A8A5C",
"h 	c #767654",
"i 	c #6E7664",
"j 	c #964E5C",
"k 	c #BEAE64",
"l 	c #CABA64",
"m 	c #CEB65C",
"n 	c #C6AA34",
"o 	c #BAA65C",
"p 	c #AE9E4C",
"q 	c #A69A34",
"r 	c #8A862C",
"s 	c #6A4A34",
"t 	c #9A9674",
"u 	c #C2C284",
"v 	c #DED27C",
"w 	c #CECA84",
"x 	c #B69A6C",
"y 	c #A62E34",
"z 	c #662224",
"A 	c #A69A5C",
"B 	c #D2BA44",
"C 	c #D6C254",
"D 	c #CEB644",
"E 	c #D6B63C",
"F 	c #C6AE34",
"G 	c #CAB23C",
"H 	c #BAA63C",
"I 	c #9A8E2C",
"J 	c #8A4654",
"K 	c #3E360C",
"L 	c #524614",
"M 	c #4A4214",
"N 	c #FAF684",
"O 	c #FEFEA4",
"P 	c #E2DA9C",
"Q 	c #4E362C",
"R 	c #AAA25C",
"S 	c #DECE84",
"T 	c #D6C684",
"U 	c #D2C654",
"V 	c #BEA22C",
"W 	c #96623C",
"X 	c #723A24",
"Y 	c #866E44",
"Z 	c #666234",
"` 	c #36321C",
" .	c #AAA22C",
"..	c #96565C",
"+.	c #A68E34",
"@.	c #C6AE5C",
"#.	c #964E34",
"$.	c #6A4224",
"%.	c #463E14",
"&.	c #2E260C",
"*.	c #EEEA9C",
"=.	c #8E8A24",
"-.	c #8E464C",
";.	c #B6AA3C",
">.	c #B2AE94",
",.	c #BABEB4",
"'.	c #928E74",
").	c #9E962C",
"!.	c #B29A3C",
"~.	c #A28A34",
"{.	c #AA6634",
"].	c #4E3A2C",
"^.	c #86462C",
"/.	c #362E0C",
"(.	c #EADA6C",
"_.	c #969224",
":.	c #5A2214",
"<.	c #3E2E24",
"[.	c #CAD2DC",
"}.	c #DAE2EC",
"|.	c #AABAC4",
"1.	c #8E9EA4",
"2.	c #D2DADC",
"3.	c #8A4A4C",
"4.	c #5A362C",
"5.	c #5A4E14",
"6.	c #56460C",
"7.	c #4A3E0C",
"8.	c #7A362C",
"9.	c #322A0C",
"0.	c #CAC654",
"a.	c #6A4254",
"b.	c #5E2624",
"c.	c #AEAA74",
"d.	c #BECAD4",
"e.	c #728294",
"f.	c #D2DEEC",
"g.	c #9E9E7C",
"h.	c #9A7234",
"i.	c #5E3E1C",
"j.	c #66521C",
"k.	c #C6BE74",
"l.	c #E6E67C",
"m.	c #AA3644",
"n.	c #86323C",
"o.	c #923A44",
"p.	c #9A222C",
"q.	c #AEC2D4",
"r.	c #3A4654",
"s.	c #9AB2C4",
"t.	c #92A6B4",
"u.	c #7E8E9C",
"v.	c #7E4E4C",
"w.	c #F6EE94",
"x.	c #7A3244",
"y.	c #AA4654",
"z.	c #B63E44",
"A.	c #B6323C",
"B.	c #A69244",
"C.	c #BAC2BC",
"D.	c #727684",
"E.	c #72525C",
"F.	c #7A424C",
"G.	c #8E525C",
"H.	c #8A8614",
"I.	c #765664",
"J.	c #AABED4",
"K.	c #9EA6BC",
"L.	c #A6A2AC",
"M.	c #A66274",
"N.	c #963E44",
"O.	c #9A7254",
"P.	c #B24644",
"Q.	c #AE5A4C",
"R.	c #AE5E4C",
"S.	c #AE4E4C",
"T.	c #A2464C",
"U.	c #4A4624",
"V.	c #D2CE64",
"W.	c #BAB654",
"X.	c #CABE44",
"Y.	c #96AABC",
"Z.	c #9A8EA4",
"`.	c #A64E5C",
" +	c #9A6A5C",
".+	c #AEA674",
"++	c #865A6C",
"@+	c #92AEC4",
"#+	c #AAB6BC",
"$+	c #968A8C",
"%+	c #9A7E5C",
"&+	c #925E6C",
"*+	c #828684",
"=+	c #BAB6A4",
"-+	c #AEA68C",
";+	c #B6B29C",
">+	c #863E34",
",+	c #5E4E14",
"'+	c #AEAA3C",
")+	c #C2BA54",
"!+	c #B2C6DC",
"~+	c #9E563C",
"{+	c #A6563C",
"]+	c #CA9A5C",
"^+	c #C2B264",
"/+	c #8A6654",
"(+	c #AA9A74",
"_+	c #A29E7C",
":+	c #B2A27C",
"<+	c #A27E5C",
"[+	c #B6AE4C",
"}+	c #BAB64C",
"|+	c #BA5A44",
"1+	c #C2AA54",
"2+	c #9E4A34",
"3+	c #929684",
"4+	c #9E866C",
"5+	c #9E5A5C",
"6+	c #B66254",
"7+	c #969274",
"8+	c #A2A294",
"9+	c #9E9A2C",
"0+	c #A6A23C",
"a+	c #B6B234",
"b+	c #BA7A4C",
"c+	c #AE8A74",
"d+	c #7A7A64",
"e+	c #666E74",
"f+	c #A29E3C",
"g+	c #A2664C",
"h+	c #B26E5C",
"i+	c #323234",
"j+	c #46525C",
"k+	c #565E6C",
"l+	c #CEBA7C",
"m+	c #363E3C",
"n+	c #464A44",
"o+	c #B29E3C",
"p+	c #C2A654",
"q+	c #CAC24C",
"r+	c #D6C274",
"s+	c #CEC274",
"t+	c #AE9A54",
"u+	c #C2A634",
"v+	c #9A8E44",
"w+	c #82762C",
"x+	c #8A7E34",
"y+	c #F6E694",
"z+	c #BA9E5C",
"A+	c #928234",
"B+	c #BEB63C",
"C+	c #16120C",
"D+	c #0E0E04",
"                                                                                                ",
"                                        . . . . . .                                             ",
"                                    . + @ # $ % & * . . .                                       ",
"                                  . = - = ; @ @ - > , ' @ . .                                   ",
"                                . ) ! - ~ - - { > - - ; - # ] . .                               ",
"                              ^ # / ; ( = _ ! ! # - # > ! ] $ : * .                             ",
"                            < $ # ; [ } ] - | [ 1 - ~ # ] - - ] 2 3 .                           ",
"                            4 5 - 6 7 8 8 [ ] 1 9 | & 0 ; ; 6 a b c d .                         ",
"                          6 b e , , ! , , 0 & 6 8 [ ] ] f 2 g c h a i b . . . .                 ",
"                        j h k l m n o p q r r q { = ; s s t c 3 * : 4 a u v w x . . . .         ",
"                      y z A B C D E F n G n H F I > _ J ] p $ K L f f M M ' N O O P w x . .     ",
"                    y z Q R S S T D m U C B n V q q W X Y } K M Z a M ` ` * } O O O O T  ..     ",
"                  ..z Q   R l +.b o @.o o m B V e ! #.$.! [ 9 ] 6 % Q %.` &.M *.O O O P =..     ",
"                -.z Q     ;.=.>.,.'.( > b ) ).!.~.{.X s ! _ @ 1 : ].^.$.` + /.A N O N (._..     ",
"              -.:.<.      q e [.}.|.1.2.}.>.' ~.> 3.4.- ! 0 5.6.7.K 8.^.* 9.&.$ *.*.N 0.=..     ",
"            a.b.<.        e c.d.e.}.|.f.1.}.g.! h.4.i.{ = [ j.6.* K K /./.` 9.* k.l.*._..       ",
"          J m.n.o.p.      ~.c.q.r.|.s.t.r.u.u.h v.Q @ ) { ] & 1 9 M K &.K /.` * ' 0.w.=..       ",
"          a.x.y.z.A.y y   Y B.C.1.D.E.3.F.G.j G.4.Q [ ) ; & ] 9 7.6.* + K 9.K a ( 0.w H..       ",
"          x.I.J.K.L.M.A.y N...O.G.P.P.Q.R.R.S.T.n.6.= ) - j.1 & 7.* * 9.+ 9.U.( V.W.X.=..       ",
"          F.I.q.Y.Y.|.Z.S.j `.T.T. +>.>..+.+t ++s j.= = ] @ : M _ K M M + 9.% g w V. .| .       ",
"            3.q.J.@+#+$+3.%+%+&+T.*+=+-+;+c c  +>+j., = ] 1 ,+* M Z /.M %.&.% '+)+v =..         ",
"            y Y.!+C.-+~+{+]+^+'.P./+(+>._+=+:+<+^.1 # # ] $ $ 1 K 9 & ` K 9.M [+}+k.| .         ",
"              `.q.-+O.|+1+m 1+p %+2+x -+3+3+g.4+^.] # = 2 j.6.- L K ,+K K 9.M '+[+0.=..         ",
"                5+6+|+t 7+'.(+!.+.W {+-+>.7+8+4+>+0 # [ j.,+6.1 ] K 7.M K 9.%.9+0+a+H..         ",
"                #.b+7+#+1.u.i h ~.!.5+Q.c+:+>.M.^.= # 6 ] 7.7.6.] 6.K 7.K ` M 0+W.=..           ",
"              . b [+d+*+K.1.e+4 b F f+g+5+g+h+#.; 7 0 ] 1 * K K 9 9 /.K K /.U.0+o H..           ",
"            . R R ^+Z i+j+k+r.4 p F 1+a+B.O.h., ; [ 6 ] 1 7.K K K j.K K K 9.U.0+[+=..           ",
"            . l+w.R > * i+m+n+/ D B B D n o++.+.- 0 & 1 j.7.K /./.9 7.9.M M % 0+ .H..           ",
"            . P w.R ^+~.f $ } p+U B B q+G o+!.+.] j.@ @ j.6.i.9.&.7.7.% U., A }+H..             ",
"          . :+O O w.e @.+.[ { H r+s+F t+u+o+= ] @ 6.,+1 ,+M 7.9.&.9.* | 2 =.9+0+=..             ",
"        . :+T O O O S % Z 9 & ; v+1+o+G !.+.] L M [ ] & M K * 9./.9.: =.r =.f+_.| . . .         ",
"        . l+O O O O O 5 % 5.] 9 M 3 w+# [ M %.M [ : M 7.6.M 7.&.` K a | =.).f+).7 . . . . .     ",
"      . :+O O O O O O O > , t+v+x+9 L $ % : [ 0 * /.* 7.6.M K &.9.% r | )._.'+| . . . . . .     ",
"    . H.X.(.O O O O N O y+, > z+B.A+w+[ ; [ %.` /.7.6.M : 7.9.&.` | r e f+ .[+| . . . . . .     ",
"      . . X.X.(.N O N O O v , U.5.@ ] & 9 L /.&.K * 9 9 9 ` /.9.] =.| _.'+)+_.7 . . . . .       ",
"          . . a+B+(.O O O P ' @ 6.%.K * K /.&.K 7.M ] % : 9.* L =.r ).'+[+'+H.. . . . .         ",
"              . . a+G (.O N .+8 % : %.%.K K M 7.* : : %.m+K ] r _.=.f+'+)+;.| . . . . .         ",
"                  . . a+a+C C e % 9 5.6.6.9 9 9 7.3 U.* &.M =.=.I f+'+)+)+U 7 . . . .           ",
"                      . . =.a+'+; % 5.% 3 2 U.7.* ` ` ` ` Z =._.0+W.)+)+0.| . . . .             ",
"                          . . . | % ] 5.L 7.* U.* $ 7 8 2 5 f+f+)+X.)+(.G 7 . . . .             ",
"                                . C+. [ % 5.8 0 8 H.=.H.8 q q [+0.V.V.0.| . . . .               ",
"                                      . C+. | H.H.I 9+_.f+[+'+;.X.l.w.0.7 . . .                 ",
"                                            . . . H.9+H.f+B+0.v N l.(.| . . .                   ",
"                                                  . D+D+| _.| 7 (.(.0.7 . .                     ",
"                                                        . . . . 7 7 7 . .                       ",
"                                                                . . . .                         ",
"                                                                                                ",
"                                                                                                "};
