/* XPM */
static char * font_3_2_xpm[] = {
"48 48 256 2",
"  	c None",
". 	c #020204",
"+ 	c #8E8A1C",
"@ 	c #CEC64C",
"# 	c #EAE68C",
"$ 	c #42422C",
"% 	c #7A0204",
"& 	c #FAF69C",
"* 	c #DED67C",
"= 	c #262224",
"- 	c #BAAA54",
"; 	c #FAF6C4",
"> 	c #EAE6B4",
", 	c #D2C68C",
"' 	c #DED69C",
") 	c #3E0204",
"! 	c #CABE3C",
"~ 	c #B60204",
"{ 	c #4E322C",
"] 	c #323224",
"^ 	c #C6BA74",
"/ 	c #FAF6A4",
"( 	c #F2EE8C",
"_ 	c #E2DE94",
": 	c #D6CE8C",
"< 	c #220204",
"[ 	c #DACE74",
"} 	c #FAFAE4",
"| 	c #F2EEB4",
"1 	c #B29E4C",
"2 	c #E2DEAC",
"3 	c #CEC26C",
"4 	c #9A0204",
"5 	c #5E0204",
"6 	c #D20204",
"7 	c #FEFEA4",
"8 	c #CEC66C",
"9 	c #2A2A1C",
"0 	c #EAE6A4",
"a 	c #DED684",
"b 	c #FEFEC4",
"c 	c #B2A274",
"d 	c #F2E29C",
"e 	c #CEC684",
"f 	c #120E0C",
"g 	c #76721C",
"h 	c #CABA7C",
"i 	c #D2D2BC",
"j 	c #E6DEB4",
"k 	c #B6AA94",
"l 	c #561A14",
"m 	c #423224",
"n 	c #FAF6B4",
"o 	c #D6CE9C",
"p 	c #F2EECC",
"q 	c #120204",
"r 	c #8A0204",
"s 	c #EEE6C4",
"t 	c #DAC694",
"u 	c #4E0204",
"v 	c #F2EE9C",
"w 	c #B2A24C",
"x 	c #FEFE82",
"y 	c #F6F6D4",
"z 	c #C60204",
"A 	c #EAE28A",
"B 	c #320204",
"C 	c #AA0204",
"D 	c #F2EAAC",
"E 	c #CABE7F",
"F 	c #625E3C",
"G 	c #2E261C",
"H 	c #4E3E34",
"I 	c #3A3A2C",
"J 	c #FEFEF6",
"K 	c #EAE29C",
"L 	c #CEC287",
"M 	c #6E0204",
"N 	c #E60204",
"O 	c #322A2C",
"P 	c #EEEA9C",
"Q 	c #EADA94",
"R 	c #D6CA84",
"S 	c #FAEE9C",
"T 	c #B6A657",
"U 	c #A6A624",
"V 	c #E6DA6C",
"W 	c #26261C",
"X 	c #B2B22C",
"Y 	c #FAFAC4",
"Z 	c #F2EAB4",
"` 	c #D2C6A4",
" .	c #E2DA9F",
"..	c #D6C264",
"+.	c #6A2E2C",
"@.	c #3A322C",
"#.	c #DAD278",
"$.	c #FAEEBC",
"%.	c #D6CA72",
"&.	c #EAE6AC",
"*.	c #E2DA84",
"=.	c #CECA84",
"-.	c #FAFABC",
";.	c #DED2A0",
">.	c #F6F2A0",
",.	c #FEFE99",
"'.	c #0A0204",
").	c #9A8E7C",
"!.	c #F2EA94",
"~.	c #624E34",
"{.	c #820204",
"].	c #EEEAB4",
"^.	c #D2CA94",
"/.	c #460204",
"(.	c #CEC264",
"_.	c #BE0204",
":.	c #56322C",
"<.	c #FAFAAC",
"[.	c #E6E294",
"}.	c #DED294",
"|.	c #2A0204",
"1.	c #FEFEE9",
"2.	c #F6F2C1",
"3.	c #E6E29C",
"4.	c #CEC27C",
"5.	c #A20204",
"6.	c #DA0204",
"7.	c #FEFEB8",
"8.	c #2E2E24",
"9.	c #867E1C",
"0.	c #C2B664",
"a.	c #4E4E3C",
"b.	c #C2B25C",
"c.	c #6E6A4C",
"d.	c #C6A694",
"e.	c #C6BA64",
"f.	c #3E3A28",
"g.	c #BAA694",
"h.	c #92921C",
"i.	c #B69A6C",
"j.	c #DEC6AC",
"k.	c #BEB634",
"l.	c #6A5A54",
"m.	c #1A0204",
"n.	c #920204",
"o.	c #560204",
"p.	c #CEBE6C",
"q.	c #766E4C",
"r.	c #EEEA84",
"s.	c #F6F2DC",
"t.	c #6A4E44",
"u.	c #BEAE5C",
"v.	c #F6F294",
"w.	c #DAD28C",
"x.	c #E6E2B8",
"y.	c #FAFADC",
"z.	c #362E24",
"A.	c #FEFA9C",
"B.	c #E2DA7C",
"C.	c #363624",
"D.	c #CABE74",
"E.	c #DAD29C",
"F.	c #FEFED7",
"G.	c #EEEAC4",
"H.	c #DACA8C",
"I.	c #660204",
"J.	c #CE0204",
"K.	c #3A0204",
"L.	c #B20204",
"M.	c #760204",
"N.	c #A28E7C",
"O.	c #12120C",
"P.	c #3A362C",
"Q.	c #E2D6AC",
"R.	c #2E2A2C",
"S.	c #DED284",
"T.	c #F2EEC4",
"U.	c #DED694",
"V.	c #F2EEDC",
"W.	c #FEFE8C",
"X.	c #EAE294",
"Y.	c #EAE2AC",
"Z.	c #E2DA94",
"`.	c #E6E2AC",
" +	c #2A221C",
".+	c #EEE6B4",
"++	c #E6DE8E",
"@+	c #E6DEA4",
"#+	c #D2C26C",
"$+	c #D2C66F",
"%+	c #2E2A24",
"&+	c #EEE6A0",
"*+	c #D2C682",
"=+	c #CEBA84",
"-+	c #BAAA90",
";+	c #F6EE9C",
">+	c #B6A250",
",+	c #CEBE80",
"'+	c #2A2621",
")+	c #FEFACA",
"!+	c #DED27C",
"~+	c #FEFAB8",
"{+	c #D6CA8F",
"]+	c #FEFAA6",
"^+	c #EAE2B4",
"/+	c #060204",
"(+	c #7E0204",
"_+	c #E2D67C",
":+	c #420204",
"<+	c #BA0204",
"[+	c #52322C",
"}+	c #363224",
"|+	c #260204",
"1+	c #FEFAE4",
"2+	c #9E0204",
"3+	c #620204",
"4+	c #D60204",
"5+	c #DACE9C",
"6+	c #160204",
"7+	c #8E0204",
"8+	c #520204",
"9+	c #CA0204",
"0+	c #360204",
"a+	c #AE0204",
"b+	c #720204",
"c+	c #EA0204",
"d+	c #EADA6C",
"e+	c #EEE6AC",
"f+	c #D2CA84",
"g+	c #0E0204",
"h+	c #860204",
"i+	c #4A0204",
"j+	c #C20204",
"k+	c #5A322C",
"l+	c #2E0204",
"m+	c #A60204",
"n+	c #DE0204",
"o+	c #CABA64",
"p+	c #1E0204",
"q+	c #960204",
"r+	c #5A0204",
"s+	c #EAE694",
"t+	c #FAF6CC",
"u+	c #EAE6BC",
"v+	c #DED6A4",
"w+	c #D6CE94",
"x+	c #CEC274",
"y+	c #FEFEAC",
"z+	c #DED68C",
"A+	c #FEFECC",
"B+	c #CABA84",
"C+	c #FAF6BC",
"D+	c #F2EED4",
"E+	c #EEE6CC",
"F+	c #F2EEA4",
"G+	c #B2A254",
"                                                                                                ",
"                                                                                                ",
"                                      . .                                                       ",
"                                      . Q . .                                                   ",
"                                    . ^ !.$.e . .                                               ",
"                                    . $.A+F.A+| e . . .                                         ",
"                                    . F.F.F.F.F.A+A+Z.e . . . .                                 ",
"                                  . B+F.F.F.F.F.F.F.A+A+)+*.e i.. . . .                         ",
"              . . . . . . . . . . . m [+k+:.{ [+k+[+H ` F.A+b )+~+Z.e i.. . . .                 ",
"              . N n+4+. . . . z _.<+~ /.u o.3+5 3+M /.-+F.A+)+b b 7.7.7.~+*.e i.. . . .         ",
"              . 6.c+.       . n+6.4+<+@.i y.1+l.l 8+i+-+F.A+A+A+b 7.~+7.7.y+y+]+A.Z.e i.. .     ",
"              . L..         . 6 J.9+q+W 1.s.E+u+N.K.0+k F.F.A+A+)+A+7.7.7.7.]+7 7 ,.,.*+U .     ",
"              . 8+.         . L.9+j+{.O J 1.} G.1++.0+g.Y.T.)+A+)+b 7.~+7.7.y+y+7 ,.,.' h..     ",
"              . 0+          . m+_.<+h+%+J J J J 1+).B d.`.5+' e+D 2.~+7.~+7.y+y+]+]+A.V h..     ",
"              . .           6+2+<+L.n.R.J J J J 1.V.t.j.T.^+&.Y. .U.Z.0 !./ ]+y+7 7 ,.@ h..     ",
"                            g+4 a+C 2+R.J J J J 1.1.1.s x. .`.].Z D 3.}.e z+++++& ,.A.h..       ",
"                          . G n.5.5.q+R.J J J J 1.1.F.u+v+ .Q.A+b )+~+>.}.P ++S.& 7 A.h..       ",
"                          .  +r 2+q+7+R.J J J 1.1.1.G.j j  .2.A+)+b b 7.&+++A *.]+,.Z.9..       ",
"                        . Q '+{.q+n.r R.1.J 1.1.1.y.j  .E.E )+A+A+b ~+~+~+++[.v ]+]+V h..       ",
"                      . ^ $.'+% r h+{.= 1.1.1.1.1.j 5+, {+E.)+b b b b 7.7._ A ]+7 ,.@ 9..       ",
"                      . ;+F.O M.{.(+% R.1.1.1.1.1.o L E L ].F.)+)+7.7.~+7.++v 7 7 ,.h..         ",
"                    . ^ A+F.%+u % M.M %+1.1.1.F.s.^.L B+, )+)+b b b 7.7.]+s+]+7 ,. .9..         ",
"                    . S A+A+%+0+M M I.%+F.F.F.F.^+o ^.E `.A+b b ~+)+7.~+]+]+]+]+]+V h..         ",
"                  . Q )+A+F.%+B 3+I.o.%+F.1.F.F.;.;.{+*+2.b A+b 7.7.7.7.7.y+y+7 ,.@ 9..         ",
"                . ^ 2.b A+b %+|.5 r+:+%+F.F.F.Y ^.*+, U.; )+~+b 7.~+7.]+~+7 7 ,.,.h..           ",
"                . S ~+)+b b = |.r+8+K.%+A+F.A+> L L *+ .C+b b 7.7.y+7.y+y+7 7 7 ' 9..           ",
"              . Q 7.7.~+)+b %+|.8+i+l+%+A+A+;  .,+: {+&+)+7.~+~+7.~+y+y+]+]+A.,.V h..           ",
"            . ^ $.7.7.7.7.7.8.l+/.:+|+9 A+)+].E 4.f+U.C+7.b 7.7.7.y+y+7 7 7 ,.A.@ 9..           ",
"            .  .7.7.7.7.7.7.W |.) K.< %+b )+z+*+*+*+0 7.~+7.7.~+y+]+]+y+7 7 ,.,.h..             ",
"          . c 7 ]+]+7.q.z.$ f B 0+l+|+'.c.a.f.a.R D.n 7.7.7.y+y+7.y+y+7 ,.A.A.U.h..             ",
"        . c t 7 y+]+7.~.m.p+p+m.m.q q /+/+. . f 3 z+~+7.~+]+7.]+7 7 ]+]+,.,.,.V 9.. . .         ",
"        . B+]+7 7 y+]+F z.P.}+}+}+}+}+8.C.I W C.^ ;+7.y+y+y+y+y+7 7 ,.,.A.A.A.@ 9.. . . . .     ",
"      . c ,.A.7 ,.y+]+]+7 v [ p.b.>+>+1 G+T 0.#+K 7.]+7.y+]+7 ]+]+,.A.,.,.W.x h.. . . . . .     ",
"    . + ! d+,.A.7 ,.7 7 ]+!.w.8 0.u.e.w u.T u.e.e.!+/ ]+7 7 7 7 ,.A.,.A.A.A.V 9.. . . . . .     ",
"      . . ! ! d+A.,.7 7 7 7 / >.*.p.u.1 u.- - >+- o+!+++7 A.,.7 ,.A.,.W.x x @ g . . . . .       ",
"          . . X k.d+A.A.,.,.7 ,.7 & # $+#+$+%.8 e.%._+# ,.7 A.A.A.W.A.A.x A.h.. . . . .         ",
"              . . k.k.d+A.,.,.,.,.7 ,.,.& A #.$+(.[ %.& A.,.,.W.A.x W.x x V 9.. . . . .         ",
"                  . . X X ..d+A.,.A.,.A.A.A.A.v.( V # A.W.A.A.A.W.A.x A.x @ g . . . .           ",
"                      . . + X X ..d+,.,.,.A.A.A.A.W.W.A.W.x x x x x & x V 9.. . . .             ",
"                          . . . + U U ..d+W.W.W.W.A.A.W.x A.A.x & x x x @ g . . . .             ",
"                                . . . + U U ..d+W.x A.x x x x x x & x V 9.. . . .               ",
"                                      . . . + U U ..d+x & x & x x x x @ g . . .                 ",
"                                            . . . + U h...d+d d x d V 9.. . .                   ",
"                                                  . . . 9.h.9.g d+d+@ g . .                     ",
"                                                        . . . . g g g . .                       ",
"                                                                . . . .                         ",
"                                                                                                ",
"                                                                                                "};
