/* XPM */
static char * large_html_xpm[] = {
"48 48 250 2",
"  	c None",
". 	c #020204",
"+ 	c #E1DE9C",
"@ 	c #DEBE84",
"# 	c #F2EA9C",
"$ 	c #F6EEBC",
"% 	c #CAC274",
"& 	c #425A64",
"* 	c #666244",
"= 	c #6A5E24",
"- 	c #62572C",
"; 	c #4A6244",
"> 	c #424234",
", 	c #1E1E1C",
"' 	c #121213",
") 	c #3A3A2C",
"! 	c #1E2A24",
"~ 	c #26261C",
"{ 	c #B6BEAC",
"] 	c #5E8A9C",
"^ 	c #927E4C",
"/ 	c #5A825C",
"( 	c #4E8A94",
"_ 	c #32669C",
": 	c #66826C",
"< 	c #4E4E3C",
"[ 	c #0E1A0C",
"} 	c #312E1C",
"| 	c #D2CA5C",
"1 	c #C2BA64",
"2 	c #D29E44",
"3 	c #D2AE74",
"4 	c #B6BE6C",
"5 	c #D6B274",
"6 	c #427ADC",
"7 	c #3E72A4",
"8 	c #2F5EB1",
"9 	c #564E2C",
"0 	c #2A3E4C",
"a 	c #2A3644",
"b 	c #8A8A4C",
"c 	c #BE9E74",
"d 	c #3A3E34",
"e 	c #AE924C",
"f 	c #E6B254",
"g 	c #E6B65C",
"h 	c #E6C674",
"i 	c #DABA7C",
"j 	c #DBC26E",
"k 	c #B6BA94",
"l 	c #5692D4",
"m 	c #4A82B4",
"n 	c #366E9C",
"o 	c #6A6A4C",
"p 	c #2A4E6C",
"q 	c #2A425C",
"r 	c #325459",
"s 	c #726E4C",
"t 	c #AEB28C",
"u 	c #FAF6A4",
"v 	c #DAD694",
"w 	c #CAC68C",
"x 	c #1A1E3C",
"y 	c #467EB4",
"z 	c #CED284",
"A 	c #E2DE83",
"B 	c #D6CE7C",
"C 	c #BEC27C",
"D 	c #66B6D4",
"E 	c #A2AA4C",
"F 	c #AEBA64",
"G 	c #5282C4",
"H 	c #265AAC",
"I 	c #264EA4",
"J 	c #264664",
"K 	c #1E3654",
"L 	c #727254",
"M 	c #CABE9C",
"N 	c #D6D28C",
"O 	c #EAE294",
"P 	c #BA9A6C",
"Q 	c #1E263C",
"R 	c #E6D294",
"S 	c #F6D2A4",
"T 	c #F6DEB4",
"U 	c #E2CE94",
"V 	c #DEDA9C",
"W 	c #CECA84",
"X 	c #C6BA94",
"Y 	c #669EDC",
"Z 	c #5E8ABC",
"` 	c #525E84",
" .	c #4A62B4",
"..	c #26527C",
"+.	c #1E3A64",
"@.	c #FEFEA4",
"#.	c #DEDAAC",
"$.	c #5A9AD4",
"%.	c #BED2BC",
"&.	c #F6E6CC",
"*.	c #E2E6B4",
"=.	c #E6CA84",
"-.	c #D2C28C",
";.	c #CEA664",
">.	c #9E9E4D",
",.	c #4A6284",
"'.	c #1E4294",
").	c #1E427C",
"!.	c #1E2E24",
"~.	c #9E9E84",
"{.	c #D6C6A4",
"].	c #A6A624",
"^.	c #9EB6A4",
"/.	c #DADEDC",
"(.	c #F6E2D4",
"_.	c #F6DECC",
":.	c #D6C284",
"<.	c #B29E64",
"[.	c #9A9A5C",
"}.	c #426A7C",
"|.	c #3A64B0",
"1.	c #323634",
"2.	c #C6BE7C",
"3.	c #CECAA4",
"4.	c #D2CE8C",
"5.	c #8E8633",
"6.	c #FEEEE4",
"7.	c #FEF6EC",
"8.	c #E0DEB4",
"9.	c #D6D6A4",
"0.	c #C6BE6C",
"a.	c #B2AE69",
"b.	c #3A6EB4",
"c.	c #366AB4",
"d.	c #B2AA5C",
"e.	c #DEDA74",
"f.	c #D6D274",
"g.	c #DAD66C",
"h.	c #92921C",
"i.	c #427AC4",
"j.	c #6EB2D4",
"k.	c #B2CABC",
"l.	c #BAC66C",
"m.	c #ACB26C",
"n.	c #BE9E5C",
"o.	c #B6824C",
"p.	c #567A5C",
"q.	c #36321C",
"r.	c #4A4A3C",
"s.	c #968E3C",
"t.	c #BAB25C",
"u.	c #BAB674",
"v.	c #CEC654",
"w.	c #3E76C4",
"x.	c #C6CEBC",
"y.	c #52738C",
"z.	c #D2CA76",
"A.	c #72AADC",
"B.	c #A29A44",
"C.	c #528AD4",
"D.	c #2E56A4",
"E.	c #7D764A",
"F.	c #9E9E64",
"G.	c #5E9EE4",
"H.	c #A6BADC",
"I.	c #EECE8C",
"J.	c #CEBE84",
"K.	c #627E9C",
"L.	c #625A44",
"M.	c #909256",
"N.	c #AAA24C",
"O.	c #C2BA7C",
"P.	c #62A2DC",
"Q.	c #7ABAE4",
"R.	c #969A9C",
"S.	c #6A96AC",
"T.	c #528EE4",
"U.	c #4A86BC",
"V.	c #535241",
"W.	c #8E7E5C",
"X.	c #9E963C",
"Y.	c #A69E4C",
"Z.	c #BEB65C",
"`.	c #EAE2B4",
" +	c #76AEC4",
".+	c #9A9A2C",
"++	c #867E24",
"@+	c #6AA6DC",
"#+	c #263A54",
"$+	c #827634",
"%+	c #D6DABC",
"&+	c #DAC674",
"*+	c #C2CA6C",
"=+	c #262E43",
"-+	c #7E724C",
";+	c #968355",
">+	c #6E6234",
",+	c #56828C",
"'+	c #827E4C",
")+	c #466694",
"!+	c #262A34",
"~+	c #8A7A3C",
"{+	c #A2965C",
"]+	c #728E6C",
"^+	c #3E527C",
"/+	c #22467C",
"(+	c #726634",
"_+	c #867A34",
":+	c #A4AA68",
"<+	c #8E6A44",
"[+	c #7A6E30",
"}+	c #2E6294",
"|+	c #9E7E4C",
"1+	c #7E6A4C",
"2+	c #4A462C",
"3+	c #5E5634",
"4+	c #2E5A8C",
"5+	c #4A7EC4",
"6+	c #B2964C",
"7+	c #6A6644",
"8+	c #5E5A3C",
"9+	c #3A5E7C",
"0+	c #524634",
"a+	c #2E3234",
"b+	c #665E3C",
"c+	c #B6A684",
"d+	c #A6AE6C",
"e+	c #667E4C",
"f+	c #766A40",
"g+	c #325234",
"h+	c #46463C",
"i+	c #DACAAC",
"j+	c #325E8C",
"k+	c #5A564C",
"l+	c #5E4234",
"m+	c #324634",
"n+	c #325684",
"o+	c #3E3E34",
"p+	c #B6AE9C",
"q+	c #CEC244",
"r+	c #EADE74",
"s+	c #6E828C",
"t+	c #423624",
"u+	c #A6AE54",
"v+	c #86866C",
"w+	c #C2BA3C",
"x+	c #C2B65C",
"y+	c #B6B63C",
"z+	c #9A8654",
"A+	c #AAAA34",
"                                                                                                ",
"                                                                                                ",
"                                      . .                                                       ",
"                                      . + . .                                                   ",
"                                    . @ # $ % . .                                               ",
"                                  . & * = - ; > , ' . .                                         ",
"                            ) ! ~ { ] ^ / ( _ : < ! [ } . . . .                                 ",
"                        ) ) | 1 2 3 3 4 5 4 6 7 8 9 0 a ! b % c ' . . .                         ",
"                      d e f g h i j k 5 ] l 6 m n 8 o p q r s t u v w c ' . . .                 ",
"                    x y 3 j j z A B C ] D l E F G H H I J K 0 L M A N $ O + w P ' ' ' .         ",
"                  Q m 5 R S T U V W U X D Y Z F 4 `  .H ..+.K K L M v + N O V % @.#.j P . .     ",
"                x y $.%.T &.&.&.*.U i =.-.] F ;.F >.,.H '.).+.!.! ~.w V + + O # O # A {.]..     ",
"                x m ^./.(.&._.(.&.O N h :.W <.E [.}.|.|.H ).+.K 1.~ 2.3.4.V O O v O A v 5..     ",
"              x |.$.^.(._.6.7.(.8.=.9.=.-.0.a.<.<.: b.c.H '.).K K ~ b d.1 4.e.V f.e.g.g.h..     ",
"              Q i.j.k.6.7.7.7.7.T 9.U z l.m.n.o.p.b.b.|.8 '.).+.K q.r.s.t.u.% w w % B v.h..     ",
"              x w.j.x.6.6.7.7.(.T U =.=.5 ;.<.y.6 i.b.c.8 I ).+.a } , b a.t.u.1 z.z.| h..       ",
"            Q 7 $.A.k 6.(.7.7.6.=.j R =.3 B.y.C.6 i.w.c.8 D.).).} 1.~ E.F.d.t.t.| 0.v.5..       ",
"            Q n l G.H.6.6.6.(.T I.=.J.3 ;.K.l C.C.6 i.b.8 8 '.).q.} ~ L.M.N.N.t.O.1 z.5..       ",
"            x i.l P.Q./.(.&.T =.R.S.R.;.m l T.C.U.6 i.b.8 8 '.).a q.~ V.W.X.Y.Y.t.t.Z.5..       ",
"            Q y l l A.A.`.T =.R. +j.A.;.U.l T.l T.6 i.c.8 D.).).K q.} > E.s.X.X.X.N..+++.       ",
"            x b.Z C.Y Y M T i y.j.@+A.C.l $.T.C.C.6 w.c.8 I ).+.#+K } > E.$+s.X.X.[..+.         ",
"            x w.Z l Y G.$.%+&+k S.*+A.P.$.l T.C.6 i.b.8 H '.).K K =+Q > -+5.;+s.X.X.>+.         ",
"            Q b.Z C.G.Y Y l N z 4 ,+C.T.$.C.U.6 i.i.c.8 I '.+.K =+=+Q < $+$+'+5.s.5.$+.         ",
"            Q n C.l l $.P.P.$.y z Z.K.C.U.y.)+y.w.c.c.H I '.K K =+! !+* $+~+$+5.s.++5..         ",
"              x i.m C.l $.Y G.Y $.m a.K.y.{+>.]+)+^+8 I /++.K =+=+Q 1.(+_+~+s.s.X.5..           ",
"              x _ w.l l l $.P.P.Y $.C.:+>.e {+{+<+= './+q K =+=+Q Q < [+$+_+s.5.s.5..           ",
"              . }+n m C.C.l $.$.$.y |+>.{+{+>.;+1+o 2++.K K =+! Q =+3+_+$+5.s..+X.5..           ",
"            . :+r 4+7 y m 5+G C.C.i.6+[.F.^ ;+E.7+o 3+a K =+=+~ !.8+(+~+5.5.s..+5.5..           ",
"            . + *.9+p 7 7 i.w.w.w.c.;+B.;+M.'+1+- 9 0+d =+! Q Q a+b+[+_+5.s.s.N..+.             ",
"          . c+@.# d+r ..n 7 _ |.)+8 o ;+M.e+f+L.g+r.h+a+! =+Q a+< [+$+s.s.X.X.a..+.             ",
"        . c+i+@.@.@.m.r ..j+j+_ }+}+..f+e+k+V.l+d r.m+} !+Q a V.$+_+5.s.s.N.d.u.5.. . .         ",
"        . -.@.@.@.@.# m.9+..J ..n+p ).0 3+g+o+m+h+m+} 1.Q 1.= _+s.X.X.N.N.0.| t.5.. . . . .     ",
"      . p+@.u @.@.@.@.O d+,+r J q 0 q 0 #+2+m+) 1.q.!.Q ) -+~+s.X.N.N.t.1 B A .+. . . . . .     ",
"    . 5.q+r+@.@.@.u @.@.u z d+s+J +.a 1.a ) m+t+!+~ } f+5.5.X.N.u+1 % | A # g.5.. . . . . .     ",
"      . . q+q+r+@.@.@.@.@.@.$ v O.v+k+) o+} } d - _+$+_+Y.Y.d.t.f.r+O O # @.v.$+. . . . .       ",
"          . . w+x+A @.@.@.@.@.u u # O O.a.O.d.d.Z.1 1 g.B g.g.r+O u @.@.@.@.h.. . . . .         ",
"              . . y+w+r+@.@.@.@.@.@.@.@.u # # O O O O O # # u u @.@.@.@.@.r+++. . . . .         ",
"                  . . y+y+&+r+@.@.@.@.@.@.@.@.@.@.@.@.@.@.@.@.@.@.@.u @.@.| [+. . . .           ",
"                      . . z+y+y+&+r+@.@.@.@.@.@.@.@.@.@.@.@.@.u @.@.u @.g.5.. . . .             ",
"                          . . . s.A+N.j r+u @.u @.u @.u @.u @.@.@.@.@.@.| $+. . . .             ",
"                                . . . s.A+A+&+r+@.@.@.@.@.@.u @.u @.@.r+5.. . . .               ",
"                                      . . . h.A+A+&+r+@.u @.@.u @.@.@.| _+. . .                 ",
"                                            . . . s.A+h.&+r+# O u O r+++. . .                   ",
"                                                  . . . 5..+++$+r+r+| _+. .                     ",
"                                                        . . . . $+$+$+. .                       ",
"                                                                . . . .                         ",
"                                                                                                ",
"                                                                                                "};
