/* XPM */
static char * kfm_fulltrash_xpm[] = {
"44 44 229 2",
"  	c None",
". 	c #000000",
"+ 	c #ECECBC",
"@ 	c #FFFFEA",
"# 	c #FDFDC5",
"$ 	c #354747",
"% 	c #364848",
"& 	c #334343",
"* 	c #FFFFC3",
"= 	c #FFFFF1",
"- 	c #FFFFE3",
"; 	c #C9C997",
"> 	c #D3D382",
", 	c #020202",
"' 	c #040404",
") 	c #030303",
"! 	c #233030",
"~ 	c #B6FBFB",
"{ 	c #A4E1E1",
"] 	c #FFFFF8",
"^ 	c #FFFFCF",
"/ 	c #D1D1D1",
"( 	c #436464",
"_ 	c #11C5C5",
": 	c #11C4C4",
"< 	c #0FB0B0",
"[ 	c #060606",
"} 	c #FFFFE1",
"| 	c #FFFFDB",
"1 	c #FFFFC5",
"2 	c #F0F094",
"3 	c #308585",
"4 	c #2F8585",
"5 	c #2B7777",
"6 	c #67674D",
"7 	c #010101",
"8 	c #FEFEBF",
"9 	c #F5F5A3",
"0 	c #B1B172",
"a 	c #F3F39D",
"b 	c #F2F29C",
"c 	c #F2F29D",
"d 	c #C6C680",
"e 	c #25251C",
"f 	c #FCFCC0",
"g 	c #FDFDF7",
"h 	c #FDFDBB",
"i 	c #C8C85E",
"j 	c #8A8A00",
"k 	c #BDBD00",
"l 	c #BCBC00",
"m 	c #BEBE00",
"n 	c #9B9B00",
"o 	c #050504",
"p 	c #D0D09D",
"q 	c #FDFDBE",
"r 	c #FDFDFD",
"s 	c #37372A",
"t 	c #EBEBBB",
"u 	c #ECEC86",
"v 	c #E3E36B",
"w 	c #BBBB3B",
"x 	c #CACACB",
"y 	c #BDBDBE",
"z 	c #191900",
"A 	c #222200",
"B 	c #272700",
"C 	c #828200",
"D 	c #515100",
"E 	c #42421C",
"F 	c #F5F5B8",
"G 	c #C2C271",
"H 	c #D5D543",
"I 	c #A9A900",
"J 	c #C3C3C4",
"K 	c #B6B6B7",
"L 	c #9D9D9D",
"M 	c #675A44",
"N 	c #685A44",
"O 	c #675941",
"P 	c #4E4C06",
"Q 	c #4D4D00",
"R 	c #6E6E22",
"S 	c #E8E87F",
"T 	c #EEEE91",
"U 	c #FDFDC2",
"V 	c #FDFDE4",
"W 	c #BABA1F",
"X 	c #CACA1F",
"Y 	c #C0C000",
"Z 	c #979700",
"` 	c #BCBCBE",
" .	c #B0B0B2",
"..	c #979799",
"+.	c #0A0A0A",
"@.	c #131313",
"#.	c #0F0F0F",
"$.	c #221E18",
"%.	c #FDD59E",
"&.	c #FFDCA8",
"*.	c #F2CB97",
"=.	c #17130E",
"-.	c #6A6A00",
";.	c #C9C91F",
">.	c #F6F6A9",
",.	c #F8F8AD",
"'.	c #141414",
").	c #AAAA00",
"!.	c #B5B5B7",
"~.	c #A9A9AB",
"{.	c #919193",
"].	c #070707",
"^.	c #B6B6B6",
"/.	c #BFBFBF",
"(.	c #585858",
"_.	c #FFA858",
":.	c #F2A053",
"<.	c #170F07",
"[.	c #BFBF02",
"}.	c #E4E470",
"|.	c #B5B588",
"1.	c #153B31",
"2.	c #75753F",
"3.	c #B2B20B",
"4.	c #ACAC00",
"5.	c #AEAEB1",
"6.	c #A3A3A5",
"7.	c #8C8C8E",
"8.	c #A09E9B",
"9.	c #0C0907",
"0.	c #BFBF00",
"a.	c #CDCD2A",
"b.	c #DBDB57",
"c.	c #E9E981",
"d.	c #D0D034",
"e.	c #6A6A34",
"f.	c #313125",
"g.	c #0B3434",
"h.	c #405250",
"i.	c #909323",
"j.	c #8F8F19",
"k.	c #6B6B19",
"l.	c #191919",
"m.	c #A7A7AA",
"n.	c #9C9C9F",
"o.	c #868689",
"p.	c #B7B7B7",
"q.	c #747474",
"r.	c #757575",
"s.	c #707070",
"t.	c #959500",
"u.	c #BBBB38",
"v.	c #B0B07A",
"w.	c #888800",
"x.	c #252500",
"y.	c #080808",
"z.	c #787878",
"A.	c #7C7C7C",
"B.	c #909094",
"C.	c #86868A",
"D.	c #737377",
"E.	c #272727",
"F.	c #232323",
"G.	c #1F1F1F",
"H.	c #1A1A1A",
"I.	c #DEDEDE",
"J.	c #C3C3C3",
"K.	c #808080",
"L.	c #626265",
"M.	c #5B5B5E",
"N.	c #4E4E51",
"O.	c #8F8F8F",
"P.	c #323232",
"Q.	c #2E2E2E",
"R.	c #2A2A2A",
"S.	c #424242",
"T.	c #383838",
"U.	c #151515",
"V.	c #1D1D1D",
"W.	c #E6E6E6",
"X.	c #EDEDED",
"Y.	c #F5F5F5",
"Z.	c #717171",
"`.	c #6D6D6D",
" +	c #696969",
".+	c #5D5D5D",
"++	c #5B5B5B",
"@+	c #3E3E3E",
"#+	c #3A3A3A",
"$+	c #363636",
"%+	c #535353",
"&+	c #4A4A4A",
"*+	c #171717",
"=+	c #FEFEFE",
"-+	c #777777",
";+	c #656565",
">+	c #616161",
",+	c #595959",
"'+	c #555555",
")+	c #515151",
"!+	c #4E4E4E",
"~+	c #464646",
"{+	c #666666",
"]+	c #6E6E6E",
"^+	c #5C5C5C",
"/+	c #A5A5A5",
"(+	c #D5D5D5",
"_+	c #CCCCCC",
":+	c #ADADAD",
"<+	c #9B9B9B",
"[+	c #939393",
"}+	c #8A8A8A",
"|+	c #868686",
"1+	c #999999",
"2+	c #B8B8B8",
"3+	c #A0A0A0",
"4+	c #C6C6C6",
"5+	c #454545",
"6+	c #949494",
"7+	c #A9A9A9",
"8+	c #797979",
"9+	c #737373",
"0+	c #474747",
"a+	c #6A6A6A",
"b+	c #838383",
"c+	c #161616",
"d+	c #0D0D0D",
"e+	c #1E1E1E",
"f+	c #333333",
"                      . .                                                               ",
"                    . + @ .               . . . .                                       ",
"                  . @ @ @ # .           . $ % % & .                                     ",
"                . + * = - ; > , ' ' ' ) ! ~ ~ ~ { . . . . .                             ",
"              . + @ ] ^ * ; . / / / / / ( _ : : < . [ # # # . . .     .                 ",
"            . + @ } | 1 2 > . / / / / / / 3 4 3 5 . 6 # # # # # 7   . @ .               ",
"          . + @ } @ 8 9 2 > . / / / / / / / / / / . 0 a b b c d . e @ @ @ .             ",
"        . + f g | 8 h 2 2 i . / / / / / / / / / / . j k l m k n o p q # r @ .           ",
"          . s t 1 9 2 u v w . x y y y y y y y y y . z A B C D E p F q # # @ @ .         ",
"              . G v 2 v H I . J K L L L L L L L L M N N O P Q R q S T U # V @ @ .       ",
"                . W 2 X Y Z . `  .....+.@.@.@.#.$.%.&.&.*.=.-.;.>.H T ,.q q # @ '.      ",
"                  . Y ).).Z . !.~.{.].^.^././.^.(._._._.:.<.-.m [.H }.T q q |..         ",
"                  1.2.3.4.C . 5.6.7.].^././././.8.(.(.(.(.9.4.4.0.a.b.c.d.e.f.          ",
"                  g.h.i.j.k.l.m.n.o.].^././././.p.q.q.r.s.].t.t.4.m u.v.w.x.            ",
"                  y.z.A.k.k.. B.C.D.].^.^././././././.^.^.].k.t.4.4.m E.F.G.            ",
"                  H.I.J.K.A.z.L.M.N.].O.O.O.O.O.O.O.O.O.O.].k.k.P.Q.R.S.T.U.            ",
"                  V.I.W.X.Y.J.q.Z.`. +.+.+.+.+.+.+.+.+.+++@+#+$+S.%+&+S.T.*+            ",
"                  V.I.W.X.Y.=+Y.X.J.-+;+>+.+,+'+)+!+&+~+{+-+]+{+^+%+&+Q.T.*+            ",
"                  V.I./ /+/ =+Y.X.W.I.(+_+J.^.:+/+<+[+}+K.-+]+{+^+%+R.R.Q.*+            ",
"                  V.I.|+1+2+=+Y./ 3+4+(+_+J.^.:+/+<+[+}+K.{+5+^+^+%+R.R.Q.*+            ",
"                  V.I.|+1+2+=+Y.}+6+7+2+_+J./+8+9+}+[+}+K.5+0+%+^+%+R.R.Q.*+            ",
"                  V.I.|+1+2+=+Y.}+6+7+2+_+J.a+s.9+b+[+}+K.5+0+%+^+%+R.R.Q.*+            ",
"                  V.I.|+1+2+=+Y.}+6+7+2+_+J.a+s.9+b+[+}+K.5+0+%+^+%+R.R.Q.*+            ",
"                  V.I.|+1+2+=+Y.}+6+7+2+_+J.a+s.9+b+[+}+K.5+0+%+^+%+R.R.Q.*+            ",
"                  V.I.|+1+2+=+Y.}+6+7+2+_+J.a+s.9+b+[+}+K.5+0+%+^+%+R.R.Q.*+            ",
"                  V.I.|+1+2+=+Y.}+6+7+2+_+J.a+s.9+b+[+}+K.5+0+%+^+%+R.R.Q.*+            ",
"                  V.I.|+1+2+=+Y.}+6+7+2+_+J.a+s.9+b+[+}+K.5+0+%+^+%+R.R.Q.*+            ",
"                  V.I.|+1+2+=+Y.}+6+7+2+_+J.a+s.9+b+[+}+K.5+0+%+^+%+R.R.Q.*+            ",
"                  V.I.|+1+2+=+Y.}+6+7+2+_+J.a+s.9+b+[+}+K.5+0+%+^+%+R.R.Q.*+            ",
"                  V.I.|+1+2+=+Y.}+6+7+2+_+J.a+s.9+b+[+}+K.5+0+%+^+%+R.R.Q.*+            ",
"                  V.I.|+1+2+=+Y.}+6+7+2+_+J.a+s.9+b+[+}+K.5+0+%+^+%+R.R.Q.*+            ",
"                  V.I.|+1+2+=+Y.}+6+7+2+_+J.a+s.9+b+[+}+K.5+0+%+^+%+R.R.Q.*+            ",
"                  V.I.|+1+2+=+Y.}+6+7+2+_+J.a+s.9+b+[+}+K.5+0+%+^+%+R.R.Q.*+            ",
"                  V.I.|+1+2+=+Y.}+6+7+2+_+J.a+s.9+b+[+}+K.5+0+%+^+%+R.R.Q.*+            ",
"                  V.I.|+1+2+=+Y.}+6+7+2+_+J.a+s.9+b+[+}+K.5+0+%+^+%+R.R.Q.*+            ",
"                  V.I.|+1+2+=+Y.}+6+7+2+_+J.a+s.9+b+[+}+K.5+0+%+^+%+R.R.Q.*+            ",
"                  V.I.|+1+2+=+Y.}+6+7+2+_+J.a+s.9+b+[+}+K.5+0+%+^+%+R.R.Q.c+            ",
"                  V.I./ |+/ =+Y.}+6+7+2+_+J.a+s.9+b+[+}+K.5+0+%+^+%+&+R.T.d+            ",
"                  l./ W.X.Y.=+Y.}+6+7+2+_+J.a+s.9+b+[+}+K.5+0+%+^+%+&+S.T.'             ",
"                  @././ X.Y.=+Y./ |+:+J._+J.a+s.9+b+[+}+K.{+5+^+^+%+&+S.T..             ",
"                    . . / Y.=+Y.X.W.I.(+_+J./+a+a+}+[+}+K.-+]+{+^+%+T.. .               ",
"                        . e+Q./ X.W.I.(+_+J.^.:+/+<+[+}+K.-+]+&+. . .                   ",
"                              . . . . <+_+J.^.:+/+<+[+]+f+. . .                         ",
"                                      . . . . . . . . .                                 "};
