/* XPM */
static char * kmenuedit_xpm[] = {
"48 48 194 2",
"  	c None",
". 	c #020204",
"+ 	c #0A8284",
"@ 	c #828284",
"# 	c #82461C",
"$ 	c #C2C2C4",
"% 	c #464644",
"& 	c #CA8244",
"* 	c #E6E6E4",
"= 	c #D6A284",
"- 	c #4E2604",
"; 	c #C27E5C",
"> 	c #5A5A5C",
", 	c #02BEBC",
"' 	c #D29674",
") 	c #EEC2A4",
"! 	c #222224",
"~ 	c #A2A2A4",
"{ 	c #EEF6F4",
"] 	c #966654",
"^ 	c #1ADADC",
"/ 	c #763E1C",
"( 	c #E66E04",
"_ 	c #6A6A5C",
": 	c #6E3204",
"< 	c #FAD2B4",
"[ 	c #FAFAFC",
"} 	c #121204",
"| 	c #BA8264",
"1 	c #F28214",
"2 	c #EE7A14",
"3 	c #02A6A4",
"4 	c #8A5644",
"5 	c #E6924C",
"6 	c #929294",
"7 	c #E6B294",
"8 	c #5E3214",
"9 	c #EEFEFC",
"0 	c #0EEAEC",
"a 	c #727274",
"b 	c #D2D2D4",
"c 	c #FA8A1C",
"d 	c #525254",
"e 	c #F2CABC",
"f 	c #6E5244",
"g 	c #726A64",
"h 	c #0A0A0C",
"i 	c #964E14",
"j 	c #5A2E0C",
"k 	c #02CECC",
"l 	c #363634",
"m 	c #B2B2B4",
"n 	c #F6F6F4",
"o 	c #FA7A04",
"p 	c #42A2A4",
"q 	c #EE9A54",
"r 	c #8A8A8C",
"s 	c #EEEEEC",
"t 	c #AE7264",
"u 	c #1AE2E4",
"v 	c #EA760C",
"w 	c #FEDAA4",
"x 	c #1A1A1C",
"y 	c #F6B27C",
"z 	c #F69E54",
"A 	c #3E9E9C",
"B 	c #8A8274",
"C 	c #CACACC",
"D 	c #564E3C",
"E 	c #F6A25C",
"F 	c #562E14",
"G 	c #666664",
"H 	c #2ACACC",
"I 	c #D69E7C",
"J 	c #F6C6A4",
"K 	c #2A2A2C",
"L 	c #EEFAFC",
"M 	c #72462C",
"N 	c #6E6E6C",
"O 	c #FE8204",
"P 	c #9E561C",
"Q 	c #9A9A9C",
"R 	c #36EEEC",
"S 	c #DADADC",
"T 	c #F28E44",
"U 	c #EE9E54",
"V 	c #B67A6C",
"W 	c #2AE2E4",
"X 	c #FADAC4",
"Y 	c #0A0604",
"Z 	c #1A8E8C",
"` 	c #824E3C",
" .	c #DE8E4C",
"..	c #562604",
"+.	c #EEC6B4",
"@.	c #AAAAAC",
"#.	c #EE7204",
"$.	c #6A6A6C",
"%.	c #7E3A04",
"&.	c #FAFEFC",
"*.	c #161614",
"=.	c #F67A04",
"-.	c #02BABC",
";.	c #66320C",
">.	c #F6FEFC",
",.	c #FE8E1C",
"'.	c #5A564C",
").	c #FACEB4",
"!.	c #7E4E3C",
"~.	c #726E6C",
"{.	c #0E0E04",
"].	c #A64E04",
"^.	c #BABABC",
"/.	c #FA7E04",
"(.	c #2AB6B4",
"_.	c #EEF2F4",
":.	c #BA7254",
"<.	c #FABE7C",
"[.	c #EEAA74",
"}.	c #F29E4C",
"|.	c #FEDAC4",
"1.	c #060604",
"2.	c #0A8684",
"3.	c #868684",
"4.	c #824A1C",
"5.	c #C6C6C4",
"6.	c #4A4A4C",
"7.	c #D28644",
"8.	c #EAEAEC",
"9.	c #BA9684",
"0.	c #D2763C",
"a.	c #965E3C",
"b.	c #EEBA94",
"c.	c #02AEAC",
"d.	c #02D6D4",
"e.	c #3E3A34",
"f.	c #FEB67C",
"g.	c #8E8684",
"h.	c #FA8614",
"i.	c #7A461C",
"j.	c #724224",
"k.	c #5E5E5C",
"l.	c #D69A74",
"m.	c #262624",
"n.	c #F68614",
"o.	c #969694",
"p.	c #623614",
"q.	c #D6D6D4",
"r.	c #565654",
"s.	c #F6CEBC",
"t.	c #9A5214",
"u.	c #B27664",
"v.	c #1E1E1C",
"w.	c #CECECC",
"x.	c #2E2E2C",
"y.	c #A25A1C",
"z.	c #9E9E9C",
"A.	c #DEDEDC",
"B.	c #AEAEAC",
"C.	c #BEBEBC",
"D.	c #F27604",
"E.	c #02C2C4",
"F.	c #F6FAFC",
"G.	c #36F2F4",
"H.	c #622E0C",
"I.	c #6E6664",
"J.	c #EE7E14",
"K.	c #0EEEEC",
"L.	c #1AE6E4",
"M.	c #F6A65C",
"N.	c #7E523C",
"O.	c #121214",
"P.	c #76726C",
"Q.	c #FE8A14",
"R.	c #5A4E44",
"S.	c #522604",
"T.	c #F2C2A4",
"U.	c #F2F6F4",
"V.	c #EA6E04",
"W.	c #F2FEFC",
"X.	c #2ECACC",
"Y.	c #DA9E7C",
"Z.	c #F2FAFC",
"`.	c #2EE2E4",
" +	c #6E6A6C",
".+	c #FEFEFC",
"++	c #FE7E04",
"@+	c #2EB6B4",
"#+	c #F2F2F4",
"$+	c #6E320C",
"%+	c #726A6C",
"&+	c #FADACC",
"*+	c #0E0E0C",
"=+	c #F29E54",
"                                                                                                ",
"                                                                                                ",
"                      {.{.h h h h {.{.{.{.{.h h h {.{.{.{.{.h h h h {.} _                       ",
"                    K .+[ .+.+.+.+.+.+.+.+.+.+.+.+.+.+.+.+.+.+.+.+.+[ % x                       ",
"                    m.&.S b b b w.b b b w.b b b w.b b b w.b b b b w.q.6.!                       ",
"                    x.[ C C.C.C.C.C.C.C.C.C.C.C.C.C.C.C.C.C.C.C.C.C.5.% m.                      ",
"                    x.[ C C.C.C.^.^.^.C.C.C.C.C.^.C.C.C.C.C.C.C.C.C.C % !                       ",
"                    K [ C $ C.C.C.C.C.C.^.^.^.C.C.C.C.C.^.^.^.C.C.C.5.6.!                       ",
"                    m.n z.z.Q z.z.z.Q z.z.z.Q z.z.z.Q z.z.z.z.z.z.Q z.6.v.                      ",
"                    x.#+$.G $.G G G $.G G G $.G G G $.G G G G . . 1.1.. . . . . . . . . .       ",
"                    x.9 G.u L.u u u L.L.L.u u u u u L.L.L.^ x.[ n n F.n n n n n n n n n % {.    ",
"                    K L W d.d.d.d.d.d.d.d.d.d.d.d.d.d.d.d.k l [ S b b b b b b b b b b q.6.}     ",
"          - - F     K L H , E., , , , , , , , , , , , , , -.l [ C C.C.$ C.$ $ C.C.C.$ C 6.{.    ",
"        j l.7 & ;.  x.L H , , , , -.-.-., , , , , , , , , -.l .+C C.C.C.$ C.C.$ $ $ C.C 6.{.    ",
"      p.T.|.E [. .j K L H , , , , , , , , , , , , , E., , -.l F.C $ C.C.C.C.C.C.C.C.$ C 6.h     ",
"    j = |.z 2 w y q # L (.c.c.c.c.c.c.c.c.c.c.c.c.c.c.c.c.3 l [ ~ Q z.z.z.z.z.z.z.z.Q z.6.{.    ",
"    j | 0.( V.J.w f.q i.A 2.2.+ 2.2.+ + + + + 2.2.2.2.2.+ + l n _ $.G $.$.G G G $._ $._ 6.h     ",
"      S.: ].D.o h.w <.U 4.Z.Z.Z.Z.Z.Z.Z.Z.Z.Z.Z.Z.Z.Z.Z.Z.s l >.R 0 K.0 0 K.K.K.0 K.K.0 6.{.    ",
"        S.%.].o ++Q.w f.=+P b b b b b b b b b b b b b b b C l W.W d.d.d.d.d.d.d.d.d.d.W 6.{.    ",
"          ..%.].++++Q.w f.z P C.C.C.C.$ C.$ C.C.C.C.C.$ C.^.l Z.X., , , , , , , , , , X.6.{.    ",
"            ..%.].O O ,.w f.z t.C.C.C.C.C.C.C.C.C.C.C.C.C.^.l Z.H , , , , , , , , E., X.6.{.    ",
"              S.%.]./.O Q.w f.z P C.C.C.C.C.C.C.C.$ C.C.^.^.l Z.X., , , , , , , , , , X.6.{.    ",
"                S.%.].O O ,.w f.z t.z.Q z.z.z.z.Q z.z.z.Q o.l U.(.3 3 3 3 3 3 3 3 3 3 @+6.{.    ",
"                  ..%.].++++Q.w f.q i $.$.$.$.$. +$.$.$.$.G l Z.A Z Z Z Z Z Z Z Z Z Z p 6.h     ",
"                    S.%.].O /.c w f.=+t.n #+#+n #+U.#+n n 8.l [ { _._._._._._._.{ { { { 6.h     ",
"                    Y ..%.]./.=.h.w f.z y.q.q.b q.b q.q.b C l .+S b b b b b b b b b b S 6.{.    ",
"                    h 3...%.].D.D.1 w y 5 t.$ C.C.C.C.$ $ ^.l [ C $ C.C.$ $ $ C.C.C.$ C 6.{.    ",
"                    *+B.g ..%.].D.D.2 <.[.7.t.C.C.C.C.C.^.^.l [ C C.C.C.C.C.C.C.C.C.C.C 6.{.    ",
"                    } m r G ..%.].V.V.#.M.&+7 / C.C.C.$ C.^.l [ 5.C.C.C.C.C.C.C.C.C.$ C 6.{.    ",
"                    ! C ~. +'...%.].V.( T < &+u.z.z.z.z.Q o.K [ ~ z.z.Q Q Q z.z.z.z.z.~ 6.{.    ",
"                    m.w.r.6.% e.S.H.] ; Y.T.).e M N $.N $.G *.> d d d d d d 6.d d 6.d d 6.{.    ",
"                    x.n C C @.@.B j 4 a.:.l.) s.V #+#+#+#+_.* 1.1.1.1.1.. 1.h 1.1.h 1.1.1.      ",
"                    K [ b m B.o.6 ~.$+` a.:.l.s.+.N.b q.b b b $ C.$ $ % O.                      ",
"                    K [ C C.~ z.3.@ %+ +/ ` :.' 9.t $ C.$ C.C.C.$ C.C 6.v.                      ",
"                    x.[ C C.^.z.z.3.@ @  + +/ f R.R.B ^.C.C.C.C.C.C.5.6.!                       ",
"                    x.[ C C.C.C.^.z.z.3.3.@  + +k.1.O.C.C.C.C.C.C.C.5.6.!                       ",
"                    K n z.~ z.z.z.Q Q @ @ a N N $.G G z.z.z.z.z.z.z.~ 6.!                       ",
"                    K #+N  +N N N N N $.$.r.> r.> r.> $.N $.$.N $.N $.6.m.                      ",
"                    x..+_.s s 8.8.s s 8.s s s 8.C 5.C 8.s s 8.s s s S % !                       ",
"                    K [ S b q.q.q.b q.q.q.b b q.w.b b q.q.q.q.q.b q.q.6.!                       ",
"                    K [ w.C.$ C.C.C.C.C.C.$ C.$ C.C.$ C.C.C.C.C.C.$ C 6.!                       ",
"                    K [ C $ C.C.C.C.C.C.C.^.C.^.C.C.C.C.C.C.C.C.C.C.5.6.!                       ",
"                    x.[ C C.C.C.^.C.^.C.C.^.C.C.C.C.C.^.C.^.C.C.C.C.5.6.!                       ",
"                    m.n z.z.z.z.~ z.~ z.z.~ z.z.z.z.z.~ z.~ z.z.z.z.~ 6.!                       ",
"                    x k.r.r.d d d d d r.d r.d r.d d d d d r.d d d d d 6.*.                      ",
"                      Y 1.Y h 1.h 1.h 1.1.1.h 1.h h 1.h 1.1.h h h h h h                         ",
"                                                                                                ",
"                                                                                                "};
