/* XPM */
static char * large_magneto_optical_unmount_xpm[] = {
"48 48 107 2",
"  	c None",
". 	c #000000",
"+ 	c #CACACA",
"@ 	c #CCCCCC",
"# 	c #CDCDCD",
"$ 	c #CFCFCF",
"% 	c #D0D0D0",
"& 	c #303030",
"* 	c #BDBDBD",
"= 	c #D1D1D1",
"- 	c #D2D2D2",
"; 	c #FFFFFF",
"> 	c #E5E5E5",
", 	c #D3D3D3",
"' 	c #C7C7C7",
") 	c #C4C4C4",
"! 	c #C1C1C1",
"~ 	c #C6C6C6",
"{ 	c #C9C9C9",
"] 	c #C0C0C0",
"^ 	c #C3C3C3",
"/ 	c #C5C5C5",
"( 	c #BABABA",
"_ 	c #BCBCBC",
": 	c #BFBFBF",
"< 	c #C2C2C2",
"[ 	c #C0C0FF",
"} 	c #B6B6B6",
"| 	c #B8B8B8",
"1 	c #BBBBBB",
"2 	c #BEBEBE",
"3 	c #B2B2B2",
"4 	c #B5B5B5",
"5 	c #B7B7B7",
"6 	c #8C8C8C",
"7 	c #FFC0FF",
"8 	c #AEAEAE",
"9 	c #B1B1B1",
"0 	c #B3B3B3",
"a 	c #AAAAAA",
"b 	c #ADADAD",
"c 	c #AFAFAF",
"d 	c #B4B4B4",
"e 	c #B9B9B9",
"f 	c #A6A6A6",
"g 	c #A9A9A9",
"h 	c #ABABAB",
"i 	c #B0B0B0",
"j 	c #A2A2A2",
"k 	c #A5A5A5",
"l 	c #A7A7A7",
"m 	c #ACACAC",
"n 	c #585858",
"o 	c #9E9E9E",
"p 	c #A1A1A1",
"q 	c #A3A3A3",
"r 	c #A8A8A8",
"s 	c #9A9A9A",
"t 	c #9D9D9D",
"u 	c #9F9F9F",
"v 	c #A4A4A4",
"w 	c #989898",
"x 	c #999999",
"y 	c #9B9B9B",
"z 	c #A0A0A0",
"A 	c #9C9C9C",
"B 	c #404000",
"C 	c #898989",
"D 	c #FBFBFB",
"E 	c #FCFCFC",
"F 	c #606060",
"G 	c #F8F8F8",
"H 	c #F9F9F9",
"I 	c #F4F4F4",
"J 	c #F5F5F5",
"K 	c #F6F6F6",
"L 	c #3A3A3A",
"M 	c #4C494D",
"N 	c #F1F1F1",
"O 	c #F2F2F2",
"P 	c #F3F3F3",
"Q 	c #272329",
"R 	c #EDEDED",
"S 	c #EEEEEE",
"T 	c #EFEFEF",
"U 	c #F0F0F0",
"V 	c #120D14",
"W 	c #EAEAEA",
"X 	c #EBEBEB",
"Y 	c #ECECEC",
"Z 	c #4D4D4D",
"` 	c #E6E6E6",
" .	c #E7E7E7",
"..	c #E8E8E8",
"+.	c #E9E9E9",
"@.	c #E3E3E3",
"#.	c #E4E4E4",
"$.	c #E0E0E0",
"%.	c #E1E1E1",
"&.	c #E2E2E2",
"*.	c #919191",
"=.	c #DDDDDD",
"-.	c #DEDEDE",
";.	c #DFDFDF",
">.	c #DCDCDC",
",.	c #8C8C8D",
"'.	c #0A0C1F",
"                                                                                                ",
"                                                                                                ",
"                                              . .                                               ",
"                                            . + + .                                             ",
"                                          . @ # # # .                                           ",
"                                        . # $ % % & * .                                         ",
"                                      . # $ = - & ; > * .                                       ",
"                                    . @ $ = , & ; ; ; > * .                                     ",
"                                  . + # % - & ; ; ; ; ; > * .                                   ",
"                                . ' + # % & ; ; ; ; ; ; ; > * .                                 ",
"                              . ) ' + # & ; ; ; ; ; ; ; ; ; > * .                               ",
"                            . ! ) ~ { & ; ; ; ; ; ; ; ; ; ; ; > * .                             ",
"                          . * ] ^ / & ; ; ; ; ; ; ; ; ; ; ; ; ; > * .                           ",
"                        . ( _ : < & [ ; ; ; ; ; ; ; ; ; ; ; ; ; ; > * .                         ",
"                      . } | 1 2 & [ [ [ ; ; ; ; ; ; ; ; ; ; ; ; ; ; > * .                       ",
"                    . 3 4 5 ( _ 6 7 [ [ [ ; ; ; ; ; ; ; ; ; ; ; ; ; ; > * .                     ",
"                  . 8 9 0 } | ( & 7 7 [ [ [ ; ; ; ; ; ; ; ; ; ; ; ; ; ; > * .                   ",
"                . a b c 3 d } e 1 & 7 7 [ [ [ ; ; ; ; ; ; ; ; ; ; ; ; ; ; > * .                 ",
"              . f g h 8 i 3 d 5 e ( & 7 7 [ [ [ ; ; ; ; ; ; ; ; ; ; ; ; ; ; > * .               ",
"            . j k l a m 8 i 3 d } | ( & 7 7 [ [ [ ; ; ; ; ; ; ; ; ; ; ; ; ; ; > n .             ",
"          . o p q f r a m 8 i 3 d } 5 | & 7 7 [ [ [ ; ; ; ; ; ; ; ; ; ; ; ; ; & q p .           ",
"        . s t u p v f r a m 8 i 3 0 4 } 5 & 7 7 [ [ [ ; ; ; ; ; ; ; ; ; ; ; & v p u t .         ",
"      . w x y t z j v f r a m 8 c & & 0 d 4 & 7 7 [ [ [ ; ; ; ; ; ; ; ; ; & v n z t y > .       ",
"    . w w w x A o z j v f r a h & ; ; & 9 3 3 & 7 7 [ [ [ ; ; ; ; ; ; ; & v n B n A > C .       ",
"    . w w w w s A o z j v f l & D D E E & c i i & 7 7 [ [ [ ; ; ; ; ; & v j z n A > C F .       ",
"    . > w w w w s A o z p q & G G G G H H & b b b & 7 7 [ [ [ ; ; ; & q p z o A > C F .         ",
"    . C > w w w w s A t u & I I J J J K K K & a a a & 7 7 [ [ [ ; & j p u t L > C F M           ",
"    . F C > w w w w x y & N N N O O O O P P P & l l l & 7 7 [ [ & p z o t y > L F Q             ",
"      . F C > L w w w & R S S S S T T T U U U U & v v v & 7 7 & z o t A s > C L V               ",
"        . F L > w w & W W W X X X Y Y Y Y R R & 6 Z p p z & & o t A y x > C F V                 ",
"          . L C > & `  . . .........+.+.+.W & 6 6 6 Z o t t A y s x w > C F V                   ",
"            . F & @.@.#.#.#.#.> > > ` ` ` & 6 6 6 6 6 Z y s x w w w > C F V                     ",
"              . & h $.$.%.%.%.&.&.&.&.@.& 6 6 6 6 6 6 6 Z w w w w > C F V                       ",
"                . *.h =.-.-.-.-.;.;.;.& 6 6 6 6 6 6 6 6 Z w w w > C F .                         ",
"                  . *.h >.>.>.>.>.>.& 6 6 6 6 6 6 6 6 Z w w w > C F V                           ",
"                    . ,.h >.>.>.>.& 6 6 6 6 6 6 6 6 Z w w w > C F V                             ",
"                      . *.h >.>.& 6 6 6 6 6 6 6 6 Z w w w > C F V                               ",
"                        . *.v & 6 6 6 6 6 6 6 6 Z w w w > C F .                                 ",
"                          . *.& > 6 6 6 6 6 6 Z w w w > C F V                                   ",
"                            . & C > 6 6 6 6 Z w w w > C F .                                     ",
"                              . F C > 6 6 Z w w w > C F V                                       ",
"                                . F C > Z w w w > C F .                                         ",
"                                  . F Z > w w > C n V                                           ",
"                                    . Z h > > C F .                                             ",
"                                      . F C C F V                                               ",
"                                        . '.'.V                                                 ",
"                                                                                                ",
"                                                                                                "};
