/* XPM */
static char * man_1_4_xpm[] = {
"48 48 256 2",
"  	c None",
". 	c #020204",
"+ 	c #8A861C",
"@ 	c #C6C264",
"# 	c #E2E27C",
"$ 	c #A6A624",
"% 	c #424244",
"& 	c #D6D274",
"* 	c #F2F27C",
"= 	c #AAA684",
"- 	c #66622C",
"; 	c #92921C",
"> 	c #76721C",
", 	c #F2F2C4",
"' 	c #B2B22C",
") 	c #C6C294",
"! 	c #DAD6A4",
"~ 	c #727274",
"{ 	c #BEBA74",
"] 	c #82826C",
"^ 	c #E2E2E4",
"/ 	c #7E7A1C",
"( 	c #FAFA84",
"_ 	c #929294",
": 	c #E2DA64",
"< 	c #22221C",
"[ 	c #8E8A1C",
"} 	c #D2CA5C",
"| 	c #A6A25C",
"1 	c #F2E29C",
"2 	c #565624",
"3 	c #C6BE44",
"4 	c #B2B2AC",
"5 	c #DADA84",
"6 	c #9E9A4C",
"7 	c #727234",
"8 	c #FEFEC4",
"9 	c #DAC694",
"0 	c #FAFAAC",
"a 	c #AAAA54",
"b 	c #6E6A2C",
"c 	c #B2B264",
"d 	c #EADEAC",
"e 	c #7A7A34",
"f 	c #E2E29C",
"g 	c #AEAE7C",
"h 	c #CACABC",
"i 	c #DEDEAC",
"j 	c #CEC64C",
"k 	c #9A963C",
"l 	c #FAEEBC",
"m 	c #5E5A24",
"n 	c #121214",
"o 	c #86823C",
"p 	c #FAF6A4",
"q 	c #EAEAC4",
"r 	c #323234",
"s 	c #8E8A44",
"t 	c #7A7634",
"u 	c #BEBA5C",
"v 	c #EAEA94",
"w 	c #62625C",
"x 	c #D2D2CC",
"y 	c #C2BE74",
"z 	c #8A8A84",
"A 	c #CACA7C",
"B 	c #BEBA9C",
"C 	c #E2DA94",
"D 	c #AEAA64",
"E 	c #827E34",
"F 	c #F2F29C",
"G 	c #F2F2EC",
"H 	c #FEFA9C",
"I 	c #B69A6C",
"J 	c #E6DA6C",
"K 	c #FAFAE4",
"L 	c #FAFAB4",
"M 	c #96924C",
"N 	c #8A8644",
"O 	c #C2C274",
"P 	c #E6E694",
"Q 	c #4A4A47",
"R 	c #A2A2A3",
"S 	c #C2C2C4",
"T 	c #9A9A64",
"U 	c #2A2A2C",
"V 	c #A6A65C",
"W 	c #767644",
"X 	c #BAB668",
"Y 	c #7E7E44",
"Z 	c #AAAAAA",
"` 	c #CECEBC",
" .	c #5A5A5B",
"..	c #EAEAEB",
"+.	c #D2CE7C",
"@.	c #0A0A0C",
"#.	c #D6D67C",
"$.	c #7A761C",
"%.	c #7A7A7C",
"&.	c #828280",
"*.	c #867E1C",
"=.	c #FEFE87",
"-.	c #DADA7C",
";.	c #968E34",
">.	c #F2EE84",
",.	c #525254",
"'.	c #B6B6B6",
").	c #767244",
"!.	c #6A6A6C",
"~.	c #7E7A44",
"{.	c #CEC67C",
"].	c #1A1A1C",
"^.	c #8E8A54",
"/.	c #666668",
"(.	c #D6D6D5",
"_.	c #C2BE94",
":.	c #E2DE84",
"<.	c #AEAE64",
"[.	c #F6F6F5",
"}.	c #FAFAFB",
"|.	c #96964C",
"1.	c #CAC67B",
"2.	c #AAA664",
"3.	c #AEAEAD",
"4.	c #E6E67C",
"5.	c #AAA23C",
"6.	c #F6F684",
"7.	c #6A662C",
"8.	c #9A9234",
"9.	c #3E3E3C",
"0.	c #D2CEC4",
"a.	c #9A9A9C",
"b.	c #EEEAAC",
"c.	c #BEBE74",
"d.	c #DADADC",
"e.	c #C2BE6C",
"f.	c #BEB634",
"g.	c #B6B694",
"h.	c #BABABC",
"i.	c #D2D2BC",
"j.	c #CEC65C",
"k.	c #B2A274",
"l.	c #A69E44",
"m.	c #CABA84",
"n.	c #868234",
"o.	c #DEDA9C",
"p.	c #BAB24C",
"q.	c #F2EE94",
"r.	c #B2AE5C",
"s.	c #D6C264",
"t.	c #CAC6A4",
"u.	c #E6E6D4",
"v.	c #86863C",
"w.	c #C6C6B4",
"x.	c #F6F6CC",
"y.	c #262624",
"z.	c #FEFEAC",
"A.	c #726E34",
"B.	c #625E2C",
"C.	c #8E8E8C",
"D.	c #CECE7C",
"E.	c #F6F69C",
"F.	c #FEFEBC",
"G.	c #4E4E4C",
"H.	c #A6A6A4",
"I.	c #5E5E5C",
"J.	c #EEEEEC",
"K.	c #868684",
"L.	c #DEDE74",
"M.	c #1E1E24",
"N.	c #928E4C",
"O.	c #060604",
"P.	c #464644",
"Q.	c #767674",
"R.	c #827E1C",
"S.	c #969694",
"T.	c #8E8E1C",
"U.	c #DEDE84",
"V.	c #B6B664",
"W.	c #161614",
"X.	c #363634",
"Y.	c #FEFEE4",
"Z.	c #2E2E2C",
"`.	c #0E0E0C",
" +	c #7E7E7C",
".+	c #565654",
"++	c #6E6E6C",
"@+	c #9E9634",
"#+	c #9E9E9C",
"$+	c #DEDEDC",
"%+	c #BEBEBC",
"&+	c #D6D6BC",
"*+	c #FEFEDC",
"=+	c #E2E2B4",
"-+	c #FAF6BC",
";+	c #FAEE9C",
">+	c #FEFE9C",
",+	c #AAA63C",
"'+	c #F6F28C",
")+	c #CECA6C",
"!+	c #82824C",
"~+	c #E2DE94",
"{+	c #76722C",
"]+	c #CACACC",
"^+	c #EAEAD4",
"/+	c #7A7644",
"(+	c #BEBA6C",
"_+	c #CECECC",
":+	c #D2CE8C",
"<+	c #E6E6E4",
"[+	c #C6C6C4",
"}+	c #E6E284",
"|+	c #FEFA8C",
"1+	c #CABE3C",
"2+	c #767237",
"3+	c #FEFAA4",
"4+	c #7E7A3C",
"5+	c #928A3C",
"6+	c #CECA84",
"7+	c #F6F294",
"8+	c #FEFABC",
"9+	c #8E864C",
"0+	c #EAE68C",
"a+	c #AAA657",
"b+	c #DAD683",
"c+	c #827A1C",
"d+	c #5A5624",
"e+	c #B6B264",
"f+	c #EEEA94",
"g+	c #EADA6C",
"h+	c #C6C274",
"i+	c #DEDA7C",
"j+	c #B2AE64",
"k+	c #9A964C",
"l+	c #928E1C",
"m+	c #E6DE94",
"n+	c #666234",
"o+	c #767224",
"p+	c #222224",
"q+	c #B2B2B4",
"r+	c #9E9A54",
"s+	c #AAAA5C",
"t+	c #7A7A3C",
"u+	c #CACAC4",
"v+	c #9A9644",
"w+	c #7A763C",
"x+	c #BEBA64",
"y+	c #626264",
"z+	c #D2D2D4",
"A+	c #C2BE7C",
"B+	c #8A8A8C",
"C+	c #AEAA6C",
"D+	c #827E3C",
"E+	c #F2F2F4",
"F+	c #969254",
"G+	c #8A864C",
"                                                                                                ",
"                                                                                                ",
"                                      . .                                                       ",
"                                      . C . .                                                   ",
"                  . . . .           . m.;+l 1.. .                                               ",
"                  . [.$+'.@..       . l *+8 *+l {.. . .                                         ",
"                  . [.[.[.J.'..     . *+*+*+*+8 *+8 C {.. . . .                                 ",
"                  . }.}.}.}.E+]+. . m.*+*+8 *+*+*+*+8 *+8+C {.I . . . .                         ",
"                  . [.[.[.}.[...S . B *+*+Y.*+*+8 *+x., q =+! _.) 5 1.I . . . .                 ",
"                  . }.}.}.[.J.G u+h.++Y.Y.Y.Y.K u.&+h Z 3.%+'.Z %+Z o.+.b+1.A+I . . . .         ",
"                  . [.[.}.}.[.<+_+[+M.` *+Y.<+t.K.h.$+..[.}.}.}.}.%+O.f ~+P b.P f+C {.I . .     ",
"                  . }.<+J.E+<+(._+_+q+!.^+i.Q.]+<+u.[.}.}.[.[.J.E+q+O.T :+b+:.f+7+E.E.9 $ .     ",
"                  . E+[.E+J.<+$+[+]+%+/.]+.+d.J.E+}.}.[.[.G J...<+Z . O.e+1.A 5 }+f+6.b+l+.     ",
"                  . [.J...^ $+z+[+[+]+a..+h.J.[.[.[.[.[.E+J.J...<+3.. O.g e+A+A+D.:.}+J ; .     ",
"                  . J.<+<+$+d.]+S S w.#+w (...[.}.[.E+J...<+<+^ $+Z . O.!+a+e+X e.6+& 3 l+.     ",
"                  . <+^ d.(._+S [+h.h.H.y+_+J.[.E+J.J.....<+^ ^ $+3.. O.).k+| j+V.@ 1.T..       ",
"                  . $+z+(.0.[+[+S h.'.3.y+S ..E+E+....<+<+^ $+d.(.Z O.@.A.G+F+| j+(+@ T..       ",
"                  . d.]+_+S %+S h.4 3.H.y+%+..J.....<+^ $+d.(.(.z+3.@.O.n+D+N.k+a+(+r.R..       ",
"                  . _+]+[+%+'.'.q+3.H.S./.%+<+..<+^ ^ $+d.d.(.z+_+Z `.O.n+4+N M |.a p.l+.       ",
"                  . _+[+%+%+q+q+Z 3.H.C./.S (.<+^ ^ d.d.d.z+_+_+]+3.n O.B.t D+s s 6 ,+R..       ",
"                  . (._+q+q+3.Z R H.a.B+/.h._+^ d.$+(.z+z+z+_+]+[+a.W.@.7.A.t D+o 8.+ .         ",
"                  . [+%+q+3.Z H.H.R S.z /.Z _+]+(.x (.z+0.]+[+S _+_ ].O.B.- A.4+o M R..         ",
"                  O._+S %+q+3.H.H.H.S.&.!.Z %+%+[+[+]+]+]+[+[+%+S #+].@.B.- A.e v.;.[ .         ",
"                  .  .,.~ H.q+H.a.R C. +y+3.R %+'.S S [+S S %+%+S H.< O.m - A.t t E / .         ",
"                . m.d g.] X.K.Z a.K.K.%.y+Z '.%+3.[+S h.3.h.h.h.%+_ p+O.m - A.4+w+$..           ",
"                . ;+8+8+b.= Z.I.a.B+ +%.y+R %+Z %+%+q+4 3.'.'.q+h.a.y.O.2 - 2+t 2+> .           ",
"              . C z.8 8 8 -+= ].G.B+ +%./.a.'.%+h.q+S [+h.'.%+h.S Z U O.d+7.t t {+/ .           ",
"            . m.l F.F.8+F.8 i ].Q 9.&.%.!.H.q+h.S S [+[+%+'.3.4 %+S.r O.B.7.> t E / .           ",
"            . m+F.8+F.z.8+8+L _.@.Q I.Q.!.R '.3.Z '. +++!. .y+/.w w X.O.- A.w+t / O.            ",
"          . k.3+3+z.z.F.F.8 z.b.@.P. .,.~ B+R  .% P..+G..+ .I.I.y+y+G.O.A.w+2+9+R..             ",
"        . k.9 z.z.z.3+z.z.8+8 L g W./. .!.Q.9.r X.X.P.P.% ,..+ .w I.% O.A.7 4+5+c+. . .         ",
"        . m.>+z.z.3+z.F.z.F.z.8+~+p+9.Q O.`.. . O.. . O.. . . O.. . O.O.t 4+D+@+R.. . . . .     ",
"      . k.|+H |+z.z.3+3+z.z.z.F.3+f M.. . F+7 ~.W ).Y Y ^.s e G+~.D+G+M v+r+k *.. . . . . .     ",
"    . + 1+g+>+>+>+>+z.z.z.3+z.3+0 p f+1.C+C+2.C+e+<.<.D a+D | V e+V.c j+s+V 5.R.. . . . . .     ",
"      . . 1+1+g+|+>+>+H z.z.z.z.z.0 F P b+& A 1.A 6+O c.{ y @ h+X )+e.@ j.e+5.A.. . . . .       ",
"          . . ' f.g+|+>+>+|+>+z.3+z.p F v :.b+#.i+:.& b+L.U.+.i+: b+-.-.#.L.T.. . . . .         ",
"              . . f.f.g+>+H |+>+|+z.|+0 0 E.q.7+F 7+q.7+7+7+P q.4.f+>.'+# } R.. . . . .         ",
"                  . . ' ' s.g+>+>+>+>+H |+H |+H |+>+>+|+|+>+=.=.( =.|+=.=.j > . . . .           ",
"                      . . [ ' ' s.g+>+H >+>+>+>+H |+z.>+|+|+|+|+|+=.|+( g+*.. . . .             ",
"                          . . . + $ $ s.g+H H H >+=.|+|+=.=.=.=.=.( =.=.j > . . . .             ",
"                                . . . + $ $ s.g+|+=.=.|+|+|+|+|+=.( ( : *.. . . .               ",
"                                      . . . [ $ $ s.g+=.=.=.=.=.( =.=.j > . . .                 ",
"                                            . . . + $ l+s.g+1 1 ( 1 g+*.. . .                   ",
"                                                  . . . *.l+*.> g+g+j > . .                     ",
"                                                        . . . . > > > . .                       ",
"                                                                . . . .                         ",
"                                                                                                ",
"                                                                                                "};
