/* XPM */
static char * perl_doc_1_3_xpm[] = {
"48 48 256 2",
"  	c None",
". 	c #020204",
"+ 	c #968224",
"@ 	c #C5C251",
"# 	c #A6A624",
"$ 	c #E4E26C",
"% 	c #4B4329",
"& 	c #CAC694",
"* 	c #D9A211",
"= 	c #95680A",
"- 	c #BD8409",
"; 	c #E4C428",
"> 	c #6B6543",
", 	c #D7B476",
"' 	c #BAB432",
") 	c #DAD38C",
"! 	c #FAE6C4",
"~ 	c #E0B218",
"{ 	c #B27204",
"] 	c #92921C",
"^ 	c #BD9313",
"/ 	c #DAD21C",
"( 	c #705427",
"_ 	c #987810",
": 	c #342307",
"< 	c #AFA269",
"[ 	c #BA954F",
"} 	c #AE8317",
"| 	c #ECDA30",
"1 	c #F2D390",
"2 	c #F0B224",
"3 	c #F5F381",
"4 	c #D39819",
"5 	c #E9C35E",
"6 	c #76721C",
"7 	c #595517",
"8 	c #D6C361",
"9 	c #E9C684",
"0 	c #F6F5AB",
"a 	c #B2824C",
"b 	c #EAA911",
"c 	c #967B4F",
"d 	c #413311",
"e 	c #C79B17",
"f 	c #F2D5BF",
"g 	c #B6B374",
"h 	c #C5A469",
"i 	c #AB8B24",
"j 	c #876519",
"k 	c #DAB344",
"l 	c #CDCB5B",
"m 	c #E6E381",
"n 	c #674507",
"o 	c #907046",
"p 	c #D5D366",
"q 	c #D9A537",
"r 	c #DDDB6F",
"s 	c #C2A234",
"t 	c #A1760F",
"u 	c #F2E29C",
"v 	c #7F5507",
"w 	c #BC9236",
"x 	c #FDC9C4",
"y 	c #FEF3F4",
"z 	c #533408",
"A 	c #191507",
"B 	c #A26604",
"C 	c #F4C429",
"D 	c #F6C456",
"E 	c #C2BE4F",
"F 	c #F2DBBC",
"G 	c #EDEB7D",
"H 	c #A07C2A",
"I 	c #C8C560",
"J 	c #D6B294",
"K 	c #F3BD24",
"L 	c #FEFD90",
"M 	c #E6C8AC",
"N 	c #7A6244",
"O 	c #DBD56B",
"P 	c #CFAC45",
"Q 	c #92925C",
"R 	c #AFAD6E",
"S 	c #A68434",
"T 	c #E0C48F",
"U 	c #FEE5DF",
"V 	c #DEBA5C",
"W 	c #2A1404",
"X 	c #908A58",
"Y 	c #9B7110",
"Z 	c #BEBB4E",
"` 	c #E0DD8E",
" .	c #C9AB6F",
"..	c #604A14",
"+.	c #DCAD3E",
"@.	c #CBC54E",
"#.	c #ECBE64",
"$.	c #765C20",
"%.	c #432D07",
"&.	c #787442",
"*.	c #665A18",
"=.	c #FEFEAA",
"-.	c #B58B21",
";.	c #E7E48F",
">.	c #F4CC28",
",.	c #F1BD51",
"'.	c #524C17",
").	c #E4BA28",
"!.	c #F4DCAC",
"~.	c #F6F497",
"{.	c #BE9A41",
"].	c #E6B54A",
"^.	c #A77E14",
"/.	c #C3942F",
"(.	c #533B14",
"_.	c #F2EEDC",
":.	c #E0AC21",
"<.	c #BC8E16",
"[.	c #DFBE78",
"}.	c #BDA389",
"|.	c #EECD77",
"1.	c #947962",
"2.	c #D2B478",
"3.	c #D5D475",
"4.	c #FAC246",
"5.	c #FDDCD8",
"6.	c #AA9654",
"7.	c #6A6A24",
"8.	c #E9B624",
"9.	c #E6DB6D",
"0.	c #CA7E04",
"a.	c #FAD274",
"b.	c #8E8A1C",
"c.	c #B2AD28",
"d.	c #DACA8C",
"e.	c #CFCB84",
"f.	c #BA9A5C",
"g.	c #867D47",
"h.	c #836B44",
"i.	c #BEA654",
"j.	c #AC9C5C",
"k.	c #867E1C",
"l.	c #A39949",
"m.	c #0F0B04",
"n.	c #BEBC80",
"o.	c #DABE8C",
"p.	c #E8CE40",
"q.	c #AE8E54",
"r.	c #493D0F",
"s.	c #A19B5C",
"t.	c #816B17",
"u.	c #805D18",
"v.	c #F9CA5C",
"w.	c #D49E34",
"x.	c #FEFED4",
"y.	c #A08366",
"z.	c #AF7C0E",
"A.	c #D3CD62",
"B.	c #5C5A34",
"C.	c #1F1B08",
"D.	c #321E0A",
"E.	c #D0B298",
"F.	c #F6E23C",
"G.	c #6A5324",
"H.	c #A08E3E",
"I.	c #F4EE94",
"J.	c #A5720A",
"K.	c #DADAB4",
"L.	c #B7B55C",
"M.	c #BD9C7C",
"N.	c #8E7E1C",
"O.	c #E7AE2B",
"P.	c #B6A444",
"Q.	c #E6D39C",
"R.	c #877339",
"S.	c #DC9C0C",
"T.	c #E2CEC4",
"U.	c #D6CABC",
"V.	c #BAA664",
"W.	c #D0A53F",
"X.	c #56430C",
"Y.	c #674D32",
"Z.	c #AA9274",
"`.	c #8A760C",
" +	c #362A14",
".+	c #EACEBC",
"++	c #FEB624",
"@+	c #FDD5CF",
"#+	c #5F3E07",
"$+	c #F8EEB6",
"%+	c #ECCE94",
"&+	c #9A7E60",
"*+	c #E3C27C",
"=+	c #A7866D",
"-+	c #5E4224",
";+	c #726C47",
">+	c #856A59",
",+	c #A07C40",
"'+	c #4E340C",
")+	c #FBBB2F",
"!+	c #EADA94",
"~+	c #D1A21F",
"{+	c #D49E18",
"]+	c #CBBA84",
"^+	c #C89414",
"/+	c #E1A317",
"(+	c #785634",
"_+	c #B8AA60",
":+	c #CFAB61",
"<+	c #E4BCA8",
"[+	c #8A5E04",
"}+	c #927634",
"|+	c #C6A389",
"1+	c #F4DAD4",
"2+	c #785C40",
"3+	c #F2CC77",
"4+	c #FADE34",
"5+	c #5A563C",
"6+	c #FEFDC3",
"7+	c #5A422C",
"8+	c #EEC634",
"9+	c #EFC7BC",
"0+	c #674B17",
"a+	c #FEECEA",
"b+	c #BA7C04",
"c+	c #DECE64",
"d+	c #645E44",
"e+	c #CCBE49",
"f+	c #F0AE1C",
"g+	c #968244",
"h+	c #FEFCFB",
"i+	c #F2D6A2",
"j+	c #E8C9A1",
"k+	c #AB8D37",
"l+	c #DAB45A",
"m+	c #92725C",
"n+	c #DAAC50",
"o+	c #A88A74",
"p+	c #FACEC4",
"q+	c #D6C2A4",
"r+	c #A8770D",
"s+	c #221204",
"t+	c #A77E27",
"u+	c #E2B6A4",
"v+	c #846644",
"w+	c #AF8430",
"x+	c #EABE57",
"y+	c #C99C39",
"z+	c #C69E4C",
"A+	c #B69A6C",
"B+	c #B69480",
"C+	c #EEC46C",
"D+	c #AAA244",
"E+	c #DAA628",
"F+	c #E1B530",
"G+	c #EEB63C",
"                                                                                                ",
"                                                                                                ",
"                                      . .                                                       ",
"                                      . !+. .                                                   ",
"                                    . ]+I.$+& . .                                               ",
"                                    . $+x.x.x.$+& . . .                                         ",
"                                    . x.x.x.x.x.6+x.` & . . . .                                 ",
"                  : 7.'.r.A A A A m.% > > > ;+;+;+d+d+K.6+` & A+. . . .                         ",
"                  W G.p.| | c.} _ S k+i e F+K 8.8.P <.t.'.&.6+6+6+` & f.. . . .                 ",
"                    D.u.e++.~+i.P n+F+8+8+).{+^+^ ~+F+~ P t.*.& 0 6+=.6+=.` & A+. . . .         ",
"                      D.#+j k+ .P P s e -.z.- ^+:.; p.8+~ ^ `.( < 0 $+=.6+=.L =.L ` & A+. .     ",
"                        W : '+0+$.v+^.r+J.^+b C F.>.).<.r+} ^+~+0+& ;.I.0 =.6+=.=.L L d.# .     ",
"                            '+Y.2+2+..r+^+:.; / | P.- J.Y ~+C ~ _ 7 ;.` I.0 0 =.=.=.L ) ] .     ",
"                              D.o 1.m+R.S H.N.k.^ r+J.Y /+C ).S.r+X.X ;.` ;.~.0 =.L =.9.] .     ",
"                            . ]+U.1.=+o+=+=+&+m+o v Y ^ K C /+<.J.[+7 ` r ;.G ~.=.=.L 8 b..     ",
"                            A !.a+h+}.}.M.B+Z.y.1.$._ :.C K e b+J.i '.3.) ;.;.I.~.L L ] .       ",
"                        >+}.E.}.}.T.T.y E.|+M.B+o+&+R.}+i ^ <.0.r+{+X.g ` ) ;.I.I.0 L ] .       ",
"                  N 1.A+M.o.1 !+M M u+9+5.1+1+.+q+=+1.h.2+$.`.{ b+S.S '.g p ` m I.~.Q.k..       ",
"                  Y.}.a.Q.[.T M !.U a+y y y a+U 5.1+|+=+o (+0+v Y ^+* t.R 3.p ` G 3 r ] .       ",
"              z ( c :+x+3+i+%+j+M ! y h+y y y a+U 5.9+A+o+h.( z %.'+u.z...s.3.r m m @ k..       ",
"            '+,+l+:+:+n+2.|.!+!.1+a+y h+h+y y a+U 5.5.<+y.h.( Y.z d %.n Y '.X r m m ] .         ",
"            %.P ,.a.|.*+, o.9 i+! y h+h+h+h+y a+U 5.x x q.,+-+L.( %.: s+C.j d+3.A.e.k..         ",
"            v +.q +.[.3+j+*+T M F y h+h+h+y h+y a+U @+x &+o -+Z Z E @ ;+7.5+Q 3.r c+] .         ",
"          D.}+w <./.W.l+*+1 i+%+f a+y y h+y a+a+a+a+5.@+j.h.(+g.Z I l 3.A.3.p 3.p @.k..         ",
"          #+/.P y+/.w q.h 2.*+Q.i+U a+a+y y a+y a+a+@+j+j.g+,+j R.e.3.` ` r p 3.r ] .           ",
"          u.D D v.5 C+C+5 o.[.o.M f U U U a+a+U a+5.p+ .6.H.w+w.o < g 3.m G m m ) k..           ",
"          ( 4.K 2 f+V x+V V [.[.q+T f 5.5.5.5.U 5.x E.6.H.+ z.w./+a '+s.3.;.~.L 9.b..           ",
"          $.P ^+-.} } -.[ f.h  .T 1 M q+@+@+@+5.%+V.j.l.l.+ ^.-.* +.+.r.g r ;.G @.k..           ",
"          '+w+^.J.Y t w+[ :+[.1 %+*+*+o.]+h M.V._+D+l.D+8 n+e -.} w.{+d R p r G ] .             ",
"          A ^./.y++.].#.D D D n+l+[.3+9 , , 2.y.V.P.H.i O.4.#.+.y+<.^.'.E I O ) ] .             ",
"        . % : j F+)+K f+F+/.w {.k 3+|.l+ .9 5 {.#.V w H } S.)+v.,.S '+&.@ l A.O k.. . .         ",
"        . ]+d (.= +./.} J.J.w+k 3+#.].z+z+3+,.w G+D q w+r+<.4 O.[+*.% @ E I l @.k.. . . . .     ",
"      . < =.=.I.&.Y = = t 4 ].v.4.q /.-.W.4.+.w :.4.4.W.[ z.w+{ $.Z Z @ @ l l ] . . . . . .     ",
"    . b.e+9.L ~.> : v Y y+O.4.++O./.} } F+4.E+} {.2 4.G+4 H Y (.;+E E E E @.@ k.. . . . . .     ",
"      . . e+e+9.I. +%.r...n - S.<.t+J.<.8.++S.z././+f+b 0.= n m.&.@ @ @ l l e+6 . . . . .       ",
"          . . ' ' 9.;+Z @ l (+B = = Y = t+4 - = = ^+[+R.&.A . &.Z @ @ l l p ] . . . . .         ",
"              . . ' ' A.I l I (.#+n (.%.:  +#+v v (.> ' Z g R Z Z l @ l l p k.. . . . .         ",
"                  . . c.' e+@.A.A A C.E Z @ A : %.m.g.Z Z @ @ @.@ @.l l r @.6 . . . .           ",
"                      . . b.c.c.e+@ @ E I @ I B.B.l @ @.l p p r r r r r c+k.. . . .             ",
"                          . . . b.# # e+@ p p A.p l l l p r $ $ G 3 G G @.6 . . . .             ",
"                                . . . b.# # 8 c+r r r $ G $ G 3 L L L 9.k.. . . .               ",
"                                      . . . b.# # e+9.3 3 3 L L L L L @.6 . . .                 ",
"                                            . . . b.# ] 8 9.u u L u 9.k.. . .                   ",
"                                                  . . . k.] `.6 9.9.l 6 . .                     ",
"                                                        . . . . t.6 6 . .                       ",
"                                                                . . . .                         ",
"                                                                                                ",
"                                                                                                "};
