/* XPM */
static char * shell_script_5_1_xpm[] = {
"48 48 256 2",
"  	c None",
". 	c #020204",
"+ 	c #8A8A1C",
"@ 	c #C6C244",
"# 	c #E6E27C",
"$ 	c #A6A624",
"% 	c #C2C2C4",
"& 	c #B2A274",
"* 	c #F6F284",
"= 	c #D6D274",
"- 	c #B2B22C",
"; 	c #92921C",
"> 	c #424244",
", 	c #C2C26C",
"' 	c #F2F2F4",
") 	c #E2E2E4",
"! 	c #AEAA44",
"~ 	c #F2E29C",
"{ 	c #FEFE7C",
"] 	c #D2CE6C",
"^ 	c #929294",
"/ 	c #CABE3C",
"( 	c #DADA74",
"_ 	c #626264",
": 	c #CACA74",
"< 	c #EAEA8C",
"[ 	c #9E9A44",
"} 	c #222224",
"| 	c #BEBA64",
"1 	c #828284",
"2 	c #BAB674",
"3 	c #B6B254",
"4 	c #FAFAA4",
"5 	c #E2D694",
"6 	c #AEAA54",
"7 	c #8E8E1C",
"8 	c #A6A24C",
"9 	c #E6DA6C",
"0 	c #E2E294",
"a 	c #CAC66C",
"b 	c #76721C",
"c 	c #B6B264",
"d 	c #A6A254",
"e 	c #F6F29C",
"f 	c #DADA84",
"g 	c #929244",
"h 	c #52524C",
"i 	c #A69E4C",
"j 	c #32322C",
"k 	c #C2BE74",
"l 	c #D2D2D4",
"m 	c #121214",
"n 	c #D6D27C",
"o 	c #C6C66C",
"p 	c #CACA84",
"q 	c #A29E44",
"r 	c #AEAE5C",
"s 	c #9A9244",
"t 	c #CEC64C",
"u 	c #FEFECC",
"v 	c #FAFA9C",
"w 	c #EEEAA4",
"x 	c #FAFAB4",
"y 	c #928E3C",
"z 	c #727274",
"A 	c #AEA654",
"B 	c #E6E68C",
"C 	c #F2EE84",
"D 	c #B2B2B4",
"E 	c #BEB66C",
"F 	c #A6A654",
"G 	c #E2DE84",
"H 	c #8A863C",
"I 	c #AAAAAC",
"J 	c #FAF68C",
"K 	c #C6C27C",
"L 	c #FAEEBC",
"M 	c #B6AE3C",
"N 	c #D2CE84",
"O 	c #B69A6C",
"P 	c #C2BE64",
"Q 	c #EEEE94",
"R 	c #9E9A54",
"S 	c #B6B65C",
"T 	c #E2DE94",
"U 	c #EAE69C",
"V 	c #BAB664",
"W 	c #FAF69C",
"X 	c #5A5A5C",
"Y 	c #3A3A3C",
"Z 	c #DAD67C",
"` 	c #9A9644",
" .	c #FAFAFC",
"..	c #F2EE94",
"+.	c #0A0A0C",
"@.	c #C2C25C",
"#.	c #CACACC",
"$.	c #4A4A4C",
"%.	c #C6C26C",
"&.	c #EAEAEC",
"*.	c #9A9A9C",
"=.	c #E2DE7C",
"-.	c #6A6A6C",
";.	c #CECE74",
">.	c #EAEA94",
",.	c #A29A44",
"'.	c #2A2A2C",
").	c #8A8A8C",
"!.	c #FEFEA4",
"~.	c #EADA94",
"{.	c #AEAA64",
"].	c #AAA64C",
"^.	c #E6E6A4",
"/.	c #DEDE8C",
"(.	c #DADADC",
"_.	c #1A1A1C",
":.	c #CECE7C",
"<.	c #B2AE64",
"[.	c #FEFE94",
"}.	c #968E3C",
"|.	c #7A7A7C",
"1.	c #BABABC",
"2.	c #9E9644",
"3.	c #E6E28C",
"4.	c #A2A2A4",
"5.	c #F2F294",
"6.	c #DED664",
"7.	c #BAB63C",
"8.	c #B2AE3C",
"9.	c #827E1C",
"0.	c #CABA84",
"a.	c #C2BA4C",
"b.	c #CEC25C",
"c.	c #DACA8C",
"d.	c #565654",
"e.	c #363634",
"f.	c #8E8A3C",
"g.	c #060604",
"h.	c #C6C6C4",
"i.	c #DAD674",
"j.	c #464644",
"k.	c #F6F6F4",
"l.	c #E6E6E4",
"m.	c #969694",
"n.	c #666664",
"o.	c #262624",
"p.	c #868684",
"q.	c #DEDA94",
"r.	c #D6D6D4",
"s.	c #161614",
"t.	c #767674",
"u.	c #B6B6B4",
"v.	c #AEAEAC",
"w.	c #5E5E5C",
"x.	c #3E3E3C",
"y.	c #FEFEFC",
"z.	c #0E0E0C",
"A.	c #CECECC",
"B.	c #4E4E4C",
"C.	c #EEEEEC",
"D.	c #9E9E9C",
"E.	c #6E6E6C",
"F.	c #2E2E2C",
"G.	c #8E8E8C",
"H.	c #DEDEDC",
"I.	c #1E1E1C",
"J.	c #7E7E7C",
"K.	c #BEBEBC",
"L.	c #A6A6A4",
"M.	c #FAEE9C",
"N.	c #D6C264",
"O.	c #BEBE64",
"P.	c #BABA74",
"Q.	c #928E2C",
"R.	c #FEFE8C",
"S.	c #D2CE7C",
"T.	c #CAC67C",
"U.	c #C6C67C",
"V.	c #A29E54",
"W.	c #FEFEDC",
"X.	c #B6AE4C",
"Y.	c #FAF6AC",
"Z.	c #DAD68C",
"`.	c #DEDA74",
" +	c #CECA6C",
".+	c #EEEA84",
"++	c #B2AA54",
"@+	c #AAA244",
"#+	c #E6E294",
"$+	c #BAB264",
"%+	c #AAA254",
"&+	c #DEDA84",
"*+	c #969245",
"=+	c #CECA82",
"-+	c #B2AE59",
";+	c #FEFAB4",
">+	c #EAE688",
",+	c #AAA656",
"'+	c #BAB65A",
")+	c #C6C264",
"!+	c #BEB634",
"~+	c #8E8A1C",
"{+	c #FEFAA4",
"]+	c #928E1C",
"^+	c #EADA6C",
"/+	c #FEFA9C",
"(+	c #EEEA94",
"_+	c #F6F294",
":+	c #867E1C",
"<+	c #CEBA84",
"[+	c #E2DA94",
"}+	c #E6E284",
"|+	c #C2C274",
"1+	c #AEAA4C",
"2+	c #FEFE84",
"3+	c #D2CE74",
"4+	c #9E9A4C",
"5+	c #BEBA6C",
"6+	c #B6B25C",
"7+	c #AEAA5C",
"8+	c #CAC674",
"9+	c #B6B26C",
"0+	c #A6A25C",
"a+	c #F6F2A4",
"b+	c #525254",
"c+	c #323234",
"d+	c #D6D284",
"e+	c #C6C674",
"f+	c #A29E4C",
"g+	c #FEFED4",
"h+	c #EEEAAC",
"i+	c #FAFABC",
"j+	c #928E44",
"k+	c #F2EE8C",
"l+	c #E2DE8C",
"m+	c #FAF694",
"n+	c #C2BE6C",
"o+	c #BAB66C",
"p+	c #FAF6A4",
"q+	c #DAD684",
"r+	c #9A964C",
"s+	c #F2EE9C",
"t+	c #C2C264",
"u+	c #C6C274",
"v+	c #A29A4C",
"w+	c #FEFEAC",
"x+	c #FEFE9C",
"y+	c #968E44",
"z+	c #9E964C",
"A+	c #C2BA54",
"B+	c #8E8A44",
"C+	c #DEDA7C",
"D+	c #CECA74",
"E+	c #AAA24C",
"F+	c #E6E29C",
"G+	c #DEDA8C",
"                                                                                                ",
"                                                                                                ",
"                                      . .                                                       ",
"                                      . ~.. .                                                   ",
"                                    . 0.(+L T.. .                                               ",
"                                    . L g+g+u L T.. . .                                         ",
"                                    . g+g+W.g+g+g+u [+T.. . . .                                 ",
"                                  . 0.W.W.W.W.g+g+g+g+g+i+[+T.O . . . .                         ",
"    y.k.' C.l.) H.r.l A.h.% K.1.D v.I 4.4.*.m.G.).p.1 |.t.z -._ w.[+T.O . . . .                 ",
"     .. . g.z.s._.} o.F.e.Y x.j.B.h X _ _ -.z t.J.1 ).^ m.*.4.I X i+;+Y.4 G+T.O . . . .         ",
"    k.. h.1.4.^ 1 t.n.X d.B.j.> x.Y j j F.'.'.o.} I.I._._.s.m v.d.h+^.w a+Y.4 4 v [+T.O . .     ",
"    ' . 1.L.m.1 t.-.w.d.B.$.j.x.Y e.c+F.F.'.o.} } } _.s.m m z.D d.Z.q.0 F+U s+e W v /+c.$ .     ",
"    C.+.D *.v.p.).1 J._ w.-.1 n.B._ w.F.F.p.b+} I._._._.m m z.u.b+P.T.N =+:.q+l+>+..5.d+]+.     ",
"    C.+.D.).% D.I L.D t.z 1 K.^ w.z t.'.'.z D.I.I._.s.m m z.+.1.$.{.k |+u+u+: n f >+>+6.; .     ",
"    l.z.^ 1 t.n.w.d.B.j.> x.Y Y c+F.F.'.o.} } I.I._.s.m z.z.+.% $.{.{.9+$+5+O.%.;.n i./ ]+.     ",
"    l.s.1 |.*.w.d.).p.j.> J.Y $.w.F.'.o.o.-.-._._._ m m z.+.g.% > 0+0+,+<.<.V , %.= )+Q..       ",
"    H._.|.-.m.X t.*.v.j.-.^ e.t.z F.'.o.d.1 *._.$.J.z.z.+.+.g.h.> s R V.,+{.-+| | %.S ]+.       ",
"    H.I.E.n.w.d.b+$.j.> Y e.c+F.F.'.'.} I.I.I._.s.m m +.+.g.g.A.Y 4+r+R i f+d -+V A+3 9..       ",
"    r.} n.w.G.).p.1 > J.n.e.c+F.F.o.o.o.} I._._.s.z.z.+.+.g.. l e.*+j+*+s z+8 F r '+A+7 .       ",
"    l o._ X v.w.E.m.x.|._ c+F.F.'.'.o.I.I._.s.s.m m z.+.g.. . l e.z+j+y ` ` [ 8 A $+7.:+.       ",
"    A.'.X d.b+$.j.> x.Y e.c+F.F.o.o.} I.I._.s.m z.z.g.g.g.g.. r.c+4+j+j+4+r+` [ ].3 ~+.         ",
"    #.F.d.b+w.X J.-.n.$.w.F.> x.o.b+-.I.$.$.j.'.z.+.+.g.g.. . H.F.B+f.f.y ` s q A A 9..         ",
"    h.c+b+$.1 1 L.J.|.).z '.E.> } 1 -.B.n.J.J.j.+.+.g.. . . . H.o.j+B+H f.y [ 8 A M 7 .         ",
"    % e.B.$.j.> x.e.e.c+F.F.'.o.o.} I._.s.m z.z.+.g.g.g.. . . l.o.*+H f.y s i 1+].! 9..         ",
"    % Y $.$.> x.Y e.F.F.F.'.o.} I.I._._.s.m z.z.+.g.. . . . . &.} z+f.*+y f.8 ].].~+.           ",
"    1.x.$.j.> x.Y c+c+F.'.'.o.} } _._.s.s.m z.+.g.g.g.. . . . C._.4+*+*+f.g 8 8 A :+.           ",
"    1.> j.> x.Y e.c+F.F.'.o.} I.I._.s.m z.z.+.g.g.. . . . . . ' s.2.*+g }.[ ].].! 7 .           ",
"    D j.> > Y e.c+F.F.'.o.} } I.I._.s.m m +.+.+.g.. . . . . . k.s.` *+s 4+E+i @+M 9..           ",
"    D B.x.x.Y c+c+F.'.'.o.} } I._._.s.z.z.+.g.. . . . . . . .  .m ` y *+f+].8 ].~+.             ",
"    I B.d.X _ -.E.t.J.1 ).G.^ *.4.L.v.u.1.K.h.A.r.r.H.l.&.' k.y.z.[ s 8 8 q 6 E 7 .             ",
"    I L.D.m.^ G.p.1 |.t.z E.n._ w.d.b+B.$.> x.e.e.j F.} I._.m z.g.8 f+,+-+X.3 b.9.. . .         ",
"        . <+5.l+(+F+G+u+T.|+P.o+c c -+7+%+d f+,+d d %+,+8 f+8 V.8 ` [ ].S P ] a.:+. . . . .     ",
"      . & /+m+..Q Q >.3.[+&+f :.8+K n+S -+7+7+7+++6 8 d f+2.s 2.q f+A $+ +i.>+; . . . . . .     ",
"    . ~+/ ^+x+x+x+x+{+!.4 5.(+#+l+q+d+=+=+S.S.: e+5+n+%.8+, | t+n+P @.] `.* 9 9.. . . . . .     ",
"      . . / / ^+/+x+x+!.{+;+!.!.w+w+p+>./.n S.D+;.S.D+3+S.= q+C+C+Z = i.C R.t b . . . . .       ",
"          . . - !+^+/+/+x+x+x+{+!.{+!.!.{+p+5.W (+B &+}+G n n ( =.# # * /+2+; . . . . .         ",
"              . . !+!+^+x+/+x+x+x+x+/+x+!.!.{+!./+x+x+x+x+Q >+# .+C J 2+2+9 9.. . . . .         ",
"                  . . - 8.N.^+/+x+/+x+x+/+/+x+x+x+/+/+/+/+R./+[.[.2+/+2+{ t b . . . .           ",
"                      . . ~+- - N.^+/+[.[./+/+/+[.[.[.R./+2+/+2+/+{ 2+2+6.:+. . . .             ",
"                          . . . ~+$ $ N.^+R.R.R./+/+2+/+2+/+2+2+2+J 2+{ t b . . . .             ",
"                                . . . ~+$ $ N.^+2+/+{ 2+2+2+J { 2+{ J ^+:+. . . .               ",
"                                      . . . ~+$ $ N.^+2+J 2+2+2+{ { { t b . . .                 ",
"                                            . . . ~+$ ]+N.^+~ ~ J ~ 9 :+. . .                   ",
"                                                  . . . :+]+:+b ^+^+t b . .                     ",
"                                                        . . . . b b b . .                       ",
"                                                                . . . .                         ",
"                                                                                                ",
"                                                                                                "};
