/* XPM */
static char * large_trash_xpm[] = {
"48 48 246 2",
"  	c None",
". 	c #020204",
"+ 	c #EBE09B",
"@ 	c #D1BE8C",
"# 	c #EFEDA2",
"$ 	c #FAEFC0",
"% 	c #D5CA8C",
"& 	c #FEFED7",
"* 	c #E0DC92",
"= 	c #2E2E2C",
"- 	c #53534E",
"; 	c #5A5A44",
"> 	c #5E5E5B",
", 	c #5A6254",
"' 	c #4E4E4C",
") 	c #98967C",
"! 	c #E4E4C0",
"~ 	c #DCD897",
"{ 	c #CDCA80",
"] 	c #BBA176",
"^ 	c #404240",
"/ 	c #8E8E8C",
"( 	c #ADADAC",
"_ 	c #B8B8B8",
": 	c #C8C8C7",
"< 	c #BAC6B4",
"[ 	c #8EB27C",
"} 	c #B6BEB4",
"| 	c #86866C",
"1 	c #9A9A84",
"2 	c #DAD690",
"3 	c #E7E4A2",
"4 	c #EBE7A6",
"5 	c #CBC682",
"6 	c #3B3B3C",
"7 	c #686864",
"8 	c #999999",
"9 	c #EAEAEC",
"0 	c #F0F4EE",
"a 	c #F9FAF9",
"b 	c #F6F6F6",
"c 	c #95CA81",
"d 	c #D8DCD8",
"e 	c #8A8A8C",
"f 	c #A6A27C",
"g 	c #E0E0AA",
"h 	c #4A4A44",
"i 	c #838684",
"j 	c #D6D6D4",
"k 	c #F2FAF4",
"l 	c #C7E2B8",
"m 	c #79BC5A",
"n 	c #7E7E7C",
"o 	c #DCDCB1",
"p 	c #DCDC94",
"q 	c #E8E788",
"r 	c #F6F28C",
"s 	c #464A44",
"t 	c #E8F2E4",
"u 	c #D0E2C8",
"v 	c #A8D494",
"w 	c #70B650",
"x 	c #52AA2C",
"y 	c #4FA52C",
"z 	c #4A9E28",
"A 	c #46A21C",
"B 	c #B9D3AC",
"C 	c #DEDEDC",
"D 	c #CECECC",
"E 	c #C6C27D",
"F 	c #D4D086",
"G 	c #F6EFAA",
"H 	c #ACAC33",
"I 	c #CFE6C7",
"J 	c #BEDEB4",
"K 	c #9DCE87",
"L 	c #84C264",
"M 	c #62AE3C",
"N 	c #4AA624",
"O 	c #3C9E0F",
"P 	c #36960D",
"Q 	c #328E0C",
"R 	c #3A9214",
"S 	c #AAAA74",
"T 	c #D8D585",
"U 	c #F0EF89",
"V 	c #EFEB8C",
"W 	c #D1CD7D",
"X 	c #98952C",
"Y 	c #6E726C",
"Z 	c #E0EBD8",
"` 	c #DAEED4",
" .	c #CAE6BC",
"..	c #B2DAA4",
"+.	c #3E9A1C",
"@.	c #2B860D",
"#.	c #368E14",
"$.	c #B2CAAC",
"%.	c #BEBEBC",
"&.	c #72726C",
"*.	c #C2BE85",
"=.	c #DCDC85",
"-.	c #DCD56E",
";.	c #8A9A84",
">.	c #DAE4D8",
",.	c #B8DAA8",
"'.	c #D5D173",
").	c #CFCA58",
"!.	c #627E60",
"~.	c #D6EACC",
"{.	c #7AAA6C",
"].	c #A6A6A4",
"^.	c #BEBB85",
"/.	c #C2BE6E",
"(.	c #99992C",
"_.	c #415220",
":.	c #7AA66C",
"<.	c #E6EEE0",
"[.	c #B0D2A0",
"}.	c #277E0D",
"|.	c #82A974",
"1.	c #8A928C",
"2.	c #959260",
"3.	c #BEBB6B",
"4.	c #1E321C",
"5.	c #46663C",
"6.	c #9EBE91",
"7.	c #AED698",
"8.	c #92C47C",
"9.	c #429D19",
"0.	c #72A264",
"a.	c #B7B367",
"b.	c #BBB767",
"c.	c #8E872C",
"d.	c #26421C",
"e.	c #5C8848",
"f.	c #AECEA4",
"g.	c #B0AB5E",
"h.	c #1A4204",
"i.	c #62924C",
"j.	c #56A23C",
"k.	c #569A3C",
"l.	c #A19D67",
"m.	c #C6BE51",
"n.	c #234611",
"o.	c #AEC2A4",
"p.	c #ACA860",
"q.	c #528A34",
"r.	c #96BE84",
"s.	c #7FBD69",
"t.	c #5AAA37",
"u.	c #409420",
"v.	c #86B27C",
"w.	c #AEBEA8",
"x.	c #769E6C",
"y.	c #A8A458",
"z.	c #B3B060",
"A.	c #1E460C",
"B.	c #4A8234",
"C.	c #82B66C",
"D.	c #72AE5C",
"E.	c #57A634",
"F.	c #A1A158",
"G.	c #3E7E24",
"H.	c #62A648",
"I.	c #7AB664",
"J.	c #4E9A2C",
"K.	c #ACA453",
"L.	c #C2BB49",
"M.	c #1E3E0C",
"N.	c #32721C",
"O.	c #46922C",
"P.	c #489628",
"Q.	c #9ABA8C",
"R.	c #999976",
"S.	c #A4A155",
"T.	c #16370C",
"U.	c #2A5E14",
"V.	c #3E822C",
"W.	c #37891C",
"X.	c #9F9B51",
"Y.	c #87832C",
"Z.	c #0A1E04",
"`.	c #204A0C",
" +	c #2A7614",
".+	c #56622C",
"++	c #989549",
"@+	c #928E2C",
"#+	c #103204",
"$+	c #1E560C",
"%+	c #22720C",
"&+	c #082C04",
"*+	c #686A30",
"=+	c #928E49",
"-+	c #929249",
";+	c #8D8B49",
">+	c #B7B049",
",+	c #6E824C",
"'+	c #164604",
")+	c #175E04",
"!+	c #8A8749",
"~+	c #B7A87D",
"{+	c #FEFA95",
"]+	c #D1D894",
"^+	c #1A660C",
"/+	c #1E6E0C",
"(+	c #0E3606",
"_+	c #354A19",
":+	c #9D9551",
"<+	c #DCCA9B",
"[+	c #FEFEA6",
"}+	c #2E521C",
"|+	c #0F4D04",
"1+	c #366234",
"2+	c #063A04",
"3+	c #F8F59D",
"4+	c #66965C",
"5+	c #135206",
"6+	c #164E0C",
"7+	c #0A3E04",
"8+	c #063204",
"9+	c #0A4204",
"0+	c #72926C",
"a+	c #90A288",
"b+	c #CDC249",
"c+	c #EBDC76",
"d+	c #567A4C",
"e+	c #ACB36E",
"f+	c #5A765C",
"g+	c #728274",
"h+	c #505C24",
"i+	c #BBB360",
"j+	c #B7B73A",
"k+	c #7F7B2C",
"l+	c #767A34",
"m+	c #CAC267",
"n+	c #8E9A4C",
"o+	c #7E8E44",
"p+	c #768644",
"q+	c #8A863C",
"r+	c #A29E4C",
"s+	c #CDCA6E",
"t+	c #D7C86C",
"u+	c #FAF694",
"v+	c #FEFE8C",
"w+	c #F2E4A2",
"                                                                                                ",
"                                                                                                ",
"                                      . .                                                       ",
"                                      . + . .                                                   ",
"                                    . @ # $ % . .                                               ",
"                                    . $ & & & $ % . . .                                         ",
"                                    . & & & & & & & * % . . . .                                 ",
"                                  = - ; > , , > > ' ) ! & ~ { ] . . . .                         ",
"                              ^ > / ( _ : < [ } ( | > - 1 2 3 4 # ~ 5 ] . . . .                 ",
"                          6 7 8 : 9 0 a b 9 c c d : ( e 7 > f ~ g 4 # # # ~ { ] . . . .         ",
"                        h i j 0 b b a k 0 l c c m d j : _ n ' f o p g 4 4 q # # r ~ { ] . .     ",
"                      s i d b b b t u v m w x y z A B C D _ n - ) { E F ~ * * # G r G % H .     ",
"                    6 n j 0 b t I J K L M N O P Q P R C d j _ n ' S E E F p T p 4 U V W X .     ",
"                  6 Y } Z 0 `  ...K m x A +.P P P @.Q #.$.j %.( &.' *.E E F ~ T =.4 q -.X .     ",
"                  ; ;.>.0 ` ,.K L M y +.+.P P P Q Q @.@.@.j %._ 8 > n 5 5 { F '.* 4 q ).X .     ",
"                6 !.B 0 ~.,.c m y A O P P Q P @.Q @.@.@.@.{.j _ ].n > ^.*./.E F T q V (..       ",
"                _.:.u <.J [.m x +.O Q P P @.Q Q @.@.@.}.|.j j %._ 1.' 2.3./.{ F T ~ q X .       ",
"              4.5.6.>.l 7.8.M 9.O Q P Q Q Q Q @.@.}.@.0.j j D D _ ].7 ; a.b./.{ W T 5 c..       ",
"              d.e.f.u 7.8.w y P P P Q Q Q }.Q @.@.}.{.j j D D D %._ i - g.g.b.5 W W '.X .       ",
"              h.i.B  .K m j.+.P Q Q Q Q }.k.}.@.}.0.D j D D D : : _ i - l.g.3.E { W m.c..       ",
"              n.e.[.l 8.w z P Q @.Q }.@.6.o.}.}.:.j j : D : : %.%._ 8 - 2.p.a.b./.'.X .         ",
"              n.q.r.[.s.t.u.Q Q Q @.@.v.>.w.}.x.j j : j : : : : %._ 1.- 2.y.z.z.3.5 c..         ",
"              A.B.C.8.D.E.u.Q @.@.@.6.d d 6.{.j D D D : : : %.: _ ( 1.- F.y.g.g.3.'.X .         ",
"              n.G.H.I.D.J.#.@.@.@.v.C C j j j D D D : D %.: %.%._ ( e - 2.F.g.K.a.L.c..         ",
"              M.N.O.H.j.P.@.@.@.Q.d j d j D j : D : %.: %.: _ %._ ( i - R.S.p.y.z.X .           ",
"              T.U.V.P.O.W.@.@.v.d j d j j D D D : : : : %.%.%._ _ ].n - X.X.p.y.p.Y..           ",
"              Z.`. +W.W.W.}.v.d d j D D D D D : : %.%.%.%.%._ _ ( 8 > .+++X.F.K./.@+.           ",
"            . _.#+$+%+@. +|.d C D j j j D : : : : : %.%._ _ _ ( ].i &+*+=+-+;+X.>+c..           ",
"            . * ,+'+)+ +}. +0.j j D D D : : : %.: %.%._ _ _ _ ( i #+.+!+;+++;+X.X .             ",
"          . ~+{+]+#+h.^+/+%+%+x.j D D : : : : %.%.%.%._ _ ( ( ].(+_+*+;+=+++:+S.X .             ",
"        . ~+<+[+4 }+(+|+)+/+/+/+x.D : : %.: %.%._ _ _ _ _ !.1+2+&+_.;+;+++X.X.K.Y.. . .         ",
"        . @ & {+[+3+(+(+|+)+^+^+^+4+: : : %.%._ _ _ _ 5+6+7+8+&+_.!+!+!+X.S.F.K.Y.. . . . .     ",
"      . ~+{+[+[+[+[+G }+#+9+5+$+)+$+0+%.%.a+5+5+5+|+7+9+7+8+&+_.!+=+-+:+X.K.p.@+. . . . . .     ",
"    . @+b+c+{+{+[+{+[+G &+&+8+9+'+|+5+d+_ ;.5+|+|+9+7+&+&+Z._.-+++:+X.X.S.p.a.c.. . . . . .     ",
"      . . b+b+c+[+[+[+[+{+e+.+&+2+2+7+9+f+g+7+2+2+8+8+&+T.h+-+:+X.K.K.S.p.i+j+k+. . . . .       ",
"          . . j+L.c+{+{+[+[+G { _+h.T.T.8+(+T.#+#+#+n.h+l+X.++X.p.p.>+b.i+m+X . . . . .         ",
"              . . L.L.c+[+{+[+3+# 3 g.n+o+,+p+,+q+r+n+S.p.p.g.g.z.i+3.3./.m+c.. . . . .         ",
"                  . . j+j+s+c+[+{+3+V 4 q q F { 5 /././.m.3.3.m+m+m+m./.m+L.k+. . . .           ",
"                      . . @+j+j+t+c+{+3+3+u+r V q q =.-.'.W '.T '.s+s+'.).c.. . . .             ",
"                          . . . @+H H t+c+{+{+[+{+u+u+U U V V q q U U U ).k+. . . .             ",
"                                . . . @+H H t+c+{+{+v+{+{+{+{+{+u+{+{+c+c.. . . .               ",
"                                      . . . @+H H t+c+{+{+{+v+{+v+v+v+).k+. . .                 ",
"                                            . . . @+H (.t+c+w+w+{+w+c+c.. . .                   ",
"                                                  . . . c.X c.k+c+c+).k+. .                     ",
"                                                        . . . . k+k+k+. .                       ",
"                                                                . . . .                         ",
"                                                                                                ",
"                                                                                                "};
