/* XPM */
static char * txt4_xpm[] = {
"48 48 245 2",
"  	c None",
". 	c #020204",
"+ 	c #000000",
"@ 	c #E4DA9A",
"# 	c #FFE6DA",
"$ 	c #FAD5BE",
"% 	c #EFC5AB",
"& 	c #D49A8A",
"* 	c #CBBA84",
"= 	c #F6EA98",
"- 	c #FAEEBB",
"; 	c #CECA84",
"> 	c #706750",
", 	c #847A62",
"' 	c #FECBB2",
") 	c #E6A693",
"! 	c #743402",
"~ 	c #FEFED6",
"{ 	c #FEFEC9",
"] 	c #F3EEC1",
"^ 	c #D6C67C",
"/ 	c #B25204",
"( 	c #8B3E03",
"_ 	c #E29258",
": 	c #EFC7B3",
"< 	c #F77802",
"[ 	c #A94E03",
"} 	c #726224",
"| 	c #FAF6CD",
"1 	c #F9F2C8",
"2 	c #FEFAC8",
"3 	c #B69A6C",
"4 	c #FEAA5C",
"5 	c #FEDEAC",
"6 	c #FB7C02",
"7 	c #FEF6D4",
"8 	c #F2E2B4",
"9 	c #EADE98",
"0 	c #FEFAD9",
"a 	c #FEFAB8",
"b 	c #FED2BC",
"c 	c #FE7E02",
"d 	c #FEFEE4",
"e 	c #F6E6BC",
"f 	c #F2DA8C",
"g 	c #EDCE80",
"h 	c #EFD284",
"i 	c #F0DA9E",
"j 	c #F5E6A7",
"k 	c #FEFEB8",
"l 	c #FEFAA8",
"m 	c #F9E3C2",
"n 	c #A08A40",
"o 	c #FEFAE8",
"p 	c #F4EAB7",
"q 	c #E4CE8C",
"r 	c #F9F2B7",
"s 	c #FEF6B8",
"t 	c #FEFEA6",
"u 	c #FEFA9A",
"v 	c #FAF2D4",
"w 	c #F1DE9F",
"x 	c #F1D68C",
"y 	c #F4E29D",
"z 	c #F6EAA9",
"A 	c #FAF6B6",
"B 	c #FEFE9B",
"C 	c #A6A624",
"D 	c #EAC65A",
"E 	c #F0E6B8",
"F 	c #FCF6E4",
"G 	c #EFE68F",
"H 	c #FCF6A9",
"I 	c #E4D698",
"J 	c #92921C",
"K 	c #E6C66C",
"L 	c #EDCA6F",
"M 	c #EECA64",
"N 	c #F2DE8C",
"O 	c #E6DA6C",
"P 	c #FAF2E0",
"Q 	c #EAC674",
"R 	c #F6EECC",
"S 	c #F7EEA6",
"T 	c #F9EE99",
"U 	c #F6E68C",
"V 	c #FEF699",
"W 	c #CEC64C",
"X 	c #FAF2A9",
"Y 	c #99823D",
"Z 	c #E8DAB4",
"` 	c #EADA97",
" .	c #EECE5C",
"..	c #816721",
"+.	c #D2AE4C",
"@.	c #CFAA49",
"#.	c #E2CA7C",
"$.	c #DACE8C",
"%.	c #867E1C",
"&.	c #A99143",
"*.	c #FFA858",
"=.	c #FCE0B5",
"-.	c #DAB244",
";.	c #CBA648",
">.	c #CAAA48",
",.	c #E2D29C",
"'.	c #DACA88",
").	c #DEB638",
"!.	c #DBCA72",
"~.	c #EFE294",
"{.	c #F8F29A",
"].	c #AF9545",
"^.	c #C2A24C",
"/.	c #D6C264",
"(.	c #ECDE87",
"_.	c #DACE9C",
":.	c #CABE84",
"<.	c #836921",
"[.	c #BC9E4C",
"}.	c #BF9E39",
"|.	c #F2EAA6",
"1.	c #CBB661",
"2.	c #D0AA36",
"3.	c #E3D27A",
"4.	c #CEA634",
"5.	c #B6963B",
"6.	c #B49948",
"7.	c #CAB26C",
"8.	c #B89A3A",
"9.	c #BE9A4C",
"0.	c #F1EA90",
"a.	c #8F8A1E",
"b.	c #D2C27C",
"c.	c #886C22",
"d.	c #C6A234",
"e.	c #D6AE36",
"f.	c #EAE2A7",
"g.	c #BA9D4A",
"h.	c #DDD287",
"i.	c #E2D688",
"j.	c #AE8E3C",
"k.	c #B49E4C",
"l.	c #8C7024",
"m.	c #EEE6A4",
"n.	c #B0923C",
"o.	c #BFA14C",
"p.	c #DED274",
"q.	c #CDBA64",
"r.	c #DECE74",
"s.	c #907325",
"t.	c #E2D289",
"u.	c #C0AE58",
"v.	c #BE9A34",
"w.	c #C2BA44",
"x.	c #F2EEA4",
"y.	c #D2BE64",
"z.	c #C5A54E",
"A.	c #D6CA6C",
"B.	c #B2A274",
"C.	c #F2EE9C",
"D.	c #EFE28A",
"E.	c #C6AE5C",
"F.	c #957726",
"G.	c #C4B260",
"H.	c #DEC684",
"I.	c #CCBE62",
"J.	c #BA9E34",
"K.	c #CAAA50",
"L.	c #D6C26C",
"M.	c #BAAA54",
"N.	c #D6CA7C",
"O.	c #E3DE94",
"P.	c #997A27",
"Q.	c #EF9A53",
"R.	c #F47601",
"S.	c #DAC66C",
"T.	c #DED67C",
"U.	c #BEAA54",
"V.	c #CFAE52",
"W.	c #F27401",
"X.	c #F07201",
"Y.	c #C45800",
"Z.	c #893B04",
"`.	c #AD9A4F",
" +	c #FAF698",
".+	c #D0C260",
"++	c #96862C",
"@+	c #0A0604",
"#+	c #CABE3C",
"$+	c #EADA6C",
"%+	c #9E7E29",
"&+	c #EFAD7A",
"*+	c #EB6E00",
"=+	c #B66247",
"-+	c #9E613D",
";+	c #F9F287",
">+	c #B6A64C",
",+	c #E6D67C",
"'+	c #B2963C",
")+	c #D0AF53",
"!+	c #D88D4B",
"~+	c #F5C3A5",
"{+	c #EFC6AC",
"]+	c #D28A6C",
"^+	c #C47659",
"/+	c #A5674D",
"(+	c #C6B254",
"_+	c #B3A248",
":+	c #C2B644",
"<+	c #76721C",
"[+	c #BEB634",
"}+	c #D2BA64",
"|+	c #C0A23C",
"1+	c #BC9E4B",
"2+	c #FFE2D3",
"3+	c #FACEB2",
"4+	c #CE9984",
"5+	c #BA7E54",
"6+	c #AB6D52",
"7+	c #EBDE77",
"8+	c #C6AE4C",
"9+	c #AA9644",
"0+	c #EEEA7C",
"a+	c #E9AC9A",
"b+	c #B27355",
"c+	c #9A8A3C",
"d+	c #887230",
"e+	c #96863C",
"f+	c #C6B65C",
"g+	c #FAF684",
"h+	c #B2B22C",
"i+	c #D6CA4C",
"j+	c #C4A64E",
"k+	c #B59180",
"l+	c #474236",
"m+	c #7E6E34",
"n+	c #9A8E4C",
"o+	c #EAE67C",
"p+	c #FEFA87",
"q+	c #FEFE7C",
"r+	c #827966",
"s+	c #FAEE7C",
"t+	c #FEFE87",
"u+	c #F8F27C",
"v+	c #DAC664",
"                                                                                                ",
"                                                                                                ",
"                                      . .                                                       ",
"                      . . . +         . @ . .                                                   ",
"                    . # $ % & +     . * = - ; . .                                               ",
"                  + $ > , ' ) !     . - ~ { { ] ^ . . .                                         ",
"                  + ) # # ) / ( +   . ~ ~ ~ ~ ~ { ~ @ ; . . . .                                 ",
"                    + _ : < < [ ! } * ~ ~ | 1 ~ ~ { { { 2 @ ^ 3 . . . .                         ",
"                    + 4 5 < 6 / ( . 1 7 - 8 9 8 1 ~ 0 ~ { { { 2 a @ ; 3 . . . .                 ",
"                      + 4 b c c [ ! d 0 e f g g h i j | { { 2 { { k a a l @ ^ 3 . . . .         ",
"                      + 4 m c c / ( n d o 7 | p g g g q i r s a 2 k k k k t t l u @ ; 3 . .     ",
"                        + 4 b c c [ ! v w ] o 0 0 1 j g g h x y z r A a a k l t t B u ^ C .     ",
"                        + 4 m c c / ( n D x i E F 0 0 2 1 z y g x x h G = H l l u t u I J .     ",
"                          + 4 b c c [ ! i K K L h w v | 2 0 2 2 r = y g L M M N G u B O J .     ",
"                          + 4 m c c / ( n o P E K Q Q p R z S a 2 a a a H T U D D V B W J .     ",
"                            . 4 b c c [ ! F F F F | | a X L g x f y z H k k l V V B u J .       ",
"                          } Y 4 m c c / ( n Z ` R 7 0 0 ~ 2 z D L  .L D H t t t t t u J .       ",
"                          . ` ..4 b c c [ ! +.@.+.#.$.p | 0 2 { 2 s X r a k 2 t l B @ %..       ",
"                        . ` ~ &.*.=.c c / ( n R I -.;.>.;.I S 2 2 2 a k k k a k l u O J .       ",
"                      . * r d d ..4 b c c [ ! | F 7 ] ,.'.@.).H S !.q ~.{.l t t t B W %..       ",
"                      . = ~ ~ 1 ].*.5 c c / ( n $.w | s 0 s | a p ;.;.^.;./.(.{.t B J .         ",
"                    . * ~ ] _.:.I <.4 b c c [ ! @.[.}.,.z A s r a H |.#.1.2.@.3.u @ %..         ",
"                    . T { 2 p 4.5.6.4 5 c c / ( n E 7.8.9.9.!.~.G T H k l H {.0.u O a..         ",
"                  . @ { 0 { 2 ~ p b.c.4 b c c [ ! 2 2 A E b.d.}.}.e.H l k t t t B W %..         ",
"                . * - k f.b.I r { ~ g.4 5 c c / ( n |.2 { s a S h.i.a a k a l t B J .           ",
"                . = k { h.j.j.k.b.S | l.4 b c c [ ! e.H m.9 9 H a a t k l t t u @ %..           ",
"              . ` k a a a |.^ 5.j.n.I o.4 5 c c / ( n s $.d.}.2.e.(.0.V l t B u O a..           ",
"            . * r a j ` p.A 2 k |.q.5.r.s.4 b c c [ ! A a ~.t.1.u.}.v.}.).V B B w.%..           ",
"            . @ t k x.e.n.[.y.|.A a a m.z.4 5 c c / ( n a a k l H (.A.1./.0.u G a..             ",
"          . B.t H C.k H D.2.5.5.E.r.S a a F.4 b c c [ ! |.0.T l l l l u u u u G.a..             ",
"        . B.H.t G q.I.x.H a H ` }.n.J.9 A K.4 5 c 6 / ( n 0.d.L.0.t t u B u p.M.%.. . .         ",
"        . * l l C.N.n.n.q.O.l l H ~.i.(.G r.P.Q.b < R./ ! G S.L.G k k k a T.I.k.%.. . . . .     ",
"      . B.B B l B l T !.}.5.U.i.H l H a H G V.Q.5 W.X.Y.Z.`.u l t u B  +T..+I.++@+. . . . .     ",
"    . a.#+$+u B B B t B H (.>.8.8.q.D.H l a l %+4 &+*+Y.=+-+r.;+V u G I.u.>+>+%.. . . . . .     ",
"      . . #+#+,+u u l B t u l 0.y.8.'+J.I.G  +)+!+~+{+]+^+/+r.e.}.(+u.>+_+>+:+<+. . . . .       ",
"          . . [+[+O B u B t B l u u D.}+v.5.|+r.1+2+3+4+5+6+;+7+8+9+9+k.G.0+J . . . . .         ",
"              . . [+[+$+u u B B l B u  +{.,+1.5.r.1+2+a+]+b+k.c+d+e+f+A.g+O %.. . . . .         ",
"                  . . h+h+/.,+u B u B u u u g+U A.i+j+k+. l+} m+n+o+p+q+p+W <+. . . .           ",
"                      . . a.h+h+/.O u B B u B p+u ;+,+j+r+. >+O s+p+p+t+O %.. . . .             ",
"                          . . . a.C C /.O t+u t+u t+B B B u+u+g+u+p+q+p+W <+. . . .             ",
"                                . . . a.C C /.$+p+p+u t+t+t+p+p+p+p+q+O %.. . . .               ",
"                                      . . . a.C C v+O p+p+p+q+q+q+q+q+W <+. . .                 ",
"                                            . . . a.C J /.,+~.y p+N O %.. . .                   ",
"                                                  . . . %.J %.<+O O W <+. .                     ",
"                                                        . . . . <+<+<+. .                       ",
"                                                                . . . .                         ",
"                                                                                                ",
"                                                                                                "};
