/* XPM */
static char * utilities_package_xpm[] = {
"48 48 256 2",
"  	c None",
". 	c #020204",
"+ 	c #4E8684",
"@ 	c #8AC2BC",
"# 	c #969204",
"$ 	c #46420C",
"% 	c #BAE2DC",
"& 	c #32625C",
"* 	c #A4A204",
"= 	c #EEE285",
"- 	c #666204",
"; 	c #E2E2E4",
"> 	c #A2A2A4",
", 	c #757204",
"' 	c #CDC26C",
") 	c #9A8264",
"! 	c #565208",
"~ 	c #FEF2B2",
"{ 	c #E1D27A",
"] 	c #6AA29C",
"^ 	c #BDB264",
"/ 	c #FAF6DC",
"( 	c #767674",
"_ 	c #858204",
": 	c #6A6A6C",
"< 	c #B4B204",
"[ 	c #FEF25F",
"} 	c #122A24",
"| 	c #979604",
"1 	c #9A9274",
"2 	c #6E5224",
"3 	c #CAB594",
"4 	c #868684",
"5 	c #664614",
"6 	c #FEFAB4",
"7 	c #D2D2D4",
"8 	c #86723C",
"9 	c #C2C2C4",
"0 	c #FEEE94",
"a 	c #424244",
"b 	c #7A6614",
"c 	c #322A0C",
"d 	c #ACA254",
"e 	c #525254",
"f 	c #908E04",
"g 	c #6D6A04",
"h 	c #BBA282",
"i 	c #B29777",
"j 	c #3C360C",
"k 	c #4F4A06",
"l 	c #F8F2C8",
"m 	c #FEFEE4",
"n 	c #A2D2D4",
"o 	c #5D5A06",
"p 	c #BAB29C",
"q 	c #8E7954",
"r 	c #8C8244",
"s 	c #7C623C",
"t 	c #E6D2B4",
"u 	c #FEF68E",
"v 	c #9A8634",
"w 	c #7D7A04",
"x 	c #C6B244",
"y 	c #9F964C",
"z 	c #D6CA74",
"A 	c #C6BA64",
"B 	c #DEC2A4",
"C 	c #433E0C",
"D 	c #7E6A44",
"E 	c #988E4B",
"F 	c #021214",
"G 	c #5E9694",
"H 	c #3E7674",
"I 	c #E6DA83",
"J 	c #7AB2AC",
"K 	c #BBBA04",
"L 	c #969694",
"M 	c #827E04",
"N 	c #B4AA5C",
"O 	c #BEAA8C",
"P 	c #564E24",
"Q 	c #AAAA04",
"R 	c #F2EAA4",
"S 	c #6A622C",
"T 	c #7A7234",
"U 	c #9F8A64",
"V 	c #FEF6B4",
"W 	c #FEFAF1",
"X 	c #7A7A5C",
"Y 	c #8C8A04",
"Z 	c #FEF274",
"` 	c #9F9E04",
" .	c #FEFACC",
"..	c #E2DABC",
"+.	c #726A34",
"@.	c #564E04",
"#.	c #615A2A",
"$.	c #C2BA9C",
"%.	c #D1BA97",
"&.	c #96CAC4",
"*.	c #CAEAEC",
"=.	c #EEE294",
"-.	c #F6EEB3",
";.	c #B2AE94",
">.	c #D6C666",
",.	c #665E2C",
"'.	c #928E6C",
").	c #CACACC",
"!.	c #F6EEA4",
"~.	c #B89E7C",
"{.	c #423A0C",
"].	c #524E09",
"^.	c #FEF6C6",
"/.	c #FEFEFB",
"(.	c #B2DAD4",
"_.	c #FEF6A0",
":.	c #9E924C",
"<.	c #827A3C",
"[.	c #020E0C",
"}.	c #568E8C",
"|.	c #4A460D",
"1.	c #626204",
"2.	c #AAA604",
"3.	c #7A7604",
"4.	c #5A5606",
"5.	c #C2BA64",
"6.	c #FDFAE0",
"7.	c #8A8604",
"8.	c #BAB604",
"9.	c #626264",
"0.	c #A49A54",
"a.	c #EEDABC",
"b.	c #76AEAC",
"c.	c #82BAB4",
"d.	c #4A4A4C",
"e.	c #5E5E5C",
"f.	c #0A1A1C",
"g.	c #A6967C",
"h.	c #7A7A7C",
"i.	c #866E14",
"j.	c #AA9E54",
"k.	c #AE9A3C",
"l.	c #957E5D",
"m.	c #CEBA54",
"n.	c #827254",
"o.	c #725A2C",
"p.	c #EAEAEC",
"q.	c #6E4E1C",
"r.	c #669E9C",
"s.	c #467E7C",
"t.	c #9E9E9C",
"u.	c #38320C",
"v.	c #928A44",
"w.	c #8E8E8C",
"x.	c #123234",
"y.	c #366A64",
"z.	c #E2CAAC",
"A.	c #DADADC",
"B.	c #BABABC",
"C.	c #CEC6B4",
"D.	c #826A44",
"E.	c #8E7A14",
"F.	c #867A44",
"G.	c #FAEACC",
"H.	c #C5E6E4",
"I.	c #AED6D4",
"J.	c #BCAE5C",
"K.	c #B2B2B4",
"L.	c #AAAAAC",
"M.	c #7E6E34",
"N.	c #D6BE94",
"O.	c #92C6C4",
"P.	c #DAD6CC",
"Q.	c #625E04",
"R.	c #EEDE84",
"S.	c #726234",
"T.	c #9ECECC",
"U.	c #A28664",
"V.	c #C2B664",
"W.	c #9E9A04",
"X.	c #726E04",
"Y.	c #DECE74",
"Z.	c #C6AD8C",
"`.	c #8A7E3C",
" +	c #6A5614",
".+	c #FAF6D4",
"++	c #998A44",
"@+	c #D2BEA4",
"#+	c #F2DECC",
"$+	c #FEF284",
"%+	c #E2D67C",
"&+	c #6EA6A4",
"*+	c #8A8A8C",
"=+	c #AEA65C",
"-+	c #BDA684",
";+	c #3E3A09",
">+	c #5E5E0C",
",+	c #EAD6BC",
"'+	c #CABE6C",
")+	c #7A6E3C",
"!+	c #9A924C",
"~+	c #EADE7C",
"{+	c #7EB6B4",
"]+	c #7E763C",
"^+	c #9ACECC",
"/+	c #F2E697",
"(+	c #B6DEDC",
"_+	c #86BEBC",
":+	c #765E34",
"<+	c #929294",
"[+	c #866E4C",
"}+	c #528A84",
"|+	c #A6A604",
"1+	c #6A6604",
"2+	c #A6A6A4",
"3+	c #767604",
"4+	c #9E8664",
"5+	c #868604",
"6+	c #6E6E6C",
"7+	c #B6B604",
"8+	c #9A9A04",
"9+	c #D6D6D4",
"0+	c #82763C",
"a+	c #C6C6C4",
"b+	c #464644",
"c+	c #362E0C",
"d+	c #565654",
"e+	c #929204",
"f+	c #6E6E04",
"g+	c #A6D6D4",
"h+	c #8E8644",
"i+	c #7C663C",
"j+	c #7E7E04",
"k+	c #DACE74",
"l+	c #E2C6A4",
"m+	c #629A94",
"n+	c #427A74",
"o+	c #BEBE04",
"p+	c #AEAE04",
"q+	c #6E662C",
"r+	c #A28E64",
"s+	c #766E34",
"t+	c #CEEEEC",
"u+	c #CECECC",
"v+	c #867E3C",
"w+	c #5A928C",
"x+	c #A69E54",
"y+	c #4E4E4C",
"z+	c #0E1E1C",
"A+	c #7E7E7C",
"B+	c #DEDEDC",
"C+	c #BEBEBC",
"D+	c #B6B6B4",
"E+	c #AEAEAC",
"F+	c #FEEEA0",
"G+	c #020609",
"                                                                                                ",
"                                                                                                ",
"                                      .                 .                                       ",
"                                  . . V .             . /.. .                                   ",
"                              . . V V V V .         . /./././.. .                               ",
"                          . . V V V V V V V .     . 6.W /././././.. .                           ",
"                      . . R !.!.!.!.!.!.!.R R . . -..+l / 6.6.W W /./.. .                       ",
"                  . . =.= /+=.=.=.=.=.=.= >.>.7+~+/./.-.l -.l .+/ / 6.6.W . .                   ",
"              . . %+I I %+I I I I I I >.>.< 7+K = = = /./.R R -.l l l .+/ / 6.. .               ",
"          . . Y.Y.{ Y.Y.{ Y.Y.Y.Y.J.J.` * Q p+p+= ~+= = = /./.R R R -.-.-.l l l .+. .           ",
"      . . >.>.>.>.>.>.>.>.>.>.J.J.f e+| 8+8+* |+~+I %+{ %+{ k+/./.= /+/+R R -.-.-.-.l . .       ",
"        . m.m.m.m.m.m.m.m.++++w M _ 5+Y f e+| W.k+k+k+z ' ' ' ' '+/./.= = /+/+/+R !.R .         ",
"          . x x x x x 8 8 1+f+X., 3.w M 5+7.Y e+' ' ' ' '+5.V.V.^ ^ N /./.= = = = /+.           ",
"            . J.x S.S.! o Q.- 1+g f+, , 3.j+M _ A V.^ J.J.J.N N =+d =+x+x+/./.= = .             ",
"      . . . . . $ C |.k ].! 4.o Q.1.1+g f+, 3.w N N N =+d d x+x+0.0.y :.!+E E ]+. . . . .       ",
"        . . 0 0 0 |.|.C $ |.k @.! 4.>+Q.- g g f+d x+0.0.y y !+E E ++v.v.h+<.0+/././.. .         ",
"            . . 0 F+F+|.|.C C |.k k ! ! 4.>+Q.- !+!+E E v.v.v.h+r r v+s+M./././.. .             ",
"              . X ~ ~ ~ l |.|.j C $ |.k ].].4.o v.r r r v+v+<.]+]+,.,././././.;+.               ",
"              . ;.'.X ^.^..+6.;+C j ;+C $ |.k ].v+<.. . . s+s+#.#.6.W /./.;+j  +.               ",
"              . /...;.'.X  .6.W W ;+C u.;+{.C $ s+. C+9+<+. #.V ^.6./.;+;+b 3+_ .               ",
"              . /././...;.'.X W /././.c c+u.j ;+. C+K.K.B.> . ^.^.$ $ b 3.f Y 5+.               ",
"              . /././.W W ..;.'.X /./././.c c . C+K.K.L D+D+E+. $ i._ Y f Y G+G+z+              ",
"              . /./././.m W 6...p '.X /././.. C+2+E+L L.D+a+u+*+. | | # Y x.(._+w+G+            ",
"              . m W m m 6.m m 6.6...;.'.X . C+2+L.D+2+K.C+D+A+d+. | e+f f.t+g+}+y.G+            ",
"              . m /.6.m 6.6. . .6. .6.... C+2+> L L.2+B.K.: d+d.. | f G+*.(.}.H G+    f.}       ",
"              . m 6.m 6.m m m 6. . .6 . 7 2+C+D+B.t.> w.( e.b+: . f G+*.n n+n+G+.   G+&.s.z+    ",
"              . m 6.m  . . . . . . .. 9 9+u+9 a+K.t.h.e y+e e.. f Y G+^+(.n+G+f+. G+O.% b.[.    ",
"              . 6.6. .6. . . .6  .. B+; ).).a+C+t.9.b+d.l.[+. # f 7.G+@ I.(+n+G+G+@ H.c.s.[.    ",
"              . m  . . . . . .^.. B+B+p.B+L.C+L.6+a e 3 g.n.. f Y 5+G+H.@ b.&.] g+(+J H H .     ",
"              .  . . . . .6  .6 . > A.; B+9+K.: d+y+4+N.N.U :+. _ G+(+&.@ m+J &.@ b.+ n+G+      ",
"              .  . . . . .6  .V . K.K.9+; K.: 6+d+e h %.N.3 U i+. (+c.{+w+J n+n+n+n+F G+        ",
"              .  . .6 ^.6 V V 6 . 2+<+K.K.4 6+9.a y+) O B %.h r+i+. {+}+}.& . G+G+G+            ",
"              .  . .6 V 6 6 V 6 _.. A+t.K.( : d+d.. . U O z.l+h U i+. }.& . o ! . . .           ",
"              . 6 V  .6 V V V _.V _.. > L ( 9.9.. 8+# . g.3 ,+B h 4+[+. . Q.4.! . . . . .       ",
"              . 6 V V 6 6 6 _.6 _.u _.. t.h.9.. | e+f Y . l.%.#+t -+U.D.. 4.! k . . . . . .     ",
"              . V 6 6 _._._._.u _._._.u . . . u # f Y . I.. q Z.t t h ) s . @.k . . . . .       ",
"              . V V _._._._._.u u u u u $+$+$+Z f Y G+g+c.b.. l.~.z.l+-+) S.. $ . . .           ",
"              . . _.V _._._.$+_.u _.$+$+u Z u u Y G+*.g+_+b.&+. M.~.B %.i q o.. .               ",
"                  . . _.u _.u $+$+u u Z u Z Z Z G+t+n c.r.] & . . l.Z.@+%.-+) S..               ",
"                      . . u $+u u $+$+Z Z Z Z G+t+&.] G }.& . - o . F.Z.%.3 O U i+.             ",
"                          . . $+u Z u Z Z Z G+H.g+J w+}+& . 1.Q.o . . l.O 3 3 h r+2 .           ",
"                              . . u Z Z Z G+g+_+c.w+r.& G+- Q.. .     . q ~.Z.Z.i q q..         ",
"                                  . . Z G+H.O._+G &+& G+1+. .           . q i h -+U i+5 .       ",
"                                      . G+n @ m+m+& G+. .                 . q ~.r+[+i+2 .       ",
"                                        G+{+G m+& G+.                       . q U D s .         ",
"                                          G+G+z+G+                            . . . .           ",
"                                                                                                ",
"                                                                                                "};
