/* XPM */
static char * video_1_3_xpm[] = {
"48 48 256 2",
"  	c None",
". 	c #020204",
"+ 	c #86821C",
"@ 	c #D2C244",
"# 	c #EAE27C",
"$ 	c #424243",
"% 	c #C2C2AC",
"& 	c #FAF289",
"* 	c #A6A624",
"= 	c #DED264",
"- 	c #666240",
"; 	c #B2A274",
"> 	c #F6F2CC",
", 	c #E2E2E4",
"' 	c #B2B22C",
") 	c #E6DA6D",
"! 	c #76721C",
"~ 	c #CEC274",
"{ 	c #FEFA81",
"] 	c #F2EA89",
"^ 	c #222214",
"/ 	c #9E9624",
"( 	c #565234",
"_ 	c #CECA81",
": 	c #C6B262",
"< 	c #92921C",
"[ 	c #6E6A44",
"} 	c #FAF29E",
"| 	c #CABE3C",
"1 	c #DED27E",
"2 	c #EEDA7C",
"3 	c #36321C",
"4 	c #5E5A34",
"5 	c #F2E67C",
"6 	c #BEB674",
"7 	c #F2EA9C",
"8 	c #FEFA9F",
"9 	c #E2DA89",
"0 	c #767264",
"a 	c #DACA6C",
"b 	c #121213",
"c 	c #D2D2B4",
"d 	c #828284",
"e 	c #D6C26C",
"f 	c #3A3A3B",
"g 	c #BAAE64",
"h 	c #C6BA6C",
"i 	c #CABA74",
"j 	c #4A4A4B",
"k 	c #626264",
"l 	c #FAEE8C",
"m 	c #969274",
"n 	c #6A6A60",
"o 	c #E6D682",
"p 	c #DACA8C",
"q 	c #FEF687",
"r 	c #FEFED7",
"s 	c #F2EE8C",
"t 	c #5A523C",
"u 	c #FEF6A1",
"v 	c #7A7A6C",
"w 	c #CEBA65",
"x 	c #EEE290",
"y 	c #E6DE74",
"z 	c #FEFA8F",
"A 	c #5A5A5C",
"B 	c #F2E29A",
"C 	c #1A1A10",
"D 	c #D6D6D4",
"E 	c #423A24",
"F 	c #8E824C",
"G 	c #DACA64",
"H 	c #E6D674",
"I 	c #6E664C",
"J 	c #C6B668",
"K 	c #FAF69F",
"L 	c #DED68C",
"M 	c #B2B2B4",
"N 	c #FEFAAE",
"O 	c #E2CE74",
"P 	c #D2C264",
"Q 	c #FAF684",
"R 	c #A6A264",
"S 	c #6A663C",
"T 	c #D2C678",
"U 	c #766E47",
"V 	c #625A34",
"W 	c #FAEE9D",
"X 	c #EADA84",
"Y 	c #DACE7C",
"Z 	c #E2D694",
"` 	c #D6C66E",
" .	c #FAFAFC",
"..	c #CEBE68",
"+.	c #BABA9C",
"@.	c #0A0A0B",
"#.	c #8E8A1C",
"$.	c #4A463C",
"%.	c #CACACC",
"&.	c #E2D671",
"*.	c #A2A294",
"=.	c #C2B265",
"-.	c #E6DA7C",
";.	c #867E1C",
">.	c #F2EA94",
",.	c #2A2A2C",
"'.	c #9E8E5C",
").	c #525254",
"!.	c #9A9624",
"~.	c #8A8A8C",
"{.	c #C2AE60",
"].	c #564E2C",
"^.	c #9A9A9C",
"/.	c #7A7A7C",
"(.	c #B2AE6C",
"_.	c #E8DE94",
":.	c #D6C67C",
"<.	c #8A8620",
"[.	c #EEE67C",
"}.	c #464644",
"|.	c #FAF294",
"1.	c #6A6240",
"2.	c #FAEEBC",
"3.	c #D2C27C",
"4.	c #FEFE80",
"5.	c #D6CA7E",
"6.	c #C6B26C",
"7.	c #969624",
"8.	c #DED28C",
"9.	c #B69A6C",
"0.	c #EEEEEC",
"a.	c #AAAAAC",
"b.	c #827A4C",
"c.	c #BEB634",
"d.	c #DEDEDC",
"e.	c #76724C",
"f.	c #F2F2F4",
"g.	c #A29664",
"h.	c #727274",
"i.	c #AEA25C",
"j.	c #929294",
"k.	c #BABABC",
"l.	c #323234",
"m.	c #C2C2C4",
"n.	c #423E38",
"o.	c #1A1614",
"p.	c #928E84",
"q.	c #3A362C",
"r.	c #EADA94",
"s.	c #CEC64C",
"t.	c #262624",
"u.	c #7A7654",
"v.	c #CCBE74",
"w.	c #6E6E6C",
"x.	c #1E1E1C",
"y.	c #625E3C",
"z.	c #FEFEEC",
"A.	c #A6A6A4",
"B.	c #B2A664",
"C.	c #CEBE54",
"D.	c #A29A2C",
"E.	c #726E44",
"F.	c #EFDE84",
"G.	c #F6EE9D",
"H.	c #161614",
"I.	c #3E3E3C",
"J.	c #4E4E4C",
"K.	c #666664",
"L.	c #DBCE84",
"M.	c #5A563E",
"N.	c #F4E694",
"O.	c #BEBEA4",
"P.	c #565654",
"Q.	c #7E7E7A",
"R.	c #969691",
"S.	c #060604",
"T.	c #E6E6E4",
"U.	c #868684",
"V.	c #5E5E5C",
"W.	c #463E24",
"X.	c #92864C",
"Y.	c #B6B6B4",
"Z.	c #D6C664",
"`.	c #CECECC",
" +	c #2E2E2C",
".+	c #8E8E8C",
"++	c #867E4C",
"@+	c #F6F6F4",
"#+	c #767674",
"$+	c #BEBEBC",
"%+	c #363634",
"&+	c #C6C6C4",
"*+	c #56563C",
"=+	c #FEFE9F",
"-+	c #EEE690",
";+	c #FEFE91",
">+	c #FEFEAC",
",+	c #EADE88",
"'+	c #E2DA94",
")+	c #CEC254",
"!+	c #E1D274",
"~+	c #5D5A44",
"{+	c #F3E68C",
"]+	c #DACA7C",
"^+	c #F6EE94",
"/+	c #F9F6AC",
"(+	c #524E3C",
"_+	c #222224",
":+	c #FAF2AC",
"<+	c #CABA84",
"[+	c #6A6A6C",
"}+	c #FEF694",
"|+	c #FEFEE4",
"1+	c #1A1A1C",
"2+	c #FAF694",
"3+	c #6A664C",
"4+	c #766E54",
"5+	c #A2A2A4",
"6+	c #AEA26C",
"7+	c #FEFEFC",
"8+	c #EEE280",
"9+	c #46423C",
"0+	c #EADA6C",
"a+	c #D2C26F",
"b+	c #F6EA8C",
"c+	c #CAB25C",
"d+	c #96921E",
"e+	c #726A4C",
"f+	c #E2D27C",
"g+	c #F6E684",
"h+	c #E6DA84",
"i+	c #DECA74",
"j+	c #3E3A3C",
"k+	c #BEAE68",
"l+	c #CABA68",
"m+	c #66625C",
"n+	c #EAD67C",
"o+	c #F6EE89",
"p+	c #7E7A64",
"q+	c #EADE79",
"r+	c #EAD66C",
"s+	c #CAB664",
"t+	c #E2D687",
"u+	c #DECE75",
"v+	c #DAC671",
"w+	c #D2BE65",
"x+	c #0E0A0C",
"y+	c #56524C",
"z+	c #C2B63C",
"A+	c #665E44",
"B+	c #5E5644",
"C+	c #8A821C",
"D+	c #F6EA9C",
"E+	c #D6C264",
"F+	c #EADA7C",
"G+	c #F6EA94",
"                                                                                                ",
"                                                                                                ",
"                                      . .                                                       ",
"                                      . r.. .                                                   ",
"              . }.H.                . i D+2.T . .     . . .                                     ",
"          }.. J.#+x.                . 2.r r r 2.6 . . [+#+ +@.@.                                ",
"        . V.,.t.).H.                . r r r r +.}.}.^ %+f H.h.V.H.                              ",
"        . A V.~.A.,.              . i r r r c @.#+K.S.. , D b _+x.. . .                         ",
"      . . }..+R.A.,.              . > r r +.f f f h.@+b 7+0.d.A.H.t.R 9.. . . .                 ",
"      . . d .+^.5+ +            . i |+z.*.x+h.K., @+ .b  .0., D 5+t.( N /+9 T 9.. . . .         ",
"      . #+Q..+^.5+,.            . 2.|+% j b f D T.f. .b 7+0.d.D &+H.*+/+G./+K K 8 9 T 9.. .     ",
"      . /.d ~.R.A. +            . |+R.H.k P.%.D T.@+@+b  .0.d.D &+Y.*+u W } K } } K 8 :.* .     ",
"      }.#+d .+R.5+,.          . i p.K.. A Y.%.D T.@+ .b  .0.d.D &+Y.P./+D+} 8 K 2+2+K Z < .     ",
"      . /.d .+^.A. +          . m I.m+}.a.Y.&+D T.@+@+b 7+0.d.D &+k.4 :+7 D+G.K } |.2+) < .     ",
"      . t.Q.~.R.5+,.        . t J.b S.A.a.k.%.D T.@+ .b 7+0.d.D &+%+~+W D+G+G.} |.l |.s.< .     ",
"      J.. /..+^.A. +        . [+[+P.1+5+a.k.&+d.T., @+b  .0.d.D k.@.- 7 N.G.^+^+^+^+|.d+.       ",
"      ).. $ #+R.5+,.      S._+%+J.^.x.A.a.Y.&+D T.x.m.b 7+0.d.M t.}.[ _.o B {+{+b+o+}+< .       ",
"      j . Q. +H.A. +  . . #+j ).~.^.1+A.a.k.%.D T.1+I..  .0._+l.,.@.U f+u+h+x F.{+|.Z ;..       ",
"      j 0.J.1+).t.@.x.d x.P.P./.~.^.1+5+a.Y.&+D a.H.h.@.t.t.. #+$ 5+e.L.v+i+X 2 {+|.) < .       ",
"      }.f.%. +x..+t.J.t.k w.~./.U.^.x.A.a.k.%.d ).t.V.. U.d S.$ j.A.b.v+w+v+!+o F.o+s.;..       ",
"      j f.T.D $+b . x.A.A.^..+Q.~.^.x.A.a.k.j.S.k f  .f.H.H.k.k.A.A.b.a+l+v+u+u+F+o+d+.         ",
"      j f., D m.Y. +M A.5+^..+/.U.^.1+A.a.K.j 9+p+j+ .f.T.D &+Y.a.5+U e s+` v+v+F+t++ .         ",
"      j f., D m.Y. +M A.A.^..+/.~.^.1+A.A S.0 g.: y+ .f., D &+Y.a.A.S w+w e v+w+u+&.< .         ",
"      j f., D &+Y.,.M A.5+^.~.Q.U.^.x.K.).3 '.{.=.B+@+f.T.D &+Y.A.A.A+J ..e E+w+u+s.;..         ",
"      j f., D &+Y. +M A.5+^.~./.~.^.1+H.1.6+=.{.J t @+f.T.D &+k.A.A.A+J s+w+v+e u+!..           ",
"      }.f., D &+Y.,.M A.5+^..+Q.U.j [+3 i.=.=.=.l+}. .@+, D &+Y.a.5+- c+s+v+e P ]+<..           ",
"      . f., D &+Y. +M a.A.^.~.v f 9+I i.=.J v.l+:.I.@+f., D &+Y.a.A.- s+s+E+e ` u+d+.           ",
"      I.x., D m.Y. +a.A.5+^..+t.k E k+k+s+s+:.~ L n. .@+T.D &+Y.A.H.[ ..l+E+P w+@ + .           ",
"      . . Y.D &+Y.l.M A.5+R.f I 4+i.6.J v.T 3.:.L j+@+f.T.D &+k.~.x.U w w w+w ` D..             ",
"        . }.A.&+Y. +a.A.J.l.n.V g {.: i ~ L.5.L.8.^ M @+, D &+j.b y+h l+s+s+l+a+!..             ",
"        . V.x.b 5+ +R.@.. v e+=.=.v.5.a+Z r.L.o N.q.n.. `.m.S. +%+]...l+s+w w+Z.C+. . .         ",
"        . y+x+K.j b ,.[+x.A+g i ..L.]+_.'+x -+D+G.u.[+@.$ $ @.v F c+s+s+w+w+..C.+ . . . . .     ",
"      . ; |.( C j.t.$ b (.T a+5.9 L t+-+G.W G./+N :+e.o.d U.W.X.J =.l+w Z.w ` / . . . . . .     ",
"    . <.| ) o+>.4 y.E.t+t+Y 1 &.t+,+G.G.} G.K N N K >.5 1.1.)+s+{.{.s+E+P E+G C+. . . . . .     ",
"      . . | @ H o+8+F.y -+-+>.>.^+^+} } } } 8 >+>+} x F+!+u+..J w w w+E+` !+s.! . . . . .       ",
"          . @.c.z+r+o+|.|.|.|.|.|.K K K 8 =+>+=+=+8 b+F.-.-.!+Z.G P = ) !+8+!.. . . . .         ",
"              . . c.c.H z 8 8 K 8 =+=+=+8 8 =+=+=+8 & F.H F+0+f+!+!+!+y [.) ;.. . . . .         ",
"                  . . ' ' P r+=+z 8 8 8 =+=+8 8 8 =+2+o+g+-.&.8+# ) ] Q q s.! . . . .           ",
"                      . . #.' ' E+0+;+8 z =+;+;+z =+z 2+l l 5 8+[.o+& Q ) ;.. . . .             ",
"                          . . . #.* * Z.0+z 8 z ;+z z z { z { Q Q Q { q s.! . . . .             ",
"                                . . . #.* * E+r+;+;+;+z z { { { { { 4.) ;.. . . .               ",
"                                      . . . #.* * E+r+4.4.4.{ 4.{ { { s.! . . .                 ",
"                                            . . . #.* < e 0+B B 4.x y ;.. . .                   ",
"                                                  . . . ;.< ;.! r+0+s.! . .                     ",
"                                                        . . . . ! ! ! . .                       ",
"                                                                . . . .                         ",
"                                                                                                ",
"                                                                                                "};
