/* XPM */
static char * applixware_xpm[] = {
"48 48 233 2",
"  	c None",
". 	c #3D3D3D",
"+ 	c #6B6B6B",
"@ 	c #999999",
"# 	c #BBBBBB",
"$ 	c #616161",
"% 	c #AAAAAA",
"& 	c #3C3C3C",
"* 	c #303030",
"= 	c #828282",
"- 	c #BEBEBE",
"; 	c #3B3B3B",
"> 	c #575757",
", 	c #ADADAD",
"' 	c #393939",
") 	c #3F3F3F",
"! 	c #9D9D9D",
"~ 	c #373737",
"{ 	c #2B2B2B",
"] 	c #808080",
"^ 	c #353535",
"/ 	c #333333",
"( 	c #313131",
"_ 	c #DADADF",
": 	c #D8D8DD",
"< 	c #CBCBD0",
"[ 	c #C9C9CD",
"} 	c #C7C7CB",
"| 	c #C4C4C9",
"1 	c #C2C2C7",
"2 	c #2F2F2F",
"3 	c #1F1F1F",
"4 	c #D6D6DB",
"5 	c #D4D4D9",
"6 	c #C9C9CE",
"7 	c #C5C5C9",
"8 	c #C0C0C5",
"9 	c #2D2D2D",
"0 	c #2E2E2E",
"a 	c #D9D9DE",
"b 	c #D2D2D7",
"c 	c #D0D0D5",
"d 	c #C7C7CC",
"e 	c #C3C3C7",
"f 	c #C1C1C5",
"g 	c #BEBEC3",
"h 	c #2C2C2C",
"i 	c #D5D5D9",
"j 	c #CECED3",
"k 	c #CCCCD0",
"l 	c #C5C5CA",
"m 	c #BFBFC3",
"n 	c #BDBDC1",
"o 	c #292929",
"p 	c #2A2A2A",
"q 	c #1D1D1D",
"r 	c #CCCCD1",
"s 	c #CACACE",
"t 	c #C8C8CC",
"u 	c #C3C3C8",
"v 	c #C1C1C6",
"w 	c #BBBBBF",
"x 	c #272727",
"y 	c #282828",
"z 	c #CACACF",
"A 	c #C8C8CD",
"B 	c #C6C6CA",
"C 	c #C4C4C8",
"D 	c #BFBFC4",
"E 	c #B9B9BD",
"F 	c #252525",
"G 	c #262626",
"H 	c #C6C6CB",
"I 	c #C2C2C6",
"J 	c #C0C0C4",
"K 	c #BDBDC2",
"L 	c #B7B7BB",
"M 	c #232323",
"N 	c #242424",
"O 	c #1B1B1B",
"P 	c #BEBEC2",
"Q 	c #BBBBC0",
"R 	c #B5B5B9",
"S 	c #222222",
"T 	c #BCBCC0",
"U 	c #BABABE",
"V 	c #B3B3B7",
"W 	c #202020",
"X 	c #171717",
"Y 	c #B8B8BC",
"Z 	c #B5B5BA",
"` 	c #B1B1B5",
" .	c #1E1E1E",
"..	c #525252",
"+.	c #191919",
"@.	c #B6B6BA",
"#.	c #B4B4B8",
"$.	c #AFAFB3",
"%.	c #1C1C1C",
"&.	c #5E5E5E",
"*.	c #767676",
"=.	c #B2B2B6",
"-.	c #ADADB1",
";.	c #ABABAF",
">.	c #1A1A1A",
",.	c #868686",
"'.	c #B0B0B4",
").	c #AEAEB1",
"!.	c #A9A9AD",
"~.	c #A7A7AB",
"{.	c #181818",
"].	c #646464",
"^.	c #A0A0A0",
"/.	c #AEAEB2",
"(.	c #ACACAF",
"_.	c #A5A5A9",
":.	c #A3A3A7",
"<.	c #161616",
"[.	c #878787",
"}.	c #ACACB0",
"|.	c #AAAAAE",
"1.	c #A8A8AB",
"2.	c #A1A1A5",
"3.	c #9D9DA0",
"4.	c #141414",
"5.	c #484848",
"6.	c #9E9E9E",
"7.	c #151515",
"8.	c #A8A8AC",
"9.	c #A6A6A9",
"0.	c #A4A4A7",
"a.	c #9F9FA3",
"b.	c #121212",
"c.	c #AEAEAE",
"d.	c #131313",
"e.	c #ADADB0",
"f.	c #A6A6AA",
"g.	c #A2A2A5",
"h.	c #9D9DA1",
"i.	c #9B9B9E",
"j.	c #101010",
"k.	c #717171",
"l.	c #111111",
"m.	c #ABABAE",
"n.	c #A4A4A8",
"o.	c #9E9EA1",
"p.	c #9B9B9F",
"q.	c #0E0E0E",
"r.	c #0F0F0F",
"s.	c #212121",
"t.	c #8C8C8C",
"u.	c #919191",
"v.	c #898989",
"w.	c #848484",
"x.	c #7A7A7A",
"y.	c #5B5B5B",
"z.	c #A9A9AC",
"A.	c #A7A7AA",
"B.	c #A2A2A6",
"C.	c #A0A0A4",
"D.	c #99999D",
"E.	c #0C0C0C",
"F.	c #0D0D0D",
"G.	c #070707",
"H.	c #A5A5A8",
"I.	c #9E9EA2",
"J.	c #0A0A0A",
"K.	c #0B0B0B",
"L.	c #A3A3A6",
"M.	c #A1A1A4",
"N.	c #9C9CA0",
"O.	c #080808",
"P.	c #090909",
"Q.	c #9F9FA2",
"R.	c #9A9A9E",
"S.	c #98989C",
"T.	c #050505",
"U.	c #747474",
"V.	c #808083",
"W.	c #7E7E81",
"X.	c #7C7C7F",
"Y.	c #7A7A7C",
"Z.	c #78787A",
"`.	c #757578",
" +	c #060606",
".+	c #99999C",
"++	c #96969A",
"@+	c #030303",
"#+	c #636363",
"$+	c #7A7A7D",
"%+	c #767678",
"&+	c #747476",
"*+	c #717174",
"=+	c #040404",
"-+	c #97979A",
";+	c #959598",
">+	c #010101",
",+	c #3E3E3E",
"'+	c #78787B",
")+	c #727274",
"!+	c #6F6F72",
"~+	c #6D6D70",
"{+	c #020202",
"]+	c #939396",
"^+	c #000000",
"/+	c #707072",
"(+	c #6E6E70",
"_+	c #6B6B6E",
":+	c #69696B",
"<+	c #9A9A9D",
"[+	c #97979B",
"}+	c #919194",
"|+	c #6C6C6E",
"1+	c #69696C",
"2+	c #676769",
"3+	c #656567",
"4+	c #BCBCBC",
"5+	c #98989B",
"6+	c #959599",
"7+	c #8F8F92",
"8+	c #515151",
"9+	c #8F8F8F",
"0+	c #6A6A6C",
"a+	c #68686A",
"b+	c #636366",
"c+	c #555555",
"d+	c #9F9F9F",
"e+	c #969699",
"f+	c #949497",
"g+	c #8D8D90",
"h+	c #4E4E4E",
"i+	c #666668",
"j+	c #737373",
"                                                                                                ",
"                                                                                                ",
"                                                                                                ",
"                                                                                                ",
"                                                        . + @ #                                 ",
"                                                        . . $ %                                 ",
"                                                      & . . * = -                               ",
"                                                      ; ; ; . > ,                               ",
"                                                      ' ' ' ' ) !                               ",
"                                                    ~ ~ ~ ~ ~ { ] -                             ",
"                                                    ^ ^ ^ ^ ^ . > ,                             ",
"                                                    / / / / / / ) !                             ",
"                                                  ( ( ( ( ( ( ( { ] -                           ",
"  _ _ _ _ :           < [ } | 1                   2 2 2 2 2 2 2 3 > ,                           ",
"    _ _ : 4 5         6 } 7 1 8                   9 9 9 9 9 9 9 0 ) !                           ",
"      a 4 5 b c       d 7 e f g                 { { { { { { { h h { ] -                         ",
"        i b c j k     l e f m n                 o o o o o p p p p q > ,                         ",
"          c j r s t   u v m n w                 x x x x y y y y y y ) !                         ",
"            r z A B C v D n w E               F F F G G G G G G G G { ] -                       ",
"              A H C I J K w E L               M N N N N N N N N N N O > ,                       ",
"                | I J P Q E L R               S S S S S S S S S S S S ) !                       ",
"                  J P T U L R V             W W W W W W X p S W W W W { ] -                     ",
"                    T U Y Z V `              . . . . . .^ ..S  . . . .+.> ,                     ",
"                    U Y @.#.` $.            %.%.%.%.%.W &.*.S %.%.%.%.q ) !                     ",
"                      @.#.=.$.-.;.        >.>.>.>.>.>.. ,.    S >.>.O O { ] -                   ",
"                      #.=.'.).;.!.~.      {.{.{.{.{.3 ].^.    S +.+.+.+.X > ,                   ",
"                      =.'./.(.!.~._.:.    <.<.<.<.<./ [.        S X X X X ) !                   ",
"                      './.}.|.1._.:.2.3.4.4.4.4.4.4.5.6.        S 7.7.7.7.{ ] -                 ",
"                      /.}.|.8.9.0.2.a.3.b.b.b.b.b.O $ c.        S d.d.d.d.4.> ,                 ",
"                      e.|.8.f.0.g.a.h.i.j.j.j.j.j.F k.            S l.l.l.l.) !                 ",
"                      m.8.f.n.g.  o.p.q.q.q.q.q.r.s.&.t.u.v.w.x.y.S r.r.r.r.{ ] -               ",
"                      z.A.n.B.C.    D.E.E.E.F.F.F.F.G.G.G.G.G.G.G.G.F.F.F.F.b.> ,               ",
"                      ~.H.B.C.I.      J.J.K.K.K.K.K.K.K.K.K.K.K.K.K.K.K.K.K.E.) !               ",
"                      _.L.M.I.N.    O.P.P.P.P.P.P.F.F.P.P.P.P.P.P.P.P.P.P.J.J.{ ] -             ",
"                      :.M.Q.N.R.    G.G.G.G.G.G.G.G.G.G.G.G.G.G.G.G.G.O.O.O.O.j.> ,             ",
"                      2.Q.3.i.S.    T.T.T.T.T.T.; U.V.W.X.Y.Z.`.       + + + + +) !             ",
"                      a.3.i..+++  @+@+@+@+@+@+W #+@   X.$+Z.%+&+*+    =+=+=+=+=+{ ] -           ",
"                      h.p..+-+;+  >+>+>+>+>+>+,+v.      '+%+&+)+!+~+    {+{+{+{+q.> ,           ",
"                      p.D.-+;+]+  ^+^+^+^+^+W ].^.          )+/+(+_+:+  ^+^+^+^+^+) !           ",
"                      <+[+;+]+}+^+^+^+^+^+^+; [.              (+|+1+2+3+  ^+^+^+^+{ ] 4+        ",
"                      5+6+]+}+7+^+^+^+^+^++.8+9+                0+a+3+b+b+^+^+^+^+{.c+d+        ",
"                      e+f+}+7+g+^+^+^+^+^+W h+                    i+b+b+b+b+^+^+^+{+~ j+        ",
"                                                                                                ",
"                                                                                                ",
"                                                                                                ",
"                                                                                                ",
"                                                                                                ",
"                                                                                                "};
