/* XPM */
static char * edit_xpm[] = {
"48 48 240 2",
"  	c None",
". 	c #020204",
"+ 	c #82827C",
"@ 	c #9A4604",
"# 	c #CECAA4",
"$ 	c #42423C",
"% 	c #E2E29C",
"& 	c #F2F2BC",
"* 	c #666664",
"= 	c #4E2204",
"- 	c #E2E2D4",
"; 	c #DA8E4C",
"> 	c #664214",
", 	c #665634",
"' 	c #EAEAA4",
") 	c #023234",
"! 	c #CE7244",
"~ 	c #121214",
"{ 	c #AAA26C",
"] 	c #9A925C",
"^ 	c #826634",
"/ 	c #F6C2A4",
"( 	c #6E4A14",
"_ 	c #B66E54",
": 	c #E6E2B4",
"< 	c #EAEAB4",
"[ 	c #765624",
"} 	c #020A0C",
"| 	c #7A7A6C",
"1 	c #4E360C",
"2 	c #C2BEB4",
"3 	c #8A763C",
"4 	c #D6D6A4",
"5 	c #9E8E54",
"6 	c #FEFEFC",
"7 	c #1A1204",
"8 	c #F2F2DC",
"9 	c #FEE2D4",
"0 	c #DAD6CC",
"a 	c #96824C",
"b 	c #76623C",
"c 	c #B69284",
"d 	c #6A4A44",
"e 	c #EAEAD4",
"f 	c #EA6E04",
"g 	c #A69A64",
"h 	c #F2EEB4",
"i 	c #765E2C",
"j 	c #0A0A3C",
"k 	c #7A3604",
"l 	c #1E1A0C",
"m 	c #EAE6AC",
"n 	c #6E4614",
"o 	c #724E1C",
"p 	c #EAE6B4",
"q 	c #F6A254",
"r 	c #8E763C",
"s 	c #E6E69C",
"t 	c #664614",
"u 	c #EEEEA4",
"v 	c #A2925C",
"w 	c #EEEEB4",
"x 	c #5E3A14",
"y 	c #968A54",
"z 	c #F67A04",
"A 	c #F6B684",
"B 	c #D2926C",
"C 	c #725A2C",
"D 	c #827244",
"E 	c #6E4E14",
"F 	c #E6E6B4",
"G 	c #0E0A0C",
"H 	c #DEDEB4",
"I 	c #F6F6EC",
"J 	c #927E44",
"K 	c #0A0604",
"L 	c #8A5644",
"M 	c #F2F2CC",
"N 	c #6E6E64",
"O 	c #662E04",
"P 	c #72521C",
"Q 	c #EAEAAC",
"R 	c #2A220C",
"S 	c #FAD6C4",
"T 	c #EAEAC4",
"U 	c #DEDEBC",
"V 	c #7E6A3C",
"W 	c #EAEAEC",
"X 	c #7E5E2C",
"Y 	c #261E0C",
"Z 	c #8E7A44",
"` 	c #9A8E54",
" .	c #8A6E3C",
"..	c #020604",
"+.	c #E2E2AC",
"@.	c #EAE6D4",
"#.	c #BEBAB4",
"$.	c #EEEAB4",
"%.	c #765A24",
"&.	c #7E7E6C",
"*.	c #5A320C",
"=.	c #1A163C",
"-.	c #F6F6DC",
";.	c #7E622C",
">.	c #EEEECC",
",.	c #7A5E2C",
"'.	c #6A461C",
").	c #A2965C",
"!.	c #FE7E04",
"~.	c #FEBA84",
"{.	c #160E04",
"].	c #82622C",
"^.	c #6E562C",
"/.	c #323234",
"(.	c #8A8A7C",
"_.	c #565654",
":.	c #6E6A64",
"<.	c #562A04",
"[.	c #E2E2E4",
"}.	c #FE8204",
"|.	c #6A4214",
"1.	c #EEEA9C",
"2.	c #021A1C",
"3.	c #A2A2A4",
"4.	c #9E9254",
"5.	c #6A4A24",
"6.	c #BE7E64",
"7.	c #E2E2C4",
"8.	c #DADA94",
"9.	c #EE9A54",
"0.	c #E66A04",
"a.	c #B6826C",
"b.	c #EEAE7C",
"c.	c #EE8A34",
"d.	c #F2EED4",
"e.	c #FACEB4",
"f.	c #D69E7C",
"g.	c #6E3E24",
"h.	c #FEAA5C",
"i.	c #EEBEA4",
"j.	c #FEDEAC",
"k.	c #3E3A2C",
"l.	c #4E4A3C",
"m.	c #8E6254",
"n.	c #8E865C",
"o.	c #C6C6CC",
"p.	c #827A64",
"q.	c #B6766C",
"r.	c #F27604",
"s.	c #7A4A3C",
"t.	c #262624",
"u.	c #120E44",
"v.	c #925A3C",
"w.	c #56320C",
"x.	c #1E1E1C",
"y.	c #AEA674",
"z.	c #1A160C",
"A.	c #9A8654",
"B.	c #FEDACC",
"C.	c #6A6A64",
"D.	c #EE7204",
"E.	c #623E14",
"F.	c #FA7E04",
"G.	c #5E360C",
"H.	c #FABE84",
"I.	c #0E0E0C",
"J.	c #8A7244",
"K.	c #020E0C",
"L.	c #A69E64",
"M.	c #562E04",
"N.	c #021E1C",
"O.	c #020214",
"P.	c #E6E6AC",
"Q.	c #6E4E24",
"R.	c #E6E6C4",
"S.	c #DADAA4",
"T.	c #E6E2A4",
"U.	c #7E7A74",
"V.	c #7A6234",
"W.	c #EEEACC",
"X.	c #6A460C",
"Y.	c #9A8A4C",
"Z.	c #86723C",
"`.	c #E2DEAC",
" +	c #F6F2D4",
".+	c #E2DEBC",
"++	c #927A44",
"@+	c #7A5A24",
"#+	c #A6965C",
"$+	c #725624",
"%+	c #221E14",
"&+	c #F6F2DC",
"*+	c #623A14",
"=+	c #FA7A04",
"-+	c #6A2E04",
";+	c #EEEAAC",
">+	c #060604",
",+	c #E6E2AC",
"'+	c #1E160C",
")+	c #F2F2C4",
"!+	c #E2E2DC",
"~+	c #66421C",
"{+	c #6E4A1C",
"]+	c #E6E2BC",
"^+	c #EAEABC",
"/+	c #DAD6D4",
"(+	c #F2EEBC",
"_+	c #765E34",
":+	c #0A0A44",
"<+	c #724E24",
"[+	c #EAE6BC",
"}+	c #8E7644",
"|+	c #E6E6A4",
"1+	c #EEEEAC",
"2+	c #EEEEBC",
"3+	c #6E4E1C",
"4+	c #E6E6BC",
"5+	c #0E0A14",
"6+	c #F6F6F4",
"7+	c #F2F2D4",
"8+	c #6E6E6C",
"9+	c #725224",
"0+	c #261E14",
"a+	c #9A8E5C",
"b+	c #EEEABC",
"c+	c #765A2C",
"d+	c #7E7E74",
"e+	c #F6F6E4",
"f+	c #7E6234",
"g+	c #EEEED4",
"h+	c #7A5E34",
"i+	c #EEEAA4",
"j+	c #9E925C",
"k+	c #6A4614",
"l+	c #9A8A54",
"m+	c #867244",
"n+	c #E2DEB4",
"o+	c #E2DEC4",
"p+	c #927A4C",
"q+	c #A69664",
"                                                                                                ",
"                                                                                                ",
"                                                                                                ",
"                                                                                                ",
"                                                                                                ",
"                                                                                                ",
"                                                                                                ",
"                                                                                = = =           ",
"                                                                              O ; / f.=         ",
"                                                                            O 9.b.q 9 / =       ",
"                                                                          k h.A j.f q 9 f.=     ",
"                                                                        k h.~.j.D.f f ! a.=     ",
"                                                                      k h.~.j.=+=+D.@ O =       ",
"                                                                    @ h.~.j.!.}.=+@ k =         ",
"                                                                  @ h.~.j.}.!.!.@ k =           ",
"                                                                @ h.~.j.}.}.!.@ k =             ",
"                                                              @ h.~.j.}.}.}.@ k =               ",
"                                    3.6                     @ h.~.j.}.}.!.@ k =                 ",
"                                  3.    6 .               @ h.~.j.!.!.!.@ k =                   ",
"                          3.6     3.. . I 6 . .         @ h.~.j.F.F.}.@ k =                     ",
"                        3.    6 . . 6 e+I * &+&+. .   @ h.~.j.r.F.F.@ k =                       ",
"                  3.6   3.  . 6 &+&+e+e+I &+I I 8 _.@ 9.A j.r.z z @ k =                         ",
"                3.    6 . . e+e+e+e+e+&+e+e+- 8+_.@ ; b.H.D.D.D.@ k =                           ",
"        3.6     3.. . 6 8 8 &+8 8 &+&+-.8 _.| @.-+/ B.q f f D.@ k =                             ",
"      3.    6 . . _.&+6 &+8 &+8 g+g+e 8+d+- -.g+q.9 e.c.0.f @ k <..                             ",
"      3.  . 6 . 6 7+-.-.7+M -.>.- d+d+7.7+M M g.B.e./ f.6.m.*.= M _.. .                         ",
"      . . _.6 7+M d.d.)+>.7.U :.N  +M  +>.W.R.q.S i.B _ v.L = _._.d.(+M . .                     ",
"      . M M M M M M T U o+_._.M [+)+ +M 4+&.g.S e.B _ v.s.-+_.)+)+)+)+d.(+_.. .                 ",
"    I.( _.W )+d.)+T M _.(.(+d.)+M [+]+:._.(+q.c B _ s.g._.)+(+)+)+>.& _._.(+2+2+. .             ",
"    . |._._.o.)+(+_._.(+7.)+)+)+4+d+| )+(+& p.l.d g.:.# `.b+b+[+: N | F 2+& (+(+!+I..           ",
"    x.P |.( _._._.(+)+p < 2+: :._.& >.w [+S.. k._.+.p (+< F w _.C.4 n+(+2+(+6+M.*.G             ",
"    /.^ @+o n 9+_._.2+2+: &._.w 2+h h 2+w d+| & `.h w w h N d+S.`.: w m 0 x M.{+c+l l           ",
"    t.J J.^ %.o 3+9+_._.(+h +.;+w w h C.:.4 | | | h ,+N &.,+P.Q h ;+0 '.{+<+X ++4.Y '+          ",
"    . ^  .Z J.^ @+P 3+_._.w $.w ,+N C.1+|+h | | | $ $ +.1+1+;+T.!+G.E.9+X Z 4.y.).'+            ",
"    . , _+^ Z.Z  .^ @+P 3+_._._._.1+1+m m T.| $ $ | | i+i+|+2 E.*.{+X 3 Y.q+).Z X {.{.          ",
"    . . . . _+^ m+J J.^ @+P 3+_.w i+i+u u :.$ U.| | | | #.|.> Q.;.Z Y.).l+J ,.E.. .             ",
"        . . . . _+^  .Z J.^ c+o _._.1.C.C.% T.| | | U.x E.9+X ++` g l+Z ,.t 1 {.                ",
"            . . . ) b ^  .Z  .^ @+P _._.8.1.' U.| E.~+9+;.Z ).).y D i > z.'+                    ",
"                . . ..} h+V J.J  .^ @+o <.<.<.M.*+9+X Z v L.l+3 C Y >+.                         ",
"                    . . N.2.h+^ m+p+ .^ %.$ <.'.V.3 y g v Z X > K .                             ",
"                        . . K.^ h+^ Z.Z  .$ ;.r l+).y Z X k+{.{.                                ",
"                            . . . i X ^ m+$ a a+A.m+i l {.{.                                    ",
"                                . . h+[ $+$ n.D =.5+. .                                         ",
"                                    . . :+$ u.:+O..                                             ",
"                                        . . . .                                                 ",
"                                                                                                ",
"                                                                                                ",
"                                                                                                "};
