/* XPM */
static char * gs_xpm[] = {
"48 48 227 2",
"  	c None",
". 	c #FEFEFC",
"+ 	c #B2B2B4",
"@ 	c #BAAEAC",
"# 	c #AA9E9C",
"$ 	c #5E5E5C",
"% 	c #FFFFFF",
"& 	c #7A7A7C",
"* 	c #565654",
"= 	c #626264",
"- 	c #767274",
"; 	c #FAFAFC",
"> 	c #FEEAEC",
", 	c #464644",
"' 	c #969694",
") 	c #010103",
"! 	c #F6F6F4",
"~ 	c #8E8E8C",
"{ 	c #666664",
"] 	c #4E4E4C",
"^ 	c #929294",
"/ 	c #BAAAAC",
"( 	c #828284",
"_ 	c #BABABC",
": 	c #E2DADC",
"< 	c #4A4A4C",
"[ 	c #DED6D4",
"} 	c #E2E2E4",
"| 	c #C6C6C4",
"1 	c #424244",
"2 	c #EEEEEC",
"3 	c #CEDEEC",
"4 	c #CAD6E4",
"5 	c #9AB2CC",
"6 	c #668ABC",
"7 	c #727274",
"8 	c #868684",
"9 	c #020205",
"0 	c #8E8A8C",
"a 	c #96B2CC",
"b 	c #6A92BC",
"c 	c #6692BC",
"d 	c #020209",
"e 	c #020208",
"f 	c #020207",
"g 	c #020206",
"h 	c #92AECC",
"i 	c #527EAC",
"j 	c #B2C6DC",
"k 	c #5682B4",
"l 	c #DAD2D4",
"m 	c #02030D",
"n 	c #02030C",
"o 	c #02030B",
"p 	c #02020A",
"q 	c #7E7E7C",
"r 	c #6A8EBC",
"s 	c #C2D2E4",
"t 	c #EEDADC",
"u 	c #525254",
"v 	c #020311",
"w 	c #020310",
"x 	c #02030F",
"y 	c #02030E",
"z 	c #E6DEDC",
"A 	c #6E6E6C",
"B 	c #3E3E3C",
"C 	c #020414",
"D 	c #020413",
"E 	c #020412",
"F 	c #92B2CC",
"G 	c #5A5A5C",
"H 	c #020519",
"I 	c #020418",
"J 	c #020417",
"K 	c #020415",
"L 	c #AAC2DC",
"M 	c #225A94",
"N 	c #5A86B4",
"O 	c #BAB2B4",
"P 	c #C6B6B4",
"Q 	c #02051C",
"R 	c #02051B",
"S 	c #02051A",
"T 	c #CECECC",
"U 	c #4272A4",
"V 	c #2E669C",
"W 	c #B2AEAC",
"X 	c #3A3A3C",
"Y 	c #BEBEBC",
"Z 	c #02051E",
"` 	c #02051D",
" .	c #C2C2C4",
"..	c #F0F6F7",
"+.	c #A2BED4",
"@.	c #CEC2C4",
"#.	c #DEDEDC",
"$.	c #A6A2A4",
"%.	c #020620",
"&.	c #02051F",
"*.	c #F0F5F7",
"=.	c #F0F6FA",
"-.	c #A6A6A4",
";.	c #020626",
">.	c #020625",
",.	c #020624",
"'.	c #020623",
").	c #020622",
"!.	c #020621",
"~.	c #EEF5F7",
"{.	c #D6D6D4",
"].	c #D2D2D4",
"^.	c #02072D",
"/.	c #02072C",
"(.	c #02072B",
"_.	c #02072A",
":.	c #020729",
"<.	c #AAAAAC",
"[.	c #F2F2F4",
"}.	c #020833",
"|.	c #020832",
"1.	c #020831",
"2.	c #020830",
"3.	c #02082F",
"4.	c #020938",
"5.	c #020937",
"6.	c #020936",
"7.	c #020935",
"8.	c #020834",
"9.	c #D6CECC",
"0.	c #020A3D",
"a.	c #020A3C",
"b.	c #02093B",
"c.	c #020939",
"d.	c #A2A2A4",
"e.	c #B6B6B4",
"f.	c #CACACC",
"g.	c #E2D2D4",
"h.	c #020A42",
"i.	c #020A41",
"j.	c #020A40",
"k.	c #020A3F",
"l.	c #020A3E",
"m.	c #020B45",
"n.	c #020B44",
"o.	c #020B43",
"p.	c #02082E",
"q.	c #020B49",
"r.	c #020B48",
"s.	c #020B47",
"t.	c #020B46",
"u.	c #020C4D",
"v.	c #020C4B",
"w.	c #020C4A",
"x.	c #6A6A6C",
"y.	c #020C50",
"z.	c #020C4F",
"A.	c #020C4E",
"B.	c #E69E9C",
"C.	c #020D51",
"D.	c #FAEAEC",
"E.	c #767674",
"F.	c #F6F6FC",
"G.	c #F2EAEC",
"H.	c #D6C6C4",
"I.	c #D2C2C4",
"J.	c #020F64",
"K.	c #020F63",
"L.	c #020F62",
"M.	c #020F61",
"N.	c #EAEAEC",
"O.	c #DADADC",
"P.	c #E6C6C4",
"Q.	c #021069",
"R.	c #021068",
"S.	c #021067",
"T.	c #021066",
"U.	c #020F65",
"V.	c #02116E",
"W.	c #02116D",
"X.	c #02106C",
"Y.	c #02106B",
"Z.	c #02106A",
"`.	c #2E2E2C",
" +	c #F2F6FC",
".+	c #020D52",
"++	c #021173",
"@+	c #021172",
"#+	c #021171",
"$+	c #02116F",
"%+	c #E6E6E4",
"&+	c #222224",
"*+	c #9A9A9C",
"=+	c #020D57",
"-+	c #020D56",
";+	c #020D55",
">+	c #020D54",
",+	c #020D53",
"'+	c #021277",
")+	c #021276",
"!+	c #021275",
"~+	c #021274",
"{+	c #020204",
"]+	c #020F60",
"^+	c #020F5F",
"/+	c #020E5D",
"(+	c #020E5C",
"_+	c #020E5B",
":+	c #020E5A",
"<+	c #020E59",
"[+	c #02127A",
"}+	c #021279",
"|+	c #021278",
"1+	c #CEBEBC",
"2+	c #02137D",
"3+	c #02137C",
"4+	c #02137B",
"5+	c #CAC2C4",
"6+	c #9E9E9C",
"7+	c #02137E",
"8+	c #8A8A8C",
"9+	c #323234",
"0+	c #1E1E1C",
"a+	c #262624",
"b+	c #021381",
"c+	c #021380",
"d+	c #02137F",
"                                                                                                ",
"                                                                                                ",
"                                                        . . . .                                 ",
"                                                      . + @ # $ .                               ",
"                                                      % & * % = - .                             ",
"                                  . . . . ; > > > > > # , $ % ' ) .                             ",
"                            . . ! ~ { ] ) ) ) ) ) ) ) ) = % % # ) .                             ",
"                          . ^ * ) ) ) ) ) ) ) ) ) ) - @ % % % { ) !                             ",
"                      ; / , ) ) ) ) ) ) ) ) ] ( _ : % % % % ~ ) ) ( .                           ",
"                    . ' ) ) ) ) ) ) ) < ' [ % % % % % % } ( ) ) ) ) # .                         ",
"                  . / ) ) ) ) ) ) ) & % % % % % % % % | ] ) ) ) ) ) ) / .                       ",
"                  . 1 ) ) ) ) ) ) ' % % % % 2 3 % % + ) ) ) ) ) ) ) ) ) >                       ",
"                ! # ) ) ) ) ) ) $ % % % 4 % 5 6 % % 7 ) ) ) ) ) ) ) ) ) 8 !                     ",
"                ; = 9 ) ) ) ) ) 0 % % a b % 6 c % % ( ) ) ) ) ) ) ) ) ) < ;                     ",
"                ; * d e f g 9 ) ' % % h i % j k % % l , ) ) ) ) ) ) ) ) < .                     ",
"                . * m n o p d e q % % % r s % % % % % t u ) ) ) ) ) ) ) - .                     ",
"                . 0 v w x y m n < % % % % % % % % % % % z A ) ) ) ) ) ) / .                     ",
"                  . B C D E v w x q % % % % % F a % % % % > * ) ) ) ) G >                       ",
"                  ! # H I J K C D E 8 % % % % L M N % % % % O ) ) ) ) P .                       ",
"                    . 0 Q R S H I J K * T % % % U V % % % % W e f X / .                         ",
"                      . Y * Z ` Q R S H I  .% ..h +.% % % : < n { @..                           ",
"                        . #.$.B %.&.Z ` Q q *.*.=.% % % _ * u -.!                               ",
"                      > # A ;.>.,.'.).!., _ ~.~...=.{.-.' ].> .                                 ",
"                  ! ; u ^./.(._.:.* ( <.: % ~.~.~.~.2 [.. >                                     ",
"                . - }.|.1.2.3.$ % % % % % % % % % % >                                           ",
"              . ' 4.5.6.7.8.}.G #.% % % % % % % % % 9.                                          ",
"              . 1 0.a.b.c.4.5.6.7.] q d.e.|  .f.[ {.g.! ; . . .                                 ",
"              . h.i.j.k.l.0.a.b.c.4.5.6.7.8.}.|.1.2.3.< * = - ( ; . >                           ",
"              . 1 m.n.o.h.i.j.k.l.0.a.b.c.4.5.6.7.8.}.|.1.2.3.p.^.1 - ! !                       ",
"              . { q.r.s.t.m.n.o.h.i.j.k.l.0.a.b.c.4.5.6.7.8.}.|.1.2.3.p.] ; .                   ",
"                ! B u.v.w.q.r.s.t.m.n.o.h.i.j.k.l.0.a.b.c.4.5.6.7.8.}.|.1.X # .                 ",
"                  . x.y.z.A.u.v.w.q.r.s.t.m.n.o.h.i.j.k.l.0.a.b.c.4.5.6.7.8.}.B..               ",
"                    > f.~ u C.y.z.A.u.v.w.q.r.s.t.m.n.o.h.i.j.k.l.0.a.b.c.4.5.u .               ",
"                      D.. ; ; #. .e.' ^ ^ ^ q & & - = * < m.n.o.h.i.j.k.l.0.a.b.. .             ",
"              ; ! > > A E.8 e.F.% % % % % % % % % ! D.G.: H.$.x.t.m.n.o.h.i.j.k.I..             ",
"            . 8 J.K.L.M.1 W 2 % % % % N.].O.G.F.% % % % % % % % / q.r.s.t.m.n.o.P..             ",
"            . Q.R.S.T.U._ % % % % % e.$ E.-._ f.% % % % % % % % #.A.u.v.w.q.r.= G..             ",
"          . V.W.X.Y.Z.u % % % % % % B `.]. +% % % % % % % % % : - .+C.y.z.A.B @.! .             ",
"          . ++@+#+$+V.< %+% % % % % u &+] ( e.f.].} l f.Y *+& 1 =+-+;+>+,+u Y f..               ",
"          . '+)+!+~+++@+8 % % % % % f.= {+{+{+{+{+K.L.M.]+^+/+(+_+:+<+u ' T -.# !               ",
"            ! [+}+|+'+)+!+x.Y % % % % % _ ^ 7 G ] X T.X J.K.1 * 7 ' 1+9.$.= ~ .                 ",
"              . 2+3+4+[+}+|+'+* *+f.} N.[.[.2 N.} O.{.].].T T T 5+6+x.1 ] . !                   ",
"                . . * 7+2+3+4+[+}+|+'+, G x.A 8+~ ^ 8+E.A G < 9+0+a+* *+.                       ",
"                    . . b+c+d+7+2+3+4+[+}+|+'+)+!+~+++@+#+$+V.] ( . . >                         ",
"                        . . . . b+c+d+7+2+3+4+[+}+|+'+)+!+. . . .                               ",
"                                . . . . . . . . . . . . >                                       ",
"                                                                                                ",
"                                                                                                "};
