/* XPM */
static char * penguin_xpm[] = {
"48 48 91 1",
" 	c None",
".	c #020204",
"+	c #505050",
"@	c #2C2C2C",
"#	c #646464",
"$	c #3C3C3C",
"%	c #0C0C0C",
"&	c #0A0604",
"*	c #343434",
"=	c #5C5C5C",
"-	c #444444",
";	c #8D8D8C",
">	c #BEBDBC",
",	c #242424",
"'	c #9C9C9C",
")	c #E4E4E4",
"!	c #D4D4D4",
"~	c #FEFEFC",
"{	c #F4F4F4",
"]	c #1C1C1B",
"^	c #141413",
"/	c #AD780A",
"(	c #EBBC0B",
"_	c #8E6A07",
":	c #744904",
"<	c #DDDDDC",
"[	c #52462C",
"}	c #CF9407",
"|	c #F2B60C",
"1	c #EBC40C",
"2	c #F2DA2C",
"3	c #F4D543",
"4	c #F6D50D",
"5	c #AA7E0A",
"6	c #B37907",
"7	c #E5AC09",
"8	c #EDCC0E",
"9	c #F6DA14",
"0	c #AC8C04",
"a	c #D0A40D",
"b	c #F1D311",
"c	c #D89C08",
"d	c #7C5B0A",
"e	c #7C7C7C",
"f	c #ACACAC",
"g	c #9D6A07",
"h	c #BD9D04",
"i	c #C18B0A",
"j	c #CE8E08",
"k	c #D7960D",
"l	c #B98309",
"m	c #C4C4C4",
"n	c #A4A4A4",
"o	c #906007",
"p	c #A46D05",
"q	c #9B6605",
"r	c #B58C35",
"s	c #B5B4B3",
"t	c #ECECEC",
"u	c #CCCCCC",
"v	c #565654",
"w	c #6C6C6B",
"x	c #747474",
"y	c #413207",
"z	c #F5BD0C",
"A	c #1F1604",
"B	c #DFA509",
"C	c #312305",
"D	c #CF9418",
"E	c #784E04",
"F	c #F3C40B",
"G	c #ECB40B",
"H	c #E2BC0C",
"I	c #C78A08",
"J	c #C98E07",
"K	c #A4770A",
"L	c #EBB316",
"M	c #493006",
"N	c #949494",
"O	c #B67E0A",
"P	c #C08507",
"Q	c #6C4505",
"R	c #AB7205",
"S	c #5B3A05",
"T	c #8F5A04",
"U	c #976105",
"V	c #5E3E2C",
"W	c #402C07",
"X	c #603E05",
"Y	c #533606",
"Z	c #654307",
"                                                ",
"                                                ",
"                      ....                      ",
"                    ........                    ",
"                   .......+@.                   ",
"                   .......#$%.                  ",
"                  ........&...                  ",
"                  .............                 ",
"                  ...*...=&-...                 ",
"                  .;>,..')!%...                 ",
"                  .~,~..~.={...                 ",
"                  .+]~.%~.^~...                 ",
"                  .)./(_(:,<...                 ",
"                  .[}|123445...                 ",
"                  .67(83940a...                 ",
"                  .:|1b4a}cd.e..                ",
"                  .fghijklm>.,e.                ",
"                  .n>opqrst~&....               ",
"                 &.~m>>>mt~~~....               ",
"                 .m~~>>)~~~~~.....              ",
"                ..~~~~~~~~~~~t.....             ",
"               ..#~~~~~~~~~~{{.....             ",
"              ...'u{~)t~~{ummu......            ",
"              ...u~~~t~~~~~~tmt.%....           ",
"              ..+~{~~~~{{~~{~~u+.....           ",
"             .+.~~~~~~~~~~~~~~~~^*+...          ",
"             ..-~~~~~~{~{~~~~{~~......          ",
"             ..~~~{~~~~~~~~~~~~~......          ",
"            .v.~~~~{{~~~{~~~{~~{&.....          ",
"           ..w^~{{~~{~~~~~~~~~~~,.....          ",
"           ..x$~~~~~t{~~~~~~~~~~-.-...          ",
"           ..%w~~~~~t~~~~~~~~~~~%.^&..          ",
"           yzA+~~~~~t~~{~~~{~~~~....%%          ",
"          :BzzC@{{~~t~~~~~~~~~B90...^&          ",
"        ::D|zzz.%~~~~~~~~~~~~~czE....FF         ",
"       :G7|zzzzH..~{~~~~~{~~~ucGl...I||         ",
"       :zzzzzzzFC..{~~~{~~~~~mI7cII}|zz:        ",
"       :zzzzzzz|8...~~~~~~~~~!l7|7BGzzz|:       ",
"       :zzzzzzzz(J.,~~~~~{~~~>/7zzzzzzzzz:      ",
"       :z|zzzzzzz1<~~~{{~~~~+.K7zzzzzzzz|L      ",
"      :czzzzzzzzzz}~~~~{{~~...p|zzzzzzz|B       ",
"      :7z||zzzzzz|cM.Nu;%...../7zzzzz|BO        ",
"      :P}cB7||||z|IQ..........RB|z|LcP          ",
"        :qR6l}B||cqS..........TJ7G7jp           ",
"             :URRUQ&          Qp6OpV            ",
"               WXY             MQZ              ",
"                                                ",
"                                                "};
