/* XPM */
static char * xclipboard_xpm[] = {
"48 48 206 2",
"  	c None",
". 	c #020204",
"+ 	c #1A1A1C",
"@ 	c #464644",
"# 	c #32322C",
"$ 	c #0A0A0C",
"% 	c #6E6E6C",
"& 	c #FEFEFC",
"* 	c #B6B6B4",
"= 	c #121214",
"- 	c #767674",
"; 	c #5E5E5C",
"> 	c #BEBEBC",
", 	c #F2F2F4",
"' 	c #FAFAFC",
") 	c #DEDEDC",
"! 	c #161614",
"~ 	c #3A3A3C",
"{ 	c #7E7E7C",
"] 	c #363634",
"^ 	c #3A3A2C",
"/ 	c #8E8E8C",
"( 	c #EAEAEC",
"_ 	c #C6C6C4",
": 	c #727274",
"< 	c #969694",
"[ 	c #9A9A9C",
"} 	c #7A7A7C",
"| 	c #2E2E2C",
"1 	c #060604",
"2 	c #4A4A4C",
"3 	c #9E9E9C",
"4 	c #222224",
"5 	c #22221C",
"6 	c #1E1E1C",
"7 	c #262624",
"8 	c #6A6A6C",
"9 	c #CECECE",
"0 	c #D1D1D1",
"a 	c #D4D4D4",
"b 	c #D6D6D6",
"c 	c #D9D9D9",
"d 	c #FFFFFF",
"e 	c #626264",
"f 	c #CCCCCC",
"g 	c #CFCFCF",
"h 	c #D7D7D7",
"i 	c #5A5A5C",
"j 	c #0E0E0C",
"k 	c #CACACA",
"l 	c #D2D2D2",
"m 	c #323234",
"n 	c #2A2A2C",
"o 	c #FEFEFE",
"p 	c #0A0604",
"q 	c #16120C",
"r 	c #1A1A14",
"s 	c #C8C8C8",
"t 	c #CDCDCD",
"u 	c #D0D0D0",
"v 	c #FDFDFD",
"w 	c #904507",
"x 	c #A35D23",
"y 	c #CA915D",
"z 	c #EDC092",
"A 	c #2E2E24",
"B 	c #B7B7B7",
"C 	c #CBCBCB",
"D 	c #D3D3D3",
"E 	c #D5D5D5",
"F 	c #D8D8D8",
"G 	c #DBDBDB",
"H 	c #DDDDDD",
"I 	c #E0E0E0",
"J 	c #E3E3E3",
"K 	c #E5E5E5",
"L 	c #E8E8E8",
"M 	c #EBEBEB",
"N 	c #EDEDED",
"O 	c #F0F0F0",
"P 	c #F3F3F3",
"Q 	c #F5F5F5",
"R 	c #F8F8F8",
"S 	c #FBFBFB",
"T 	c #0A0204",
"U 	c #8E4203",
"V 	c #944A0D",
"W 	c #B77842",
"X 	c #E1AF7F",
"Y 	c #F4C79B",
"Z 	c #C6C6C6",
"` 	c #DEDEDE",
" .	c #E6E6E6",
"..	c #EEEEEE",
"+.	c #F6F6F6",
"@.	c #060204",
"#.	c #CD9461",
"$.	c #F7CA9F",
"%.	c #C4C4C4",
"&.	c #C9C9C9",
"*.	c #DCDCDC",
"=.	c #E1E1E1",
"-.	c #E9E9E9",
";.	c #F1F1F1",
">.	c #F9F9F9",
",.	c #DEAC7B",
"'.	c #7C7A7A",
").	c #FCFCFC",
"!.	c #F0C295",
"~.	c #C2C2C2",
"{.	c #C5C5C5",
"].	c #C7C7C7",
"^.	c #DADADA",
"/.	c #DFDFDF",
"(.	c #E2E2E2",
"_.	c #E4E4E4",
":.	c #E7E7E7",
"<.	c #EAEAEA",
"[.	c #ECECEC",
"}.	c #EFEFEF",
"|.	c #F2F2F2",
"1.	c #F4F4F4",
"2.	c #F7F7F7",
"3.	c #FAFAFA",
"4.	c #2E1604",
"5.	c #9B9B9A",
"6.	c #221204",
"7.	c #B9B9B9",
"8.	c #220E04",
"9.	c #F3C89B",
"0.	c #464634",
"a.	c #C1C1C1",
"b.	c #C3C3C3",
"c.	c #261204",
"d.	c #EDC495",
"e.	c #B8B8B8",
"f.	c #62624C",
"g.	c #565654",
"h.	c #BDBDBD",
"i.	c #BFBFBF",
"j.	c #4E2604",
"k.	c #DEAD7C",
"l.	c #C0C0C0",
"m.	c #B5B5B5",
"n.	c #361A04",
"o.	c #BBBBBB",
"p.	c #BEBEBE",
"q.	c #120A04",
"r.	c #904607",
"s.	c #F7CB9F",
"t.	c #B0B0B0",
"u.	c #BCBCBC",
"v.	c #8E4304",
"w.	c #C4A26E",
"x.	c #4A423C",
"y.	c #DBB780",
"z.	c #BABABA",
"A.	c #858586",
"B.	c #904608",
"C.	c #848486",
"D.	c #8F4406",
"E.	c #625E5C",
"F.	c #9B9B9B",
"G.	c #362A1C",
"H.	c #522A0C",
"I.	c #B1B1B1",
"J.	c #B6B6B6",
"K.	c #999999",
"L.	c #989898",
"M.	c #91480A",
"N.	c #B4B4B4",
"O.	c #979797",
"P.	c #3A1E0C",
"Q.	c #8F4506",
"R.	c #959595",
"S.	c #9A9A9A",
"T.	c #92490B",
"U.	c #C99862",
"V.	c #B2B2B2",
"W.	c #939393",
"X.	c #B5763F",
"Y.	c #7A2E2C",
"Z.	c #9E6A6C",
"`.	c #969696",
" +	c #924B0C",
".+	c #922224",
"++	c #B26A6C",
"@+	c #ADADAD",
"#+	c #B3B3B3",
"$+	c #929292",
"%+	c #949494",
"&+	c #1A0604",
"*+	c #7A0204",
"=+	c #ABABAB",
"-+	c #AEAEAE",
";+	c #6E6A6C",
">+	c #A9A9A9",
",+	c #ACACAC",
"'+	c #9C9C9C",
")+	c #9D9D9D",
"!+	c #A7A7A7",
"~+	c #AAAAAA",
"{+	c #AFAFAF",
"]+	c #A5A5A5",
"^+	c #828284",
"/+	c #4A4A44",
"                                                                                                ",
"                                                                                                ",
"                                        . . . . . . .                                           ",
"                                        . + @ @ @ # .                                           ",
"                . . . . . . . . . . . . $ % & & & * $ . . . . . . . . . . . .                   ",
"            . = - - - - - - - - - - ; . > , & & & ' ) ! ~ - - - - - - - - - - # .               ",
"            . ! { @ ] ] ] ] ] ] ] ^ @ / ( _ : : : < ' [ ; ] ] ] ] ] ] ] ] ~ } ] .               ",
"            . ! { ! = | | | | | 1 = 2 , , 3 4 5 4 ; , , { 6 . 7 | | | | 4 1 : ~ .               ",
"            . ! { + 8 9 0 a b c ! 8 > > > > > > > > > > > [ . d d d d d d 1 : ] .               ",
"            . + { ! e f g 0 a h + ~ 8 8 8 8 8 8 8 8 8 8 8 i . d d d d d d 1 - ^ .               ",
"            . j 2 j 8 k f g l a ! 6 ] m m m m ] m ] ] m m n . o d d d d d . : ] .               ",
"          p q r r 1 e s k t u l | + + + + + + r + r + + r + 6 v o d d d d 1 - ~ .               ",
"        p w x y z A m B s C t u D E F G H I J K L M N O P Q R S v o d d d . : ] .               ",
"        T U V W X Y . ~ Z s C 9 u D b F G ` I J  .L M ..O P +.R S v o d d 1 - ~ .               ",
"        @.U w x #.z $.! %.Z &.f 9 0 a b c *.` =.J  .-.M ..;.P +.>.S o o d . : ] .               ",
"          . U V W ,.Y ! } '.'.'.'.'.'.'.'.'.'.'.'.'.'.'.'.'.'.'.'.>.).o d 1 - ^ .               ",
"          . U w x #.!.$.$ ~.{.].k f g l a h ^.*./.(._.:.<.[.}.|.1.2.3.).o . : ] .               ",
"            4.U V W X Y . 5.~.{.s k t u l E F ^.H I (.K :.<.N }.|.Q 2.3.v 1 - ~ .               ",
"            . 6.w x #.!.A i 7.'.'.'.'.'.'.'.'.'.'.'.'.'.'.'.'.N O P Q R S . : ] .               ",
"            . 8.U V W X 9.0.@ a.b.Z s C 9 u D b F G ` I J  .L M ..O P +.R 1 - ^ .               ",
"            . @.c.w x #.d.0.n e.a.%.Z &.f 9 0 a b c *.` =.J  .-.M ..;.P +.. : ] .               ",
"            . . . U V W X Y f.g.'.'.'.'.'.'.'.'.'.'.'.'.'.'.'.'.'.[.}.;.1.1 - ~ .               ",
"            . . j U w x #.!.$.j h.i.~.{.].k f g l a h ^.*./.(._.:.<.[.}.|.. : ] .               ",
"            . ! { ! j.V W k.Y . : h.l.~.{.s k t u l E F ^.H I (.K :.<.N }.1 - ^ .               ",
"            . ! { ! j.w x #.!.$.| m.'.'.'.'.'.'.'.'.'.'.'.'.'.I J K L M N . : ] .               ",
"            . + { ! n.U V W X 9.r - o.p.a.b.Z s C 9 u D b F G ` I J  .L M 1 - ~ .               ",
"            . + { ! . q.r.x #.!.s.@ t.u.p.a.%.Z &.f 9 0 a b c *.` =.J  .-.. : ] .               ",
"            . ! { ! . q.v.V W X Y w.] '.'.'.'.'.'.'.'.'.'.'.'.'.'./.=._.:.1 - ~ .               ",
"            . ! { ! + x.j.w x #.z y.4 B z.h.i.~.{.].k f g l a h ^.*./.(._.. : ] .               ",
"            . ! { ! ] A.. B.V W k.9.] 8 e.z.h.l.~.{.s k t u l E F ^.H I (.1 - ^ .               ",
"            . ! { ! m C.@.D.w x #.!.$.. '.'.'.'.'.'.'.'.'.'.'.D E F G H I . : ] .               ",
"            . + { ! E.F.e G.H.V W X Y . I.J.7.o.p.a.b.Z s C 9 u D b F G ` 1 - ~ .               ",
"            . ! { + e K.L.7 n.M.x #.!.f.: N.J.7.u.p.a.%.Z &.f 9 0 a b c *.. : ] .               ",
"            . + { ! 8 O.L.| P.Q.V W X 9.A e '.'.'.'.'.'.'.'.'.'.'.0 a h c 1 - ^ .               ",
"            . + { ! e R.O.S.; 1 T.x U.& # 8 V.m.B z.h.i.~.{.].k f g l a h . : ] .               ",
"            . ! { + 8 W.R.L.i 1 w V X.' Y.Z.t.V.m.e.z.h.l.~.{.s k t u l E 1 - ~ .               ",
"            . ! { ! 8 W.W.`.R.5  +w x #..+++@+t.#+m.e.o.h.l.b.{.s C t u D . : ] .               ",
"            . + { + e $+W.%+`.`.= 1 &+*+*+++=+-+I.#+J.7.o.p.a.b.Z s C 9 u 1 - ^ .               ",
"            . ! { + 8 $+$+W.%+`.R.A.; T T ;+>+,+-+I.N.J.7.u.p.a.%.Z &.f 9 . : ] .               ",
"            . ! { ! 8 $+$+$+W.%+O.S.'+@ @ )+!+~+,+{+I.N.B 7.u.i.a.%.].&.f 1 - ~ .               ",
"            . ! { ! g.$+$+$+$+W.R.O.S.8 8 '+]+!+~+@+{+V.m.B z.h.i.~.{.].~.. : ] .               ",
"            . + { ! . . . . . . . . . . . . . . . . . . . . . . . . . . . $ - ~ .               ",
"            . ! ^+8 e e 8 8 e 8 8 e 8 e 8 e e 8 8 e e 8 e e 8 e e 8 e 8 e 8 } ] .               ",
"              j 2 2 2 2 /+2 /+/+2 /+2 /+2 /+2 /+2 2 2 2 /+2 2 2 2 2 /+2 2 2 2 4                 ",
"                . . . . . . . . . . . . . . . . . . . . . . . . . . . . . . .                   ",
"                . . . . . . . . . . . . . . . . . . . . . . . . . . . . . . .                   ",
"                                                                                                ",
"                                                                                                "};
