/* XPM */
static char * xconsole_xpm[] = {
"48 48 120 2",
"  	c None",
". 	c #868684",
"+ 	c #B6B6B4",
"@ 	c #1E1E1C",
"# 	c #FAFAFC",
"$ 	c #EEEEEC",
"% 	c #EAEAEC",
"& 	c #DADADC",
"* 	c #2A2A2C",
"= 	c #BABABC",
"- 	c #BEBEBC",
"; 	c #B2B2B4",
"> 	c #7E7E7C",
", 	c #161614",
"' 	c #8A8A8C",
") 	c #A6A6A4",
"! 	c #828284",
"~ 	c #565654",
"{ 	c #363634",
"] 	c #3A3A3C",
"^ 	c #9A9A9C",
"/ 	c #8E8E94",
"( 	c #969694",
"_ 	c #9A9694",
": 	c #8A8684",
"< 	c #827E7C",
"[ 	c #767674",
"} 	c #6E6E6C",
"| 	c #666264",
"1 	c #5A5A5C",
"2 	c #525254",
"3 	c #4A4644",
"4 	c #3E3E3C",
"5 	c #222224",
"6 	c #0E0E0C",
"7 	c #060604",
"8 	c #AEAEAC",
"9 	c #868284",
"0 	c #9E9EA4",
"a 	c #A2A2A4",
"b 	c #7A7A7C",
"c 	c #727274",
"d 	c #666664",
"e 	c #020204",
"f 	c #FEFEFC",
"g 	c #AEAAAC",
"h 	c #5E5E5C",
"i 	c #4A4A4C",
"j 	c #2E2A2C",
"k 	c #1A1A1C",
"l 	c #0E1E1C",
"m 	c #929294",
"n 	c #726E6C",
"o 	c #928E8C",
"p 	c #323234",
"q 	c #0A0A0C",
"r 	c #C2C2C4",
"s 	c #8E8E8C",
"t 	c #767274",
"u 	c #4E4E4C",
"v 	c #424244",
"w 	c #6A6A6C",
"x 	c #565254",
"y 	c #262624",
"z 	c #121214",
"A 	c #626264",
"B 	c #5A5654",
"C 	c #363234",
"D 	c #3E3A3C",
"E 	c #2E2E2C",
"F 	c #060204",
"G 	c #464644",
"H 	c #423E3C",
"I 	c #E2E2E4",
"J 	c #E6E6E4",
"K 	c #227E7C",
"L 	c #0E7674",
"M 	c #067274",
"N 	c #026E6C",
"O 	c #9EBABC",
"P 	c #CECECC",
"Q 	c #1E7E7C",
"R 	c #268284",
"S 	c #167A7C",
"T 	c #BADEDC",
"U 	c #96BABC",
"V 	c #9ABABC",
"W 	c #7EAEAC",
"X 	c #76AAAC",
"Y 	c #629E9C",
"Z 	c #529694",
"` 	c #469294",
" .	c #328A8C",
"..	c #8AB2B4",
"+.	c #86B2B4",
"@.	c #7AAAAC",
"#.	c #6EA6A4",
"$.	c #569A9C",
"%.	c #428E8C",
"&.	c #328684",
"*.	c #66A2A4",
"=.	c #4A9294",
"-.	c #2E8684",
";.	c #6AA2A4",
">.	c #5A9A9C",
",.	c #4E9694",
"'.	c #368A8C",
").	c #2A8284",
"!.	c #127674",
"~.	c #CED2D4",
"{.	c #9E9E9C",
"].	c #CACACC",
"^.	c #F6F6F4",
"/.	c #F2F2F4",
"(.	c #C6CAC4",
"_.	c #9ECA9C",
":.	c #A6CAA4",
"<.	c #E6FEE4",
"[.	c #02FE04",
"}.	c #3AEE3C",
"                                                                                                ",
"                                                                                                ",
"    . + + + + + + + + + + + + + + + + + + + + + + + + + + + + @                                 ",
"    + # $ $ $ $ $ $ $ $ $ $ $ $ $ $ $ $ $ $ $ $ $ $ $ $ $ % & *                                 ",
"    = $ - - - - - - - - - - - - - - - - - - - - - - - - - ; > ,                                 ",
"    = $ - ' . . . . . . . . . . . . . . . . . . . . . . ) + > ,                                 ",
"    + $ - ! ~ { { { { { { { { { { { { { { { { { { { ] ^ ; ; > ,                                 ",
"    = $ - . ] / ( _ ( / : < [ } | 1 2 3 4 { * 5 , 6 7 8 - + > ,                                 ",
"    + % - 9 ] ( 0 a 0 ( / 9 b c d 1 2 3 4 { * 5 , 6 e 8 - + > ,                                 ",
"    = $ - . { _ f g a _ / ! b } d h ~ i 4 { j 5 k 6 7 8 - ; > l                                 ",
"    = % - . { 0 ^ f 0 m / 9 b n | 1 2 i 4 { j 5 , 6 7 8 - ; > ,                                 ",
"    = $ - . ] o f _ ( m : > [ } d 1 2 3 4 p * @ , q e 8 r + > ,                                 ",
"    = % - . ] ' s s ' : 9 b t d | ~ u v 4 p * 5 , q e 8 - ; > k                                 ",
"    = $ = 9 { < ! 9 9 ! b t w d 1 x i v { p y k z q e 8 - + > ,                                 ",
"    = $ - . { [ b b [ [ t } d h ~ u 3 4 p j 5 k 6 7 e 8 - + > ,                                 ",
"    = $ - . ] n n c c w w | h 1 2 i v { p y @ , 6 e e 8 - ; b l 7 q q q q q 7 q q 7 7 7         ",
"    = $ - . { | | d d | A 1 B u i v 4 C j y k z q e e 8 r + > , 4 / / ! > > > > ! > > w e       ",
"    + % = ! ] 1 h 1 h 1 B x u i v D C E y @ , 6 F e e 8 - ; > , v m / / ! ! > > > ( > u e       ",
"    = $ - ! ] u x x 2 u u i 3 v 4 { E * @ , 6 q e e e 8 r ; > , v ^ m / ' ! > > > a u u e       ",
"    = $ - . ] i i i 3 i G H 4 { p E y @ k z q e e e e 8 - + > , v 0 ^ ( / ' . m a u u u e       ",
"    = $ r ; ) ^ ^ 0 ^ 0 0 ^ 0 0 0 0 0 0 0 0 0 ^ ^ ^ 0 = - + > , A $ $ % $ % - ! 2 2 u u e       ",
"    + % - r - r r r r - r r - - - - - - - - - r r r - r - ; > l h I J J J I 8 A ~ u 2 u e       ",
"    ; I + = = = + = = + = = = = = = = = = = + + = = + = = 8 > , i ; + + = = A h 1 2 u u e       ",
"    h > ! < > > ! > < ! < < > > > > > < > > ! ! > > ! > > > > , y 1 ~ ~ c - w d h 1 2 u e       ",
"    k 5 5 5 5 5 5 5 5 5 5 5 5 5 5 5 5 5 5 5 5 5 5 5 5 5 5 5 5 K L M N O P - w d h h ~ u e       ",
"          e e e                     q { k l Q Q Q Q Q Q Q Q Q R S M N T % = c w d h 1 ~ e       ",
"          e e e                     5 - - w U V U W X Y Z `  .R S M N T $ = c } d A 1 ~ e       ",
"        e e                         5 - - w W ..+.@.#.Y $.%.&.Q L N N T $ - b c } w A 1 e       ",
"        e e e                       5 - - w @.@.@.#.*.$.=.%.-.Q L N N T $ = b [ } w d h e       ",
"          e e e                     5 - - w Y ;.*.Y >.=.%.-.R S M N N T % - ! [ c } w A e       ",
"            e e                     5 - - w Z >.$.Z ,.`  .R S L M N N T $ = ! > [ c } d e       ",
"          e e                       5 - - w =.=.%.%.'.&.).K !.M N N N ~.$ - > > > c u e         ",
"        e e       e e e e k e e     5 r - {.^ 0 0 0 0 0 ^ 0 ^ ^ 0 0 ^ I $ - ! > ! b E           ",
"        e e     e ].^.^.I 4 e       5 - $ ^.# ^.^.^.^.^.# ^.# # ^.^.# # J = > > > 1 A ] e       ",
"        e e e e e 0 - 8 e           5 - - - r r - r - - r - - r - - - r r - > w h ! + } e       ",
"                e b m ' h , e             e c c [ c [ c c c [ c [ [ c c c c d b ! 8 ( ~ e       ",
"                  e e e e , e F         e | A A A A d A d A A A A d A A A A d > ( 8 ' i e       ",
"                                      q } . . . . . ! . ! . . . . ! . . . . ! a ; > > i e       ",
"                                    * J /././././.^./.^././././.^././././.$ - ^ ! > > i e       ",
"                                    y & & & & & & & & & & & & & & & & & & & a s ! > G e         ",
"                                    5 r ].P (._._.:.- - r = {.0 {.{.{.{.) - . > > d e           ",
"                                    5 - /.f <.[.[.}.- r - {.e e e e e e ] - ! > d e             ",
"                                    5 r (.].P _._.:.- - - = ^ {.{.{.{.{.) - . G e               ",
"                                    , c } c } c c c c c c } c c c c c } c } u e                 ",
"                                    e h h h h h h h h h h h h h h h h h h h e                   ",
"                                      e e e e e e e e e e e e e e e e e e e e                   ",
"                                                                                                ",
"                                                                                                "};
