/* XPM */
static char * mac_cdrom_xpm[] = {
"32 32 15 1",
" 	c None",
".	c #424242",
"+	c #BDBDBD",
"@	c #CECECE",
"#	c #DEDEDE",
"$	c #9C0063",
"%	c #FF63CE",
"&	c #CECEFF",
"*	c #9C639C",
"=	c #EFEFEF",
"-	c #FFFFCE",
";	c #FFFFFF",
">	c #9CFFFF",
",	c #9C9CFF",
"'	c #8C8C8C",
"            ........            ",
"         ...++++++++...         ",
"       ..+++@#$#%#%#+++..       ",
"      .++#&&&*#$#%#%#&#+=.      ",
"     .+-#&#&*#*#$#%@&##=#;.     ",
"    .#-#-#&#&*#$#%#%##=#;#;.    ",
"   .+-#-#-#&&#*#$#%#&=#;#;#;.   ",
"  .+>#-#-#-#&*#$#%@%##=#;#;#=.  ",
"  .+#>#-#-#-##*#$#%&&=#;#;#=+.  ",
" .+#>#>#-#-#-&#*#$#@=#;#=#=##+. ",
" .+>#>#>#-#-#=*#$#%-#;#=#=###+. ",
" .+,##>#>#-#-+++++@#;#=####&#+. ",
".+,@,#,##>#-+++++@#;#=####&#&#+.",
".+#,@,@,#,#+++'..';#@##&#,#,#,+.",
".+,#,#,@,@,++'.;;.'@+&,&,&,&,&+.",
".+#,#,#,#,#++.;;;;.++,#,#,#,#,+.",
".+,=,=,=,=,++.;;;;.++=,=,=,=,=+.",
".+@,@,@,@,@+@'.;;.'++,#,#,#,#,+.",
".+,#,#,@,@#@#;'..'+++&,&,&,&,&+.",
".+#,#,@#@#=#;#@+++++#&#&#,#,#,+.",
" .+#@####=#;#@+++++#-#>#&#&#,+. ",
" .+###=#=#;#=&#%#*#-#-#>#>#&#+. ",
" .+##=#=#;#=##%#$#*#-#-#>#>#>+. ",
"  .+=#;#;#=##%#%#$#&#-#-#>#>#.  ",
"  .=#;#;#=##&#%#$@*#&#-#-#>#>.  ",
"   .;#;#;#=##%#%#$#*#&#-#-#>.   ",
"    .;#;#=##&#%#$#*#&#&#-#+.    ",
"     .;#=##&#%#%#$@*#&#&#+.     ",
"      .=+###%#%#$#*#*#&++.      ",
"       ..+++#%#%#$#*+++..       ",
"         ...++++++++...         ",
"            ........            "};
