/* XPM */
static char * topright_xpm[] = {
"11 28 6 1",
" 	c None",
".	c #000000",
"+	c #FFFFFF",
"@	c #CECECE",
"#	c #9C9C9C",
"$	c #CDCDCD",
"           ",
"           ",
"           ",
".......... ",
"++++++++@. ",
"@@@@@@@@#..",
"@@@@@@@@#..",
"    $@@@#..",
"    $@@@#..",
"    @@@@#..",
"    @@@@#..",
"    @@@@#..",
"    @@@@#..",
"    @@@@#..",
"    @@@@#..",
"    @@@@#..",
"    @@@@#..",
"    @@@@#..",
"    @@@@#..",
"    @@@@#..",
"    @@@@#..",
"    @@@@#..",
"    @@@@#..",
"    @@@@#..",
"    @@@@#..",
"    @@@@#..",
"    @@@@#..",
"    $@@@#.."};
