/* XPM */
/* Drawn  by Nico Shirwing for the K Desktop Environment */
/* See http://www.kde.org */
static char*kscreensaver[]={
"32 32 11 1",
"# c #000000",
"d c #c0c0c0",
"a c #ffffff",
"e c #808080",
"f c #585858",
"i c #a0a0a4",
"g c #0000c0",
"c c #c0c000",
"b c #ffffc0",
"h c #ffa858",
". c None",
".............##############.....",
".############aaaaaaaaaaaaaa####.",
"#aaaaaaaaaa#aabbbbbbbbbbbbac#aa#",
"#addddddddd#abbbbbbbbb####bc#de#",
"#adffffffff#abbbbb###bbb##bc#de#",
"#adfggggggg#ab###bb##bb##bbc#de#",
"#adfggggggg#abb#bb##bb##bbbc#de#",
"#adfggggggg#ab###b###b####bc#de#",
"#adfggggggg#abbbbbbbbbbbbbcc#de#",
"#adfgggggggg#ccc#####cccccc#ade#",
"#adfggggggggg###aaaaa######gade#",
"#adfggggggggggg#abbbc#ggggggade#",
"#adfggggggggggg#ccccc#ggggggade#",
"#adfggggggggg########gggggggade#",
"#adfgggggggg#aaac#ggggggggggade#",
"#adfggggg####accc#ggggggggggade#",
"#adfgggg#aac#####gggggggggggade#",
"#adfgggg#acc#gggggggggggggggade#",
"#adfggggg###ggggggggggggggggade#",
"#adfggggggggggggggggggggggggade#",
"#adfaaaaaaaaaaaaaaaaaaaaaaaaade#",
"#adddddddddddddddddddddddddddde#",
"#adddddddddddddedededededahadde#",
"#adddddddddddddddddddddddddddde#",
"#eeeeeeeeeeeeeeeeeeeeeeeeeeeeee#",
".##############################.",
".........#feiddaaddief#.........",
".........#feiddaaddief#.........",
"......####################......",
".....#aaaaaaaaaaaaaaaaaaaa#.....",
".....#eeeeeeeeeeeeeeeeeeee#.....",
".....######################....."};

