/* XPM */
static char *kdelogo-new[] = {
/* width height num_colors chars_per_pixel */
"   100   100       64            1",
/* colors */
". c #2f3785",
"# c #343c89",
"a c #39428e",
"b c #404896",
"c c #434b99",
"d c #444c9a",
"e c #474f9d",
"f c #515aa0",
"g c #4c579d",
"h c #3f4d8d",
"i c #485491",
"j c #5e69a3",
"k c #6974a7",
"l c #505e9d",
"m c #7b86af",
"n c #55679c",
"o c #7180a8",
"p c #4d6294",
"q c #6374a0",
"r c #58709c",
"s c #516f97",
"t c #59779a",
"u c #607d9d",
"v c #879bb2",
"w c #64839f",
"x c #728ea5",
"y c #90a7bb",
"z c #386688",
"A c #3d6a8b",
"B c #3f6b8c",
"C c #497290",
"D c #4b7492",
"E c #4e7694",
"F c #507794",
"G c #527996",
"H c #567c99",
"I c #5a7f9b",
"J c #5a7e99",
"K c #6689a3",
"L c #6989a1",
"M c #7894aa",
"N c #809aad",
"O c #c0ced9",
"P c #d1dbe3",
"Q c #dce4ea",
"R c #e8edf1",
"S c #376688",
"T c #3b698a",
"U c #416d8d",
"V c #45708f",
"W c #467190",
"X c #4d7693",
"Y c #547b96",
"Z c #567c97",
"0 c #5d819b",
"1 c #60839c",
"2 c #65869e",
"3 c #7192aa",
"4 c #6d8da3",
"5 c #abbac4",
"6 c #f3f6f8",
"7 c #a2b3be",
"8 c #bac4ca",
"9 c #ffffff",
/* pixels */
"SSSSSSSSSSSSSSSSSSSSSSSSSSSSSSSSSSSSSSSSSSSSSSSSSSSSSSSSSSSSSSSSSSSSSSSSSSSSSSSSSSSSSSSSSSSSSSSSSSSS",
"zzzzzzzzzzzzzzzzzzzzzzzzzzzzzzzzzzzzzzzzzzzzzzzzzzzzzzzzzzzzzzzzzzzzzzzzzzzzzzzzzzzzzzzzzzzzzzzzzzzz",
"TTTTTTTTTTTTTTTTTTTTTTTTTTTTTTTTTTTTTTTTTTTTTTTTTTTTTTTTTTTTTTTTTTTTTTTTTTTTTTTTTTTTTTTTTTTTTTTTTTTT",
"TTTTTTTTTTTTTTTTTTTTTTTTTTTTTTTTTTTTTTTTTTTTTTTTTTTTTTTTTTTTTTTTTTTTTTTTTTTTTTTTTTTTTTTTTTTTTTTTTTTT",
"AAAAAAAAAAAAAAAAAAAAAAAAAAAAHAAAAAAAAAAAAAAAAAAAAAAAAAAAAAAAAACHAAAAAAAAAAAAAAAAAAAAAAAAAAAAAAAAAAAA",
"AAAA79vyQ3AADO9Q5BAAAAAAAAAN9AAAAAAAAAAAAAAAAADO9PR9DAAAAAAAAAyOBAAAAAAAAAAAAAAAAAAAAAAAAAAAAAAAAAAA",
"BBBB36ByKBBBB7PERyBBBBBBBBB3PBBBB3BBBBBBBBBBBBB7PBBPBBBBBBBBBBvOBBBBBBBBBBBBBBBBBBBBBBBBBBBBBBBB3BBB",
"BBBUyPHyUBBBUOOB7PUBBBBBBBUy8BBUy3BBBBBBBBBBBBUOOBBKBBBBBBBBBUUBBBBBBBBBBBBBBBBBBBBBBBBBBBBBBBUE8BBB",
"UUUU555BUUUUUQ7UN9UU38Ky85V55yy36yUK83E5yONUUUUQ7I3UNOEOEI7U7I5yI5yIUK83E5yyyVy5KOU53UUy8I5yyyEOQIUU",
"UVUVPQOUUVUVU93U39UK577RWOUP3NK76M0PVRVPO5OVVUV9yO0V3P76339VP3P3yP63IPVRVPvQPV55P93R7Vy3P3PvQPIROVUV",
"VVVV6PQVVVVVK90V59VPEPN9yKVRINV3PVOyV9V6I3PVVVK956VVyOy6KV9V5KRI7R8FOyV9VR57OVOOy6yO5GPV9GR57OVP3VVV",
"WWWW9y9WWWWWN9WW5P0PKPWPRWW9y5W58W6449G9WMPWWWN9WNWW5QG9WWQKyG9W7OWW6449W9v55WP8360Q3y5y5W9v55W9GWWW",
"CCCM919MCCCC5PCCR7yP5GCM9yMPQ5DOyK9WyPMPC55WCC5PCHWGPyMQCCPMy3PCPyC49WyPM6WPvW935OD9YOOyWM6WPv06CCCC",
"CCCyPC6yCCCCOOCM6G55CC4CP5yP8P0QMMPCOy7OCOKCCCOOCC70R27OCCPOG7OGR3CMPCOyyOC611RCO7KRCPMCCyOC61vPCCCC",
"CDC8PCPOCCCWQ81QyW7OH7OH5y555R49y3PCRH552PDCCCQ5C79D9W78vDPND7OM9CD4PCRH55C9yMPCPMMP7O71y55C9y58vCCC",
"DDKOO1POHDDMPPOMDD16R358OG83KPDRyDP84DPOOwDDDMPPPP84OD7QDD5DD7P4ODDDP84D5MD6vy7DPH36wv9PI5MD6vyQHDDD",
"XXXEXXDXEXXEEEEEEXEEXDEEEEDEEEEXXXEDEXR3EEEXXEEEEEDDDXDEXEEDEDDEDXXXEDEXEEEXXXDEXDDEXXXEDEEXEXXDXXXX",
"EEEEEEEEEEEEEXEEEEEEEEEEEEEEEEXEEEEEEE9XEEEEEEEEEEEEEEEXEEEEEEEXEEEEEEEEEEEEXEEXEEEEXEEXEEXEEEEXEEEE",
"FFFFFFFFFFFFFFFFFFFFFFFFFFFFFFFFFFFFFv9IFFFFFFFFFFFFFFFFFFFFFFFFFFFFFFFFFFFFFFFFFFFFFFFFFFFFFFFFFFFF",
"GGGGGGGGGGGGGGGGGGGGGGGGGGGGGGGGGGGGG3NKGGGGGGGGGGGGGGGGGGGGGGGGGGGGGGGGGGGGGGGGGGGGGGGGGGGGGGGGGGGG",
"GGGGGGGGGGGGGGGFssssssssGGGGGGGGGGGGGYYGGGGGGGGGGGGGGGGGGGGGGGGGGGGGGGGGGGGGGGGGGGGGGGGGGGGGGGGGGGGG",
"YYYYYYYYYYYYYYYeeecbbeeepYYYYYYYYYYYYYYYYYYYYYYYYYYYYYYYYYYYYYYYYYYYYYYYYYYYYYYYYYYYYYYYYYYYYYYYYYYY",
"YYYYYYYYYYYYYYYeee#..beegYYYYYYYYYYYYYYYYYYYYYYYYYYYYYYYYYYYYYYYYYYYYYYYYYYYYYYYYYYYYYYYYYYYYYYYYYYY",
"HGZZZZZZZZZZZZZeeea..deegZZZZZZZZZZZZZGZZZZZZZZZZZZZZZZZZZZZZZZZZZZZZZZZZZZZZZZZZZZZZphsZZZZZZZZZZZZ",
"eesJHJHJHJHJHJHeeeb..eeegJJHJHJHJHJHJlegsHHJHJHJHJHJHJHJHJHJHJHJHJHJHJHJHJHJHJHJHJHJp...sJHJHJHJHJHJ",
"eegJJJJJJJJJJJJeeeb.#eeelJJJJJJJJJJJHeeeeelHJJJJJJJJJJJJJJJJJJJJJJJJJJJJJJJJJJJJJJJi....aZJJJJJJJJJJ",
"eeeHJJJJJJJJJJJeeee.aeeegIJJJJJJJJJJneee#abelrJJJJJJJJJJJJJJJJJJJJJJJJJJJJJJJJJJJ0h..#...aJJJJJJJJJJ",
"eeen00000000000eeee.aeeel00000000000geee...deet0000000000000000000000000000000000h..cb....h0000000p#",
"eeee00000000000eeee#beeel0000000000reeeb..aeeet000000000000000000000000000000000h.#ceea....p0000p#..",
"eeeer1111111111eeeeaceeeg1111111111leeea.#eeee111111111111111111111111111111111s...aeee.....s0ta....",
"beeel1111111111eeeeaeeeel111111111ueeee#.beeen1111111111111111111111111111111111#...aeeb....#h......",
"aeeeeu1112ttnlleeeeeeeeeelnnt11111reeee.aeeeeu1111111111111111111111111111111111t#...#ee#...........",
"#eeeenurleeeeeeeeeeeeeeeeeeeeegnr1geeec.deeel122222222222222222222222222222222222s.....cb...........",
"#eeeeeeeeeeeeeeeeeeeeeeeeeeeeeeeeeeeeebaeeeer2222222222222222222222222222222222222p.....ba..........",
"bceeeeeeeeeeeeeeeeeeeeeeeeeeeeeeeeeeeeaeeeeeL22222222222222222222222222222222222222i.....a..........",
"eeeeeeeeeeeeeeeeeeeeeeeeeeeeeeeeeeeeeeeeeeenLLLLLLLLLLLLLuwLLLLLLLLLLLLLLLLLLLLLLLLLa...............",
"eeeeeeeeeeeeeeeeeeeeeeeeeeeeeeeeeeeeeeeeeeeuLLLLLLLLLLLLneeuLLLLLLLLLLLLLLLLLLLLLLLL2#..............",
"eeeeeeeeeeeeeeeeeeeeeeeeeeeeeeeeeeeeeeeeeeelwLLLLLLLLLLreeeguLLLLLLLLLLLLLLLLLLLLLLLLs..............",
"eeeeeeeeeeeeeeeeeeeeeeeeeeeeeeeeeeeeeeeeeeeegr4444444Lqeeeebgw44444444444444444444L42#..............",
"eeeeeeeeeeeeeeeeeeeeeeeeeeeeeeeeeeeeeeeeeeeeeegwL44L4qeeeea.bewL4L4L4L4L4L4L4L4L4444h...............",
"eeeeeeeeeeeeeeeeeeeeeeeeeeeeeeeeeeeeeeeeeeeeeeeeq444qeeeec...bf4444x444x444x444x444p................",
"eeeeeeeeeeeeeeeeeeeeeeeeeeeeeeeeeeeeeeeeeeeeeeeeenxqeeeee#..aeefxxx4xxx4xxx4xxx4x4w.................",
"eeeeeeeeeeeeeeeeeeeeeeeeeeeeeeeeeeeeeeeeeeeeeeeeeefeeeeea..beeeeLxxxxxxuwxxxxxxxxxh.................",
"eeeeeeeeeeeeeeeeeeeeeeeeeeeeeeeeeeeeeeeeeeeeeeeeeeeeeeec.#ceeeenxxxxxxr..#pwxxxxxu..................",
"eeeeeeeeeeeeeeeeeeeeeeeeeeeeeeeeeeeeeeeeeeeeeeeeeeeeeee#aeeeeefxMxMxxMi.....hnLxMa..................",
"eeeeeeeeeeeeeeeeeeeeeeeeeeeeeeeeeeeeeeeeeeeeeeeeeeeeeeabeeeeefxMxMxMMx#........hi...................",
"eeeeeeeeeeeeeeeeeeeeeeeeeeeeeeeeeeeeeeeeeeeeeeeeeeeeeedeeeeelxxMMxMMxu.aa...........................",
"eeeeeeeeeeeeeeeeeeeeeeeeeeeeeeeeeeeeeeeeeeeeeeeeeeeeeeeeeeefxMMMMMMMMi.ceb#.........................",
"eeeeeeeeeeeeeeeeeeeeeeeeeeeeeeeeeeeeeeeeeeeeeeeeeeeeeeeeeefMMMMMMMMMM##eeeeb#.......................",
"eeeeeeeeeeeeeeeeeeeeeeeeeeeeeeeeeeeeeeeeeeeeeeeeeeeeeeeeegxMMMMMMMMMu.#acdeeea#.....................",
"eeeeeeeeeeeeeeeeeeeeeeeeeeeeeeeeeeeeeeeeeeeeeeeeeeeeeeeeeeoMNMNMNMNNi......#aab#....................",
"eeeeeeeeeeeeeeeeeeeeeeeeeeeeeeeeeeeeeeeeeeeeeeeeeeeeeeeeeegMNNNNNNNMp...............................",
"eeeeeeeeeeeeeeeeeeeeeeeeeeeeeeeeeeeeeeeeeeeeeeeeeeeeeeeeeeenNNNNNNNNMpa.............................",
"eeeeeeeeeeeeeeeeeeeeeeeeeeeeeeeeeeeeeeeeeeeeeeeeeeeeeeeeeeeeoNNNNNNNNNNqp#..........................",
"eeeeeeeeeeeeeeeeeeeeeeeeeeeeeeeeeeeeeeeeeeeeeeeeeeeeeeeeeeeegNNNNNNNNNokNNqi........................",
"eeeeeeeeeeeeeeeeeeeeeeeeeeeeeeeeeeeeeeeeeeeeeeeeeeeeeeeeeeeeeqNNNNNNofeejNNNMi......................",
"eeeeeeeeeeeeeeeeeeeeeeeeeeeeeeeeeeeeeeeeeeeeeeeeeeeeeeeeeeeeeeMvNNqeeeeeeMvvvi......................",
"eeeeeeeeeeeeeeeeeeeeeeeeeeeeeeeeeeeeeeeeeeeeeeeeeeeeeeeeeeeeeenxjeeeeeeedoNvNa......................",
"eeeeeeeeeeeeeeeeeeeeeeeeeeeeeeeeeeeeeeeeeeeeeeeeeeeeeeeeeeeeeeeeeeeeeec#alvvv.......................",
"eeeeeeeeeeeeeeeeeeeeeeeeeeeeeeeeeeeeeeeeeeeeeeeeeeeeeeeeeeeeeeeeeeeeea...dMvN.......................",
"eeeeeeeeeeeeeeeeeeeeeeeeeeeeeeeeeeeeeeeeeeeeeeeeeeeeeeeeeeeeeeeeeeeb#....bjvx.......................",
"eeeeeeeeeeeeeeeeeeeeeeeeeeeeeeeeeeeeeeeeeeeeeeeeeeeeeeeeeeeeeeeeeea..#aceeevx.......................",
"eeeeeeeeeeeeeeeeeeeeeeeeeeeeeeeeeeeeeeeeeeeeeeeeeeeeeeeeeeeeeeeedaabeeeeeeeoo.......................",
"eeeeeeeeeeeeeeeeeeeeeeeeeeeeeeeeeeeeeeeeeeeeeeeeeeeeeeeeeeeeeeeeeeeeeeeeeeeNx.......................",
"eeeeeeeeeeeeeeeeeeeeeeeeeeeeeeeeeeeeeeeeeeeeeeeeeeeeeeeeeeeeeeeeeeeeeeeegkvym.......................",
"eeeeeeeeeeeeeeeeeeeeeeeeeeeeeeeeeeeeeeeeeeeeeeeeeeeeeeeeeeeeeeeeeeeeeefovvmri.......................",
"eeeeeeeeeeeeeeeeeeeeeeeeeeeeeeeeeeeeeeeeeeeeeeeeeeeeeeeeeeeeeeeeeeeejqqnh...........................",
"eeeeeeeeeeeeeeeeeeeeeeeeeeeeeeeeeeeeeeeeeeeeeeeeeeeeeeeeeeeeeeeeeefq................................",
"eeeeeeeeeeeeeeeeeeeeeeeeeeeeeeeeeeeeeeeeeeeeeeeeeeeeeeeeeeeeeeeeeegi................................",
"eeeeeeeeeeeeeeeeeeeeeeeeeeeeeeeeeeeeeeeeeeeeeeeeeeeeeeeeeeeeeeeeeeei................................",
"eeeeeeeeeeeeeeeeeeeeeeeeeeeeeeeeeeeeeeeeeeeeeeeeeeeeeeeeeeeeeeeeeeeb.bbbbbbceb......................",
"eeeeeeeeeeeeeeeeeeeeeeeeeeeeeeeeeeeeeeeeeeeeeeeeeeeeeeeeeeeeeeeeeeed.beeeeca........................",
"eeeeeeeeeeeeeeeeeeeeeeeeeeeeeeeeeeeeeeeeeeeeeeeeeeeeeeeeeeeeeeeeeeef.aeeb#..........................",
"eeeeeeeeeeeeeeeeeeeeeeeeeeeeeeeeeeeeeeeeeeeeeeeeeeeeeeeeeeeeeeeeeeeea#a.............................",
"eeeeeeeeeeeeeeeeeegjjeeeeeeeeeeeeeeeeeeeeeeeeeeeeeeeeeeeeeeeeeeeeeeeh...............................",
"eeeeeeeeeeeeeeeekv7777mfeeeeeeeeeeeeeeeeeeeeeeeeeeeeeeeeeeeeeeeeeeeel.......ijq.....................",
"eeeeeeeeeeeeeeem7777777ykeeeeeeeeeeeeeeeeeeeeeeeeeeeeeeeeeeeeeeeeeeen..hnoN7777a....................",
"eeeeeeeeeeeeeem7777777777keeeeeeeeeeeeeeeeeeeeeeeeeeeeeeeeeeeeeeeeeefjjjjjjjjk7q....................",
"eeeeeeeeeeeeek777777777777geeeeeeeeeeeeeeeeeeeeeeeeeeeeeeeeeeeeeeeeeeeeeeeeeeemy....................",
"eeeeeeeeeeeeey777777777777keeeeeeeeeeeeeeeeeeeeeeeeeeeeeeeeeeeeeeeeeeeeeeeeeeem7l...................",
"eeeeeeeeeeeef7777777777777veeeeeeeeeeeeeeeeeeeeeeeeeeeeeeeeeeeeeeeeeeeeeeeeeceo7v...................",
"eeeeeeeeeeeej57575757575757eeeeeeeeeeeeeeeeeeeeeeeeeeeeeeeeeeeeeeeeeeedbaa#..cm77i..................",
"eeeeeeeeeeeej75757575757575eeeeeeeeeeeeeeeeeeeeeeeeeeeeeeeeeeeeeeeeec##......bm55y..................",
"eeeeeeeeeeeej57557557557557eeeeeeeeeeeeeeeeeeeeeeeeeeeeeeeeeeeeeeeeeeeeebba#.bm757q.................",
"eeeeeeeeeeeeg5557555557555veeeeeeeeeeeeeeeeeeeeeeeeeeeeeeeeeeeeeeeeeeeeeeeeeeem555q.................",
"eeeeeeeeeeeeev555555555555keeeeeeeeeeeeeeeeeeeeeeeeeeeeeeeeeeeeeeeeeeeeeeeeeeem55n..................",
"eeeeeeeeeeeeef55555555555yeeeeeeeeeeeeeeeeeeeeeeeeeeeeeeeeeeeeeeeeeeeeeeeeeeeev5j...................",
"eeeeeeeeeeeeeeo5555555555geeeeeeeeeeeeeeeeeeeeeeeeeeeeeeeeeeeeeeeeeejmmmmmmmmv7n......#.............",
"eeeeeeeeeeeeeeek5585858ygeeeeeeeeeeeeeeeeeeeeeeeeeeeeeeeeeeeeeeeeeeev555555555i.....ab..............",
"eeeeeeeeeeeeeeeegmy57vkeeeeeeeeeeeeeeeeeeeeeeeeeeeeeeeeeeeeeeeeeeeeey85885887i....#be#..............",
"eeeeeeeeeeeeeeeeeeeeeeeeeeeeeeeeeeeeeeeeeeeeeeeeeeeeeeeeeeeeeeeeeeee75855855i....aeea...............",
"eeeeeeeeeeeeeeeeeeeeeeeeeeeeeeeeeeeeeeeeeeeeeeeeeeeeeeeeeeeeeeeeeeee88588588...#beeb................",
"eeeeeeeeeeeeeeeeeeeeeeeeeeeeeeeeeeeeeeeeeeeeeeeeeeeeeeeeeeeeeeeeeeej85885885j.#deec.....ny#.........",
"eeeeeeeeeeeeeeeeeeeeeeeeeeeeeeeeeeeeeeeeeeeeeeeeeeeeeeeeeeeeeeeeeeem888888888i.bee.....j887i........",
"eeeeeeeeeeeeeeeeeeeeeeeeeeeeeeeeeeeeeeeeeeeeeeeeeeeeeeeeeeeeeeeeeeev8888888885h.b#....j88885k.......",
"eeeeeeeeeeeeeeeeeeeeeeeeeeeeeeeeeeeeeeeeeeeeeeeeeeeeeeeeeeeeeeeeeee588888888887a.....o8888888vh.....",
"eeeeeeeeeeeeeeeeeeeeeeeeeeeeeeeeeeeeeeeeeeeeeeeeeeeeeeeeeeeeeeeeeef888888888888v....v8888888885k....",
"eeeeeeeeeeeeeeeeeeeeeeeeeeeeeeeeeeeeeeeeeeeeeeeeeeeeeeeeeeeeeeeeeefv888888888888m..v8888888888885...",
"eeeeeeeeeeeeeeeeeeeeeeeeeeeeeeeeeeeeeeeeeeeeeeeeeeeeeeeeeeeeeeeeeeeefm588888888887588888888888887...",
"eeeeeeeeeeeeeeeeeeeeeeeeeeeeeeeeeeeeeeeeeeeeeeeeeeeeeeeeeeeeeeeeeeeeeeem788888888888888888888888k..."
};
