/* XPM */
static char *magick[] = {
/* columns rows colors chars-per-pixel */
"32 32 4 1",
"  c #000000",
". c #0000be",
"X c #ffffff",
"o c None",
/* pixels */
"oooooooooooooooooooooooooooooooo",
"oooooooooooo........oooooooooooo",
"ooooooooo..............ooooooooo",
"oooooooo................oooooooo",
"oooooo.........XXXX.......oooooo",
"ooooo..........XXXX........ooooo",
"oooo...........XXXX.........oooo",
"oooo...........XXXX.........oooo",
"ooo..........................ooo",
"oo............................oo",
"oo.........XXXXXXXX...........oo",
"oo.........XXXXXXXX...........oo",
"o..........XXXXXXXX............o",
"o..............XXXX............o",
"o..............XXXX............o",
"o..............XXXX............o",
"o..............XXXX............o",
"o..............XXXX............o",
"o..............XXXX............o",
"o..............XXXX............o",
"oo.............XXXX...........oo",
"oo.............XXXX...........oo",
"oo.............XXXX...........oo",
"ooo............XXXX..........ooo",
"oooo...........XXXX.........oooo",
"oooo.......XXXXXXXXXXX......oooo",
"ooooo......XXXXXXXXXXX.....ooooo",
"oooooo.....XXXXXXXXXXX....oooooo",
"oooooooo................oooooooo",
"ooooooooo..............ooooooooo",
"oooooooooooo........oooooooooooo",
"oooooooooooooooooooooooooooooooo"
};
