/* XPM */
static char * Network_xpm[] = {
"32 32 12 1",
"A	c #A699A289A699",
"       c None",
".	c #000000000000",
"X	c #C71BC30BC71B",
"o	c #861782078617",
"O	c #FFFFFFFFFFFF",
"+	c #596559655965",
"@	c #861700000000",
"#	c #000082078617",
"$	c #000000008617",
"%	c #C71B00000000",
"&	c #0000FFFF0000",
"                 ...............",
"                .AAAAAAAAAAAAAX.",
"               .AAAAAAAAAAAAAXo.",
"              .OOOOOOOOOOOOOXoo.",
"             .XXXXXXXXXXXXXXooo.",
"             .X++++++++++++Xooo.",
"             .X+@@@@@@@@@@OXooo.",
"             .X+@@@@@@@@@@OXooo.",
"             .X+@@@@@@@@@@OXooo.",
"             .X+@@@@@@@@@@OXooo.",
"             .X+@@@@@@@@@@OXooo.",
"    ...............@@@@@@@OXooo.",
"   .AAAAAAAAAAAAAX.OOOOOOOOXoo. ",
"  .AAAAAAAAAAAAAXo.XXXXXXXXXo+. ",
" .OOOOOOOOOOOOOXoo.++++++++++oX.",
".XXXXXXXXXXXXXXooo.ooooooooooXo.",
".X++++++++++++Xooo.OOOOOOOOOXoo.",
".X+##########OXooo.XXXXXXXXXooo.",
".X+##########OXooo.XXX     Xoo. ",
".X+##########OXooo.XXXXXXXXXo.  ",
".X+##########OXooo............  ",
".X+##########OXooo.        $    ",
".X+##########OXooo.       $$    ",
".XOOOOOOOOOOOOXoo.        $     ",
".XXXXXXXXXXXXXXo+.       $$     ",
" .++++++++++++++oX.      $      ",
" .ooooooooooooooXo.     $$      ",
".OOOOOOOOOOOOOOXoo.     $       ",
".XXXXXXXXXXXXXXooo.$$$$$$       ",
".X%%&&XXX     Xoo.              ",
".XXXXXXXXXXXXXXo.               ",
" ...............                "};
