/* XPM */
static char * bottomright_xpm[] = {
"33 38 79 1",
" 	c None",
".	c #000000",
"+	c #212121",
"@	c #727272",
"#	c #676767",
"$	c #E9E9E9",
"%	c #313131",
"&	c #444444",
"*	c #0D0D0D",
"=	c #595959",
"-	c #484848",
";	c #6E6E6E",
">	c #5C5C5C",
",	c #D3D3D3",
"'	c #5F5F5F",
")	c #828282",
"!	c #959595",
"~	c #747474",
"{	c #A2A2A2",
"]	c #A5A5A5",
"^	c #848484",
"/	c #AEAEAE",
"(	c #5D5D5D",
"_	c #393939",
":	c #979797",
"<	c #A0A0A0",
"[	c #C4C4C4",
"}	c #8E8E8E",
"|	c #232323",
"1	c #9F9F9F",
"2	c #EAEAEA",
"3	c #FFFFFF",
"4	c #EDEDED",
"5	c #575757",
"6	c #BBBBBB",
"7	c #1F1F1F",
"8	c #707070",
"9	c #060606",
"0	c #B3B3B3",
"a	c #C9C9C9",
"b	c #DADADA",
"c	c #797979",
"d	c #DBDBDB",
"e	c #DEDEDE",
"f	c #909090",
"g	c #7C7C7C",
"h	c #515151",
"i	c #131313",
"j	c #CACACA",
"k	c #989898",
"l	c #898989",
"m	c #BEBEBE",
"n	c #141414",
"o	c #D6D6D6",
"p	c #B2B2B2",
"q	c #202020",
"r	c #7A7A7A",
"s	c #C8C8C8",
"t	c #494949",
"u	c #CBCBCB",
"v	c #B6B6B6",
"w	c #ADADAD",
"x	c #BABABA",
"y	c #5E5E5E",
"z	c #DFDFDF",
"A	c #F4F4F4",
"B	c #353535",
"C	c #656565",
"D	c #F1F1F1",
"E	c #464646",
"F	c #454545",
"G	c #111111",
"H	c #D1D1D1",
"I	c #8C8C8C",
"J	c #636363",
"K	c #9B9B9B",
"L	c #8A8A8A",
"M	c #222222",
"N	c #4B4B4B",
"                .+@#$#@+.        ",
"                .+@#$#@+.        ",
"                .+@#$#@+.        ",
"                .+@#$#@+.        ",
"                .+@#$#@+.        ",
"                .+@#$#@+.        ",
"                .+@#$#@+.        ",
"                .+@#$#@+.        ",
"                .+@#$#@+.        ",
"                .%@#$#@+.        ",
"                .%@#$#@+.        ",
"                .%@#$#@+.        ",
"                .&@#$#@+.        ",
"                *=@#$#@+.        ",
"                -;>#,'>%.        ",
"                )!>~,>>%.        ",
"                {]@^/(_&.        ",
"                :!<[!}|).        ",
"                1=2343567        ",
"                89]03abc8        ",
"                *de3fg-.{        ",
"..........**..h.ij^,kl)-h        ",
"..............mn_34opbqr.        ",
",,,,,,,,,,,,s5tfuc[>l=)..        ",
"vvvvvvvvvvvv}(d<33wxy..y         ",
"$$$$$$$$$$$$,!433zA{B|;C         ",
"vvvvvvvvvvvvz3DEAF9*h;G          ",
",,,,,,,,,,,bbHIn;J(.r.           ",
".............7-KL.M~.            ",
"............**MN)~.              ",
"                                 ",
"                                 ",
"                                 ",
"                                 ",
"                                 ",
"                                 ",
"                                 ",
"                                 "};
