/* XPM */
static char * right_xpm[] = {
"16 24 6 1",
" 	c None",
".	c #212121",
"+	c #727272",
"@	c #676767",
"#	c #E9E9E9",
"$	c #000000",
".+@#@+.$        ",
".+@#@+.$        ",
".+@#@+.$        ",
".+@#@+.$        ",
".+@#@+.$        ",
".+@#@+.$        ",
".+@#@+.$        ",
".+@#@+.$        ",
".+@#@+.$        ",
".+@#@+.$        ",
".+@#@+.$        ",
".+@#@+.$        ",
".+@#@+.$        ",
".+@#@+.$        ",
".+@#@+.$        ",
".+@#@+.$        ",
".+@#@+.$        ",
".+@#@+.$        ",
".+@#@+.$        ",
".+@#@+.$        ",
".+@#@+.$        ",
".+@#@+.$        ",
".+@#@+.$        ",
".+@#@+.$        "};
