/* XPM */
static char *magick[] = {
/* columns rows colors chars-per-pixel */
"32 32 11 1",
"  c #000000",
". c #003c00",
"X c #000080",
"o c #0000be",
"O c #0000ff",
"+ c #008000",
"@ c #00be00",
"# c #808080",
"$ c #c0c0c0",
"% c #ffffff",
"& c None",
/* pixels */
"&&&&&&&&&&&&&&&&&&&&&&&&&&&&&&&&",
"&&&&&&&&&&&&&&  &&&&&&&&&&&&&&&&",
"&&&&&&&&&&&&& OO  &&&&&&&&&&&&&&",
"&&&&&&&&&&&& OOooo  &&&&&&&&&&&&",
"&&&&&&&&&&& OOooo $$  &&&&&&&&&&",
"&&&&&&&&&& OOooo $$$$$  &&&&&&&&",
"&&&&&&&&& OOooo $$$$$ $$  &&&&&&",
"&&&&&&&& OOooo $$$$$ Oo$$   &&&&",
"&&&&&&& OOooo $$$$$ Oo$$ ooo  &&",
"&&&&&& OOooooo  $$ Oo$$ oooooo &",
"&&&&& OOoooooooo  $$$$ ooooooX &",
"&&&& OOooooooooooo  $ ooooooXX &",
"&&& OOooo  ooooooooo ooooooXX &&",
"&& OOooo %%  oooooooooooooXX &&&",
"& OOooo %%%%%  ooooooooooXX &&&&",
" OOooo %%%%%%%%  oooooooXX &&&&&",
" Xooo %%%%%%%%%%%  ooooXX &&&&&&",
" XXX #%%%%%%%%%%%% oooXX &&&&&&&",
"  XXXX##%%%%%%%%% oooXX &&&&&&&&",
"&&  XXXX##%%%%%% oooXX &&&&&&&&&",
"&&&&  XXXX##%%% oooXX &&&&&&&&&&",
"&&&&&&  XXXX## oooXX &&&&&&&&&&&",
"&&&&&&&&  XXXXoooXX &&&&&&&&&&&&",
"&&&&&&&&&&  XXXXXX &&&&&&&&&&&&&",
"&&&&&&&&&&&&  XXX &&&&&&&&&&&&&&",
"&&&&&&&&&&&&&&   &&&&&&         ",
"&&&&&&&&&&&&&&&&&&&&&&& ......@ ",
"&&&&&&&&&&&&&&&&&&&&&&& .+++++@ ",
"&&&&&&&&&&&&&&&&&&&&&&& .+++++@ ",
"&&&&&&&&&&&&&&&&&&&&&&& .+++++@ ",
"&&&&&&&&&&&&&&&&&&&&&&& .@@@@@@ ",
"&&&&&&&&&&&&&&&&&&&&&&&         "
};
