/* XPM */
static char*floppy_unmount[]={
"32 32 10 1",
"h c #808080",
"g c #a0a0a4",
"f c #c0c0c0",
"b c #000080",
"# c #000000",
"e c #0000c0",
"a c #0000ff",
". c None",
"c c #ffffff",
"d c #00c0c0",
"................................",
"..............##................",
".............#aa##..............",
"............#aabcb##............",
"...........#aabccccb##..........",
"..........#aabcccccccb##........",
".........#aabccccccccccb##......",
"........#aabcccccccccccccbb#....",
".......#aabccccccccccccccccb##..",
"......#aaabbcccccccccccccccba##.",
".....#aaaaaabbccccccccccccbaada#",
"....#aaabaaaaabbcccccccccbaadae#",
"...#aaabfbbaaaaabbccccccbaadae#.",
"..#aaabffffbbaaaaabbcccbaadae#..",
".#aaabffbagffbbaaaaabbbaadae#...",
"#adabffbaafffffbbaaaaaaadae#....",
"#eabcchaafgfgfg#abbaaaadae#.....",
"#eebffcfhgfhfh#aaaabbadae#......",
".##bhffccghgh#aaaaabadae#.......",
"...##hhggcch#aaaaabadae#........",
".....##hhgg#aaaaabadae#.........",
".......##hh#ddaabadae#..........",
".........###aadbadae#...........",
"...........##eebdae#............",
".............##bae#.............",
"...............###..............",
"................................",
"................................",
"................................",
"................................",
"................................",
"................................"};
