/* XPM */
/* Drawn  by Mark Donohoe for the K Desktop Environment */
/* See http://www.kde.org */
static char*c_src[]={
"32 32 14 1",
"# c #000000",
"a c #ffffff",
"j c #808080",
"g c #c0c0c0",
"h c #000080",
"f c #a0a0a4",
"i c #585858",
"k c #0000c0",
"d c #404000",
"l c #808000",
"b c #c0c000",
"c c #ffffc0",
"e c #ffdca8",
". c None",
"................................",
"................................",
"................................",
"................................",
"................................",
"................................",
".................##.............",
"................#aa##...........",
"...............#aaaaa##.........",
"..............#aaaaaaaa##.......",
".............#aaabbaaaaaa##.....",
"............#aaaaaabbaaaaaa##...",
"...........#aaabbaaaabbaaaaaa##.",
"..........#aaaaaabbaaaaaaaaaaa#.",
".........#caabbaaaabbaaaaaaaad#.",
"........#aaaccaaaaaaabbaaaaadb#.",
".......#aacefgfgcaaaaaaaaaadb#..",
"......#accghhhhifaaaaaaaaadb#...",
".....#ccafihhjjkhjcacaaaadb#....",
"....#ccccjhhccafhkcaaaaadb#.....",
"...#cccccfhhgabcffcaaacdb#......",
"..#lccccccihhihgccaacadb#.......",
"..#bllcccccbiiibaaccadb#........",
"..##bbllccccccbcccaadb#.........",
"....##bbllcccccccccdb#..........",
"......##bbllccccccdb#...........",
"........##bbllcccdb#............",
"..........##bblldb#.............",
"............##bbb#..............",
"..............###...............",
"................................",
"................................"};

