/* XPM */
/* Drawn  by Mark Donohoe for the K Desktop Environment */
/* See http://www.kde.org */
static char*c_src[]={
"32 32 15 1",
"# c #000000",
"a c #ffffff",
"k c #808080",
"h c #c0c0c0",
"i c #000080",
"g c #a0a0a4",
"j c #585858",
"l c #0000c0",
"d c #404000",
"m c #808000",
"b c #c0c000",
"e c #ffff00",
"c c #ffffbe",
"f c #ffdca8",
". c None",
"................................",
"................................",
"................................",
"................................",
"................................",
"................................",
".................##.............",
"................#aa##...........",
"...............#aaaaa##.........",
"..............#aaaaaaaa##.......",
".............#aaabbaaaaaa##.....",
"............#ccaaccbbaaaaaa##...",
"...........#cacbbaaccbbcaaaaa##.",
"..........#caccccbbaaacaaaaaaa#.",
".........#cccbbccccbbaaccaacad#.",
"........#cccccaacccccbbcaccadb#.",
".......#ccefghghcaaaccaccaadb#..",
"......#ceehiiiijgccaaaaccadb#...",
".....#eecgjiikklikcccccccdb#....",
"....#eecekiieecgilccccccdb#.....",
"...#eeeeegiihcbeggeccccdb#......",
"..#meeeeeejiijiheeccecdb#.......",
"..#bmmeeeeebjjjbcceecdb#........",
"..##bbmmeeeeeebceeccdb#.........",
"....##bbmmeeeeeeecedb#..........",
"......##bbmmeeeeeedb#...........",
"........##bbmmeeedb#............",
"..........##bbmmdb#.............",
"............##bbb#..............",
"..............###...............",
"................................",
"................................"};

