/* XPM */
static char * cdwriter_unmount_xpm[] = {
"32 32 224 2",
"  	c None",
". 	c #0A0204",
"+ 	c #020204",
"@ 	c #7A262C",
"# 	c #829E9C",
"$ 	c #2D1E1C",
"% 	c #12C6C4",
"& 	c #622224",
"* 	c #BA161C",
"= 	c #09C2C4",
"- 	c #FE2224",
"; 	c #EA4A44",
"> 	c #656464",
", 	c #CE0A0C",
"' 	c #D25810",
") 	c #562634",
"! 	c #E62224",
"~ 	c #02BEBC",
"{ 	c #7E221C",
"] 	c #FE422C",
"^ 	c #D2322C",
"/ 	c #FAB214",
"( 	c #DA3E0C",
"_ 	c #FE5A14",
": 	c #DE6A14",
"< 	c #923624",
"[ 	c #EA4A0C",
"} 	c #7E7E7C",
"| 	c #BE4A0C",
"1 	c #FA2A0C",
"2 	c #FE8214",
"3 	c #FA4A2C",
"4 	c #F8B43C",
"5 	c #F6664C",
"6 	c #FA6A10",
"7 	c #EC780C",
"8 	c #A23E1C",
"9 	c #424244",
"0 	c #FA8E1C",
"a 	c #F23E0C",
"b 	c #FE920C",
"c 	c #EE822C",
"d 	c #E99B54",
"e 	c #D65A44",
"f 	c #F69A24",
"g 	c #F8CC18",
"h 	c #E25E1C",
"i 	c #DA7624",
"j 	c #222223",
"k 	c #CE1A04",
"l 	c #FEA20C",
"m 	c #7A3A04",
"n 	c #F67E24",
"o 	c #CE862C",
"p 	c #BE8A1C",
"q 	c #CA621C",
"r 	c #F6D224",
"s 	c #F2D40C",
"t 	c #CE961C",
"u 	c #F28E24",
"v 	c #7A5A2C",
"w 	c #1E262C",
"x 	c #F24614",
"y 	c #FCA428",
"z 	c #FEAE1C",
"A 	c #EABE14",
"B 	c #9A8E24",
"C 	c #CABA24",
"D 	c #E2B254",
"E 	c #FCDE10",
"F 	c #E6CE14",
"G 	c #AA822C",
"H 	c #AA8A1C",
"I 	c #D6A22C",
"J 	c #3A3A3D",
"K 	c #2D3234",
"L 	c #FDBA17",
"M 	c #FC7618",
"N 	c #D49C50",
"O 	c #FACA3C",
"P 	c #FAC62C",
"Q 	c #FEE208",
"R 	c #FACE2C",
"S 	c #EEC450",
"T 	c #BE8A44",
"U 	c #5A3E44",
"V 	c #2E2E31",
"W 	c #221E1F",
"X 	c #883408",
"Y 	c #E2AA24",
"Z 	c #F2AE50",
"` 	c #F68624",
" .	c #FEBE0C",
"..	c #F6BC40",
"+.	c #EE9A74",
"@.	c #FAC64C",
"#.	c #E6B254",
"$.	c #5A5B5A",
"%.	c #1A1A1C",
"&.	c #EAD614",
"*.	c #E2A224",
"=.	c #FEF204",
"-.	c #F2EA0C",
";.	c #DA865C",
">.	c #CEAE9C",
",.	c #DB9691",
"'.	c #F08C38",
").	c #E6826C",
"!.	c #F6964C",
"~.	c #BEB68C",
"{.	c #1D1E1E",
"].	c #2C2428",
"^.	c #D27E3C",
"/.	c #F6DE0C",
"(.	c #B6A644",
"_.	c #C8BAC0",
":.	c #CECAC7",
"<.	c #DCDBDE",
"[.	c #D6D2D0",
"}.	c #DEAA8C",
"|.	c #F6B2A4",
"1.	c #BADE9C",
"2.	c #668E84",
"3.	c #252627",
"4.	c #F29E04",
"5.	c #F6CE48",
"6.	c #BE9A64",
"7.	c #C8A2A0",
"8.	c #D0BEBC",
"9.	c #8C8C88",
"0.	c #747474",
"a.	c #7A6E6C",
"b.	c #DE8674",
"c.	c #F2D2CC",
"d.	c #EA765C",
"e.	c #C6C29C",
"f.	c #A2C2AC",
"g.	c #3B4241",
"h.	c #555354",
"i.	c #C27E2C",
"j.	c #DBCACF",
"k.	c #7E7674",
"l.	c #FAF6F4",
"m.	c #D28A74",
"n.	c #DA9E9C",
"o.	c #C7BEBF",
"p.	c #4E5A54",
"q.	c #A6A69C",
"r.	c #6E5E5C",
"s.	c #967E44",
"t.	c #C4C6C0",
"u.	c #CBC6C3",
"v.	c #A69A98",
"w.	c #765654",
"x.	c #F9E5E4",
"y.	c #FEFEFC",
"z.	c #EE928C",
"A.	c #FE0204",
"B.	c #848484",
"C.	c #023E3C",
"D.	c #022A29",
"E.	c #9A9A6C",
"F.	c #E6D67C",
"G.	c #E0E2E4",
"H.	c #AAAAAC",
"I.	c #021E1C",
"J.	c #022524",
"K.	c #DEBEC1",
"L.	c #DAA2A4",
"M.	c #DACED0",
"N.	c #E8E4E6",
"O.	c #566264",
"P.	c #162624",
"Q.	c #685A58",
"R.	c #0AB6B4",
"S.	c #D4CECD",
"T.	c #D3CACA",
"U.	c #9E928C",
"V.	c #063634",
"W.	c #0A524C",
"X.	c #0A0A0C",
"Y.	c #D8B6B8",
"Z.	c #228E8C",
"`.	c #CBC2C0",
" +	c #BECEB4",
".+	c #B2CEAC",
"++	c #727A64",
"@+	c #C6C2BB",
"#+	c #D2C4C4",
"$+	c #261614",
"%+	c #0A8284",
"&+	c #C6CAC4",
"*+	c #B6D6B4",
"=+	c #B2E4B4",
"-+	c #B2EAB4",
";+	c #BEF6C0",
">+	c #B2B69C",
",+	c #6C6664",
"'+	c #C6B6B4",
")+	c #F6C6C1",
"!+	c #026664",
"~+	c #4E7264",
"{+	c #E6E6BC",
"]+	c #ECBCBC",
"^+	c #F2B6BC",
"/+	c #7EA694",
"(+	c #CAFABC",
"_+	c #E2EAB4",
":+	c #D8BAB4",
"<+	c #E2C2C4",
"[+	c #F2BDBF",
"}+	c #F6C2C4",
"|+	c #EAEEBC",
"1+	c #EDC6C7",
"2+	c #9A8A7C",
"3+	c #FECACC",
"4+	c #C2AEB4",
"5+	c #DED6D4",
"6+	c #AE9E9C",
"7+	c #021614",
"8+	c #263A3C",
"9+	c #1A322C",
"0+	c #0A8A84",
"a+	c #02504C",
"                      .   +   + + + + +                         ",
"                      @ # $ + % & * = = +                       ",
"                +   + - + ; + > , ' ) ! ~ +                     ",
"                {   + ] ^ / ' ( _ : < [ } ~ +                   ",
"              + | + 1 2 3 4 5 6 / 7 ^ 8 9 } = +                 ",
"              + 0 + a b c d e f g 7 h i j 9 } = +               ",
"            + k l m n b o p q r s p t u v w 9 } = +             ",
"            + x y _ z A B C D E F G H I v J K 9 } = +           ",
"            + 6 L M A A N O P Q R d S 4 T U V W 9 } = +         ",
"          + X 4 s Y E E Z Z `  ...+.y f @.#.$.%.W 9 } = +       ",
"          + X L &.*.=.-.;.>.,.D S '.M ).!.!.~.{.].W 9 } = +     ",
"        + % ^./.r N &.(._.:.<.[.}.f 0 |.c '.1.2.3.W j 9 } = +   ",
"      + % j 4.E 5.,.6.7.8.9.0.0.a.b.,.c.d.d e.f.g.%.V 0.h.> ~ + ",
"    + = j j i.g >._._.j.k.{.3.V g.,.c.l.c.m.n.o.p.$ {.q.0.r.= + ",
"  + = j j j s.O >.t.u.v.3.J w.,.|.c.x.y.x.c.z.; A.A.A.B.r.= C.+ ",
"+ = j j j D.E.F.<.G.G.$.3.H.I.J.H.w.K.x.K.L.M.N.O.P.g.Q.= C.C.+ ",
"+ R.J j D.D.[.S.:.T.j.U.V 9.V.W.> X.w.Y.L.S.[.N.$.%.$ = C.C.C.+ ",
"+ Z.~ J J.D.u.`._.t. +.+++> H.B.3.9 w.|.t.@+u.#+h.$+= C.C.C.+   ",
"+ %+Z.~ J D.q.&+*+=+-+;+>+0.K 3.,+'+)+,.o.`.:.U.].= C.C.C.+     ",
"+ !+%+Z.~ J ~+=+-+;+;+{+]+8.S.N.:.`.K.^+]+K.T.Q.= C.C.C.+       ",
"  + !+%+Z.~ J /+;+(+_+)+^+:+`.<.[.@+`.<+[+}+7.= C.C.C.+         ",
"    + !+%+Z.= J *+|+)+^+Y.@+@+S.<.`.o.#+1+7.= C.C.C.+           ",
"      + !+%+Z.~ J 2+3+^+Y.o.@+S.<.u.u.S.4+= C.C.C.+             ",
"        + !+%+Z.~ J h.7.4+`.u.5+N.u.6+,+= C.C.C.+               ",
"          + !+%+Z.= J 7+8+> O.O.$.9+D.= C.C.C.+                 ",
"            + !+%+Z.~ J J.J.D.D.J.D.= C.C.C.+                   ",
"              + !+%+Z.= J C.D.D.C.= C.C.C.+                     ",
"                + !+%+Z.~ J C.C.= C.C.C.+                       ",
"                  + !+%+Z.= ~ R.C.C.C.+                         ",
"                    + !+%+Z.Z.W.C.C.+                           ",
"                      + !+%+0+a+C.+                             ",
"                        + + + + +                               "};
