/* XPM */
static char * chardevice_xpm[] = {
"32 32 12 1",
" 	c None",
".	c #c0c0c0",
"X	c #a0a0a0",
"o	c #808080",
"O	c #e0e0e0",
"+	c #404040",
"@	c white",
"#	c #202020",
"$	c #fbfffb",
"%	c #606060",
"&	c green",
"*	c black",
"         .X.XX.....             ",
"      o..oooooooooo.........    ",
"     .X.Oo+++++ooooooX..X.o..   ",
"     .@@OXo################Xo.  ",
"    X$$$@Xo+###############.XX  ",
"    %O$@@Xoo###############oXX  ",
"   .+O@$OXoo###&##&&&&&###+XOX  ",
"   o+OO$@Xoo###############XOo  ",
"  .ooXO$$OXo###############XO%  ",
"  ..%OO$$XXo#&&&&##&&&&&###X@%  ",
"....oXOOOOoX###############XOoX ",
"X.@OX.OOOOXX###############X$oX ",
"XX@O.oXX@OXX##&&&##&&#&&&##XO%o ",
"oo@@XoXXOOXX###############XOoo ",
"X+@OO%XXOO.X###############X@%+ ",
"o+XXX+.XO@.X#######&&#&&&##oO%+ ",
"X+XOX+XXXOOX###############XO%#.",
"X#XXX#oXXOOo###############%Oo+.",
".#oXX+oXXOO.###############OOo+.",
".+%oX%oXX@OXX%+############OX%+.",
" ##%X+oX.OO.X%X+.....XXX..XXOo+X",
" %##%+oXoOOXXoXXXXXXXXXXXXXOX%+.",
" .##++%Xoo%o+%o%ooo%X++++++++#. ",
"  X#*#%o%#+########+*###++++o.  ",
"   .+#++++#++####++ooo%XOO..    ",
"  XXo#++#+####++%.X..OOoooo.    ",
"  #ooOO$@O..X...X....$$$O@.#    ",
"  #%%.X.$@$OX.........OXOXX#    ",
"  #++%X..$$OoX.X.XXXXXoo%%%#    ",
"    X###+XO.%%+++###+%XX.       ",
"      .o+%%X+####%...           ",
"          Xo+++oX               "};
