#define destroy_width 16
#define destroy_height 16
static unsigned char destroy_bits[] = {
  0x00, 0x00, 0x00, 0x00, 0x08, 0x08, 0x18, 0x0c, 0x30, 0x06, 0x60, 0x03,
  0xc0, 0x01, 0xc0, 0x01, 0x60, 0x03, 0x30, 0x06, 0x18, 0x0c, 0x0c, 0x18,
  0x00, 0x00, 0x00, 0x00, 0x00, 0x00, 0x00, 0x00, };
