/* XPM */
static char *magick[] = {
/* columns rows colors chars-per-pixel */
"32 32 18 1",
"  c #000000",
". c #00003c",
"X c #003c00",
"o c #3c3c00",
"O c #303030",
"+ c #595959",
"@ c #008000",
"# c #ff0000",
"$ c #bebe00",
"% c #ff8200",
"& c #ffaa59",
"* c #ffff00",
"= c #808080",
"- c #a0a0a4",
"; c #ffbebe",
": c #ffffbe",
"> c #ffffff",
", c None",
/* pixels */
",,,,,,,,,,,,,,,,,,,,,,,,,,,,,,,,",
",,,,,,,,,,,,,,,,,,,,,,,,,,,,,,,,",
",,,,,,,,,,,,,,,,,,,,,,,,,,,,,,,,",
",,,,,,,,,,,,,,,,,,,,,,,,,,,,,,,,",
",,,,,,,,,,,,, ,,,,   ,,,,,,,,,,,",
",,,,,,,,,,,, :  , >:>  ,,,,,,,,,",
",,,,,,,,,,, :::: >:>+>>  ,,,,,,,",
",,,,,,,,,, :*:: >>> >++>>  ,,,,,",
",,,,,,,,, :*:: >>> >>>*++>:  ,,,",
",,,,,,,, :*:* >:> ###****+>>>  ,",
",,,,,,, **** :>> @# **** >>:>>> ",
",,,,,, **** >>> @@ >  * >>:>>> ,",
",,,,, *$** ::>++@ >:>>  :::>: ,,",
",,,, *$** ::::>> >:>>>>>  >> ,,,",
",,, $$*$ ::*::> >:;:>>>>>>  ,,,,",
",, $$$$ :*:::: :>&%#;>::>>>>  ,,",
", $$$$ **::*:o>>:&%##%>>:>:>:> ,",
" $$$$ *****:o>:>:::%##%;:>:>>>> ",
" =$$$oO$***o>>:&%&%&:%;:>::>:> =",
", X=$$$oX$o::::%&:>:::::::>:: =,",
",,,  =$$$X:>$:::::%::::::::: -,,",
",,,,,  = ::::$$::::%%:::::: -,,,",
",,,,,,  **$::::$$::::$$::: =,,,,",
",,,,,, ****$$::::$$::::::.-,,,,,",
",,,,, *******$$::::$$::: -,,,,,,",
",,,,, =********$$:::::: -,,,,,,,",
",,,,,,  =********$$:::X=,,,,,,,,",
",,,,,,,,  =********** =,,,,,,,,,",
",,,,,,,,,,  -*******X=,,,,,,,,,,",
",,,,,,,,,,,,  =**** =,,,,,,,,,,,",
",,,,,,,,,,,,,, X== -,,,,,,,,,,,,",
",,,,,,,,,,,,,,,,  -,,,,,,,,,,,,,"
};
