/* XPM */
static char * dvi_xpm[] = {
"34 34 256 2",
"  	c None",
". 	c #020204",
"+ 	c #8A861C",
"@ 	c #45421E",
"# 	c #C7C259",
"$ 	c #864438",
"% 	c #A7A52F",
"& 	c #6A6917",
"* 	c #724224",
"= 	c #C6AA44",
"- 	c #A18531",
"; 	c #662224",
"> 	c #46525C",
", 	c #767224",
"' 	c #E5E27E",
") 	c #926634",
"! 	c #2D250E",
"~ 	c #363212",
"{ 	c #564610",
"] 	c #9EAAAC",
"^ 	c #6F6224",
"/ 	c #BEBA3F",
"( 	c #9F952F",
"_ 	c #768294",
": 	c #BE626C",
"< 	c #989231",
"[ 	c #B29274",
"} 	c #B4DEF0",
"| 	c #867234",
"1 	c #76664C",
"2 	c #66521C",
"3 	c #F6F27C",
"4 	c #433A12",
"5 	c #8E861C",
"6 	c #B4AE3C",
"7 	c #706C17",
"8 	c #C2BE74",
"9 	c #B09A38",
"0 	c #A27A4C",
"a 	c #DAD254",
"b 	c #8E8244",
"c 	c #524A14",
"d 	c #D2B838",
"e 	c #9E7644",
"f 	c #825A24",
"g 	c #58521F",
"h 	c #887A28",
"i 	c #685A1E",
"j 	c #DCC458",
"k 	c #AE4654",
"l 	c #6A7664",
"m 	c #584A15",
"n 	c #615A20",
"o 	c #464644",
"p 	c #A6A268",
"q 	c #5A2E30",
"r 	c #323A3C",
"s 	c #9ABAD0",
"t 	c #A19D31",
"u 	c #504412",
"v 	c #9E3234",
"w 	c #827A24",
"x 	c #DAE2EC",
"y 	c #3C3A18",
"z 	c #7B6C2B",
"A 	c #8F7A34",
"B 	c #6F5D23",
"C 	c #5F4D18",
"D 	c #CEB034",
"E 	c #312A0C",
"F 	c #8F8B21",
"G 	c #D6CE4C",
"H 	c #9A5234",
"I 	c #7A7620",
"J 	c #F6EA74",
"K 	c #3B3211",
"L 	c #C0B854",
"M 	c #7A3244",
"N 	c #FDFA9A",
"O 	c #B4A23C",
"P 	c #BEB23C",
"Q 	c #463E12",
"R 	c #61531D",
"S 	c #685D2E",
"T 	c #526474",
"U 	c #776629",
"V 	c #746B2F",
"W 	c #564E28",
"X 	c #A2424C",
"Y 	c #AE8A68",
"Z 	c #AEAE7C",
"` 	c #B69A6C",
" .	c #918A5C",
"..	c #B6B69C",
"+.	c #9E9A64",
"@.	c #4F431E",
"#.	c #372E0F",
"$.	c #7C732F",
"%.	c #863C40",
"&.	c #D6C254",
"*.	c #ECE6A0",
"=.	c #B29E3F",
"-.	c #CEB654",
";.	c #887B36",
">.	c #584E1A",
",.	c #5A5A5C",
"'.	c #3C3610",
").	c #BEAE5C",
"!.	c #7E424C",
"~.	c #AEAA84",
"{.	c #6E6638",
"].	c #A29450",
"^.	c #998439",
"/.	c #BAB650",
"(.	c #675E22",
"_.	c #A89E3C",
":.	c #927E37",
"<.	c #948C32",
"[.	c #C6BE59",
"}.	c #FEFEAF",
"|.	c #827331",
"1.	c #4A4317",
"2.	c #C9C367",
"3.	c #AEAA3C",
"4.	c #63623F",
"5.	c #ECE474",
"6.	c #CAB634",
"7.	c #8A9694",
"8.	c #A6763C",
"9.	c #181804",
"0.	c #B45A38",
"a.	c #BE363C",
"b.	c #861E24",
"c.	c #D2DEEC",
"d.	c #F2EEBC",
"e.	c #A29E84",
"f.	c #807448",
"g.	c #7E8E5C",
"h.	c #C64A54",
"i.	c #DEDA6C",
"j.	c #9E5C64",
"k.	c #AA6E5C",
"l.	c #BE7A74",
"m.	c #6E3C28",
"n.	c #6C4E30",
"o.	c #766E44",
"p.	c #626E64",
"q.	c #E4CE5C",
"r.	c #B6B297",
"s.	c #CDBA87",
"t.	c #8E626C",
"u.	c #AE9EAC",
"v.	c #C0D6D4",
"w.	c #A23E54",
"x.	c #BA525C",
"y.	c #8C9EAC",
"z.	c #A04C58",
"A.	c #B7A96F",
"B.	c #7E4E44",
"C.	c #BAB6CC",
"D.	c #CECA84",
"E.	c #B68E64",
"F.	c #DAAE5C",
"G.	c #A08A2C",
"H.	c #8E4A2C",
"I.	c #A27E6C",
"J.	c #EEEA9C",
"K.	c #AAB29C",
"L.	c #969E8C",
"M.	c #221E0C",
"N.	c #767E64",
"O.	c #DCD680",
"P.	c #6A4254",
"Q.	c #AE766C",
"R.	c #A9BBC7",
"S.	c #AE9A74",
"T.	c #7D3B21",
"U.	c #DABE44",
"V.	c #B2AA44",
"W.	c #6A6A34",
"X.	c #9A9A24",
"Y.	c #BEBEA4",
"Z.	c #D1BE61",
"`.	c #F7F49A",
" +	c #9E664C",
".+	c #4E361C",
"++	c #9A8A4C",
"@+	c #CAB254",
"#+	c #7E626C",
"$+	c #6E5234",
"%+	c #BAB254",
"&+	c #E6DE8C",
"*+	c #DECC70",
"=+	c #CAB13C",
"-+	c #969A84",
";+	c #A6524C",
">+	c #AA8A3C",
",+	c #504C30",
"'+	c #322E24",
")+	c #BABAAC",
"!+	c #BAA684",
"~+	c #A4A240",
"{+	c #BEA95C",
"]+	c #707238",
"^+	c #B09648",
"/+	c #9A7860",
"(+	c #BEBA64",
"_+	c #B26E7C",
":+	c #AA9A54",
"<+	c #5E441C",
"[+	c #BAB03A",
"}+	c #766E24",
"|+	c #BAA244",
"1+	c #F6EEA4",
"2+	c #96624C",
"3+	c #9E9644",
"4+	c #908430",
"5+	c #585430",
"6+	c #615E2F",
"7+	c #A29A40",
"8+	c #7E7E3C",
"9+	c #D2CD60",
"0+	c #C8B84C",
"a+	c #B25E4C",
"b+	c #8A4A4C",
"c+	c #BE8E7C",
"d+	c #8A8234",
"e+	c #A29664",
"f+	c #32260C",
"g+	c #968648",
"h+	c #DABA34",
"i+	c #826E2C",
"j+	c #8E3E44",
"k+	c #625E54",
"l+	c #8E222C",
"m+	c #A64E54",
"n+	c #76763C",
"o+	c #B69A44",
"p+	c #C6B66C",
"q+	c #5A6274",
"r+	c #B6B27C",
"s+	c #343614",
"t+	c #726629",
"u+	c #87762C",
"v+	c #68561E",
"w+	c #FAF68C",
"x+	c #4F4E21",
"y+	c #867E20",
"z+	c #322E0C",
"A+	c #FEFEA4",
"B+	c #B2A63C",
"C+	c #928E58",
"D+	c #BABA8C",
"E+	c #D2BA64",
"F+	c #C2B26C",
"G+	c #F2EE9C",
"                                                                    ",
"                          . . . . . . .                             ",
"                        . . :.U R :.^.g+. .                         ",
"                      . ^+;.A i+- :.z :.A z . .                     ",
"                    o | u+;.t+u+u+B u+:.U z n >..                   ",
"                    R u+V }+V i v+v+7 ^ V $.C+A.l . . .             ",
"                  ,.p+).=.:+< $.<.i+i+n.1 ~.4.c N.e+D.` . . .       ",
"                l+].q.j h+=+h+=+6.G.h !.<.^ K 6+v+'.o.*.J.D.` . .   ",
"              v ; p *+A.-.Z.Z.j D ~+8.m.g+@.(.]+y s+!  .}.}.J.% .   ",
"            %.;   B+< )+ .^.++G.=.>+H.n.4+R B @ $ @.M.W ' A+A+( .   ",
"          $ ;     7+D+x R.y.x r.- e q u+A R u y m.<+'+! r+`.A+& .   ",
"        X ;       |.c.T v.c.T x g.B..+- |.i 2 1.K z+'.! o.' 3 .     ",
"      $ ; : h.a.b.$+A.] #+%.%.z.z.q R - U B { { y ! #.x+C+9+i..     ",
"      $ #+} s u.x.w.z.X 0.c+E.Y j.m.}+:.i R R 1.1.E ! 4.D.9+G .     ",
"        M } s R.t.e /+X 7.)+r.~.I.T.}+;.v+R 4 z 4 1.f+}+# O.X..     ",
"        !.C.v.Y 0.F.(+k.2+r+e.r.+.T.z u+n g B Q i K ! 7 [.3 & .     ",
"          $ l.0.e++.{+9 H [ K.-+e.T.$.z R { z Q u Q ! (.3.' .       ",
"            H -+R.y.p.b =.m+a+!+H f ;.V >.4 C v+s+Q ~ {.2.G .       ",
"          . 2.k+q+_ > ++0+O 0 H ) , z ^ >.'.4 2 ~ '.E W.[.( .       ",
"        . 8 8 :.E r ,.@+U.&.=+9 9 U B v+m 4 E { 4 '.1.]+/ 7 .       ",
"        . }.O.).^+U ^+a &.0+=+=.^.R C v+C <+! #.u n d+%+a .         ",
"      . s.}.}.F+6+C z ].-.=+= ^.>.m U B Q Q E f+g <.F ~+X.. .       ",
"    . s.`.}.}.*.o.g z m 1.^ 5+4 >.U Q Q m u ! ~ 8+F ( 3.7 . . . .   ",
"  . , &+N A+A+A+*.;.{+{+4+4+u+u+U #.Q 1.c K M.R < ( % [+. . . . .   ",
"    . . 6 J `.N }.&+6+u R i C 4 ! 4 m C @.#.4 + 5 % [.G . . . .     ",
"        . . [+5.N G+f.c Q y K ~ 4 Q R x+s+u y+<.~+/.P X.. . .       ",
"            . . V.q.Z.4.m >.{ C C u 5+4 E y+< ( 6 2.G & . . .       ",
"                . . . < n R g x+@ ~ @ y 5+< t [.[.J X.. . .         ",
"                      . . n S v+S S F y+o._./.9+9+G & . .           ",
"                            . . . 5 6 t %+/ 0+' `.X.. .             ",
"                                  . . . V./ [.w+a & .               ",
"                                        9.9.. ( 7 .                 ",
"                                              . .                   ",
"                                                                    "};
