/* XPM */
/* Drawn for the K Desktop Environment */
/* See http://www.kde.org */
static char*editors[]={
"32 32 12 1",
"i c #ff8000",
". c None",
"g c #ffdca8",
"b c #ffffc0",
"e c #c0c0c0",
"c c #808000",
"j c #c0ffff",
"# c #000000",
"h c #ffa858",
"d c #c0c000",
"a c #ffffff",
"f c #c0c0ff",
"............##.....#............",
"..........##aa#...#a##..........",
"........##aabba#.#abaa##........",
"......##aabbbbb##abbbbaa##......",
"....##aabbbbb##cd##bbbbbaa##....",
"..##aabbbbb##ccccdc##bbbbbaa##..",
"##aabbbbb##cccccdcdcd##bbbbbaa##",
".#abbbb##ccccccccdcdcdc##bbbbb#.",
"..#ab##cccccccccdcdcdcdcd##bb#..",
"#####ccccccccccccdcdcdcdcdc#####",
".##bb##cccccccccdcdcdcdcd##bb##.",
"...##bb##ccccccccdcdcdc##bb##...",
"...#a##bb##cccccdcdcd##bb##d#...",
"...#abb##bb##ccccdc##bb##ddd#...",
"...#abbbb##bb##cd##bb##ddddd#...",
"...#abbbbbb##bb##bb##ddddddd#...",
"...#abbbbbbbb##bd##ddddddddd#...",
"...#abbbbbbbbbbbdddddddddddd#...",
"...#abbbbbbbbbb##ddddddddddd#...",
"...#abbbbbbbb##ea##ddddddddd#...",
"...#abbbbbb##eaaaae##ddddddd#...",
"...#abbbb##eaaaffaaae##ddddd###.",
"...#abb##eaaafaaaffaaae##dd##gg#",
"...#a##eaaaaafffaaffaaaae##gghh#",
"...##eaaafffaaaafaaaaae##ggghhi#",
".##eaaaaaaafffaaaaaae##ggghhi##.",
"#eaaaaaaaaaaaafaaae##ggghhi##...",
".##eaaaaaaaaaaaae##ggghhi##.....",
"...##eaaaaaaaae##ggghhi##.......",
".....##eaaaae###jjhhi##.........",
".......##ae##..#aai##...........",
".........##....####............."};
