/* XPM */
static char *magick[] = {
/* columns rows colors chars-per-pixel */
"32 32 8 1",
"  c #000000",
". c #3c0000",
"X c #595959",
"o c #008080",
"O c #00bebe",
"+ c #beffff",
"@ c #ffffff",
"# c None",
/* pixels */
"################################",
"################################",
"################################",
"#############     ##############",
"#########   # +++ #   ##########",
"######## +++ X+++X +++ #########",
"####   # ++++X+++X++++ #   #####",
"### O++ +X+++++++++++X@ +++ ####",
"## X++O+ +++++++++++++ ++++X ###",
"## oXO++O+++++++++++++++++XO ###",
"## ooXXO++O+++++++++++++XXOO ###",
"## oooo+OO++O+++++++++++OOOO ###",
"       X++OO++   ++++++X       #",
" OOOOOO+OO++O ooO ++++++++++++ #",
"       OO+OO+ ooO O+++++       #",
" ooooo OOOO+OO   O++O+++ OOOOO #",
" oooo OOOOOOO+OO++OO++O++ OOOO #",
" oo  OOO  OOOOO+OO++O  +O+  OO #",
" o OOOO o OOOOOOO+OO+ O ++O+ O #",
"   OO  oo OOOOOOOOO+O OO  ++   #",
"# +  ooo OOOOOOOOOOOO+ OOO  o ##",
"# + ooo OOOO  OOO  OOOO OOO o ##",
"# + ooo OOO o OOO o OOO OOO o ##",
"# + oo OOOO o OOO o OOOO OO o ##",
"# + oo  .O oo OOO oo O   OO o ##",
"# + o  +O ooo     ooo Oo  O o ##",
"##   # +O oo  OOO  oo Oo #   ###",
"###### +O o # OOO # o Oo #######",
"###### +O o # OOO # o Oo #######",
"###### +O  ## OOO ##  Oo #######",
"#######   ### OOO ###   ########",
"#############     ##############"
};
