/* XPM */
/* Drawn  by Mark Donohoe for the K Desktop Environment */
/* See http://www.kde.org */
static char*f_src[]={
"32 32 14 1",
"# c #000000",
"a c #ffffff",
"h c #808080",
"k c #a0a0a4",
"i c #585858",
"j c #00c000",
"d c #404000",
"l c #808000",
"c c #c0c000",
"f c #ffff00",
"g c #beffbe",
"b c #ffffbe",
"e c #ffdca8",
". c None",
"................................",
"................................",
"................................",
"................................",
"................................",
"................................",
".................##.............",
"................#aa##...........",
"...............#aaaaa##.........",
"..............#aaaaaaaa##.......",
".............#abbccaaaaaa##.....",
"............#bbaabbccaaaaaa##...",
"...........#bbbccaabbccbaaaaa##.",
"..........#bbbbbbccaabbaabaaaa#.",
".........#bbbccbbbbccaabbaabad#.",
"........#bbbbbbbebbbbccbabbadc#.",
".......#bbfbbeghijkbbbbbbaadc#..",
"......#bffbbfiijiiikbbbbbadc#...",
".....#ffbbffgijijggbbbbbbdc#....",
"....#ffbffbkljiklebbbbbbdc#.....",
"...#fffffbcjiiffbbfbbbbdc#......",
"..#lfffffflilcbbffbbfbdc#.......",
"..#cllffffflfbffbbffbdc#........",
"..##ccllfffffffbffbbdc#.........",
"....##ccllfffffffbfdc#..........",
"......##ccllffffffdc#...........",
"........##ccllfffdc#............",
"..........##cclldc#.............",
"............##ccc#..............",
"..............###...............",
"................................",
"................................"};

