/* XPM */
static char * floppy_mount_xpm[] = {
"32 32 17 1",
" 	c None",
".	c #FFFFD75C0000",
"X	c #BEFBBEFBBEFB",
"o	c #9E799E79BEFB",
"O	c #AEBAAEBAAEBA",
"+	c #410341034103",
"@	c #514451445144",
"#	c #8E38596530C2",
"$	c #B6DA79E74924",
"%	c #9E799E79A699",
"&	c #8E3886178617",
"*	c #208120812081",
"=	c #71C671C6A699",
"-	c #596559655965",
";	c #D75CA69979E7",
":	c #492479E769A6",
">	c #FFFF00000000",
"                                ",
"                                ",
"              ..                ",
"             .....              ",
"            ......X             ",
"           ...... oOX           ",
"          ......XoOOXOX         ",
"         ...... XXOXO+OOX       ",
"        ......XooOXO@..Xo#      ",
"       .......$%OXO@.. &#....   ",
"      .........#+O@.. &*......  ",
"     ............#%oO%@......X& ",
"    ...............#o@......O$@ ",
"   .....XXX.........*......X=-X ",
"  .....XXOOXX.............;:#X  ",
" $....XXOOOXo X..........;&:X   ",
";....OXOOOOOXoXXX.......X-&X    ",
"&=..XXOOOOOOOOOOX X....X-$X     ",
":#=XXOOOOOOOOOOOO&o...O&-X      ",
"X@&#:%OOOOOOOOOX&:...X#$X       ",
" X&$:+:OXOOOOOO%-$..X--X      >>",
"   X-&$@&XXOOO&:...>--X      >>>",
"     X-=+@%XX&-$..>>>>      >>> ",
"       X--@-&-...;$>>>>    >>>  ",
"        XO::@$..X:@X >>>  >>>   ",
"          X&-$+;-:X   >>>>>>    ",
"            X-@:+X      >>>     ",
"              X&X      >>>>>    ",
"                      >>> >>>   ",
"                     >>>    >>> ",
"                    >>>      >>>",
"                   >>>        >>"};
