/* XPM */
/* Drawn  by Mark Donohoe for the K Desktop Environment */
/* See http://www.kde.org */
static char*folder_open[]={
"32 32 9 1",
"# c #000000",
"d c #a0a0a4",
"b c #ffdca8",
"f c #c05800",
"c c #ffa858",
"g c #585858",
"e c #c0c0c0",
"a c #ffffff",
". c None",
".......##...###.................",
".......#a##.#bb##...............",
".......#aaa##cbbb##.............",
"###....#aaaaa##cbbb##...........",
"#aa##..#aaaaaaa##cbbb##..##.....",
"#aaaa###daaaaaaaa##cbbb##cb##...",
".#aaaaa##daaaaaaaaa##cbbbbbbc##.",
".#aaaaaaa##daaaaaaaaa##cbbbbbc#.",
".#aaaaaaaaa##daaaaaaaaa##cbbbc#.",
"..#aaaaaaaaaa##daaaaaaaaa##cbc#.",
"..#aaaaaaaaaaaa##daaaaaaad#ccc#.",
"..#aaaaaaaaaaaaaa##daaaaad#cc#..",
"...#aaaaaeaaaeaaaea##daaad#cc#..",
"...#aaaeaaeeaaeeaaeee##dad#cc#..",
"...#eeaaeeaaeeaaeeaeeee##d#cf#..",
"....#aeeaaeeaeeeaeeeeeee#d#c#...",
"....#eaeeeaeeeeeeeeeeeee#d#f#...",
"....#eeeeeeeeeeeeeeeeeee#d###...",
".....#eeeeeeeeeeeeeeeeee#d###...",
".....#eeeeeeeeeeeeeeeeee#d###...",
".....#eeeeeeeeeedeeedeee#####...",
"......#deedeeedeeddeeddeg###....",
"......#dddeddeeddeeddeedg###....",
"......##ggddeddeeddedddeg###....",
"........##ggdddddeddddddg###....",
"..........##ggddddddddddg###....",
"............##ggddddddddg###....",
"..............##ggddddddg##.....",
"................##ggddddg##.....",
"..................##ggddg##.....",
"....................##ggg#......",
"......................####......"};

