/* XPM */
/* Drawn  by Mark Donohoe for the K Desktop Environment */
/* See http://www.kde.org */
static char*folder_cyan[]={
"32 32 11 1",
"# c #000000",
"b c #00c0c0",
"d c #585858",
"h c #a0a0a4",
"i c #400000",
"a c #c0ffff",
"e c #000000",
"g c #c0c0c0",
"f c #303030",
"c c #ffffff",
". c None",
"...###..........................",
"...#aa##........................",
".###baaa##......................",
".#cde#baaa##....................",
".#cccdeebaaa##..##f.............",
".#cccccdeebaaa##aaa##...........",
".#cccccccdeebaaaaaaaa##.........",
".#cccccccccdeebababaaa#.........",
".#cccccgcgghhebbbbbbbaa#........",
".#ccccccgcgggdebbbbbbba#........",
".#cccgcgcgcgghdeebiebbba#.......",
".#ccccgcggggggghdeddeeba#.......",
".#cgcgcgcggggggggghghdebb#......",
".#ccgcggggggggghghghghd#b#......",
".#cgcgcggggggggghghghhd#b#......",
".#gcggggggggghghghhhhhd#b#......",
".#cgcggggggggghghghhhhd#b#......",
".#ggggggggghghghhhhhhhdib#......",
".#gggggggggghghghhhhhhd#b#......",
".#hhggggghghghhhhhhhhhd#b#......",
".#ddhhgggghghghhhhhhhhd#b#......",
"..##ddhhghghhhhhhhhhhhdeb#......",
"....##ddhhhghhhhhhhhhhd#b#......",
"......##ddhhhhhhhhhhhhd#b#......",
"........##ddhhhhhhhhhhd#b#......",
"..........##ddhhhhhhhhd#b#......",
"............##ddhhhhhhd#b###....",
"..............##ddhhhhd#b#####..",
"................##ddhhd#b######.",
"..................##dddeb#####..",
"....................##d#b###....",
"......................####......"};

