/* XPM */
static char * games_package_xpm[] = {
"32 32 172 2",
"  	c None",
". 	c #020204",
"+ 	c #FEF6B4",
"@ 	c #FEFEFA",
"# 	c #FAF6D4",
"$ 	c #FAFAE4",
"% 	c #F2EAA4",
"& 	c #F6EEB8",
"* 	c #F6F2CC",
"= 	c #FEFAEC",
"- 	c #EEE294",
"; 	c #D6C664",
"> 	c #F2E69C",
", 	c #E6DA84",
"' 	c #BEAE5C",
") 	c #B6B604",
"! 	c #EEDE84",
"~ 	c #DECE75",
"{ 	c #D8CA74",
"] 	c #A2A204",
"^ 	c #AAAA04",
"/ 	c #AEAE04",
"( 	c #B2B204",
"_ 	c #D6C674",
": 	c #9A8A44",
"< 	c #827E0C",
"[ 	c #8A8604",
"} 	c #8E8E04",
"| 	c #949204",
"1 	c #9E9E04",
"2 	c #CABE6C",
"3 	c #C8BA6C",
"4 	c #C2B664",
"5 	c #BEB264",
"6 	c #EEE284",
"7 	c #CEBA54",
"8 	c #726234",
"9 	c #625E0C",
"0 	c #6A660C",
"a 	c #726E0C",
"b 	c #76720A",
"c 	c #7E7A0A",
"d 	c #828204",
"e 	c #868604",
"f 	c #B6AA5C",
"g 	c #AEA65C",
"h 	c #AEA25C",
"i 	c #AAA254",
"j 	c #FEEE95",
"k 	c #5E5E5C",
"l 	c #4A4611",
"m 	c #504E0C",
"n 	c #56520C",
"o 	c #5E5A0C",
"p 	c #72720C",
"q 	c #7A7A0C",
"r 	c #A69E54",
"s 	c #A49A54",
"t 	c #9E964C",
"u 	c #9C924C",
"v 	c #968E4C",
"w 	c #232323",
"x 	c #CB3A3A",
"y 	c #AF0000",
"z 	c #6E5E24",
"A 	c #6E6A5C",
"B 	c #423E0C",
"C 	c #5A5604",
"D 	c #928A44",
"E 	c #8E8644",
"F 	c #8A8244",
"G 	c #FF0000",
"H 	c #000000",
"I 	c #7A7A5C",
"J 	c #3E3A0C",
"K 	c #46420C",
"L 	c #827A3C",
"M 	c #7E763C",
"N 	c #7A7634",
"O 	c #828282",
"P 	c #2B2608",
"Q 	c #B2AE94",
"R 	c #928E6C",
"S 	c #FEF2AC",
"T 	c #F6EEA4",
"U 	c #36320C",
"V 	c #726E34",
"W 	c #6E6A2C",
"X 	c #625A2C",
"Y 	c #E8BCBC",
"Z 	c #E8E8E8",
"` 	c #BABABA",
" .	c #23241C",
"..	c #6A5614",
"+.	c #E2DABC",
"@.	c #FEF6C4",
"#.	c #322A0C",
"$.	c #5E5A24",
"%.	c #FEF2B8",
"&.	c #BBBBBB",
"*.	c #838484",
"=.	c #27271A",
"-.	c #928E04",
";.	c #AE9A3C",
">.	c #FEEEA4",
",.	c #A8A8A8",
"'.	c #848484",
").	c #27261A",
"!.	c #FEFEE6",
"~.	c #FEFADF",
"{.	c #BEB22C",
"].	c #866E14",
"^.	c #56560C",
"/.	c #26261A",
"(.	c #868204",
"_.	c #FEFAD1",
":.	c #BAB29C",
"<.	c #BEBE04",
"[.	c #BAB604",
"}.	c #9A9604",
"|.	c #9E9B21",
"1.	c #25251A",
"2.	c #FEFAC4",
"3.	c #DAD6CC",
"4.	c #B7B721",
"5.	c #393939",
"6.	c #0B0B0B",
"7.	c #FEFAB7",
"8.	c #9B9B9B",
"9.	c #6B0000",
"0.	c #171717",
"a.	c #25241A",
"b.	c #FEFAAC",
"c.	c #ADADAD",
"d.	c #201F1A",
"e.	c #7F7F28",
"f.	c #A9A9AD",
"g.	c #2F2F2F",
"h.	c #FEF6A4",
"i.	c #FEF69C",
"j.	c #303030",
"k.	c #CFD0D0",
"l.	c #B0B0B0",
"m.	c #AFAFAF",
"n.	c #999999",
"o.	c #FEF690",
"p.	c #A4A4A4",
"q.	c #E6E6E6",
"r.	c #B4B4B4",
"s.	c #7D7D7C",
"t.	c #686868",
"u.	c #9F9F9F",
"v.	c #929291",
"w.	c #919291",
"x.	c #A1A1A1",
"y.	c #888888",
"z.	c #A5A5A5",
"A.	c #878787",
"B.	c #8C8C8C",
"C.	c #A6A6A6",
"D.	c #A2A2A2",
"E.	c #FEF684",
"F.	c #3D3D3D",
"G.	c #FEF26C",
"H.	c #908D28",
"I.	c #868688",
"J.	c #868628",
"K.	c #827F28",
"L.	c #BFBFBF",
"M.	c #FEF679",
"N.	c #6D6A0C",
"O.	c #FEF260",
"                        .             .                         ",
"                    . . + .         . @ . .                     ",
"                . . + + + + .     . # $ @ @ . .                 ",
"            . . % % % % % % % . . & & * * # = @ . .             ",
"        . . - - - - - - - - ; ; @ @ > % & & * * # $ . .         ",
"    . . , , , , , , , , ' ' ) ) ! ! @ @ > > % & & * * # . .     ",
"  . ~ ~ { ~ ~ ~ ~ ~ ' ' ] ^ / ( ~ { _ _ @ @ - - > % & & * * .   ",
"    . ; ; ; ; ; : : < [ } | 1 ] 2 2 3 4 4 5 @ @ ! 6 > > % .     ",
"      . 7 7 8 8 9 0 a b c d e } f f f g g g h i @ @ 6 6 .       ",
"  . . j k l l l m n o 9 0 a p q r s s t u u v w x y z A @ . .   ",
"      . j j j l l B l m n C 9 0 D D E E E F w x G x H @ .       ",
"        . I j j j l l J K l m n L L M N N H x G x O P .         ",
"        . Q R I S S T J J U J K V W W X X H Y Z `  ....         ",
"        . @ +.Q R I @.@.@.#.#.#.$.m m %.%.H &.` *.=.-..         ",
"        . @ = @ +.Q R I $ $ $ @ ;.>.>.>.C H &.,.'.).} .         ",
"        . @ !.= !.~.+.Q R I R R {.;.].^.].H &.,.'./.(..         ",
"        . !.= !.~.!.~._.+.Q R :.<.[.}.|.|.H &.,.'.1.d .         ",
"        . !.~.!._._._._.2.2.+.3.) ( 4.H 5.6.&.,.'.1.q .         ",
"        . ~.~._._._.2.2.@.+ 7.+ ( 4.H 8.9.0.&.,.'.a.b .         ",
"        . !._._._.2.@.7.7.+ 7.b.4.H c.9.G w &.,.'.d.e..         ",
"        . _._.2.2.2.7.7.7.b.+ + H f.c.8.9.g.&.,.'.w 5.H         ",
"        . _.2.7.+ 7.+ + + h.i.H c.c.c.c.c.g.&.,.'.j.8.9.H H     ",
"        . 2.2.2.7.+ b.b.b.b.H k.c.l.m.n.c.c.j.j.j.c.9.G 9.c.H H ",
"        . 7.+ 7.7.h.h.i.o.o.H p.q.k.c.r.s.t.c.c.c.c.8.9.8.q.u.H ",
"        . + b.+ h.b.i.i.i.o.H v.w.p.q.k.c.x.t.y.c.c.c.c.q.z.A.H ",
"        . + b.b.i.i.o.o.o.o.H B.B.B.B.p.q.k.c.C.c.c.c.q.D.A.A.H ",
"          . . i.i.i.o.o.E.E.E.H F.B.B.B.B.p.q.k.c.c.q.p.A.A.H   ",
"              . . o.o.E.E.G.E.G.H.H F.I.B.B.B.p.q.k.x.A.A.H     ",
"                  . . G.E.G.G.G.q J.K.H F.B.B.B.B.L.A.A.H       ",
"                      . . G.G.M.b a N.. . H F.B.B.L.A.H         ",
"                          . . O.p . .         H F.L.H           ",
"                              . .                 H             "};
