/* XPM */
/* Drawn  by Jonathan Buzzard and Mark Donohoe for the K Desktop Environment */
/* See http://www.kde.org */
static char*gf[]={
"32 32 12 1",
"# c #000000",
"a c #ffffff",
"e c #808080",
"i c #a0a0a4",
"g c #004000",
"j c #000000",
"b c #0000c0",
"f c #404000",
"h c #c0c000",
"d c #ffff00",
"c c #ffffc0",
". c None",
"................................",
"................................",
"................................",
"................................",
".............#....###...........",
"............#a##.#aaa##.........",
".........bb#aaaa#aaaaaab#.......",
".........babaabbbabbbabab##.....",
".........bababaaabababaabaa##...",
"........#bbbbabaaaaaabbabaaaa##.",
".......#aabaaaabbabbbabbaaaaaaa#",
"......#aabaaaaaaaaaaaabaaaaaaa#.",
".....#caabaabbbaabbaaaabaaaaa#..",
"....#caac#bbbababbbbbaba##aa#...",
"...#caac#baaaaaaaaaaaaabaa##....",
"..#cccbbcbaaabbbaaaaaaabbaaa##..",
".#cccc#cbbbaaabaaaaaabbaaaaaaa#.",
"#ddcc#cccbaaaaaaaaaabaabbbaaaaa#",
"#edddfbbbbaabbbabbaaaabaaaaaaa#e",
".#gedddfgbaaaabbaaaaabhbbaaac#e.",
"...##edddgbaaaaaaaaaabchhaac#i..",
".....##e#ccbaaaaaaaabcaaaaa#i...",
"......##cchcbbbbbbbbahhaac#e....",
"......#cccchhccachhaaaaacji.....",
".....#ccccccchhaaaahhcac#i......",
".....#ecccccccchhcaccaa#i.......",
"......##ecccccccchhcacge........",
"........##ecccccccccc#e.........",
"..........##icccccccge..........",
"............##ecccc#e...........",
"..............#gee#i............",
"................##i............."};

