/* XPM */
/* Drawn  by Nico Shirwing for the K Desktop Environment */
/* See http://www.kde.org */
static char*graphics_package[]={
"32 32 33 1",
"# c #000000",
"e c #c0c0c0",
"a c #ffffff",
"g c #808080",
"f c #585858",
"h c #800000",
"i c #008000",
"j c #000080",
"k c #008080",
"l c #800080",
"c c #808000",
"p c #c00000",
"q c #00c000",
"r c #0000c0",
"s c #00c0c0",
"t c #c000c0",
"d c #c0c000",
"v c #ff0000",
"w c #00ff00",
"x c #0000ff",
"y c #00ffff",
"z c #ff00ff",
"A c #ffff00",
"B c #ffc0c0",
"C c #c0ffc0",
"D c #c0c0ff",
"E c #ffc0ff",
"b c #ffffc0",
"u c #ff8000",
"m c #c05800",
"o c #ffa858",
"n c #ffdca8",
". c None",
"............##.....#............",
"..........##aa#...#a##..........",
"........##aabba#.#abaa##........",
"......##aabbbbb##abbbbaa##......",
"....##aabbbbb##cd##bbbbbaa##....",
"..##aabbbbb##ccccdc##bbbbbaa##..",
"##aabbbbb##cccccdcdcd##bbbbbaa##",
".#abbbb##ccccccccdcdcdc##bbbbb#.",
"..#ab##cccccccccdcdcdcdcd##bb#..",
"#####ccccccccccccdcdcdcdcdc#####",
".##bb##cccccccccdcdcdcdcd##bb##.",
"...##bb##ccccccccdcdcdc##bb##...",
"...#a##bb##cccccdcdcd##bb##d#...",
"...#abb##bb##ccccdc##bb##ddd#...",
"...#abbbb##bb##cd##bb##ddddd#...",
"...#abbbbbb##bb#################",
"...#abbbbbbbb##b#eefgggggfeefee#",
"...#abbbbbbbbbbb#eefgggggfeefee#",
"...#abbbbbbbbbbb################",
".##############b#hhiijjkkllccmm#",
"#nnnnnnnnnnnnnn##hhiijjkkllccmm#",
"#ooooooooooooobb#ppqqrrssttdduu#",
"#mmmmmmmmmmmmmbbe#pqqrrssttdduu#",
"#uuuuuuuuuuuuubb#vvwwxxyyzzAAoo#",
"#mmmmmmmmmmmmmm##vvwwxxyyzzAAoo#",
".##############b#BBCCDDaaEEbbnn#",
".....##ddbbbbbbb#BBCCDDaaEEbbnn#",
".......##ddbbbbb################",
".........##ddbbbdddcc##.........",
"...........##ddbdcc##...........",
".............##dc##.............",
"...............##..............."};

