/* XPM */
/* Drawn for the K Desktop Environment */
/* See http://www.kde.org */
static char*harddrive_unmount[]={
"32 32 8 1",
"b c #000000",
"d c #ffffff",
"e c #808080",
"c c #c0c0c0",
"a c #a0a0a4",
"# c #585858",
"f c #ff0000",
". c None",
"..........................#.....",
".........................#ab....",
".........................bab....",
".........................bab....",
"....................bb..bab.....",
"..............bb...baabbab......",
".............bccbbbaaaaabb......",
"............bcccccbbaaaadab.....",
"...........bccccccccbbadaab.....",
"..........bcccccccccccbbab......",
".........bcdccccccccccccbb......",
"........baaaddccccccccccccb.....",
".......baaaaaaddcccccccccdb.....",
"......baaaaaaaaaccccccccdcb.....",
".....baaaaaaaaaccccccccdccb.....",
"....baaaaaaaaaccccccccdcccb.....",
"...baaaaaaaaaccccccccdccccb.....",
"..baaaaaaaaaccccccccdccccb......",
".bcaaaaaaaaccccccccdccccb.......",
".baccaaaaaccccccccdccccb........",
".baaaccaaccccccccdccccb.........",
".baaaaecccccccccdccccb..........",
".baaaaeeeccccccdccccb...........",
".baaaaeee#cddcdccccb............",
"..baaaeee#cfcdccccb.............",
"...bbaeee#cfcdcccb..............",
".....bbee#cccdccb...............",
".......bb#cccdcb................",
".........#bccdb.................",
"...........bbb..................",
"................................",
"................................"};

