/* XPM */
static char * Hfile_xpm[] = {
"32 32 13 1",
" 	c None",
".	c #FFFF0000FFFF",
"X	c #AEBAAEBAAEBA",
"o	c #492479E769A6",
"O	c #514451445144",
"+	c #BEFBBEFBBEFB",
"@	c #000000000000",
"#	c #FFFF00000000",
"$	c #410341034103",
"%	c #9E799E79A699",
"&	c #596559655965",
"*	c #208120812081",
"=	c #000000000820",
"                                ",
"                                ",
"                                ",
"    ...                         ",
"     ..                         ",
"     ..                         ",
"     ..                         ",
"     ..  ..                     ",
"     .. ....      X             ",
"     ...  ..     X              ",
"     ..   ..    X           o   ",
"     ..   ..OO X   X+      OX   ",
"     ..   ..  X  OX  XX   OX@   ",
"     ..   .. X   X     XXOX@    ",
" ##  ..   ..X  OX        X@     ",
" ## ....OO...  X                ",
"          X  OX             O   ",
"      OO X   X  OO         $%   ",
"        X  OX     OO      OX@   ",
"       X   X  OO    OO   OX@    ",
" O&+  X**&%     OO      OX@     ",
"  @$&+  &X  OO    OO   OX@      ",
"    @OOXX     OO      OX@       ",
"     XOX  o&    OO   OX@        ",
"     XX     &O      OX@         ",
"     OX       &&   OX@          ",
"      O&X       O OX@           ",
"       @*&X      OX@            ",
"         =*&X   OX@             ",
"           @*&XOX@              ",
"             @$X@               ",
"               @                "};
