/* XPM */
static char * html_orig_xpm[] = {
"32 32 14 1",
" 	c None",
".	c #c0c0c0",
"X	c white",
"o	c #868ec7",
"O	c #9e9ebe",
"+	c #808080",
"@	c #71a671",
"#	c #404040",
"$	c #41a641",
"%	c #388638",
"&	c #7171a6",
"*	c black",
"=	c #41418e",
"-	c #007100",
"                                ",
"                                ",
"                                ",
"                                ",
"             ..    ...          ",
"            .XX.. .XXX..        ",
"           .XXXXX.XXXXXX..      ",
"          .XXXXX.XXXXXXXXX..    ",
"         .XXXXX.XoooO.XXXXXX..  ",
"        .XXXX.OO.++.ooo.XXXXXX. ",
"       .XXXXOoo.@@@++oooOXXXXXX#",
"      .XXXXOoO@$@@$$@+oooOXXXX#.",
"     .XXXX.o..$$@$$$%+ooO&.XX#.*",
"    .XX#XX$%OO@$@$$%#&ooooo.X.*.",
"   .XXXXX+$%Oo+$$@$=&&&ooo=OX*. ",
"  .XX##X.@%%Ooo%$@+&&&&&o&=&X.. ",
" .XXXXX.X$%OOOO%%%%&&&&&&o==XX.+",
".XXXXX.XXoOOoOOo#%%%+&&&&&==XX+.",
"++.XX.##XOooooooo#%$@@&&&&==X+.*",
".*++.XX.Xoo&o&o&o&+$$$$=&==&+.*.",
"  .*++.XXO&&&&&&&&&+$--#===O.*. ",
"    .*++XO&&&&&&&&&#---#===.*.  ",
"      .+.Xo====&====#--===o*.   ",
"       .XXX&=========-#==&*.    ",
"      +.XXX.o========#==&*.     ",
"      .++.XXXO=========.*.      ",
"       .*#+.XXXO&===&O.*.       ",
"         .*#+.XXXXXX+.*.        ",
"           .*#+.XXX+.*.         ",
"             .*#+.+.*.          ",
"               .*+.*.           ",
"                 .*.            "};
