/* XPM */
static char * html_xpm[] = {
"32 32 246 2",
"  	c None",
". 	c #020204",
"+ 	c #E6DE9C",
"@ 	c #767654",
"# 	c #B2A27C",
"$ 	c #AEAA84",
"% 	c #424A3C",
"& 	c #161A24",
"* 	c #92A6AC",
"= 	c #6E7E74",
"- 	c #52724C",
"; 	c #36728C",
"> 	c #627E74",
", 	c #3A3624",
"' 	c #0A160C",
") 	c #2A2A1C",
"! 	c #F6EA7A",
"~ 	c #F2BE5C",
"{ 	c #E2B674",
"] 	c #E2C67C",
"^ 	c #BAB26A",
"/ 	c #82A6B4",
"( 	c #3A7AD4",
"_ 	c #325E94",
": 	c #56564C",
"< 	c #223654",
"[ 	c #4E5E3C",
"} 	c #C2BE74",
"| 	c #D2BE8C",
"1 	c #BA9E74",
"2 	c #7A8684",
"3 	c #E6C65C",
"4 	c #E2D68C",
"5 	c #D2CA60",
"6 	c #92A28C",
"7 	c #56A2CC",
"8 	c #5E96D4",
"9 	c #9EB26C",
"0 	c #2E6ED4",
"a 	c #2A528C",
"b 	c #1E366C",
"c 	c #323E44",
"d 	c #F2EE9C",
"e 	c #F2F2AC",
"f 	c #CDC26C",
"g 	c #5A8AAC",
"h 	c #F2D694",
"i 	c #F6DEAC",
"j 	c #E2DEB4",
"k 	c #D6CE84",
"l 	c #82BED4",
"m 	c #528EDC",
"n 	c #AEB674",
"o 	c #56629C",
"p 	c #2662A4",
"q 	c #224684",
"r 	c #162E54",
"s 	c #2A364C",
"t 	c #EEE69C",
"u 	c #E6DA81",
"v 	c #CEC684",
"w 	c #EAE2CC",
"x 	c #FEEACC",
"y 	c #FAE6CC",
"z 	c #F2EED4",
"A 	c #E2D28C",
"B 	c #A2AE84",
"C 	c #C2AE64",
"D 	c #9EAA5C",
"E 	c #52728C",
"F 	c #2E62B4",
"G 	c #264EA4",
"H 	c #26426C",
"I 	c #1E2A34",
"J 	c #424634",
"K 	c #D2CE8C",
"L 	c #DEDAAC",
"M 	c #F2EA9C",
"N 	c #D6CE6C",
"O 	c #427EC4",
"P 	c #AEC2AC",
"Q 	c #FEEEE4",
"R 	c #B2AA5B",
"S 	c #9E9A4C",
"T 	c #4676AC",
"U 	c #3E6EB4",
"V 	c #264EB4",
"W 	c #0E1A24",
"X 	c #9EA25C",
"Y 	c #C6C27C",
"Z 	c #EAE67C",
"` 	c #A19E3B",
" .	c #5EAEE4",
"..	c #CEDACC",
"+.	c #FEFAEC",
"@.	c #DAD6A4",
"#.	c #C6BE64",
"$.	c #AE8254",
"%.	c #3A7A9C",
"&.	c #3272BC",
"*.	c #426AA4",
"=.	c #2A56B4",
"-.	c #223E64",
";.	c #32321C",
">.	c #3A3A34",
",.	c #BEB664",
"'.	c #CECA74",
").	c #D6D25C",
"!.	c #6E6E14",
"~.	c #3E72AC",
"{.	c #CACAB4",
"].	c #9A9244",
"^.	c #3E7EE4",
"/.	c #325EB4",
"(.	c #1A3E74",
"_.	c #4A8AD4",
":.	c #5E9ADC",
"<.	c #AAC6E4",
"[.	c #DED274",
"}.	c #CEBA84",
"|.	c #DAB67C",
"1.	c #B69A6C",
"2.	c #627E9C",
"3.	c #528ACC",
"4.	c #2A4264",
"5.	c #827E5C",
"6.	c #A69E54",
"7.	c #A6A65C",
"8.	c #C6BA84",
"9.	c #CABE5C",
"0.	c #5A9AD4",
"a.	c #4E92EC",
"b.	c #76B6E4",
"c.	c #E6CA7C",
"d.	c #6A96B4",
"e.	c #BEAA7C",
"f.	c #4A82BC",
"g.	c #5A96EC",
"h.	c #5692DC",
"i.	c #467ED4",
"j.	c #2E2E24",
"k.	c #6E6A44",
"l.	c #9E9234",
"m.	c #AEA24C",
"n.	c #B6B63C",
"o.	c #669EDC",
"p.	c #AE9E74",
"q.	c #569EF4",
"r.	c #4686CC",
"s.	c #8A7E2C",
"t.	c #9E9A3C",
"u.	c #67A6E4",
"v.	c #9ABED4",
"w.	c #A6B69C",
"x.	c #92B284",
"y.	c #5EA2EC",
"z.	c #12224C",
"A.	c #8E8234",
"B.	c #928654",
"C.	c #767624",
"D.	c #529EE4",
"E.	c #629AC4",
"F.	c #BACA7C",
"G.	c #9A9E54",
"H.	c #3A62AC",
"I.	c #3A72BC",
"J.	c #2A3A4C",
"K.	c #262E2C",
"L.	c #222A3C",
"M.	c #7E6E34",
"N.	c #7E7634",
"O.	c #8A7E3C",
"P.	c #5A96D4",
"Q.	c #66A2DC",
"R.	c #5686CC",
"S.	c #969E74",
"T.	c #CAAA3C",
"U.	c #9AAA54",
"V.	c #525A7C",
"W.	c #32569C",
"X.	c #3E423C",
"Y.	c #A69E3C",
"Z.	c #16263C",
"`.	c #6AAAE4",
" +	c #9E925C",
".+	c #B29E54",
"++	c #8E6A3C",
"@+	c #263E54",
"#+	c #26363C",
"$+	c #5E5A3C",
"%+	c #C69E3C",
"&+	c #9A8654",
"*+	c #8A7E4C",
"=+	c #66623C",
"-+	c #76662C",
";+	c #1E2614",
">+	c #868A54",
",+	c #FEFEBC",
"'+	c #163A5C",
")+	c #326AA4",
"!+	c #AE8E3C",
"~+	c #866A54",
"{+	c #42523C",
"]+	c #564A3C",
"^+	c #1E2644",
"/+	c #827E34",
"(+	c #928A34",
"_+	c #FEFEAC",
":+	c #0E3E6C",
"<+	c #366A9C",
"[+	c #6A664C",
"}+	c #7E8E54",
"|+	c #6A463C",
"1+	c #2E4234",
"2+	c #524E2C",
"3+	c #9E8E3C",
"4+	c #AB9E4C",
"5+	c #B2AE54",
"6+	c #FEFE94",
"7+	c #8E9E74",
"8+	c #1E5284",
"9+	c #163664",
"0+	c #2A4E7C",
"a+	c #324A2C",
"b+	c #665E2C",
"c+	c #EEE27C",
"d+	c #F6F6AC",
"e+	c #FEFAAC",
"f+	c #B2C294",
"g+	c #5E725C",
"h+	c #161E34",
"i+	c #968A3C",
"j+	c #BEB23C",
"k+	c #F6F2BC",
"l+	c #968634",
"m+	c #B6AE5C",
"n+	c #C2BA4C",
"o+	c #FAEEA4",
"p+	c #F6F284",
"q+	c #FAF6AC",
"r+	c #FEF69C",
"s+	c #E2DE64",
"t+	c #E2D664",
"u+	c #FEFA94",
"v+	c #FEEE94",
"w+	c #1A1A04",
"                        . .                                     ",
"                        . + . .                                 ",
"                      . @ # $ % & . .                           ",
"                  . . * = - ; > , ' ) . . . .                   ",
"              . . ! ~ { ] ^ / ( _ : < [ } | 1 . . . .           ",
"            . 2 3 ] 4 5 6 7 8 9 0 _ a b c $ d e + f 1 . . .     ",
"          . g h i i j k ] l m n n o p q r s # + + t u + v 1 . . ",
"          . l w x y z A ] ] B C D E F G H I J K L + t t e M N . ",
"        . O P y x Q w A A ] } R S T U V H < W X Y k u k u Z ` . ",
"        .  ...+.+.+.y L @.#.C $.%.&.*.=.q -.;.>.R ,.Y '.f ).!.. ",
"      . ~. .{.Q +.+.h ] h { ].E ^.O U /.q (.>.) S ^ ,.5 N ,..   ",
"      . _.:.<.+.Q y [.}.|.1.2.m 3.O &./.q 4., ) 5.6.7.8.9.9..   ",
"      . 0.a.b...y c.* d.e.f.g.h.m i.U /.G -.;.j.k.l.6.m.^ n..   ",
"      . _.3.o.h.y p.0.b.o.m q.h.r.i.&./.q -.-.j.k.s.t.t.R ` .   ",
"      . m 8 u.:.v.u w.x.y.:.h.m i.T /.G q < s z.k.A.B.].].C..   ",
"      . i.:.:.u.D.E.F.G.i.a.H.*.( I./.V b J.K.L.M.N.O.l.t..     ",
"        r f.m P.Q.u.q.R.S.> T.U.V.W.G H < s z.X.s.O.l.Y.6..     ",
"        Z.&.8 h.0.u.`.f. +m..+.+++: (.@+#+L.z.$+s.O.t.l.l..     ",
"      . X q U R.f.R.P.O %+ +&+*+=+-+J.< s ;+J M.A.>+].` C..     ",
"      . ,+6 '+)+O &.*.H.!+ +>+~+{+]+>.L.z.^+$+/+(+l.m.n..       ",
"    . | _+e >+:+_ <+)+p [+}+: |+1+{+j.^+K.2+s.3+3+4+^ 5+. .     ",
"  . | _+_+6+e 7+8+9+0+H 9+% a+1+J ;.L.L.b+3+Y.Y.7.f Z C.. . . . ",
". /+c+_+_+d+e+M f+g+b r s < J >.h+W ]+/+i+Y.R ,.'.d N . . . . . ",
"  . . j+! e+6+_+_+k+4 5.>., ;.>.M.s.l+R m+#.c+M M e+n+. . . .   ",
"      . . ,.Z _+_+_+_+_+d + t u u 4 Z t d o+e+_+_+p+t.. . .     ",
"          . . j+[.! e+_+_+_+_+e+_+q+r+e+e+_+_+6+6+s+C.. . .     ",
"              . . . j+[.M r+6+_+_+6+6+6+6+6+6+6+p+t.. . .       ",
"                    . . . j+).! _+_+6+6+6+6+6+r+).C.. .         ",
"                          . . . j+t+Z u+6+6+u+p+` . .           ",
"                                . . . j+).Z v+).C..             ",
"                                      w+w+. ` C..               ",
"                                            . .                 "};
