/* XPM */
static char *magick[] = {
/* columns rows colors chars-per-pixel */
"32 32 21 1",
"  c #000000",
". c #00003c",
"X c #003c00",
"o c #3c3c00",
"O c #303030",
"+ c #000080",
"@ c #0000be",
"# c #0000ff",
"$ c #008000",
"% c #00be00",
"& c #00ff00",
"* c #808000",
"= c #bebe00",
"- c #ffff00",
"; c #808080",
": c #a0a0a4",
"> c #bebeff",
", c #beffbe",
"< c #ffffbe",
"1 c #ffffff",
"2 c None",
/* pixels */
"22222222222222222222222222222222",
"22222222222222222222222222222222",
"22222222222222222222222222222222",
"22222222222222222222222222222222",
"2222222222222 2222   22222222222",
"222222222222 <  2 1<1  222222222",
"22222222222 <<<< 1<11<1  2222222",
"2222222222 <-<< <<<11<1<1  22222",
"222222222 <-<<.+++++>><<1<<  222",
"22222222 <-<++>>1>>>+++<<1111  2",
"2222222 -=-+#>>&,,#####+1<1<111 ",
"222222 ---+#>%&%%%%$X###+1<111 2",
"22222 -=-+&##&%%%%%$X####+<1< 22",
"2222 -=-+&$##&%%%%$X#####@+1 222",
"222 ==-=+&$##X&%%$X######@+ 2222",
"22 ====+@&$###$%%X#######@@+  22",
"2 ==== +@$####$$$$#######@@+<1 2",
" ==== -+@@#####X$$$X#####@@+111 ",
" ;===oO+@@@#####X$&%%###@@@+<1 ;",
"2 X;===O+@@@#####$%%%%@@@@+=< ;2",
"222  ;==+@@@@@@###X%$$X@@@+< :22",
"22222  ;=+@@@@@@@@X$$$X@@+= :222",
"222222  ==+@@@@@@@@X$$@@+= ;2222",
"222222 -===+@@@@@@@@$@@+= :22222",
"22222 ----==+++@@@@@+++= :222222",
"22222 ;----===*+++++*== :2222222",
"222222  ;----========= ;22222222",
"22222222  ;---------- ;222222222",
"2222222222  :------- ;2222222222",
"222222222222  ;---- ;22222222222",
"22222222222222 X;; :222222222222",
"2222222222222222  :2222222222222"
};
