/* XPM */
/* Drawn  by Mark Donohoe for the K Desktop Environment */
/* See http://www.kde.org */
static char*image[]={
"32 32 22 1",
"# c #000000",
"b c #ffffff",
"o c #808080",
"q c #c0c0c0",
"l c #000080",
"p c #a0a0a4",
"m c #585858",
"i c #0000ff",
"e c #ff0000",
"n c #800000",
"k c #004000",
"g c #00c000",
"t c #000040",
"s c #004040",
"r c #404000",
"j c #c0c000",
"c c #ffff00",
"d c #ffbebe",
"f c #beffbe",
"h c #bebeff",
"a c #ffffbe",
". c None",
"................................",
"................................",
"................................",
"................................",
".............#....###...........",
"............#a##.#bab##.........",
"...........#aaaa#babbab##.......",
"..........#acaa#bbabaabab##.....",
".........#acaa#bbaaabbaabaa##...",
"........#acac#baaaaababbabbbb##.",
".......#cccc#abababaabbabababbb#",
"......#cccc#deedfggfhihaababbb#.",
".....#cjcc##eeeegggkiiil#aaba#..",
"....#cjcc#a#meeenggkiill#aab#...",
"...#jjcj#aa#moeenggkpilm#ba#....",
"..#jjjj#aca#moenqbgkpilm#bbb##..",
".#jjjj#ccaa#moenqbgkpllm#babab#.",
"#jjjj#ccccc#moenqbkkppom#babbbb#",
"#ojjjrsjccc#moenqbaqppom#aabab#o",
".#kojjjrkjc#monnqbaqppom#abaa#o.",
"...##ojjjkc#moopqbaqppom#aaa#p..",
".....##o#cc#moopqbaqppom#aa#p...",
"......##cccc#oopqbaqppom#a#o....",
"......#cccccc###########atp.....",
".....#cccccccccaaaaaaaaa#p......",
".....#occcccccccccaaaaa#p.......",
"......##occccccccccccako........",
"........##occcccccccc#o.........",
"..........##pcccccccko..........",
"............##occcc#o...........",
"..............#koo#p............",
"................##p............."};

