/* XPM */
/* Drawn  by Mark Donohoe & Jonathan Buzzard for the K Desktop Environment */
/* See http://www.kde.org */
static char*info[]={
"32 32 13 1",
"# c #000000",
"b c #ffffff",
"h c #808080",
"e c #000080",
"j c #a0a0a4",
"i c #004000",
"k c #000040",
"g c #808000",
"f c #c0c000",
"c c #ffff00",
"d c #bebeff",
"a c #ffffbe",
". c None",
"................................",
"................................",
"................................",
"................................",
".............#....###...........",
"............#a##.#bab##.........",
"...........#aaaa#babbab##.......",
"..........#acaa#bbabaabab##.....",
".........#acaa#dddddddaabaa##...",
"........#acac#deeeeeeddbabbbb##.",
".......#cccc#eeeeeeeeeedbababbb#",
"......#cccc#eeeedbbdeeeedbabbb#.",
".....#cfcc#eeeeedbbdeeeeedaba#..",
"....#cfcc#eeeeeeeeeeeeeeeebb#...",
"...#ffcf#geeeeeeeeeeeeeeeed#....",
"..#ffff#ceeeeeebbbbdeeeeeeeb##..",
".#ffff#fgeeeeeeedbbdeeeeeeebab#.",
"#ffff#ffgeeeeeeedbbdeeeeeeebbbb#",
"#hffffffgeeeeeeedbbdeeeeeeebab#h",
".#ihffffgeeeeeeedbbdeeeeeeeaa#h.",
"...##hffggeeeeeedbbdeeeeeeaa#j..",
".....##h#geeeeeedbbdeeeeeea#j...",
"......##cfgeeeeedbbdeeeeef#h....",
"......#cccfgeeebbbbbbeeefkj.....",
".....#cccccfgeeeeeeeeeef#j......",
".....#hcccccffgeeeeeegf#j.......",
"......##hccccfffffffffih........",
"........##hcccccccccc#h.........",
"..........##jcccccccih..........",
"............##hcccc#h...........",
"..............#ihh#j............",
"................##j............."};

