/* XPM */
static char * key_xpm[] = {
"22 22 5 1",
" 	c None",
".	c #808080",
"X	c black",
"o	c #fbfffb",
"O	c #c0c0c0",
"                      ",
"                      ",
"                      ",
"                      ",
"        .XXX.         ",
"       ..ooo.X        ",
"      ..oXXXo..       ",
"      XoX...XoX       ",
"      XoX.  XoX.      ",
"      XoX.  XoX.      ",
"     XXXXXXXXXXX      ",
"     XOOOOOOOOOX.     ",
"     XO.......OX.     ",
"     XOoooooooOX.     ",
"     XO.......OX.     ",
"     XOOOOOOOOOX.     ",
"     XXXXXXXXXXX.     ",
"      ...........     ",
"                      ",
"                      ",
"                      ",
"                      "};
