/* XPM */
static char *magick[] = {
/* columns rows colors chars-per-pixel */
"32 32 10 1",
"  c #000000",
". c #00ff00",
"X c #be5900",
"o c #ff8200",
"O c #ffaa59",
"+ c #beffbe",
"@ c #ffdfaa",
"# c #ffffbe",
"$ c #ffffff",
"% c None",
/* pixels */
"%                  %%%%%%%%%%%%%",
" o##@O@O@O@O@O@O@O@  %%%%%%%%%%%",
" OoO##O@O@O@O@O@O@O@O  %%%%%%%%%",
" oOoOo##@O@O@O@O@O@O@O@  %%%%%%%",
" OoOoOoO#$$$$     $$$$$$$ %%%%%%",
" oOoOoOoO@OO +++     OOOO %%%%%%",
" OoOoOoOo@O  +. +++    OO %%%%%%",
" oOoOoOoO@O  +. ++ $$$$      %%%",
" OoOoOoOo@O  +. +. $+++$$$$$$ %%",
" oOoOoOoO@O  +. +. $++++++++. %%",
" OoOoOoOo@O  +. +. $++++++++. %%",
" oOoOoOoO@O O   +. $           %",
" OoOoOoOo@O oOO  .  @@@@@@@@@@@ ",
" oOoOoOoO@O XooOO   @OOOOOOOOOo ",
" OoOoOoOo@O  XXooOOo@OOXXXXXOOo ",
" oOoOoOoO@O @  XXooo@OOXOOOXOOo ",
" OoOoOoOo@O @OO  XXo@OOOOOOOOOo ",
" oOoOoOoO@O @OOXX  Xooooooooooo ",
" OoOoOoOo@O @OOXOOO            %",
" oOoOoOoO@O @OOOOOOOOOo O %%%%%%",
" OoOoOoOo@O ooooooooooo O %%%%%%",
" oOoOoOoO@OO           OO %%%%%%",
" OoOoOoOo@O @@@@@@@@@@@ O %%%%%%",
" oOoOoOoO@O @OOOOOOOOOo O %%%%%%",
" OoOoOoOo@O @OOXXXXXOOo O %%%%%%",
" oOoOoOoO@O @OOXOOOXOOo O %%%%%%",
" XoooOoOo@O @OOOOOOOOOo O %%%%%%",
"  XXooOoO@O ooooooooooo O %%%%%%",
"%%  XXooo@OO           OO %%%%%%",
"%%%%  XXo@OOOOOOOOOOOOOOO %%%%%%",
"%%%%%%  Xoooooooooooooooo %%%%%%",
"%%%%%%%%                 %%%%%%%"
};
