/* XPM */
static char *magick[] = {
/* columns rows colors chars-per-pixel */
"32 32 9 1",
"  c #000000",
". c #003c00",
"X c #303030",
"o c #595959",
"O c #808080",
"+ c #a0a0a4",
"@ c #c0c0c0",
"# c #ffffff",
"$ c None",
/* pixels */
"$$$$$$$$$   $$$$$$$$$$$$$$$$$$$$",
"$$$$$$$$ ###   $$   $$$$$$$$$$$$",
"$$$$$$$$O  ##@@  @@@  $$$$$$$$$$",
"$$$$$$$$$$$   @@@   @@ $$$$$$$$$",
"$$$$$$$$$$$$OO  ++++   $$$$$$$$$",
"$$$$$$$$$$OO###O   OOOO  $$$$$$$",
"$$$$$$$ OO#####O@@@  OOOo   $$$$",
"$$$$   @O#O####OOOO##   oooo  $$",
"$$$$ @@@O##O#OO###OO####  ooo $$",
"$$$$ XX@O###O#######O##XX    $$$",
"$$$$ ++XX####O##@###oXX.. $$$$$$",
"$$$$ +@#@+XXXXXXXXXXOOo.. $$$$$$",
"$$$$ +@#@@#@@++O++ooOOo.. $$$$$$",
"$$$$ +@#@@#@@++O++ooOOo.. $$$$$$",
"$$$$ +@#@@#@@++O++ooOOo.. $$$$$$",
"$$$$ +@#@@#@@++O++ooOOo.. $$$$$$",
"$$$$ +@#@@#@@++O++ooOOo.. $$$$$$",
"$$$$ +@#@@#@@++O++ooOOo.. $$$$$$",
"$$$$ +@#@@#@@++O++ooOOo.. $$$$$$",
"$$$$ +@#@@#@@++O++ooOOo.. $$$$$$",
"$$$$ +@#@@#@@++O++ooOOo.. $$$$$$",
"$$$$ +@#@@#@@++O++ooOOo.. $$$$$$",
"$$$$ +@#@@#@@++O++ooOOo.. $$$$$$",
"$$$$ +@#@@#@@++O++ooOOo.. $$$$$$",
"$$$$ +@#@@#@@++O++ooOOo.. $$$$$$",
"$$$$ +@#@@#@@++O++ooOOo.. $$$$$$",
"$$$$ +@#@@#@@++O++ooOOo.. $$$$$$",
"$$$$ +@#@@#@@++O++ooOOo.. $$$$$$",
"$$$$$  +@@#@@+++++ooOOo  $$$$$$$",
"$$$$$$$   +@@+++++oo   $$$$$$$$$",
"$$$$$$$$$$          $$$$$$$$$$$$",
"$$$$$$$$$$$$$$$$$$$$$$$$$$$$$$$$"
};
