/* XPM */
static char * large_system_package_xpm[] = {
"48 48 256 2",
"  	c None",
". 	c #020204",
"+ 	c #FEF6B4",
"@ 	c #FEFEFB",
"# 	c #FDFAE0",
"$ 	c #FEFAF1",
"% 	c #F2EAA4",
"& 	c #F9EEA3",
"* 	c #F6EEB3",
"= 	c #FAF6DC",
"- 	c #F8F2C8",
"; 	c #EEE294",
"> 	c #F2E697",
", 	c #EEE285",
"' 	c #D6C666",
") 	c #B6B604",
"! 	c #EADE7C",
"~ 	c #E2D67C",
"{ 	c #E6DA83",
"] 	c #B4B204",
"^ 	c #BCBB04",
"/ 	c #EEDE84",
"( 	c #DECE74",
"_ 	c #E1D27A",
": 	c #D9CD74",
"< 	c #BCAE5C",
"[ 	c #A29E04",
"} 	c #ACAC04",
"| 	c #928E04",
"1 	c #949204",
"2 	c #969604",
"3 	c #9D9B04",
"4 	c #A4A204",
"5 	c #A6A604",
"6 	c #CEBA54",
"7 	c #9A8C49",
"8 	c #7D7B04",
"9 	c #827E04",
"0 	c #858204",
"a 	c #868604",
"b 	c #8D8B04",
"c 	c #CDC26C",
"d 	c #CEC688",
"e 	c #D2CA90",
"f 	c #D6CE94",
"g 	c #C6B244",
"h 	c #83753C",
"i 	c #866E14",
"j 	c #666204",
"k 	c #726E04",
"l 	c #757204",
"m 	c #767604",
"n 	c #8A8604",
"o 	c #CABE6C",
"p 	c #C6BA6C",
"q 	c #626264",
"r 	c #1A1A1A",
"s 	c #0E0E0C",
"t 	c #3A3A3C",
"u 	c #938E6B",
"v 	c #BEB67C",
"w 	c #726234",
"x 	c #565208",
"y 	c #5D5A06",
"z 	c #625E04",
"A 	c #6A6604",
"B 	c #6D6A04",
"C 	c #6E6E04",
"D 	c #7A7604",
"E 	c #C5BA64",
"F 	c #C2B664",
"G 	c #BDB264",
"H 	c #BAB284",
"I 	c #23221F",
"J 	c #2E2E2C",
"K 	c #262625",
"L 	c #565341",
"M 	c #B4A87C",
"N 	c #46420C",
"O 	c #433E0C",
"P 	c #4A460D",
"Q 	c #4F4A06",
"R 	c #564E24",
"S 	c #5A5606",
"T 	c #666604",
"U 	c #AEA65C",
"V 	c #B4AA5C",
"W 	c #B2AE7C",
"X 	c #5A5A4C",
"Y 	c #4E4E4C",
"Z 	c #86826C",
"` 	c #968E49",
" .	c #7E763C",
"..	c #FEEE94",
"+.	c #564E04",
"@.	c #5E5E0C",
"#.	c #ACA254",
"$.	c #AA9E54",
"%.	c #1E1E1E",
"&.	c #9C924C",
"*.	c #121213",
"=.	c #474641",
"-.	c #EAEAEC",
";.	c #7A7A5C",
">.	c #FEF2B2",
",.	c #3C360C",
"'.	c #524E09",
").	c #938A44",
"!.	c #8C8244",
"~.	c #A69E74",
"{.	c #A29E9C",
"].	c #8D8A6F",
"^.	c #68664C",
"/.	c #3E3A09",
"(.	c #B2AE94",
"_.	c #928E6C",
":.	c #FDF6CB",
"<.	c #877E3C",
"[.	c #827A3C",
"}.	c #9B9277",
"|.	c #2A2A28",
"1.	c #6C6C6C",
"2.	c #9A9A44",
"3.	c #6A5614",
"4.	c #E2DABC",
"5.	c #FEFACC",
"6.	c #38320C",
"7.	c #423A0C",
"8.	c #796E36",
"9.	c #86622C",
"0.	c #CEA60C",
"a.	c #B29214",
"b.	c #86723C",
"c.	c #96966C",
"d.	c #ACAA4C",
"e.	c #322A0C",
"f.	c #362E0C",
"g.	c #6B632C",
"h.	c #665E2C",
"i.	c #827637",
"j.	c #9E7624",
"k.	c #F2BE10",
"l.	c #F2CA0C",
"m.	c #EAD230",
"n.	c #F2D624",
"o.	c #968224",
"p.	c #767654",
"q.	c #A6A23C",
"r.	c #615A2A",
"s.	c #FEF2B7",
"t.	c #CA8E0C",
"u.	c #F4C210",
"v.	c #EED214",
"w.	c #D2BA0C",
"x.	c #C28E04",
"y.	c #A67A04",
"z.	c #FEFEE4",
"A.	c #BAB29C",
"B.	c #AE9A3C",
"C.	c #B2A664",
"D.	c #CEAE14",
"E.	c #BE920C",
"F.	c #B27604",
"G.	c #929294",
"H.	c #161614",
"I.	c #A49E58",
"J.	c #9A9274",
"K.	c #BEBE0F",
"L.	c #CACA54",
"M.	c #D5D6D5",
"N.	c #AE9E84",
"O.	c #B2822C",
"P.	c #BEAE9C",
"Q.	c #DEDEDC",
"R.	c #FAFAFC",
"S.	c #A2A25C",
"T.	c #C2BA9C",
"U.	c #CEC6B4",
"V.	c #C8C638",
"W.	c #6E6E4C",
"X.	c #CACACF",
"Y.	c #C2C2C4",
"Z.	c #EEEEEC",
"`.	c #060604",
" +	c #FEFAB4",
".+	c #DAD6CC",
"++	c #F6F6F4",
"@+	c #FAEACC",
"#+	c #BAB604",
"$+	c #848484",
"%+	c #4A4A4C",
"&+	c #FEFAC7",
"*+	c #3E3E30",
"=+	c #C5C6C6",
"-+	c #0A0A0E",
";+	c #FEF6A0",
">+	c #FDF6B7",
",+	c #E6E6E4",
"'+	c #FEFAB5",
")+	c #C2BE9C",
"!+	c #FEF6A7",
"~+	c #323231",
"{+	c #FEF68E",
"]+	c #BBB29C",
"^+	c #969694",
"/+	c #727274",
"(+	c #CAC6A4",
"_+	c #5E4E04",
":+	c #584E08",
"<+	c #ADADAC",
"[+	c #56565C",
"}+	c #CE9305",
"|+	c #726618",
"1+	c #F6EAD0",
"2+	c #EECA24",
"3+	c #7E6A14",
"4+	c #9F6E04",
"5+	c #E2A60B",
"6+	c #FCCE0C",
"7+	c #332A0C",
"8+	c #E6D6B4",
"9+	c #8A620C",
"0+	c #4E3604",
"a+	c #FAD60C",
"b+	c #FEF284",
"c+	c #DEA20C",
"d+	c #EEB60C",
"e+	c #F2BA0C",
"f+	c #F6BE0F",
"g+	c #C6A60C",
"h+	c #F2F2F4",
"i+	c #C6BA94",
"j+	c #EEAE0C",
"k+	c #F8D668",
"l+	c #D69A04",
"m+	c #665204",
"n+	c #8C8C8C",
"o+	c #D89E04",
"p+	c #E5AA09",
"q+	c #DE9E0C",
"r+	c #FAE294",
"s+	c #423E34",
"t+	c #665234",
"u+	c #523604",
"v+	c #F6C64C",
"w+	c #7E6E54",
"x+	c #664604",
"y+	c #563A04",
"z+	c #BA8204",
"A+	c #965E04",
"B+	c #664E1C",
"C+	c #C68A04",
"D+	c #6E4A1C",
"E+	c #725224",
"F+	c #825614",
"G+	c #8A6634",
"                                                                                                ",
"                                                                                                ",
"                                      .                 .                                       ",
"                                  . . + .             . @ . .                                   ",
"                              . . + + + + .         . @ @ @ @ . .                               ",
"                          . . + + + + + + + .     . # $ @ @ @ @ @ . .                           ",
"                      . . % & * & & & * & % % . . * = - = # # $ $ @ @ . .                       ",
"                  . . ; ; > , , ; ; , ; , ' ' ) ! @ @ * - * - = = = # # $ . .                   ",
"              . . ~ { { ~ { { { { { { ' ' ] ) ^ / , , @ @ % % * - - - = = = # . .               ",
"          . . ( ( _ ( ( _ : : : : < < [ [ } } } , ! , , , @ @ % % % * * * - - - = . .           ",
"      . . ' ' ' ' ' ' ' ' ' ' < < | 1 2 3 3 4 5 ! { ~ _ ~ _ : @ @ , > > % % * * * * - . .       ",
"        . 6 6 6 6 6 6 6 6 7 7 8 9 0 a b b 1 2 3 : : : : c d e f d d @ , , > > > % * % .         ",
"          . g g g g g h i j k k l m 8 9 a n b 1 c c c o p q r . s t u v @ , , , , > .           ",
"            . < g w w x y z j A B C l l D 8 9 0 E F G H I . . . . J K L M @ @ , , .             ",
"      . . . . . N O P Q R x S y z j T B l l D 8 U V W X . . . . . Y t . Z u `  .. . . . .       ",
"        . . ......P P O N P Q +.x S @.@.j B B k #.$.M %.. . . . . . . . I @ h @ @ @ . .         ",
"            . . ..& & P P O O P Q Q x x S @.@.j &.&.M *.s %.. . I =.r . . -.@ @ . .             ",
"              . ;.>.>.>.- P P ,.O N P Q '.'.S y ).!.~.*.@ {.. J {.@ {.. . ].^./..               ",
"              . (._.;.:.:.:.# /.O ,./.O N P Q '.<.[.}.|.. @ t 1.@ J @ . . u 2.3..               ",
"              . @ 4.(._.;.5.# $ $ /./.6./.7.O N 8.8.].I . 9.0.a.b.. @ . . c.d.0 .               ",
"              . @ @ @ 4.(._.;.$ @ @ @ e.f.6.,./.g.h.i.. j.k.l.m.n.l.o.. . p.q.0 .               ",
"              . @ @ @ $ $ 4.(._.;.@ @ @ @ e.e.f.r.'.s.. t.u.v.m.w.x.y.. . L U 0 .               ",
"              . @ @ @ @ z.$ # 4.A._.;.@ @ @ @ A.B.& C.. }.x.D.E.t.F.{.*.G.H.I.8 .               ",
"              . z.$ z.z.# z.z.# # 4.(._.;._.J.A.^ K.L.|.M.N.O.y.P.Q.R.=.H.. X S..               ",
"              . z.@ # z.# # 5.5.# 5.# 4.T.J.A.U.^ V.W.J @ X.Y.X.Z.R.R.Y.. . `.u .               ",
"              . z.# z.# z.z.z.# 5.5.5. +5.4.U..+^ I.`.M.R.R.-.R.++++R.R.K . . K .               ",
"              . z.# z.5.5.5.5.5.5.5.:.+  ++  +@+#+r t @ R.++++++R.R.R.++$+. . . %+              ",
"              . # # 5.# 5.5.5. +5.+  +5.+  ++ &+*+. $+=+M.-.Z.++R.Z.M.=+M.-+*.. .               ",
"              . z.5.5.5.5.5.5.:.5. + + ++  +;+>+s *.,+R.R.++++R.++++R.R.Q.$+-+*.. r             ",
"              . 5.5.5.5.5.5. + + ++ + + ;++ - ].H.$+R.++R.R.++R.R.R.R.++R.,+K K -+.             ",
"              . 5.5.5.5. + +5.+  + + + +;+'+&+J H.Z.R.R.++Z.R.++++++++R.++R.K . %..             ",
"              . 5.5. +:.5.+ +  ++ + + ;++ '+)+s Y R.++R.R.Z.R.R.R.R.++R.R.R.=.. H.. s           ",
"              . 5.5. ++  + ++  +;+;+;+;+!+s.~+H.$+R.R.++R.-.R.++++++R.++++@ q . *.. .           ",
"              .  ++  + ++ + + + ;+;+;+{+>+]+. ~+^+R.R.R.R.-.R.R.R.++R.R.++R./+-+-+. .           ",
"              .  ++ +  + + +;+ +;+;+;+{+'+(+_+:+<+R.++++R.Q.++++++R.++++R.@ [+*.-+r `.          ",
"              . +  + +;+;+;+;+{+;+;+{+{+'+>+}+t.|+X.@ R.R.M.R.R.++R.R.++1+2+3+. . -+A .         ",
"              . + + + ;+;+;+;+{+{+{+;+>+- 4+5+5+6+7+^+R.R.++++++R.++++R.8+k.9+. . 0+a+.         ",
"              . . ;+;+;+;+;+b+{+;+{+- 4+4+c+d+e+f+g+. $+@ R.R.++R.R.R.h+i+j+t.4+4+c+e+k+.       ",
"                  . . ;+{+;+{+b+b+>+4+l+5+d+e+k.k.l.m+. n+R.++R.++++++++P.o+p+q+5+k.k.f+r+.     ",
"                      . . {+b+{+{+- }+5+d+k.k.k.k.e+5+s+Y.R.++R.R.R.R.,+t+l+e+e+e+k.k.k.k.k+.   ",
"                          . . b+{+>+t.d+e+k.k.e+k.k.k.c+@ ++R.++++R.Y.%.u+5+k.k.k.k.k.k.k.v+.   ",
"                              . . . 4+5+e+k.k.k.k.e+e+o+w+<+X.<+n+Y . . x+c+k.k.k.k.k.k.. .     ",
"                                  . . . }+o+p+d+k.k.e+t.y+. . . . . . . x+l+e+e+d+p+. .         ",
"                                      . . . j.F.x.}+z+A+.             . B+F.C+}+F..             ",
"                                          . . . . 9.D+.                 . E+F+G+.               ",
"                                              . . . .                     . . .                 ",
"                                                                                                ",
"                                                                                                "};
