/* XPM */
static char * kdehelp_xpm[] = {
"48 48 209 2",
"  	c None",
". 	c #020204",
"+ 	c #76767C",
"@ 	c #FEFECC",
"# 	c #FEFEA4",
"$ 	c #FEFE64",
"% 	c #FEFE5C",
"& 	c #FEFE4C",
"* 	c #FEFE9C",
"= 	c #424244",
"- 	c #FAF6C4",
"; 	c #FEFED4",
"> 	c #FEFEDC",
", 	c #FAF6CC",
"' 	c #FEFEB4",
") 	c #E2D65C",
"! 	c #FEFEE4",
"~ 	c #FEFE6C",
"{ 	c #FEFEEC",
"] 	c #FEFEF4",
"^ 	c #E2DE4C",
"/ 	c #FEFE84",
"( 	c #FEFEFC",
"_ 	c #022A2C",
": 	c #02FEFC",
"< 	c #FEFE54",
"[ 	c #FEFEAC",
"} 	c #02FAF4",
"| 	c #02FAFC",
"1 	c #02EEEC",
"2 	c #02E6E4",
"3 	c #F2F27C",
"4 	c #02F6F4",
"5 	c #02DEDC",
"6 	c #02D2D4",
"7 	c #BABEBC",
"8 	c #02E2E4",
"9 	c #02CACC",
"0 	c #02C6C4",
"a 	c #FEFEE5",
"b 	c #B2B2B4",
"c 	c #12FEFC",
"d 	c #02EAEC",
"e 	c #02E2DC",
"f 	c #02DADC",
"g 	c #02D2CC",
"h 	c #02CECC",
"i 	c #02C2C4",
"j 	c #02BEBC",
"k 	c #02B6B4",
"l 	c #1EFEFC",
"m 	c #C7C7C8",
"n 	c #C2FEFC",
"o 	c #BEFEFC",
"p 	c #02CAC4",
"q 	c #02AEAC",
"r 	c #02AAAC",
"s 	c #BAFEFC",
"t 	c #C6FEFC",
"u 	c #E2DAD4",
"v 	c #FAF68C",
"w 	c #C6B294",
"x 	c #E2FFFD",
"y 	c #B6FEFC",
"z 	c #6EFAFC",
"A 	c #02D6D4",
"B 	c #02C2BC",
"C 	c #02BABC",
"D 	c #02B2AC",
"E 	c #028284",
"F 	c #021214",
"G 	c #42FAFC",
"H 	c #664A2C",
"I 	c #D1CC47",
"J 	c #EFEF5F",
"K 	c #6E4E2C",
"L 	c #1AFEFC",
"M 	c #D3FEFF",
"N 	c #AEFAFC",
"O 	c #2EEAEC",
"P 	c #02B2B4",
"Q 	c #2EEEEC",
"R 	c #B2FAFC",
"S 	c #3E3E44",
"T 	c #8A765C",
"U 	c #BAB28C",
"V 	c #D2CEAC",
"W 	c #EEDABC",
"X 	c #CAB294",
"Y 	c #AE9274",
"Z 	c #826A5C",
"` 	c #5E5E5C",
" .	c #06F6F4",
"..	c #4AF6F4",
"+.	c #C7FBFC",
"@.	c #A2F6F4",
"#.	c #2AE2E4",
"$.	c #828A8C",
"%.	c #121214",
"&.	c #32F2F4",
"*.	c #3E6E74",
"=.	c #9A9A9C",
"-.	c #CACEC4",
";.	c #F6EEE4",
">.	c #EEE6D4",
",.	c #EAEAE4",
"'.	c #C2BEB4",
").	c #A29E94",
"!.	c #1EE6E4",
"~.	c #BBF8F7",
"{.	c #92EEEC",
"].	c #2EDADC",
"^.	c #027A7C",
"/.	c #8A8A8C",
"(.	c #BAB6B4",
"_.	c #1E1E1C",
":.	c #12E6E4",
"<.	c #6E5E54",
"[.	c #B6B29C",
"}.	c #827664",
"|.	c #827A6C",
"1.	c #726E64",
"2.	c #4A4644",
"3.	c #2AA6A4",
"4.	c #02F2F4",
"5.	c #02EAE4",
"6.	c #02DAD4",
"7.	c #82EAE4",
"8.	c #2ACECC",
"9.	c #BABABC",
"0.	c #86EAEC",
"a.	c #12DADC",
"b.	c #4E6E74",
"c.	c #462E34",
"d.	c #929A94",
"e.	c #B2B6B4",
"f.	c #AEAEAC",
"g.	c #BAAEAC",
"h.	c #72E2E4",
"i.	c #2AC6C4",
"j.	c #62DEDC",
"k.	c #16D2D4",
"l.	c #FAFAF4",
"m.	c #6E5E5C",
"n.	c #76DEDC",
"o.	c #62BABC",
"p.	c #262624",
"q.	c #1E6264",
"r.	c #022224",
"s.	c #12C6C4",
"t.	c #D6D6CC",
"u.	c #5A5A5C",
"v.	c #32928C",
"w.	c #CEC6BC",
"x.	c #BEBEBC",
"y.	c #AABEBC",
"z.	c #32D2D4",
"A.	c #326A6C",
"B.	c #6E625C",
"C.	c #867E74",
"D.	c #9A9E94",
"E.	c #B6B6B4",
"F.	c #D2D2D4",
"G.	c #02A6A4",
"H.	c #12B5AC",
"I.	c #AAAA9C",
"J.	c #EAEEEC",
"K.	c #FAFAEC",
"L.	c #EEF6EC",
"M.	c #664E4C",
"N.	c #02A2A4",
"O.	c #AA8E7C",
"P.	c #927A6C",
"Q.	c #6A5654",
"R.	c #665654",
"S.	c #4E8EA4",
"T.	c #129E9C",
"U.	c #129A9C",
"V.	c #029A9C",
"W.	c #029E9C",
"X.	c #285556",
"Y.	c #129694",
"Z.	c #12928C",
"`.	c #129A94",
" +	c #129294",
".+	c #027674",
"++	c #AAAAAC",
"@+	c #026A6C",
"#+	c #02A29C",
"$+	c #0E8A8C",
"%+	c #128E8C",
"&+	c #02AAA4",
"*+	c #0E8A84",
"=+	c #027274",
"-+	c #0E8684",
";+	c #9A9EA4",
">+	c #9E9EA4",
",+	c #EA821C",
"'+	c #FEFAFC",
")+	c #026E6C",
"!+	c #A2A2A4",
"~+	c #0E827C",
"{+	c #9E9E9C",
"]+	c #829A9C",
"^+	c #D2EEEC",
"/+	c #FAFAFC",
"(+	c #7E969C",
"_+	c #F2FAFC",
":+	c #D6D6D4",
"                                                                                                ",
"                                                                                                ",
"                                                                                                ",
"                                      . . . . . . .                                             ",
"                                  + + @ # $ $ % & * = +                                         ",
"                                + - ; ; > , ' ' > > ; - +                                       ",
"                              + ) ; > ! ! @ @ @ ! ! ! ; , +                                     ",
"                              . ~ > ! ! { { > ] ] { { ! > .                                     ",
"                            . ^ / { { { ] ] ] ] ] { ] { ! * .                                   ",
"                            . $ * @ { { ] ( ( ( ( ] { ] , $ . _                                 ",
"                            . & ' * @ ( ( ( ( ( ( ( ] @ * & . : _ .                             ",
"                            . < [ * , ( ( ( ( ( ( ( ( @ * & + : } : . .                         ",
"                            . $ # ; ( ( ( ( ( ( ( { ( ( , $ + : | 1 2 : . .                     ",
"                            . 3 / > ( ( ( ( ( ( ( ( ( ( @ * + : 4 1 2 5 6 : . .                 ",
"                              . / ; ! ( ( ( > ( ( ( ( ; > 7 : : 4 1 8 5 6 9 0 : . .             ",
"                              . # ; ; ! > @ @ ! > ( ; a * b c : 4 d e f g h i j k : . .         ",
"                            . l b @ @ ; > ' * ' { > ; # m n o 4 1 d 5 f h p i j k q r : .       ",
"                          . : s t m u v $ < & $ $ v w b t x y z 1 8 5 A h 0 B C k D E F         ",
"                        . : G o x n H I J & & $ J I K : L s M N O 5 A 6 9 0 j k P E . .         ",
"                      . : Q R M s : S T U V W X Y Z ` : :  ...+.@.#.A h p i C k E . $.%.        ",
"                    . : 5 @.+.&.4 | *.=.-.;.>.,.'.).*.| 4 1 d !.~.{.].9 i i C ^.. /.(._.        ",
"                  . : 6 {.~.:.1 1 : : <.).[.}.|.1.2.3.4.1 5.8 5 6.@.7.8.B C E . /.9.9._.        ",
"                . : p 0.@.a.5 :.1 : b.c.<.d.e.f.u g.5.d 2 8 f A 6 9 {.h.i.^.. $.'.7 9._.        ",
"              . : j j.{.k.h A e 1 : S ).>.l.( >.g.m.` 8 5 6.A 6 h 9 i n.o.p./.9.9.9.9.q.r.      ",
"            . : k j.{.s.0 9 h 6 e 1 1 |.t.=.|.1.u.c.v.f A 6 h 9 0 i j E = 9.w.x.'.9.y.C .       ",
"          . : q z.j.s.j i 0 9 h g e A.c.B.$.C.D.E.|.h 6 6 h 9 0 B j E . $.9.F.9.7 y.j .         ",
"        . : G.H.j.q P C C B i 0 p h S |.I.J.K.L.w.M.` 9 p 0 i i C ^.. /.x.9.x.F.y.j .           ",
"      . : N.H.h r q P P C C j j i B B <.=.O.P.Q.R.2.S.T.U.j j C E . /.9.9.7 9.y.j .             ",
"    . : V.W.N.N.G.r q q P k C C j j C j X.. . . X.Y.Z.`.`. +Z.^.. + x.x.9.7 y.j .               ",
"    . . . E W.W.N.N.G.r q q P k k C C C Y.Y.Y.Y.Y.Y.Y.Z.Z.Z..+. + ++x.9.9.y.j .                 ",
"    . @+9.. . E #+N.G.G.r r q D P k D k Z.Z.Z.Z.Z.Z.Z.$+%+.+. + D.++x.x.y.C .                   ",
"    . @+( ( 7 . . E N.N.G.&+&+r r q D D D $+$+$+*+$+*+%+=+. + =.=.++x.y.j .                     ",
"    . @+( ( ( ( 7 . . ^.N.N.G.G.G.G.r r q %+%+*+*+-+-+=+. + ;+>+=.++y.k .                       ",
"    . @+,+( ( ( '+( 7 . . E W.N.N.G.N.G.G.G.-+-+-+-+)+. + !+=.=.>+++j .                         ",
"    . @+( ( ( ( ( ( ( ( 9.. . E W.N.N.W.N.N.~+~+~+)+. + {+!+>+=.]+j .                           ",
"    . j j ^+( ( /+( ( ( ( ( 7 . . ^.V.W.W.W.W.~+@+. + D.;+=.=.]+j .                             ",
"      . . j j ^+( ( ( ( ( ( ( /+7 . . E V.V.V.^.. + >+=.>+>+(+j .                               ",
"          . . j j ^+( ( ( ( ( ( ( ( 9.. . ^.E _ + !+!+>+=.(+j .                                 ",
"              . . j j ^+( ( /+/+( ( l.( 7 . . + I.=.>+>+]+j .                                   ",
"                  . . j j ^+( _+L./+/+/+( l.F.++++;+>+(+j .                                     ",
"                      . . j j ^+( ( /+/+/+( :+++++>+]+j .                                       ",
"                          . . j j ^+( ( ( /+:+f.++(+j .                                         ",
"                              . . j j ^+( /+:+++]+j .                                           ",
"                                  . . j C ^+:+]+j .                                             ",
"                                      . . j j j .                                               ",
"                                          . . .                                                 ",
"                                                                                                ",
"                                                                                                "};
