/* XPM */
/* Drawn by Torsten Rahn dedicated to Steffi */
static char * go_xpm[] = {
"48 48 256 2",
"  	c None",
". 	c #020204",
"+ 	c #82827C",
"@ 	c #C2C2BC",
"# 	c #3E423C",
"$ 	c #EEE2CC",
"% 	c #C28A4C",
"& 	c #A2A29C",
"* 	c #8E5E1C",
"= 	c #FEF2B4",
"- 	c #E2C6A4",
"; 	c #22221C",
"> 	c #62625C",
", 	c #BE823C",
"' 	c #D6D2A4",
") 	c #BEB284",
"! 	c #624A2C",
"~ 	c #92928C",
"{ 	c #32322C",
"] 	c #E2E2DC",
"^ 	c #CEA674",
"/ 	c #F2F2EC",
"( 	c #D2C6B4",
"_ 	c #E6EAEC",
": 	c #9A8664",
"< 	c #525254",
"[ 	c #82725C",
"} 	c #FAFADC",
"| 	c #A2763C",
"1 	c #121204",
"2 	c #AAAAA4",
"3 	c #868A84",
"4 	c #CACAC4",
"5 	c #3E2204",
"6 	c #76726C",
"7 	c #DEDEBC",
"8 	c #B6BAB4",
"9 	c #E6A654",
"0 	c #726A64",
"a 	c #4A3614",
"b 	c #261604",
"c 	c #EEE2DC",
"d 	c #FAFAF4",
"e 	c #B2AAA4",
"f 	c #4E463C",
"g 	c #C69A6C",
"h 	c #FED68C",
"i 	c #2A2A2C",
"j 	c #6A6A64",
"k 	c #5E564C",
"l 	c #EEEAE4",
"m 	c #8A867C",
"n 	c #CAC2C4",
"o 	c #9A9A94",
"p 	c #7E7A6C",
"q 	c #B6926C",
"r 	c #B2B2AC",
"s 	c #5A5A54",
"t 	c #B6762C",
"u 	c #6A625C",
"v 	c #D2D2CC",
"w 	c #E6E6DC",
"x 	c #C2BAB4",
"y 	c #FAF6F4",
"z 	c #D2CEC4",
"A 	c #463A2C",
"B 	c #625E54",
"C 	c #7E7A7C",
"D 	c #BAB6AC",
"E 	c #82867C",
"F 	c #C6C6BC",
"G 	c #2A261C",
"H 	c #5A524C",
"I 	c #FEFEDC",
"J 	c #1A1A14",
"K 	c #8E8A84",
"L 	c #CACECC",
"M 	c #DADAD4",
"N 	c #EEB66C",
"O 	c #221E0C",
"P 	c #B2AEA4",
"Q 	c #EAD6BC",
"R 	c #F2EEF4",
"S 	c #DAD6D4",
"T 	c #46423C",
"U 	c #EEEEB4",
"V 	c #C2925C",
"W 	c #AAA6A4",
"X 	c #FEFAC4",
"Y 	c #9A968C",
"Z 	c #3A3A34",
"` 	c #F6F6EC",
" .	c #AEAEA6",
"..	c #462A0C",
"+.	c #BEBAB9",
"@.	c #FEFEFC",
"#.	c #524E44",
"$.	c #C69E6C",
"%.	c #C2BEB9",
"&.	c #DEDEDB",
"*.	c #1A0A04",
"=.	c #C6C2C2",
"-.	c #A6A6A1",
";.	c #F6C27C",
">.	c #BE8A4C",
",.	c #E2E2EC",
"'.	c #EAEAF4",
").	c #565650",
"!.	c #AE7E3C",
"~.	c #8A8E8C",
"{.	c #362A15",
"].	c #EEB26C",
"^.	c #EAE6D8",
"/.	c #322A24",
"(.	c #625A48",
"_.	c #EEEEEC",
":.	c #9E9E94",
"<.	c #A29A94",
"[.	c #B6B6B4",
"}.	c #B67E3C",
"|.	c #6A665E",
"1.	c #D6D6D4",
"2.	c #D2CED4",
"3.	c #563A14",
"4.	c #7E7E7C",
"5.	c #2A1E0C",
"6.	c #B6AEA6",
"7.	c #4A4640",
"8.	c #0E0E04",
"9.	c #765224",
"0.	c #DAB284",
"a.	c #FECE8C",
"b.	c #FEE6A4",
"c.	c #928E88",
"d.	c #E2DEE0",
"e.	c #D2CEBC",
"f.	c #FABE6C",
"g.	c #FEEAAC",
"h.	c #CE9654",
"i.	c #FEDE9C",
"j.	c #7A7A74",
"k.	c #D29E54",
"l.	c #AE7A3C",
"m.	c #DEC6A4",
"n.	c #8E724C",
"o.	c #523204",
"p.	c #1A160C",
"q.	c #0A0604",
"r.	c #FEC67C",
"s.	c #BA8644",
"t.	c #4A3E2C",
"u.	c #CA924C",
"v.	c #E6AA64",
"w.	c #FEDA9C",
"x.	c #FEFECE",
"y.	c #523614",
"z.	c #969694",
"A.	c #A67A44",
"B.	c #16160C",
"C.	c #3A260C",
"D.	c #2E2E24",
"E.	c #827E74",
"F.	c #1E1E14",
"G.	c #3E3E3C",
"H.	c #A29E9C",
"I.	c #C68E4C",
"J.	c #26261C",
"K.	c #2A1A04",
"L.	c #524A3C",
"M.	c #6E6E64",
"N.	c #BA7A2C",
"O.	c #D29A54",
"P.	c #7A6A5C",
"Q.	c #6A5E4C",
"R.	c #CAC6C6",
"S.	c #5A5654",
"T.	c #BEBEBC",
"U.	c #FEEEB4",
"V.	c #FEF6B4",
"W.	c #5A5E54",
"X.	c #8E8E84",
"Y.	c #F6F2FC",
"Z.	c #5E5A54",
"`.	c #463E3C",
" +	c #E6E6EC",
".+	c #FEFEEC",
"++	c #F6F6FC",
"@+	c #DEDEE4",
"#+	c #EAE6E4",
"$+	c #86827C",
"%+	c #666260",
"&+	c #363224",
"*+	c #E6E2DC",
"=+	c #EAEAEB",
"-+	c #56524C",
";+	c #FEFAE4",
">+	c #AEAAA7",
",+	c #8A8A87",
"'+	c #CECACC",
")+	c #FEFAFC",
"!+	c #2E2A24",
"~+	c #8E867C",
"{+	c #9E9A98",
"]+	c #B6B2AE",
"^+	c #D6D2D2",
"/+	c #D6CECC",
"(+	c #BEB6B4",
"_+	c #86867D",
":+	c #2E261C",
"<+	c #1E1A0C",
"[+	c #CECECF",
"}+	c #261E14",
"|+	c #4A4234",
"1+	c #C69254",
"2+	c #3E3A3C",
"3+	c #564E47",
"4+	c #C6BEBC",
"5+	c #F2B264",
"6+	c #BA7E34",
"7+	c #6E6664",
"8+	c #827E80",
"9+	c #BE864C",
"0+	c #A69E94",
"a+	c #A6A29C",
"b+	c #26221C",
"c+	c #BABAB4",
"d+	c #6E6A64",
"e+	c #665E54",
"f+	c #F2EEEC",
"g+	c #7A5224",
"h+	c #828284",
"i+	c #C2C2C4",
"j+	c #929294",
"k+	c #E2E2E4",
"l+	c #FAFAE4",
"m+	c #CACACC",
"n+	c #FAFAFC",
"o+	c #B2AAAC",
"p+	c #EEEAEC",
"q+	c #8A8684",
"r+	c #7E7A74",
"s+	c #E6E6E4",
"t+	c #C2BABC",
"u+	c #FAF6FC",
"v+	c #D2CECC",
"w+	c #BAB6B4",
"x+	c #C6C6C4",
"y+	c #2A2624",
"z+	c #FEFEE4",
"A+	c #DADADC",
"B+	c #221E14",
"C+	c #B2AEAC",
"D+	c #F2EEFC",
"E+	c #DAD6DC",
"F+	c #9A9694",
"G+	c #F6F6F4",
"                                                                                                ",
"                                                                                                ",
"                                      . . . . . . . .                   . . .                   ",
"                                    . j.~  .F &._.@..                 .  .=+r . . .             ",
"                                    . =+@.@.@.@.@.@..               .  .@.@.@.@.=+r . .         ",
"                                    . =+@.@.@.@.@.@..             .  .@.@.@.@.@.@.@.@. ..       ",
"                                    . =+@.@.@.@.@.@..             . 1.@.@.@.@.@.@.@.d .         ",
"                    . .             . =+@.@.@.@.@.@..           D.1.@.@.@.@.@.@.@.@. ..         ",
"                  . ~ ~ {           . =+@.@.@.@.@.@.5.        .  .@.@.@.@.@.@.@.@. ..           ",
"                . ~ @.@.-.!+      . 8.=+@.@.@.@.@.@.5.q..   .  .@.@.@.@.@.@.@.@. ..             ",
"              . ~ d @.@.@.&.. . . ~+5.=+@.@.@.@.@.@.i %+$+1 {.=+@.@.@.@.@.@.@.1..               ",
"              . r @.@.@.@.@.n+7+~+^.5.=+@.@.@.@.@.@.{.+ L p. .@.@.@.@.@.@.@.1..                 ",
"                . ] @.@.@._.+.#+@.@.5.=+@.@.@.@.@.@.{.s . s @.@.@.@.@.@.@.1..                   ",
"                  . @.@./ 6._.@.@.$+5.=+@.@.@.@.@.@.{.{.j @.@.@.@.@.@.@.@. ..                   ",
"                  . :.@.+.=+@.#+3+t.5.=+@.@.@.@.@.@.{.j G+@.@.@.@.@.@.@. ..                     ",
"                    . >+&.@.f+`.(.U 5.=+@.@.@.@.@.@.o x+@.@.@.@.@.@.@.1..                       ",
"                    . d+@.@.e+3+;+x.5.=+@.@.@.@.@.@.@.@.@.@.@.@.@.@. .Z .                       ",
"                    . %.@.P {.^..+} 5.=+@.@.@.@.@.@.@.@.@.@.@.@.@.@.!+S..                       ",
"                  . m n+n+|+0+@.@.l+5.=+@.@.@.@.@.@.@.@.@.@.@.@.@.@.4 !++ .                     ",
"                  . %.@.%.A ` @.@..+5.=+@.@.@.@.@.@._.@.@.@.@.@.@.@.@.!+S..                     ",
"          . . . . r+^+@.E.p @.@.@.@.5.=+@.@.@.@.@.@._+& @.@.@.@.@.@.@.G+{ S.. . . . .           ",
"      . . a+c+=+d =.^+@.k e @.@.@..+5.=+@.@.@.@.@.@.c.<+_.@.@.@.@.@.@.@.@ y+H.'+]+H.~ . .       ",
"      . n+@.@.@.@.=.*+n+L.e.@.@.@.z+5.=+@.@.@.@.@.@.Y *.Z.@.@.@.@.@.@.@.@.,+D.W R.=./+4+.       ",
"      . _.@.@.@.@.6.p+G+3+7 I I I x.5.=+@.@.@.@.@.@.,+! a 3 @.@.@.@.@.@.@.n+s 2+>++.4+4+.       ",
"      . / @.@.@.@.6.w n+H ' x.x.x.X 5.=+@.@.@.@.@.@.+ ! !.b 8 @.@.@.@.@.@.@.G+Z S.C+n 4+.       ",
"      . _.@.@.@.@.%.^+@.%+) V.U.= g.5.=+@.@.@.@.@.@.E ! O.9././ @.@.@.@.@.@.@.4 J C ~ . .       ",
"      . . a+6.@ l R.a+@.,+: b.i.i.w.5.=+@.@.@.@.@.@._+! k.>...W.@.@.@.@.@.@.@.@.o B..           ",
"          . . . . r+a+@.x+Q.h a.a.a.5.=+@.@.@.@.@.@._+! h.h.| K.-.@.@.@.@.@.@.@.@..             ",
"                  . r+y )+|.^ r.;.;.5.=+@.@.@.@.@.@._+! h.u.I.g+O &.@.@.@.@.@.@.@.=+.           ",
"                    . ]+@.[.[ f.].N 5.=+@.@.@.@.@.@._+! u.I.I.}.y.< d @.@.@.@.@.@.@.r .         ",
"                    . r+@.d h+q 5+v.5.=+@.@.@.@.@.@._+! I.% 9+6+( . X.@.@.@.@.@.@.@.@.r .       ",
"                      . z @.*+8+g 9 5.=+@.@.@.@.@.@.~.! I.>.t - n+_+; ] @.@.@.@.@.n+@ .         ",
"                    . D |./ @.&.j+$.5.=+@.n+_.&.[.~ # 3., N.m.n+'+%.).> @.@.G+@ 4.. .           ",
"                    . @.D (.G+@.s+2 5.. . 5.5.{.C.5 o.* 1+$ ++m+n v+7.J.+ M.. . .               ",
"                  . m+Y.@.{+B =+@.=+-.|.P.n.A.l.s.V 0.Q d _ i+v+'+#.8+K G.7..                   ",
"                . z.n+,. +++w+).C+n+D+k+d.@+d.c l =+=+A+m+R.A+a+T c.'+(+]+%.q+.                 ",
"              . ~ u+@+k+k+@+++D :+|.'+R '.k+E+^+2.[+[+^+E+%.0 . o+^+]+]+6.>+t+q+.               ",
"              . ~ v s+A+A+=+M .   F.}+B <.w+[+1.^+'+[.F+u . .   . W =.C+C+>+(+6 .               ",
"                . ~ 1.k+_.]+.         B+G Z.f f f |+-+&+.         . r+%.>+(+6 .                 ",
"                  . ~ M E..             . '+^+i+t+=.S .             . 6 4+6 .                   ",
"                    . b+.               . t+^+R.=.=.t+.               . . .                     ",
"                                        .  .^+T.+.@  ..                                         ",
"                                        . F+'++.w+%.F+.                                         ",
"                                        . $++.(+w+4+$+.                                         ",
"                                          . {+x ]+4+.                                           ",
"                                          . . . . . .                                           ",
"                                                                                                ",
"                                                                                                "};
