/* XPM */
static char * link3b_xpm[] = {
"32 32 28 1",
" 	c None",
".	c #000000",
"+	c #FEFEFE",
"@	c #FFFFFF",
"#	c #D7D7D7",
"$	c #F6F6F6",
"%	c #646464",
"&	c #373737",
"*	c #2B2B2B",
"=	c #BEBEBE",
"-	c #393939",
";	c #363636",
">	c #F0F0F0",
",	c #AFAFAF",
"'	c #2A2A2A",
")	c #606060",
"!	c #474747",
"~	c #868686",
"{	c #262626",
"]	c #1E1E1E",
"^	c #DEDEDE",
"/	c #666666",
"(	c #222222",
"_	c #1C1C1C",
":	c #DCDCDC",
"<	c #4F4F4F",
"[	c #1A1A1A",
"}	c #525252",
"                                ",
"                                ",
"                                ",
"                                ",
"                                ",
"                                ",
"                                ",
"                                ",
"                                ",
"                                ",
"                                ",
"                                ",
"                                ",
"                                ",
"                                ",
"                                ",
"                                ",
"                                ",
"                                ",
"                                ",
"                                ",
"..........                      ",
".+@##$++@.                      ",
".@%&*#+++.                      ",
".@=@-;@@+.                      ",
".@>@,')!+.                      ",
".@@~!*{]@.                      ",
".@@^/'(_@.                      ",
".@@@:<][@.                      ",
".++++:}[+.                      ",
".@@@@@@#@.                      ",
"..........                      "};
