/* XPM */
static char * locked_folder_xpm[] = {
"32 32 149 2",
"  	c None",
". 	c #020204",
"+ 	c #FECE84",
"@ 	c #FEDEA4",
"# 	c #323234",
"$ 	c #A26E34",
"% 	c #FEAE5C",
"& 	c #D3D3D3",
"* 	c #CBCBCB",
"= 	c #B6763C",
"- 	c #EDEDED",
"; 	c #D5D5D5",
"> 	c #A66E3C",
", 	c #62522C",
"' 	c #826E24",
") 	c #766624",
"! 	c #1D1907",
"~ 	c #1B1808",
"{ 	c #EBEBEB",
"] 	c #FDFDFD",
"^ 	c #CDCDCD",
"/ 	c #6E621C",
"( 	c #62561C",
"_ 	c #483F10",
": 	c #2E2E1C",
"< 	c #B29E44",
"[ 	c #B49E46",
"} 	c #4D471F",
"| 	c #2F2F1F",
"1 	c #333333",
"2 	c #887228",
"3 	c #846E2C",
"4 	c #B29B43",
"5 	c #514721",
"6 	c #C27E3C",
"7 	c #F6AA5C",
"8 	c #FEC67C",
"9 	c #FED69C",
"0 	c #8A742A",
"a 	c #877130",
"b 	c #82722C",
"c 	c #0F1113",
"d 	c #A26A34",
"e 	c #E6964C",
"f 	c #FEB25C",
"g 	c #FEBA6C",
"h 	c #FECA7C",
"i 	c #FECE8C",
"j 	c #F7F7F7",
"k 	c #89752A",
"l 	c #847430",
"m 	c #CA8644",
"n 	c #E5E5E5",
"o 	c #F5F5F5",
"p 	c #EFEFEF",
"q 	c #959595",
"r 	c #CE8A44",
"s 	c #E3E3E3",
"t 	c #FBFBFB",
"u 	c #FFEACB",
"v 	c #7A6A24",
"w 	c #D7D7D7",
"x 	c #818181",
"y 	c #ADADAD",
"z 	c #965E34",
"A 	c #FEAA5C",
"B 	c #F3F3F3",
"C 	c #F6CE64",
"D 	c #FEDE5A",
"E 	c #CFCFCF",
"F 	c #C3C3C3",
"G 	c #B5B5B5",
"H 	c #A5A5A5",
"I 	c #939393",
"J 	c #DBDBDB",
"K 	c #EAC65C",
"L 	c #9D9851",
"M 	c #DDBC4B",
"N 	c #F1C84A",
"O 	c #C7C7C7",
"P 	c #C5C5C5",
"Q 	c #BFBFBF",
"R 	c #ABABAB",
"S 	c #9B9B9B",
"T 	c #393732",
"U 	c #786721",
"V 	c #A88F37",
"W 	c #FEDA3C",
"X 	c #BDBDBD",
"Y 	c #BBBBBB",
"Z 	c #9D9D9D",
"` 	c #2E3234",
" .	c #DFDFDF",
"..	c #E2C25C",
"+.	c #2F2E24",
"@.	c #85773F",
"#.	c #7B6C35",
"$.	c #846F27",
"%.	c #675526",
"&.	c #8F722A",
"*.	c #B7B7B7",
"=.	c #DDDDDD",
"-.	c #DAB654",
";.	c #BBB08B",
">.	c #E2C684",
",.	c #84671B",
"'.	c #3E3314",
").	c #947829",
"!.	c #AFAFAF",
"~.	c #A3A3A3",
"{.	c #D7AC2D",
"].	c #EABE5C",
"^.	c #776327",
"/.	c #392F11",
"(.	c #8D7022",
"_.	c #CEAE4C",
":.	c #D2B24C",
"<.	c #D6C28C",
"[.	c #B58C34",
"}.	c #82671B",
"|.	c #8D8D8D",
"1.	c #343433",
"2.	c #967825",
"3.	c #B29326",
"4.	c #B09020",
"5.	c #785F16",
"6.	c #B3B3B3",
"7.	c #A7A7A7",
"8.	c #53480B",
"9.	c #4E4611",
"0.	c #AA8A2C",
"a.	c #9F9F9F",
"b.	c #8B8B8B",
"c.	c #574912",
"d.	c #554817",
"e.	c #524A14",
"f.	c #34322E",
"g.	c #858585",
"h.	c #544A0B",
"i.	c #524614",
"j.	c #202020",
"k.	c #010103",
"l.	c #979797",
"m.	c #010102",
"n.	c #6B6B6B",
"o.	c #838383",
"p.	c #7D7D7D",
"q.	c #6D6D6D",
"r.	c #434343",
"            . . .                                               ",
"          . + @ @ . .                                           ",
"        # # $ % + @ @ . .                                       ",
"      . & * # # = % + @ @ . .                                   ",
"      . - - ; * # # > % , ' ) ! ~     . . .                     ",
"      . { ] - - ; ^ # # ' ' ) / ( _ . @ @ @ . .                 ",
"      . { ] ] ] - { ; : < [ ) / } | @ @ @ @ @ @ . .             ",
"      . { ] ] ] ] ] { 1 2 3 4 5 6 7 8 9 @ @ @ @ @ @ .           ",
"      . { ] ] ] ] ] ] 1 0 a b c d e f g 8 h i @ @ @ .           ",
"      . { ] ] ] ] ] j 1 k l b : # 6 6 % # # m % + @ @ .         ",
"      . n ] ] ] j o p 1 ' b b 1 * # # 6 # q # # r % + .         ",
"      . s ] ] t o o u u v ' ' 1 w ; & . x y q q # z A .         ",
"      . s ] t o B - C D u u v 1 ; E ^ * F G y H I # A .         ",
"      . J j p B - { K L M N u u E ^ O O P Q *.R S # A .         ",
"      . J t p - { n K T U V M N W O P P Q X Y R Z ` A .         ",
"      . ; B - { n  ...+.@.#.$.%.&.P Q F X *.G R S ` A .         ",
"      . ; B - n  .=.-.+.;.>.,.'.).Q X X *.G !.~.q ` A .         ",
"      . ^ { n n =.w {.u u ].^./.(.Y G *.G !.y ~.I ` A .         ",
"      . ^ { =.=.J ; _.:.<.[.u u }.*.!.G !.y H Z |.` A .         ",
"      . P ^ s =.; E * 1.<.2.3.4.5.G !.6.7.H H S |.# A .         ",
"      . S G F * & ^ O 1.8.9.0.0.5.!.7.7.7.H a.S b.` A .         ",
"        . . S y Y Y Q : c.d.e.f.y 7.7.7.a.a.Z q b.` A .         ",
"            . . g.R 6.: h.i.e.1.7.H H H H Z S I b.` A .         ",
"                . . g.j.i.i.i.: H a.Z a.Z S q |.b.` A .         ",
"                    . k.i.i.i.: ~.Z S Z Z l.q |.b.` A .         ",
"                        . m.i.j.S q l.S q q q |.b.` A .         ",
"                            . . n.b.|.q l.q q |.b.` A . .       ",
"                                . . n.o.g.|.q |.b.` A . . . .   ",
"                                    . . n.p.g.|.b.# A . . . . . ",
"                                        . . q.p.|.` A . . . .   ",
"                                            . . r.. z . .       ",
"                                                . . .           "};
