/* XPM */
static char * log_xpm[] = {
"32 32 193 2",
"  	c None",
". 	c #020204",
"+ 	c #EADAA4",
"@ 	c #FEFECC",
"# 	c #DAD68C",
"$ 	c #D6C684",
"% 	c #FEFEF4",
"& 	c #FEFEE4",
"* 	c #FEFEEC",
"= 	c #FAF2BC",
"- 	c #C2A26C",
"; 	c #FEFED4",
"> 	c #FAEEB4",
", 	c #FEF6D4",
"' 	c #FEFEFC",
") 	c #FEFEDC",
"! 	c #FEFEB4",
"~ 	c #C2A274",
"{ 	c #FEEEC4",
"] 	c #FEFACC",
"^ 	c #F6EAA4",
"/ 	c #F6E294",
"( 	c #FEE6AC",
"_ 	c #FEFEBC",
": 	c #EEEAA4",
"< 	c #FAE29C",
"[ 	c #F6E684",
"} 	c #FEEE9C",
"| 	c #FEFAD4",
"1 	c #FEFEC4",
"2 	c #EEE68C",
"3 	c #FEF2BC",
"4 	c #FEE2AC",
"5 	c #FEE6A4",
"6 	c #FEEA8C",
"7 	c #FAE694",
"8 	c #FAE28C",
"9 	c #FAF694",
"0 	c #FEF6BC",
"a 	c #EADE54",
"b 	c #FEF6AC",
"c 	c #FAEE9C",
"d 	c #FEF2A4",
"e 	c #FADE7C",
"f 	c #E6D264",
"g 	c #FAE274",
"h 	c #FEFE94",
"i 	c #FEFA8C",
"j 	c #A69E2C",
"k 	c #FAE6AC",
"l 	c #FEF6DC",
"m 	c #FE926C",
"n 	c #F2CE74",
"o 	c #FEE274",
"p 	c #EEF694",
"q 	c #726E14",
"r 	c #FEDE84",
"s 	c #F6EAB4",
"t 	c #FEE69C",
"u 	c #FE8274",
"v 	c #FE5A4C",
"w 	c #FE8A7C",
"x 	c #FEFEA4",
"y 	c #FEEEBC",
"z 	c #FED68C",
"A 	c #FE4E3C",
"B 	c #FE5654",
"C 	c #FAD25C",
"D 	c #EAE67C",
"E 	c #EED674",
"F 	c #FE7A6C",
"G 	c #FEAAA4",
"H 	c #F6FAA4",
"I 	c #FEFAAC",
"J 	c #FAEE94",
"K 	c #FEE694",
"L 	c #E2DA5C",
"M 	c #FEE27C",
"N 	c #FAD6A4",
"O 	c #FE6A4C",
"P 	c #FE524C",
"Q 	c #FEF6F4",
"R 	c #FAFEAC",
"S 	c #FEE6DC",
"T 	c #FE6A54",
"U 	c #E6EE94",
"V 	c #FEEEA4",
"W 	c #FAFEA4",
"X 	c #FEBEB4",
"Y 	c #FEB29C",
"Z 	c #FED2A4",
"` 	c #F2EE94",
" .	c #FEFADC",
"..	c #FEC2B4",
"+.	c #FE7E6C",
"@.	c #F2FAB4",
"#.	c #FEAE9C",
"$.	c #FAE68C",
"%.	c #FEF6A4",
"&.	c #FEBEA4",
"*.	c #FE6E5C",
"=.	c #FE7654",
"-.	c #FED29C",
";.	c #FEB274",
">.	c #FE5A2C",
",.	c #FAA25C",
"'.	c #E2DE6C",
").	c #FE966C",
"!.	c #FE562C",
"~.	c #F6F2AC",
"{.	c #F6F684",
"].	c #F28664",
"^.	c #F6CEB4",
"/.	c #FAFEC4",
"(.	c #FE8E6C",
"_.	c #FE8674",
":.	c #FE6654",
"<.	c #E6E274",
"[.	c #EEDA74",
"}.	c #FEC274",
"|.	c #F6C674",
"1.	c #FEFEAC",
"2.	c #D6C68C",
"3.	c #FEC68C",
"4.	c #FEFE9C",
"5.	c #FE7A5C",
"6.	c #EEE27C",
"7.	c #F6DE8C",
"8.	c #FEFABC",
"9.	c #FE6A2C",
"0.	c #FABE6C",
"a.	c #E2D264",
"b.	c #FE3E34",
"c.	c #FE4234",
"d.	c #FEB68C",
"e.	c #EEDA64",
"f.	c #FAEA7C",
"g.	c #E6DE74",
"h.	c #FE8E7C",
"i.	c #F6F294",
"j.	c #DEDA64",
"k.	c #EEEE64",
"l.	c #727214",
"m.	c #FEF284",
"n.	c #FEFAB4",
"o.	c #FAE684",
"p.	c #FAEA8C",
"q.	c #EEDE74",
"r.	c #EEEEA4",
"s.	c #CABE44",
"t.	c #D6C694",
"u.	c #FEFAC4",
"v.	c #EADA7C",
"w.	c #E6CE6C",
"x.	c #EEE274",
"y.	c #F6EA9C",
"z.	c #FAF2A4",
"A.	c #E2D274",
"B.	c #E6DE7C",
"C.	c #E6C65C",
"D.	c #EEE674",
"E.	c #F6F284",
"F.	c #86821C",
"G.	c #FEF694",
"H.	c #EEDE6C",
"I.	c #DECA5C",
"J.	c #E2DA6C",
"K.	c #C6BA3C",
"L.	c #FEFE84",
"M.	c #DEC65C",
"N.	c #FAEE7C",
"O.	c #FAF6B4",
"P.	c #FEEA7C",
"Q.	c #DACA5C",
"R.	c #FEFE8C",
"S.	c #A6A22C",
"T.	c #F2EE7C",
"U.	c #E6DA74",
"V.	c #E2CA5C",
"W.	c #FEFA94",
"X.	c #FEFE7C",
"Y.	c #F2EE64",
"Z.	c #EEDE64",
"`.	c #DEC654",
" +	c #C2B634",
".+	c #E6DE64",
"++	c #E6DA54",
"@+	c #F2F284",
"#+	c #FEF69C",
"$+	c #E6E264",
"%+	c #1A1A04",
"&+	c #121204",
"*+	c #767614",
"                        . .                                     ",
"                        . + . .                                 ",
"                        . @ @ # . . .                           ",
"                      . $ % & * = # - . . . .                   ",
"                      . ; ; > , ' & * ) ! $ ~ . . . .           ",
"                    . $ ' { ] ^ / ( _ & & ; ; _ : # ~ . . .     ",
"                    . * & < % ' * & / [ } | @ @ 1 @ 1 2 # ~ . . ",
"                    . ' 3 % ' * % & 4 * , 5 6 7 8 9 ; 1 _ 0 a . ",
"                  . $ ' / 5 % ' ' ( b & ) & [ c d e f g h i j . ",
"                  . % k l * ^ 5 l < * * * m n @ ; 1 @ o p 1 q . ",
"                . $ ' r ' ' ' * s t | % u v w ; @ _ ; o x x .   ",
"                . ' k ' ' ' % ' 5 y ) z A _ B _ @ 1 1 C ! D .   ",
"              . $ * E ; ' ' ' % < % % F G H F I 7 J K f x L .   ",
"              . * M , N O P Q < R % S T ) U P @ _ 1 o V x j .   ",
"            . ; ) W X A Y Z B `  ...+.G @.; F ) ! #.$.%.! q .   ",
"          . $ * V &.*.l % ' =.-.;.>.,.) '.& F ) m ).!.x ~..     ",
"          . ) M {.].^.* * /.(._.:.& _ E <.[.B }.=./.|.1.L .     ",
"        . 2.3.4.5.(.V _ & 6.&.=., ; ; 7.8._ w 9.0.a.[ 1.j .     ",
"      . 2.0 b.c.d.) @ o e.f.| @ ; ; @ g.) 1 h.B i.j.x k.l..     ",
"      . 1 m.1 ; @ @ ; n.e o.6.g.p.; q.9 @ 1 b.5 r.a._ s..       ",
"    . t.4.6.@ 1 1 1 ; 6.u.) ; ] v.a.w.u.@ y K _ a.J 1.j . .     ",
"  . t.@ 4.x.E y.u.@ z.6.@ _ _ _ @ A.B.E C.e.o.D.a.I E.q . . . . ",
". F.G.! ! ! I H.I.J.E _ @ ; 1 ; R I._ 1 4.G.p.a.a.1.j.. . . . . ",
"  . . K.L.1.! ! _ y.M.I.N.u.1.; I.O.! ! ! 4.! I.P.! K.. . . .   ",
"      . . K.E.! 1 ! x y.J.I.Q.J.'._ _ 4.h R.D I.! R.S.. . .     ",
"          . . K.v.x _ _ _ ! T.U.V.Q.x.W.h X.a.W.h Y.q . . .     ",
"              . . . K.Z.d x 1.! x 9 a.`.Q.Q.`.4.4.j . . .       ",
"                    . . .  +.+d 1.x 1.4.9 D W.h ++q . .         ",
"                          . . . K.x.@+x x h 4.#+j . .           ",
"                                . . . K.$+@+4..+l..             ",
"                                      %+&+. S.*+.               ",
"                                            . .                 "};
