/* XPM */
/* Drawn  by Mark Donohoe for the K Desktop Environment */
/* See http://www.kde.org */
static char*man[]={
"32 32 12 1",
"# c #000000",
"b c #ffffff",
"d c #808080",
"c c #c0c0c0",
"i c #a0a0a4",
"e c #585858",
"h c #004000",
"j c #000040",
"g c #c0c000",
"f c #ffff00",
"a c #ffffbe",
". c None",
"................................",
"................................",
"................................",
"................................",
".............#....###...........",
".........####a##.#baa##.........",
"........#abc#aaa#bc###c##.......",
"........#abac#aad##ccd#ab##.....",
"........#abbbc#c#dcbbd##aaa##...",
"........#abbbbd#abbbbd###abbb##.",
".......##abbbbd#abbbbd#e#ababbb#",
"......#f#abbaad#abbbbd#e#aabbb#.",
".....#ff#abbaad#abbbbd#e#aaba#..",
"....#fff#abbaad#cabbbd#e#abb#...",
"...#ffgf#abbaad#cabbbd#e#aa#....",
"..#fggff#dbbaad#caabbd#e#abb##..",
".#ggffggd#dbaad#caabcd#e#aabab#.",
"#ggfggffgd#daad#caac###e#aabbbb#",
"#dgggfggffd#dcd#cd##eeee#aabab#d",
".#hdgggfgggd#dd#d#eeeeee#abaa#d.",
"...##dggggff#dd##eeeeeee#aaa#i..",
".....##d#fff##d##########aa#i...",
"......##faaff###fffffffffa#d....",
"......#ffffaafffffaaaaaaaji.....",
".....#fffffffaaffaafaaaa#i......",
".....#dffffffffaaffaafa#i.......",
"......##dffffffffaaffahd........",
"........##dffffffffaa#d.........",
"..........##ifffffffhd..........",
"............##dffff#d...........",
"..............#hdd#i............",
"................##i............."};

