/* XPM */
/* Drawn  by Mark Donohoe for the K Desktop Environment */
/* See http://www.kde.org */
static char*man[]={
"32 32 11 1",
"# c #000000",
"a c #ffffff",
"d c #808080",
"c c #c0c0c0",
"h c #a0a0a4",
"e c #585858",
"g c #004000",
"i c #000000",
"f c #ffff00",
"b c #ffffc0",
". c None",
"................................",
"................................",
"................................",
"................................",
".............#....###...........",
".........####a##.#aaa##.........",
"........#bac#aaa#ac###c##.......",
"........#babc#aad##ccd#aa##.....",
"........#baaac#c#dcaad##aaa##...",
"........#baaaad#baaaad###aaaa##.",
".......##baaaad#baaaad#e#aaaaaa#",
"......#b#baabbd#baaaad#e#aaaaa#.",
".....#bb#baabbd#baaaad#e#aaaa#..",
"....#bbb#baabbd#cbaaad#e#aaa#...",
"...#bbbb#baabbd#cbaaad#e#aa#....",
"..#bbbbb#daabbd#cbbaad#e#aaa##..",
".#bbbbbbd#dabbd#cbbacd#e#aaaaa#.",
"#ffbbbbbbd#dbbd#cbbc###e#aaaaaa#",
"#dfffbbbbbd#dcd#cd##eeee#aaaaa#d",
".#gdfffbbbbd#dd#d#eeeeee#aaaa#d.",
"...##dfffbbb#dd##eeeeeee#aaa#h..",
".....##d#bbb##d##########aa#h...",
"......##bbbbb###bbbbbbbbba#d....",
"......#bbbbbbbbbbbaaaaaaaih.....",
".....#bbbbbbbbbabaabaaaa#h......",
".....#dbbbbbbbbbbbbbabb#h.......",
"......##dbbbbbbbbaabbbgd........",
"........##dbbbbbbbbba#d.........",
"..........##hbbbbbbbgd..........",
"............##dbbbb#d...........",
"..............#gdd#h............",
"................##h............."};

