/* XPM */
/* Drawn  by Mark Donohoe & Jonathan Buzzard for the K Desktop Environment */
/* See http://www.kde.org */
static char*metafont[]={
"32 32 13 1",
"# c #000000",
"b c #ffffff",
"f c #808080",
"j c #a0a0a4",
"c c #ff0000",
"i c #004000",
"k c #000040",
"h c #004040",
"g c #404000",
"e c #c0c000",
"d c #ffff00",
"a c #ffffbe",
". c None",
"................................",
"................................",
"................................",
"................................",
".............#....###...........",
"............#a##.#bab##.........",
"...........#aaaa#babbab##.......",
"..........ccdaa#bbabaabac##.....",
".........#cbca#cccacccacbca##...",
"........#acbc#cbbbcbcbcbbcbbb##.",
".......#ddccccbcbbbbbbccbcbabbb#",
"......#ddddcbbbbccbcccbccbabbb#.",
".....#deddcbbbbbbbbbbbbcaaaba#..",
"....#dedd#cbbcccbbccbbbbc#bb#...",
"...#eede#aacccbcbcccccbcbb##....",
"..#eeee#adcbbbbbbbbbbbbbcbbb##..",
".#eeee#ccacbbbcccbbbbbbbccabab#.",
"#eeee#dddcccbbbcbbbbbbccababbbb#",
"#feeegheddcbbbbbbbbbbcbbcccbab#f",
".#ifeeeccccbbcccbccbbbbcaabaa#f.",
"...##feeeicbbbbccbbbbbceccaa#j..",
".....##f#aacbbbbbbbbbbcaaaa#j...",
"......##daeacbbbbbbbbceaaa#f....",
"......#ddddeeccccccccaaaakj.....",
".....#dddddddeeaaaaeeaaa#j......",
".....#fddddddddeeaaaaaa#j.......",
"......##fddddddddeeddaif........",
"........##fdddddddddd#f.........",
"..........##jdddddddif..........",
"............##fdddd#f...........",
"..............#iff#j............",
"................##j............."};

