/* XPM */
static char * midi_xpm[] = {
"32 32 6 1",
" 	c None",
".	c #c0c0c0",
"X	c white",
"o	c #404040",
"O	c #808080",
"+	c black",
"                                ",
"                                ",
"                                ",
"                                ",
"             ..    ...          ",
"            .XX.. .XXX..        ",
"           .XXXXX.XXXXXX..      ",
"          .XXXXXXXXXXXXXXX..    ",
"         .XXXXXXXXXXXXXXXXXX..  ",
"        .XXXXXXXXooXXXXXXXXXXX. ",
"       .XXooXXXXoooooXXXXXXXXXXO",
"      .XXoXXooXo..ooooXXXXXXXXO.",
"     .XXooXXXXoo.X..o.XXXXXXXO.+",
"    .XXoXXoooo..ooXo.XXXXXXXO.+.",
"   .XXooXX.ooo.XXXoo.XXXXXX..+. ",
"  .XXX..ooX...oooo..ooXXXXXXX.. ",
" .XXXXXX..ooXXoooo.XXXooXXXXXXXO",
".XXXXX.XXX..ooX...ooXoXXooXXXXO.",
"OO.XX.oo.XXX...oXXXXoo.Xo.XXXO.+",
".+OO.XX.ooO.XXX.ooXoX.oo.XXXO.+.",
"  .+OO.XXO.XXXXX..oo.Xo.XXXO.+. ",
"    .+OO..XXXXXOooo.oo.XXXO.+.  ",
"      .O.XXXXXXooo.X..XXXO.+.   ",
"       .XXXXXXXX...XXXXXO.+.    ",
"      O.XXXXXXXXXXXXXXXO.+.     ",
"      .OO.XXXXXXXXXXXXO.+.      ",
"       .+oO.XXXXXXXXXO.+.       ",
"         .+oO.XXXXXXO.+.        ",
"           .+oO.XXXO.+.         ",
"             .+oO.O.+.          ",
"               .+O.+.           ",
"                 .+.            "};
