/* XPM */
/* Drawn  by Jonathan Buzzard and Mark Donohoe for the K Desktop Environment */
/* See http://www.kde.org */
static char*midi[]={
"32 32 11 1",
"# c #000000",
"a c #ffffff",
"e c #808080",
"b c #c0c0c0",
"h c #a0a0a4",
"g c #004000",
"i c #000000",
"f c #c0c000",
"d c #ffff00",
"c c #ffffc0",
". c None",
"................................",
"................................",
"................................",
"................................",
".............#....###...........",
"............#a##.#aaa##.........",
"...........#aaaa#aaaaaa##.......",
"..........#aaaa#aaaaaaaaa##.....",
".........#aaaa#aaaaaaaaaaaa##...",
"........#aaaa#aaa##aaaaaaaaaa##.",
".......#aa##aaaa#####aaaaaaaaaa#",
"......#aa#aa##a#bb####aaaaaaaa#.",
".....#ca##aaaa##babb#baaaaaaa#..",
"....#cc#aa####bb##a#baaa##aa#...",
"...#cc##aab###baaa##baaaaa##....",
"..#cccbb##abbb####bb##aaaaaa##..",
".#ccccccbb##aa####baaa##aaaaaa#.",
"#ddcccccccbb##abbb##a#aa##aaaaa#",
"#edddffdccccbbb#aaaa##ba#baaaa#e",
".#gedddffdcccccb##a#ab##baaaa#e.",
"...##edddgccccccbb##ba#baaaa#h..",
".....##e#ccccac####b##aaaaa#h...",
"......##ccccacc###bcbbaaaa#e....",
"......#cccccaaccbbbccaaaaih.....",
".....#cccccccccaccccaaac#h......",
".....#eccccccccaccaaacc#h.......",
"......##eccccccccccaccge........",
"........##ecccccccccc#e.........",
"..........##hcccccccge..........",
"............##ecccc#e...........",
"..............#gee#h............",
"................##h............."};

