/* XPM */
static char*folder_blue[]={
"16 16 8 1",
"f c #808080",
"d c #c0c0c0",
"# c #000000",
"b c #0000c0",
". c None",
"a c #585858",
"e c #a0a0a4",
"c c #ffffff",
"..#a#...........",
".#abb##.........",
".#caabb#####....",
".#ccdaabbbbb#...",
".#cdcddabbbba...",
".#dcddddaaaab#..",
".#cddddddded#ba.",
".#dddddddede#ba.",
".#ddddddedee#ba.",
".#dddddedeee#ba.",
".##fddedeeee#ba.",
"...##fdeeeee#ba.",
".....##eeeee#ba.",
".......##eee#b##",
".........##e#b##",
"...........####."};
