/* XPM */
/* Drawn for the K Desktop Environment */
/* See http://www.kde.org */
static char*trash2[]={
"16 16 11 1",
"h c #000000",
". c None",
"d c #004040",
"f c #c0c0c0",
"i c #585858",
"b c #a0a0a4",
"a c #dcdcdc",
"# c #000000",
"g c #808080",
"c c #404000",
"e c #ffffff",
".....##a#.......",
"..###abcd####...",
".#eeefffghffb#..",
".#abfeeeffiii#..",
"..dgaabbbbgg#...",
"..#bbbggiigi#...",
"..#bebagggii#...",
"..#bebagggii#...",
"..#bebagggii#...",
"..#bebagggii#...",
"..#bebagggii#...",
"..#bebagggii#...",
"..#bebagggii#...",
"..#aebagggii#...",
"...##aabbg##....",
".....#####......"};
