/* XPM */
/* Drawn  by Mark Donohoe for the K Desktop Environment */
/* See http://www.kde.org */
static char*o_src[]={
"32 32 14 1",
"# c #000000",
"a c #ffffff",
"j c #808080",
"l c #c0c0c0",
"f c #a0a0a4",
"g c #585858",
"h c #008000",
"k c #00c000",
"c c #404000",
"i c #808000",
"b c #c0c000",
"d c #ffffc0",
"e c #ffdca8",
". c None",
"................................",
"................................",
"................................",
"................................",
"................................",
"................................",
".................##.............",
"................#aa##...........",
"...............#aaaaa##.........",
"..............#aaaaaaaa##.......",
".............#aaabbaaaaaa##.....",
"............#aaaaaabbaaaaaa##...",
"...........#aaabbaaaabbaaaaaa##.",
"..........#aaaaaabbaaaaaaaaaaa#.",
".........#aaabbaaaabbaaaaaaaac#.",
"........#aaaaaaaaaaaabbaaaaacb#.",
".......#aadefefdaaaaaaaaaaacb#..",
"......#addfgghggaaaaaaaaaacb#...",
".....#ddafiggabggeaaaaaaacb#....",
"....#ddadiggddaggjaaaaaacb#.....",
"...#dddddfgkdligkedaaaacb#......",
"..#iddddddijghgjbdaadacb#.......",
"..#biidddddbbjbbadddacb#........",
"..##bbiidddddddaadaacb#.........",
"....##bbiidddddddaacb#..........",
"......##bbiiddddddcb#...........",
"........##bbiidddcb#............",
"..........##bbiicb#.............",
"............##bbb#..............",
"..............###...............",
"................................",
"................................"};

