/* XPM */
static char * pdf_xpm[] = {
"34 34 238 2",
"  	c None",
". 	c #020204",
"+ 	c #D2C694",
"@ 	c #FAFAB4",
"# 	c #E2DE94",
"$ 	c #CECA84",
"% 	c #C9BA87",
"& 	c #FEFED9",
"* 	c #FBFAC9",
"= 	c #B69A6C",
"- 	c #FBFAF9",
"; 	c #FEFEFA",
"> 	c #FEFEE6",
", 	c #FEE2DC",
"' 	c #FECECC",
") 	c #F67E7C",
"! 	c #FA6668",
"~ 	c #FEB2A4",
"{ 	c #FEFEC6",
"] 	c #F4F2B8",
"^ 	c #F3F2D4",
"/ 	c #F27A74",
"( 	c #7E4E4C",
"_ 	c #CE6E6C",
": 	c #A6625C",
"< 	c #FEFEA8",
"[ 	c #F3F6F1",
"} 	c #EEEDEC",
"| 	c #BBBAB8",
"1 	c #F6E2DC",
"2 	c #D64A4C",
"3 	c #7C5A5C",
"4 	c #C85250",
"5 	c #845650",
"6 	c #C6C6A4",
"7 	c #FEFE99",
"8 	c #ECEAA8",
"9 	c #A6A62C",
"0 	c #F4F2F0",
"a 	c #EAECEA",
"b 	c #A0A6A4",
"c 	c #EABEBC",
"d 	c #EA5654",
"e 	c #DA6264",
"f 	c #7C3230",
"g 	c #969694",
"h 	c #C2C6C4",
"i 	c #EAE6CC",
"j 	c #EAEABC",
"k 	c #FEFEB8",
"l 	c #9E962C",
"m 	c #FBF6EC",
"n 	c #81827E",
"o 	c #C7C6C4",
"p 	c #CACAC9",
"q 	c #F2C6C4",
"r 	c #A24244",
"s 	c #927E7C",
"t 	c #CACAB4",
"u 	c #B6B69C",
"v 	c #EAE6A8",
"w 	c #6B6A14",
"x 	c #DCE2E0",
"y 	c #FAEEEC",
"z 	c #FE8684",
"A 	c #AE3E3C",
"B 	c #E2E2E2",
"C 	c #DBDAD9",
"D 	c #757674",
"E 	c #9A9A89",
"F 	c #DAD6A4",
"G 	c #F6F294",
"H 	c #E2DEDC",
"I 	c #FAA6A4",
"J 	c #BA4E4C",
"K 	c #7E4244",
"L 	c #865A5C",
"M 	c #EEE6E4",
"N 	c #E7E6E4",
"O 	c #EEEACC",
"P 	c #F9F6A4",
"Q 	c #DEDA6C",
"R 	c #E4E2A8",
"S 	c #C1C2BE",
"T 	c #D2D2CF",
"U 	c #FCB6B4",
"V 	c #C24E4C",
"W 	c #7E5654",
"X 	c #D68A8C",
"Y 	c #92484C",
"Z 	c #E2D2D4",
"` 	c #FCFAA6",
" .	c #D6CE4C",
"..	c #FAF2F4",
"+.	c #E8A29C",
"@.	c #F6C2C4",
"#.	c #B63634",
"$.	c #C2969C",
"%.	c #6E6E5C",
"&.	c #8A8A7C",
"*.	c #92A2A4",
"=.	c #AEBEBC",
"-.	c #F0FAFC",
";.	c #F69E9C",
">.	c #B23A3C",
",.	c #725654",
"'.	c #E6D6D4",
").	c #E7E2E2",
"!.	c #D6565C",
"~.	c #DCDEDB",
"{.	c #FEFA99",
"].	c #EE8A8C",
"^.	c #EA827C",
"/.	c #F68A84",
"(.	c #FA8284",
"_.	c #FA5A5C",
":.	c #DA666C",
"<.	c #E69A9C",
"[.	c #FACAC4",
"}.	c #DEEEEC",
"|.	c #8C2E28",
"1.	c #D6D5D4",
"2.	c #A6A6A4",
"3.	c #CECEAE",
"4.	c #EAE694",
"5.	c #FA9E84",
"6.	c #DA3634",
"7.	c #A61E1C",
"8.	c #8E2624",
"9.	c #963634",
"0.	c #6E2224",
"a.	c #8A3634",
"b.	c #D63A3C",
"c.	c #E2362C",
"d.	c #F85254",
"e.	c #CA2A24",
"f.	c #865E5C",
"g.	c #A2AAAC",
"h.	c #DADA94",
"i.	c #D67E5C",
"j.	c #B2261C",
"k.	c #7E7264",
"l.	c #B25254",
"m.	c #B2322C",
"n.	c #662820",
"o.	c #BEA2A4",
"p.	c #D2BEBC",
"q.	c #BEAAAC",
"r.	c #A6928C",
"s.	c #966A6C",
"t.	c #9E322C",
"u.	c #BE3234",
"v.	c #EA2624",
"w.	c #781E20",
"x.	c #DA7A7C",
"y.	c #D2B2AC",
"z.	c #D2D2B0",
"A.	c #D2D6B4",
"B.	c #FAF6B4",
"C.	c #FE6654",
"D.	c #D68E74",
"E.	c #DE5E5C",
"F.	c #AE1E14",
"G.	c #5E262C",
"H.	c #E65E5C",
"I.	c #A60A0C",
"J.	c #E62224",
"K.	c #F66A54",
"L.	c #EED6A4",
"M.	c #EEEE94",
"N.	c #6F6E17",
"O.	c #EE825C",
"P.	c #A20E0C",
"Q.	c #7A2214",
"R.	c #563E44",
"S.	c #E2E6E4",
"T.	c #CFCECD",
"U.	c #D2161C",
"V.	c #461214",
"W.	c #CE261C",
"X.	c #FE623C",
"Y.	c #FEE6A4",
"Z.	c #D2BC8C",
"`.	c #F6E69C",
" +	c #D2C284",
".+	c #9E968C",
"++	c #4E524C",
"@+	c #B2B2B0",
"#+	c #E63E44",
"$+	c #9E1E20",
"%+	c #4E2E24",
"&+	c #86523C",
"*+	c #DA6A44",
"=+	c #F8F69C",
"-+	c #D6DAB0",
";+	c #FA3634",
">+	c #CA9E6C",
",+	c #F6523C",
"'+	c #BE461C",
")+	c #7A761C",
"!+	c #EEE274",
"~+	c #8E8E84",
"{+	c #BCBEBC",
"]+	c #AAAAA4",
"^+	c #AEAE9C",
"/+	c #C27A54",
"(+	c #E61E1C",
"_+	c #CA3224",
":+	c #7A4E14",
"<+	c #BAAE34",
"[+	c #F6EA74",
"}+	c #C2C29C",
"|+	c #D6D6C0",
"1+	c #5E625C",
"2+	c #AEB28C",
"3+	c #D2D49C",
"4+	c #AA6E4C",
"5+	c #7A261C",
"6+	c #927224",
"7+	c #BEB23C",
"8+	c #E7E674",
"9+	c #F8F688",
"0+	c #FEFE8A",
"a+	c #DAC684",
"b+	c #E2C274",
"c+	c #DECE6C",
"d+	c #FEFA8A",
"e+	c #D7D259",
"f+	c #E2D25C",
"g+	c #EEE68C",
"h+	c #FEF294",
"i+	c #FAF284",
"j+	c #F6E67C",
"k+	c #F4EE7C",
"l+	c #9A9A24",
"m+	c #FEEE8C",
"n+	c #1A1A04",
"o+	c #161604",
"                                                                    ",
"                          . .                                       ",
"                          . + . .                                   ",
"                          . @ # $ . . .                             ",
"                        . % & * & # $ = . . . .                     ",
"                        . - - ; > - & - , ' % = . . . .             ",
"                      . % ; - - > - > ' ) ! ~ { ] # $ = . . .       ",
"                      . ^ ; ; ; ; - - / ( _ : * * { < @ # $ = . .   ",
"                      . [ ; ; ; } | 1 2 3 4 5 6 ^ { { { < 7 8 9 .   ",
"                    . % ; 0 | - a b c d e f g h i j * k < < 7 l .   ",
"                    . * ; m n o - p q ! r s ; - t u v { < < < w .   ",
"                  . o a | ; x p - y z A 3 B [ C D E F k < < G .     ",
"                  . - a n H - - - I J K L M a a N 0 O P < < Q .     ",
"                . R - 0 S T - [ U V W X Y Z a N H S E 8 < `  ..     ",
"                . ^ p } ..[ a +.4 ( p @.#.$.a a T %.&.R < P l .     ",
"              . & [ *.=.-.N ;.>.,.'.-.).!.Y [ ~.C H ).v < {.w .     ",
"            . % m U ].^./.(._.:.<.[.'.}.^.|.1.N | 2.3.] < 4..       ",
"            . 5.6.7.8.9.0.f a.a.>.b.c.d.d.e.f.x g.%.&.h.<  ..       ",
"          . i.j.W k.l.m.n.o.p.q.r.s.Y t.u.v.w.x.y.z.A.B.< l .       ",
"        . v C.|.D.E.F.G.o a ~.~.H ~.~.S r.H.I.F.J.K.L.7 M.N..       ",
"        . { O.P.P.Q.R.n S.C T T 1.p p T.~.<.U.V.G.W.X.Y. ..         ",
"      . Z.< `. + +.+++@+C T.T T.T T.T p 3.g.#+$+%+&+U.*+l . .       ",
"    . % =+< { k k -+~.1.&.@+T o T.o | h o D 3 ;+$+>+,+'+N.. . . .   ",
"  . )+!+{.< < < ` < B.~+++o h E S {+n ]+T ^+++/+(+c._+:+. . . . .   ",
"    . . <+[+=+7 k < k }+3.|+| 1+| p D ++A.3.2+3+4+w.5+6+. . . .     ",
"        . . 7+8+{.< < 7 @ `.t %.3.z.2+%.3.v 9+0+=+a+b+l . . .       ",
"            . . <+c+[+` < 7 ` M.=+P G 4.9+{.7 0+0+d+e+w . . .       ",
"                . . . <+f+g+h+< ` 7 7 7 {.0+d+0+0+i+l . . .         ",
"                      . . . <+e+j+7 7 7 0+0+0+0+d+ .w . .           ",
"                            . . . <+f+8+9+d+d+d+k+l+. .             ",
"                                  . . . <+e+8+m+e+w .               ",
"                                        n+o+. l+N..                 ",
"                                              . .                   ",
"                                                                    "};
