/* XPM */
static char * postscript_xpm[] = {
"32 32 183 2",
"  	c None",
". 	c #020204",
"+ 	c #D5CA9B",
"@ 	c #5A5A44",
"# 	c #FEFED7",
"$ 	c #626264",
"% 	c #D2D2D4",
"& 	c #9A9A9C",
"* 	c #EAEAE4",
"= 	c #BBA176",
"- 	c #F6F6F4",
"; 	c #FAFAFC",
"> 	c #FEFEFC",
", 	c #66665C",
"' 	c #FAF2B9",
") 	c #CDBE8C",
"! 	c #0A0A04",
"~ 	c #D6D6D4",
"{ 	c #A2A29C",
"] 	c #FAFAF4",
"^ 	c #8E8E8C",
"/ 	c #12120C",
"( 	c #CAC267",
"_ 	c #A4A476",
": 	c #998E60",
"< 	c #464644",
"[ 	c #7E7E7C",
"} 	c #6E6E6C",
"| 	c #5A5A5C",
"1 	c #2E2E2C",
"2 	c #32322C",
"3 	c #F2F2EC",
"4 	c #9E9EA4",
"5 	c #A2A2A4",
"6 	c #1A1A1C",
"7 	c #1E1E1C",
"8 	c #060604",
"9 	c #161614",
"0 	c #FAFAB9",
"a 	c #FAF6B1",
"b 	c #EFEFB9",
"c 	c #E7E79B",
"d 	c #767674",
"e 	c #0E0E14",
"f 	c #F2F2F4",
"g 	c #666664",
"h 	c #06060C",
"i 	c #F2EF9B",
"j 	c #F6F2A2",
"k 	c #F6F6A2",
"l 	c #FAEFB1",
"m 	c #D8D158",
"n 	c #0A0A0C",
"o 	c #7A7A7C",
"p 	c #EEEEEC",
"q 	c #3A3A3C",
"r 	c #D5CD76",
"s 	c #E4DC8C",
"t 	c #EFEB94",
"u 	c #EFE78C",
"v 	c #A49D3A",
"w 	c #525254",
"x 	c #26262C",
"y 	c #AEAEAC",
"z 	c #EAEAEC",
"A 	c #A6A6A4",
"B 	c #0E0E0C",
"C 	c #D1C676",
"D 	c #E0D885",
"E 	c #DCD585",
"F 	c #DCD57D",
"G 	c #747424",
"H 	c #424244",
"I 	c #323234",
"J 	c #DADADC",
"K 	c #5E5E5C",
"L 	c #C6C26E",
"M 	c #D5D17D",
"N 	c #D8D576",
"O 	c #DCD576",
"P 	c #F6F29B",
"Q 	c #DEDEDC",
"R 	c #AAAAA4",
"S 	c #BEBEBC",
"T 	c #C6BB6E",
"U 	c #CABE6E",
"V 	c #D1CA76",
"W 	c #E0DC76",
"X 	c #3E3E44",
"Y 	c #565654",
"Z 	c #E6E6E4",
"` 	c #CECECC",
" .	c #4E4E4C",
"..	c #C2BB60",
"+.	c #C2BB67",
"@.	c #D8D176",
"#.	c #121214",
"$.	c #B2B2B4",
"%.	c #C6C6C4",
"&.	c #C2B767",
"*.	c #BBB360",
"=.	c #C6BE58",
"-.	c #C6BB67",
";.	c #2A2A2C",
">.	c #222224",
",.	c #BABABC",
"'.	c #C2B760",
").	c #BEB760",
"!.	c #D1CA58",
"~.	c #6A6A6C",
"{.	c #C6BE67",
"].	c #4A4A4C",
"^.	c #727274",
"/.	c #C6BB60",
"(.	c #CABE67",
"_.	c #868684",
":.	c #CDC267",
"<.	c #787824",
"[.	c #363634",
"}.	c #C2BE67",
"|.	c #BEBB51",
"1.	c #C6BB94",
"2.	c #363A24",
"3.	c #2A2A24",
"4.	c #0E0A04",
"5.	c #BEB751",
"6.	c #FEFEB1",
"7.	c #FAF694",
"8.	c #E7E085",
"9.	c #E0D57D",
"0.	c #D5CD6E",
"a.	c #D1C667",
"b.	c #D1C267",
"c.	c #D8CA6E",
"d.	c #D5CA67",
"e.	c #D1C660",
"f.	c #CDC667",
"g.	c #D1CA67",
"h.	c #BBB058",
"i.	c #837F2C",
"j.	c #EFE47D",
"k.	c #FEFEAA",
"l.	c #FEFAAA",
"m.	c #EBE494",
"n.	c #CDC66E",
"o.	c #CAC66E",
"p.	c #C2B749",
"q.	c #FAEF85",
"r.	c #FEF69B",
"s.	c #FEFAB1",
"t.	c #FAFAB1",
"u.	c #F2F2A2",
"v.	c #E7E08C",
"w.	c #D1CD76",
"x.	c #D1CA6E",
"y.	c #ACA842",
"z.	c #EFE785",
"A.	c #FEFEB9",
"B.	c #F2F29B",
"C.	c #E4E085",
"D.	c #E7E07D",
"E.	c #E7E47D",
"F.	c #BEB342",
"G.	c #E0D176",
"H.	c #F6EB7D",
"I.	c #FEFEA2",
"J.	c #FEFE9B",
"K.	c #FAFA94",
"L.	c #FAF69B",
"M.	c #E4E067",
"N.	c #E4D567",
"O.	c #EFE794",
"P.	c #FEFE94",
"Q.	c #FEFE8C",
"R.	c #F6F285",
"S.	c #D8D567",
"T.	c #F6E785",
"U.	c #FEFA94",
"V.	c #E7E77D",
"W.	c #A1A133",
"X.	c #FEEF94",
"Y.	c #1A1A04",
"Z.	c #161604",
"                        . .                                     ",
"                        . + . .                                 ",
"                        . @ # $ . . .                           ",
"                      . @ % @ & * @ = . . . .                   ",
"                      . % - & ; - > , # ' ) = . . . .           ",
"        . . . . . . ! ~ - { > > - ] ^ / / / / / ( _ : . . .     ",
"      . < [ } | 1 2 % 3 4 - > ; ] ; 5 ! 6 7 / 8 9 0 a b c = . . ",
"      . d 1 9 e e ~ - ^ ] - ] ; 3 f g . . h 8 8 . c i j k l m . ",
"      . | 8 . n % f o f ] - ; - p % q . . . . . . r s t t u v . ",
"      . w . 9 ~ - x y ; - - - 3 z A B . . . . . . C D E F ( G . ",
"      . H . & - 5 < I { z - f z J K . . . . . . . L M N O P .   ",
"      . H | Q Q Q R g 1 A f p * S I . . . . . . . T U V M W .   ",
"      . q X Y $ & Z `  .X S f Z o B . . . . . . . ..+...@.m .   ",
"      . 2 . . n #.H $.` < } z %. .. . . . . . . . &.*.L =.v .   ",
"      . X . . . . . #.{ ` w p $.h . . . . . . . . -.-.-.( G .   ",
"      . ;.. . . . . . >.4 Y ,.[ . . . . . . . . . '.*.).!..     ",
"      . 9 . . h . . . . d ~.& x . . . . . . . . . ..).{.m .     ",
"      . n . . . . . . . ].^.^.e . . . . . . . . . /.+.(.v .     ",
"      . 6 . . h . . . n | _.1 . . . . . . . . . . '.).:.<..     ",
"      . . . . h . . B | ~.[.. . . . . . . . . . ! ).}.|..       ",
"    . 1.2.n n 8 ! ! e 3.7 B 8 h h h h 4.h h n ! ( 5.+.v . .     ",
"  . ) a 6.7.u 8.D 9.0.a.b.0.c.d.a.a.C e.b.f.g./.).h./.<.. . . . ",
". i.j.k.6.l.j i i m.D r V C :.(.U {.L n.o.n.( ( ( o.5.. . . . . ",
"  . . p.q.r.6.6.k.6.s.t.k u.m.m.v.E V w.M x.x.d.( D y.. . . .   ",
"      . . p.z.l.6.k.k.6.A.6.6.6.j B.B.P i 8.C.D.E.D.v . . .     ",
"          . . F.G.H.t.l.k.6.k.k.k.I.k.J.I.K.K.L.7.M.G . . .     ",
"              . . . F.N.O.7.k.I.I.J.J.J.I.P.Q.Q.R.v . . .       ",
"                    . . . F.S.T.k.I.J.P.P.Q.Q.U.m G . .         ",
"                          . . . F.N.V.U.J.P.U.R.W.. .           ",
"                                . . . F.S.V.X.S.G .             ",
"                                      Y.Z.. W.<..               ",
"                                            . .                 "};
