/* XPM */
static char * postscript_xpm[] = {
"32 32 6 1",
" 	c None",
".	c #c0c0c0",
"X	c white",
"o	c #808080",
"O	c #404040",
"+	c black",
"                                ",
"                                ",
"                                ",
"                                ",
"             ..    ...          ",
"            .XX.. .XXX..        ",
"           .XXXXX.XXXXXX..      ",
"          .XXXXX.XXXXoOXXX..    ",
"         .XXXXXXXXX.ooXXXXXX..  ",
"        .XXOOOOXXXooXXXOOXXXXX. ",
"       .XXOOOOOOOOoXX.OOXXXXXXXo",
"      .XXOOOOOOOOXXXOO.XXXXXXXo.",
"     .XXOOOOOOO.XX.OOXXXXXXXXo.+",
"    .XXOOOOOOOXX.OO.XXXXXXXXo.+.",
"   .XXOOOOOOOXXoOOXXXXXOOXX..+. ",
"  .XXOOOOOOXXXOOOXXXX.OOOOXXX.. ",
" .XXOOOOOOOOOXXOXXXXOOOOOOOXXXXo",
".XXXOOOOOOOOOXXOXX.OOOOOOOOXXXo.",
"oo.XXOOOOOOOOXOXXOOOOOOOOOOXXo.+",
".+oo.XXOOOOOX.XXOOOOOOOOOOXXo.+.",
"  .+oo.XXOOXXXOOOOOOOOOOOXXo.+. ",
"    .+oo.XXXOOOOOOOOOOOOXXo.+.  ",
"      .o.XXXXOOOOOOOOOOXXo.+.   ",
"       .XXXXXXXOOOOOOOXXo.+.    ",
"      o.XXXXXXXXXOOOOXXo.+.     ",
"      .oo.XXXXXXXXXXXXo.+.      ",
"       .+Oo.XXXXXXXXXo.+.       ",
"         .+Oo.XXXXXXo.+.        ",
"           .+Oo.XXXo.+.         ",
"             .+Oo.o.+.          ",
"               .+o.+.           ",
"                 .+.            "};
