/* XPM */
static char * printer_xpm[] = {
"48 48 16 1",
" 	c None",
".	c #cfc7be",
"X	c #bebea6",
"o	c #797159",
"O	c #404040",
"+	c #202020",
"@	c #a69679",
"#	c #b6ae96",
"$	c #b6a696",
"%	c #dfd7cf",
"&	c #616949",
"*	c #beb6a6",
"=	c #967961",
"-	c #606060",
";	c #9e8e79",
":	c #e0e0e0",
"                                                ",
"                                                ",
"                                                ",
"                                                ",
"                                                ",
"                                                ",
"                                                ",
"                                                ",
"                                                ",
"                       ..                       ",
"                  ..XoO+O@#.                    ",
"             .X$oO+++++++o$@@$X%                ",
"        ..$&O+++++++++++++o..X*$=@X%            ",
"     .@$@&O++++++++++++++++&.X.X#O-o;#%         ",
"   X=OoX*.#=O++++++++++++Oo$...*#o=$$=-Oo#      ",
"   $@o=$*:::#=O+++++++O&=$X.X#==;*.%%%o-&O-#%   ",
"   **.#@@#.::%.XoO+O-.....*$$$*.%%::%.$@$=oo$%  ",
"   *%::.#oo=$#%%%@&=#...$$*X%:::::%%$$$*.X.X$X  ",
"   *:::::#&&o=@.%%.#$#*.*%::::%.*@$$*%%%....$.  ",
"   X%:::::*=&&&=$X%%.X%::::%%*$@$X::%..X....$.  ",
"   *%::::::%@==&=##%%:::%.*$@$.%::%..**..%%.$.  ",
"   *.:::%:::%$====##%...$@$*%::%%X***.%%:::%$.  ",
"   *%:::::%%%%*====o@;@$$.:::%.***.%::::::%.@.  ",
"   *.::%%%::%.%%==&o$#$X:::%.X*.%::::::::%%X;.  ",
"   *%:%:::%%:%.X=o&&@*.#.:%XX%::::::::::%%%X=X  ",
"   *.:%::%::%%..=OOOo#@&o&=.::::::::::%:%%%XoX  ",
"   *%::::%%%%%..=OO-=@o==o&$:::::::::::%%%#@+%  ",
"   **%%:::%%%%..=O-O==&o=o=@::::::::%%%%%#&+@   ",
"    **%%:%%%%.%.=OOO=o&o=o&=:::::::%%%%#=&O&    ",
"     **%:%%%%%..=O--=ooo=oo=::::::%%%%@&O&O.    ",
"      ***%%:%%.%=OOO==oo==o=::::%%%%#=&&=&&     ",
"       ***.%%%..=OO-=oo&oooo%%%%%%%@=&&&&@      ",
"        **..%%%.=O-O=o&-oo&o%%%%##o&@&=#        ",
"         ***%...=OO-=o&&&=oo%%##oo=@o#          ",
"          **.%..=OOO==oo=o&&X@ooooo$:           ",
"           **@..=OO-ooo&o&-oooo=o@%             ",
"            *@@.;OOO=&&&-&@#$*=@                ",
"             *@$=O-O=&-&o$.*@@:                 ",
"              **oOO-==&@*.@=:                   ",
"               *&o&O===@@o$                     ",
"                 %.O&==@@:                      ",
"                   %@$;%                        ",
"                     :                          ",
"                                                ",
"                                                ",
"                                                ",
"                                                ",
"                                                "};
