/* XPM */
/* Drawn  by Mark Donohoe for the K Desktop Environment */
/* See http://www.kde.org */
static char*printer[]={
"32 32 12 1",
"a c #ffffff",
"h c #ffff00",
"c c #ffffff",
"f c #dcdcdc",
"b c #c0c0c0",
"j c #a0a0a4",
"e c #808080",
"g c #808000",
"d c #585858",
"i c #00ff00",
"# c #000000",
". c None",
"................................",
"................................",
"...........###..................",
"..........#abb###...............",
".........#aabbbbb###............",
".........#ddaaabbbbb###.........",
"........#ddddddaaabbbbb###......",
".......#deffddddddaaabbbbb###...",
"......#deaaabbbddddddaaabbbbb###",
".....#deaaaaaaabbbddddddaaabbbb#",
"....#deaaabbbaaaa#ddedddfggaaad#",
"...#deaaaaaaaaaa#ddeeeeafgggfdd#",
"..#deaaabbbaaaa#ddeeeeabbbbgfdd#",
".#deeefaaaaaaa#ddeeeeabbhhbbadd#",
"#aabbbeeefaaa#ddeeeeabbbbbbaddd#",
"#bbaaabbbeee#ddeeeeabbiibbadddd#",
"#bbbbbaaabbbeeeeeeabbbbbbaddddd#",
"#bjbbbbbbaaabbbbeabbbbbbadddddd#",
"#bjjjjbbbbbbaaaeabbbbbbaddddddd#",
"#bjaaajjjbbbbbbaaabbbbadddddddd#",
"#bbbbbaaajjjbbbbbbaaaaddddddddd#",
"#bjbbbbbbaaajjjbbbbbbddddddddd#.",
"#bjjjjbbbbbbaaajjjbbbdddddddd#..",
"#bjaaajjjbbbbbbjaajjbddddddd#...",
"#bbbbbaaajjjbbbjbbaabdddddd#....",
"###bbbbbbaaajjjjbbbbbddddd#.....",
"...###bbbbbbaaajbbbbbdddd#......",
"......###bbbbbbjbbbbbddd#.......",
".........###bbbbbbbbbdd#........",
"............###bbbbbbd#.........",
"...............###bbb#..........",
"..................###..........."};

