/* XPM */
/* Drawn  by Mark Donohoe for the K Desktop Environment */
/* See http://www.kde.org */
static char*resource[]={
"32 32 14 1",
"# c #000000",
"a c #ffffff",
"b c #808080",
"k c #c0c0c0",
"j c #a0a0a4",
"d c #0000ff",
"i c #004000",
"l c #000000",
"g c #004040",
"f c #404000",
"h c #c0c000",
"e c #ffff00",
"c c #ffffc0",
". c None",
"................................",
"................................",
"................................",
"................................",
".............#....###...........",
"............#a##.#aaa##.........",
"...........#aaaa#aaaaaa##.......",
"..........#aaaa#aaaaaaaaa##.....",
".........#aaaa#aaaaaaaaaaaa##...",
"........#aaaa#aaaaaaaaaaaaaaa##.",
".......#aaabbbbbbbbbbbbaaaaaaaa#",
"......#aaabaaaaaaaaaaaa#aaaaaa#.",
".....#acaaba#########ba#aaaaa#..",
"....#acaa#ba#ddddddddba###aa#...",
"...#ccac#cba#daddddddba#aa##....",
"..#cccc#aaba#ddddddddba#aaaa##..",
".#cccc#cccba#ddddddddba#aaaaaa#.",
"#eecc#ccccba#ddddddddba#aaaaaaa#",
"#beeefghccba#ddddddddba#aaaaaa#b",
".#ibeeefihba#bbbbbbbbba#aaaaa#b.",
"...##beeeibaaaaaaaaaaaa#aaaa#j..",
".....##b#cc############aaaa#j...",
"......##cccccbaaaakb#aaaaa#b....",
"......#cccc############aalj.....",
".....#cccccccccccccaaaaa#j......",
".....#bcccccccccccaaaaa#j.......",
"......##bcccccccccacaaib........",
"........##bcccccccccc#b.........",
"..........##jcccccccib..........",
"............##bcccc#b...........",
"..............#ibb#j............",
"................##j............."};

