/* XPM */
/* Drawn  by Nico Shirwing for the K Desktop Environment */
/* See http://www.kde.org */
static char*settings_package[]={
"32 32 9 1",
"# c #000000",
"f c #c0c0c0",
"a c #ffffff",
"g c #808080",
"e c #a0a0a4",
"c c #808000",
"d c #c0c000",
"b c #ffffc0",
". c None",
"............##.....#............",
"..........##aa#...#a##..........",
"........##aabba#.#abaa##........",
"......##aabbbbb##abbbbaa##......",
"....##aabbbbb##cd##bbbbbaa##....",
"..##aabbbbb##ccccdc##bbbbbaa##..",
"##aabbbbb##cccccdcdcd##bbbbbaa##",
".#abbbb##ccccccccdcdcdc##bbbbb#.",
"..#ab##cccccccccdcdcdcdcd##bb#..",
"#####ccccccccccccdcdcdcdcdc#####",
".##bb##cccccccccdcdcdcdcd##bb##.",
"...##bb##ccccccccdcdcdc##bb##...",
"...#a##bb##cccccdcdcd##bb##d#...",
"...#abb##bb##ccccdc##bb##ddd#...",
"...#abbbb##bb##cc##bb###dddd#...",
"...#abbbbbb##bb##bb###ae#ddd#...",
"...#abbbbbbbb##bd##dd#ae#dd##...",
"...#abbbbbbbbbbb#ea##affg##ae#..",
"...#abbbbbbbbbbb#gfaaffffaafg#..",
"...#abbbbbbbbbbbd#effffffffg#...",
"...#abbbbbbbbbbbd#affegefffe#...",
"...#abbbbbbbbbb##affeg##afffe##.",
"...#abbbbbbbbb#aafffg#dd#afffae#",
"...#abbbbbbbbb#ggfffe#dd#afffgg#",
"...#dbbbbbbbbbb##eeffa##afffg##.",
"...##ddbbbbbbbbbd#efffaafffg#...",
".....##ddbbbbbbbd#affffffffg#...",
".......##ddbbbbb#afgefffffafg#..",
".........##ddbbb#eg##affg##eg#..",
"...........##ddbd#####ag#..##...",
".............##dd##..#ag#.......",
"...............##.....##........"};

