/* XPM */
static char*sound[]={
"32 32 15 1",
"b c #808080",
"k c #c0c000",
"l c #004000",
"i c #404000",
"c c #00ffff",
"# c #000000",
"j c #004040",
"g c #ffff00",
"d c #303030",
"e c #ffffc0",
"h c #008080",
". c None",
"m c #a0a0a4",
"a c #ffffff",
"f c #00c0c0",
"................................",
"................................",
"................................",
"................................",
".............#....###...........",
"............#a##.#aaa##.........",
"...........#aaaa#aaaaaa##.......",
"..........#aaaa#aaaaaaaaa##.....",
".........#aaaa#aaabbaaaabaa##...",
"........#aaaa#aaabcdbaaabaaaa##.",
".......#aaaa#aaabcd.abaabaaaaaa#",
"......#aaaa#aaabcd..abaababaaa#.",
".....#aeaa#eaabcfd.aabaababaa#..",
"....#aeaa#eabbcffd.aaba.baba#...",
"...#eeae#eebccfffddaababbab#....",
"..#eeee#eeebfcfffd.dabababba##..",
".#eeee#eeeebfcfffdbdababab.aaa#.",
"#ggee#eeeeedhhfffddaabababaaaaa#",
"#bgggijkeeeeddhffd.aabababaaaa#b",
".#lbgggilkiaaadhfd.aabababaaa#b.",
"...##bgggleaaaadhd..ababaaaa#m..",
".....##b#eaaaaaadhd.ababaaa#m...",
"......##eeaeaaaaadhdbaaaaa#b....",
"......#eeeeeaeeaaaddaaaaa#m.....",
".....#eeeeeeeeeeaaaaaaaa#m......",
".....#beeeeeeeeeeeeaaaa#m.......",
"......##beeeeeeeeeeeaelb........",
"........##beeeeeeeeee#b.........",
"..........##meeeeeeelb..........",
"............##beeee#b...........",
"..............#lbb#m............",
"................##m............."};
