/* XPM */
static char * sound_xpm[] = {
"32 32 213 2",
"  	c None",
". 	c #020204",
"+ 	c #D2C694",
"@ 	c #FEFACC",
"# 	c #FEFED4",
"$ 	c #CECA84",
"% 	c #CABA84",
"& 	c #FEFEE4",
"* 	c #FEFEDC",
"= 	c #E2DE94",
"- 	c #B69A6C",
"; 	c #FEFADC",
"> 	c #FEFAAC",
", 	c #FEFEF4",
"' 	c #364244",
") 	c #FEFECC",
"! 	c #FAFABC",
"~ 	c #F6F2E4",
"{ 	c #FEFEEC",
"] 	c #26F2FC",
"^ 	c #6A6A64",
"/ 	c #666264",
"( 	c #FEFEC4",
"_ 	c #FEFEBC",
": 	c #FEFEB4",
"< 	c #FAF6AC",
"[ 	c #FAFAF4",
"} 	c #FEFEFC",
"| 	c #666664",
"1 	c #727274",
"2 	c #2E323C",
"3 	c #FEFAB4",
"4 	c #F6F29C",
"5 	c #F6EE8C",
"6 	c #FEFA9C",
"7 	c #D6CE4C",
"8 	c #466A74",
"9 	c #5E5E5C",
"0 	c #767674",
"a 	c #F2EEA4",
"b 	c #E2E284",
"c 	c #9E962C",
"d 	c #0EC2CC",
"e 	c #626264",
"f 	c #6A6E6C",
"g 	c #82827C",
"h 	c #DADE9C",
"i 	c #EAE694",
"j 	c #DEDA84",
"k 	c #DEDE94",
"l 	c #F6F694",
"m 	c #6A6A14",
"n 	c #1ADEEC",
"o 	c #02CEDC",
"p 	c #1E9AAC",
"q 	c #5A5A5C",
"r 	c #6E6E6C",
"s 	c #7E7E7C",
"t 	c #868684",
"u 	c #A2A67C",
"v 	c #D2CE7C",
"w 	c #D6D27C",
"x 	c #F6F294",
"y 	c #12E6EC",
"z 	c #02BAC4",
"A 	c #02DAEC",
"B 	c #26869C",
"C 	c #767A84",
"D 	c #8E8E94",
"E 	c #465254",
"F 	c #CECE7C",
"G 	c #DAD67C",
"H 	c #E6E28C",
"I 	c #1AE6F4",
"J 	c #02BECC",
"K 	c #02C2CC",
"L 	c #06CAD4",
"M 	c #265664",
"N 	c #4E4E4C",
"O 	c #929294",
"P 	c #9A9A9C",
"Q 	c #A6A6A4",
"R 	c #CAC66C",
"S 	c #C6C26C",
"T 	c #CECA74",
"U 	c #029AA4",
"V 	c #02B2BC",
"W 	c #9EBEBC",
"X 	c #BABABC",
"Y 	c #8A8A84",
"Z 	c #9E9E9C",
"` 	c #B6B6B4",
" .	c #CAC26C",
"..	c #BEBA64",
"+.	c #CAC674",
"@.	c #CACE6C",
"#.	c #02AAB4",
"$.	c #02B6C4",
"%.	c #02A6B4",
"&.	c #02929C",
"*.	c #A2AEAC",
"=.	c #F2F2F4",
"-.	c #D2D2D4",
";.	c #AEB2B4",
">.	c #C2BEBC",
",.	c #C2BE64",
"'.	c #C2BE5C",
").	c #027684",
"!.	c #028284",
"~.	c #029294",
"{.	c #029AAC",
"].	c #0296A4",
"^.	c #027E8C",
"/.	c #929E9C",
"(.	c #E2E2E4",
"_.	c #C6C6C4",
":.	c #C6C2C4",
"<.	c #B6B254",
"[.	c #BAB65C",
"}.	c #BABA64",
"|.	c #027A84",
"1.	c #02767C",
"2.	c #92A6AC",
"3.	c #DADADC",
"4.	c #E2E2DC",
"5.	c #DEDEDC",
"6.	c #AEAE54",
"7.	c #02565C",
"8.	c #02626C",
"9.	c #026A74",
"0.	c #02727C",
"a.	c #028A9C",
"b.	c #6E8A8C",
"c.	c #565654",
"d.	c #EEEEEC",
"e.	c #F2F2EC",
"f.	c #B2AE54",
"g.	c #42420C",
"h.	c #023A3C",
"i.	c #064E54",
"j.	c #025A64",
"k.	c #025E64",
"l.	c #02666C",
"m.	c #026E74",
"n.	c #028694",
"o.	c #425E5C",
"p.	c #FAFAFC",
"q.	c #F6F6F4",
"r.	c #B2AE4C",
"s.	c #B6AE54",
"t.	c #BAB254",
"u.	c #6E6E14",
"v.	c #022E34",
"w.	c #02525C",
"x.	c #829EA4",
"y.	c #C2C2C4",
"z.	c #D2D2CC",
"A.	c #BAB644",
"B.	c #D2BE8C",
"C.	c #FEFEAC",
"D.	c #0E2E34",
"E.	c #62828C",
"F.	c #D6D6D4",
"G.	c #B2B254",
"H.	c #FEFEA4",
"I.	c #264244",
"J.	c #5A828C",
"K.	c #CECED4",
"L.	c #EAEAE4",
"M.	c #7E8244",
"N.	c #7A761C",
"O.	c #EEE274",
"P.	c #1A3A34",
"Q.	c #1E6674",
"R.	c #C6BEBC",
"S.	c #CACACC",
"T.	c #B2AE5C",
"U.	c #BAAE34",
"V.	c #F6EA74",
"W.	c #1E3A3C",
"X.	c #BAB24C",
"Y.	c #BEBA54",
"Z.	c #BEB23C",
"`.	c #E6E674",
" +	c #FEFE9C",
".+	c #263E34",
"++	c #42868C",
"@+	c #CAC6CC",
"#+	c #BEBA5C",
"$+	c #C6C264",
"%+	c #DECE6C",
"&+	c #FEFAA4",
"*+	c #1A2E2C",
"=+	c #729694",
"-+	c #BEBA4C",
";+	c #CECA64",
">+	c #E2D25C",
",+	c #EEE68C",
"'+	c #FEFE94",
")+	c #C6C664",
"!+	c #D6D264",
"~+	c #D6D25C",
"{+	c #F6E67C",
"]+	c #FEFE8C",
"^+	c #EEEA74",
"/+	c #EEEE84",
"(+	c #F2EE7C",
"_+	c #FEFA8C",
":+	c #F6F27C",
"<+	c #9A9A24",
"[+	c #FEEE8C",
"}+	c #1A1A04",
"|+	c #161604",
"                        . .                                     ",
"                        . + . .                                 ",
"                        . @ # $ . . .                           ",
"                      . % & * * = $ - . . . .                   ",
"                      . @ & * ; # # & # > % - . . . .           ",
"                    . % , & * & & , . . ' # ) ! = $ - . . .     ",
"                    . ~ , , { { , . ] ^ / ' # ( ( _ : < $ - . . ",
"                    . [ { , , } . ] / | 1 2 & _ _ : 3 4 5 6 7 . ",
"                  . % } , , , . ] 8 9 ^ 0 1 ' @ ! ! a = b 4 c . ",
"                  . ; , } } . ] d e 9 f 0 g ' h i i j k i l m . ",
"                . % , , } . n o p q e r s t ' u k j v w w x .   ",
"                . & , , . y z A B q ^ C t D C E w $ F G H G .   ",
"              . % . . . I J K L M N ^ g O P Q E R R S T v T .   ",
"              . . U o o z K o V W X 1 Y Z Q ` E  ...+.+.@.c .   ",
"            . @ . U U #.#.$.%.&.*.=.-.Z ;.` >.E ....,.'.R m .   ",
"          . % # . ).!.~.&.{.].^./.>.(._.:._.-.E <.[...[.}..     ",
"          . ) ) . |.|.|.1.1.^.!.2.Y N 3.4.5.(.E 6.6.<...[..     ",
"        . % ( # . 7.8.8.9.0.0.a.b.c.1 d.=.d.e.E f.<.<...c .     ",
"      . % _ _ ( g.h.i.j.k.l.m.n.o.e 3.d.p.p.q.E r.s.s.t.u..     ",
"      . : : _ : ( g.v.v.w.j.9.).x.y.z.(.d.q.[ E 6.f.[.A.. .     ",
"    . B.: C.: C.C.< ( _ D.w.l.8.E.;._.F.(.d.*.E f.G.[.c . .     ",
"  . % < H.H.C._ C.C.C._ _ I.7.l.J.>.y.K.5.L.' M.G.f.}.u.. . . . ",
". N.O.H.C.H.C.H.: : C.C._ _ P.7.Q.R.y.S.3.L.' c T.<.<.. . . . . ",
"  . . U.V.6 H.C.H.C.H.C.C.: _ W.j.` _.S.F.S.' G.X.Y.A.. . . .   ",
"      . . Z.`. +6 H.H.C.H.C.C._ .+++_.@+3.' #+[.$+$+c . . .     ",
"          . . U.%+V.5 &+6 H.H.H._ *+=+_.@+' -+'.;+G m . . .     ",
"              . . . U.>+,+,+x H.'+_ . . ' ;+)+!+`.c . . .       ",
"                    . . . U.~+{+H. +]+]+^+^+/+(+G m . .         ",
"                          . . . U.>+`._+'+]+_+:+<+. .           ",
"                                . . . U.~+`.[+~+m .             ",
"                                      }+|+. <+u..               ",
"                                            . .                 "};
