/* XPM */
static char*sound[]={
"32 32 16 1",
"b c #808080",
"e c #c0c0c0",
"l c #c0c000",
"m c #004000",
"j c #404000",
"c c #00ffff",
"# c #000000",
". c None",
"k c #004040",
"h c #ffff00",
"d c #303030",
"f c #ffffc0",
"i c #008080",
"n c #a0a0a4",
"a c #ffffff",
"g c #00c0c0",
"................................",
"................................",
"................................",
"................................",
".............#....###...........",
"............#a##.#aaa##.........",
"...........#aaaa#aaaaaa##.......",
"..........#aaaa#aaaaaaaaa##.....",
".........#aaaa#aaabbaaaabaa##...",
"........#aaaa#aaabcdbaaabaaaa##.",
".......#aaaa#aaabcdeabaabaaaaaa#",
"......#aaaa#aaabcdeeabaababaaa#.",
".....#afaa#faabcgdeaabaababaa#..",
"....#afaa#fabbcggdeaabaebaba#...",
"...#ffaf#ffbccgggddaababbab#....",
"..#ffff#fffbgcgggdedabababba##..",
".#ffff#ffffbgcgggdbdabababeaaa#.",
"#hhff#fffffdiigggddaabababaaaaa#",
"#bhhhjklffffddiggdeaabababaaaa#b",
".#mbhhhjmljaaadigdeaabababaaa#b.",
"...##bhhhmfaaaadideeababaaaa#n..",
".....##b#faaaaaadideababaaa#n...",
"......##ffafaaaaadidbaaaaa#b....",
"......#fffffaffaaaddaaaaa#n.....",
".....#ffffffffffaaaaaaaa#n......",
".....#bffffffffffffaaaa#n.......",
"......##bfffffffffffafmb........",
"........##bffffffffff#b.........",
"..........##nfffffffmb..........",
"............##bffff#b...........",
"..............#mbb#n............",
"................##n............."};
