/* XPM */
/* Drawn for the K Desktop Environment */
/* See http://www.kde.org */
static char*tablet[]={
"32 32 9 1",
"b c #000000",
"e c #ffffff",
"c c #808080",
"# c #c0c0c0",
"a c #a0a0a4",
"g c #585858",
"d c #c0c0ff",
"f c #ff8000",
". c None",
"........#.#.....................",
"........###.....................",
"........a#a.....................",
"........a#a..................bb.",
"......bb#c..................bddb",
"....bb##b..................b#ddb",
"...b##bb........bb........b#e#b.",
"..b#bb........bbeeb......bae#b..",
".b#b........bbeefeeb....b#eab...",
".b#b......bbeeeeeedeb.bb#e#b....",
".b#b....bbeeeeeedd#eebd#e#b.....",
"..b#b.bbeeeeeedd####bdde#b......",
"...bbbeeeeeedd#####bdde#b.......",
"..bbeeeeeedd#######b#e#bb.......",
".beeeeeegd########b#e#b#eb......",
".b#eeegg##########be#b##eeb.....",
"..b#eee###########bbb####eeb....",
".aab#eee##################eeb...",
"..aab#eee##################eeb..",
"...aab#eee################eeeeb.",
"....aab#eee#############eeeeaab.",
".....aab#eee##########eeeeaabb..",
"......aab#eee#######eeeeaabbaaa.",
".......aab#eee####eeeeaabbaaaa..",
"........aab#eee#eeeeaabbaaaa....",
".........aab#eeeeeaabbaaaa......",
"..........aab#eeaabbaaaa........",
"...........aab#abbaaaa..........",
"............aabbaaaa............",
".............aaaaa..............",
"..............aa................",
"................................"};

