/* XPM */
static char * tablet_xpm[] = {
"32 32 29 1",
" 	c None",
".	c #000000",
"+	c #C0C0C0",
"@	c #9B9BB9",
"#	c #C0C0FF",
"$	c #A0A0A4",
"%	c #FFFFFF",
"&	c #F0AF8A",
"*	c #E8E8E8",
"=	c #9B9B9B",
"-	c #FF8000",
";	c #D3D3D3",
">	c #D5D4DD",
",	c #8D8D8D",
"'	c #9C9CBF",
")	c #BEBEBE",
"!	c #D7D7D7",
"~	c #5E5E60",
"{	c #F8F8F8",
"]	c #585858",
"^	c #F1F1F1",
"/	c #E0E0E2",
"(	c #BABABA",
"_	c #929292",
":	c #9C9C9C",
"<	c #6B6B6B",
"[	c #A6A6A9",
"}	c #7E7E81",
"|	c #5D5D5D",
"       .+.                      ",
"       .+.                      ",
"        .+.                     ",
"        .+.                  .. ",
"      ..+.                  .@#.",
"    ..++.                  .$#@.",
"   .++..        ..        .$%+. ",
"  .+..        ..&*.      .$%+.  ",
" .+.        ..=&-&%.    .$%$.   ",
" .+.      ..=;%%&%>%. ..$%+.    ",
" .+.    ..=;%%*#@#,*%.'+%+.     ",
"  .+. ..=;%%*#@@#)),.##!+.      ",
"   ...=;%%*#@@#))))~'#~+.       ",
"  ..=;%%*#@@#)))))).~~+..       ",
" .=;{%{*])))))))))~+^+.+,.      ",
" .+/%{]])))))))))).^+.,,*%.     ",
"  .+/%*.)))))))))~.~.,((,*%.    ",
" __.+/%*.)))))))).~::(()),*%.   ",
"  __.+/%*.))))))))))))))))<*%.  ",
"   __.+/%*.)))))))))))))<<*{%/. ",
"    __.+/%*.))))))))))<<*{%/[}. ",
"     __.+/%*.)))))))||*{%/[}..  ",
"      __.+/%*.))))||*{%/[}..___ ",
"       __.+/%*.)||*{%/[}..____  ",
"        __.+/%*.*{%/[}..____    ",
"         __.+/{%%/[}..____      ",
"          __.+//[}..____        ",
"           __.+$..____          ",
"            __..____            ",
"             _____              ",
"              __                ",
"                                "};
