/* XPM */
static char * trash_xpm[] = {
"34 34 226 2",
"  	c None",
". 	c #020204",
"+ 	c #D2C694",
"@ 	c #FEFAC4",
"# 	c #E2DE94",
"$ 	c #CAC67C",
"% 	c #848688",
"& 	c #B69A6C",
"* 	c #3A3A3C",
"= 	c #4E4E50",
"- 	c #62625C",
"; 	c #5C5A60",
"> 	c #525A44",
", 	c #636367",
"' 	c #52524C",
") 	c #666654",
"! 	c #EAEAC4",
"~ 	c #FBF6A7",
"{ 	c #BEAA7C",
"] 	c #565654",
"^ 	c #9C9C9C",
"/ 	c #D3D3D3",
"( 	c #E4E4E8",
"_ 	c #EEF6EC",
": 	c #72BA54",
"< 	c #A5D290",
"[ 	c #DAD6DC",
"} 	c #727264",
"| 	c #BAB684",
"1 	c #F4EEA8",
"2 	c #F5F3AF",
"3 	c #F2F29C",
"4 	c #90928C",
"5 	c #EBEDE9",
"6 	c #F9FBF8",
"7 	c #FEFEFC",
"8 	c #F4F5F0",
"9 	c #DEF0D4",
"0 	c #8AC470",
"a 	c #DEE6DC",
"b 	c #A6A3A4",
"c 	c #B2AE8C",
"d 	c #E2E2A0",
"e 	c #EEEAA0",
"f 	c #EEEE8C",
"g 	c #8A8E94",
"h 	c #D4EACC",
"i 	c #69B547",
"j 	c #4AAA24",
"k 	c #3EA20C",
"l 	c #30920C",
"m 	c #52AA3C",
"n 	c #E5EBE4",
"o 	c #DDDEDC",
"p 	c #AAAAAC",
"q 	c #A2A26C",
"r 	c #C7C274",
"s 	c #CFCA7E",
"t 	c #DCDB87",
"u 	c #FDFA92",
"v 	c #AAA23C",
"w 	c #787A78",
"x 	c #D6DED8",
"y 	c #C4E4B4",
"z 	c #4EA22C",
"A 	c #389A11",
"B 	c #36940C",
"C 	c #268610",
"D 	c #52A244",
"E 	c #CECECC",
"F 	c #969698",
"G 	c #C2BE7C",
"H 	c #D2CE81",
"I 	c #DAD67F",
"J 	c #EEEA78",
"K 	c #9A9A24",
"L 	c #425224",
"M 	c #AEC2A4",
"N 	c #D8EED0",
"O 	c #52A624",
"P 	c #3E9E10",
"Q 	c #2B8A09",
"R 	c #1E7E0C",
"S 	c #5A9E54",
"T 	c #BAB9BC",
"U 	c #767674",
"V 	c #7E7A7C",
"W 	c #DEDC68",
"X 	c #6C6B14",
"Y 	c #243614",
"Z 	c #5E8250",
"` 	c #BADCA8",
" .	c #2A850E",
"..	c #237B11",
"+.	c #86AE84",
"@.	c #DCDADA",
"#.	c #BAB668",
"$.	c #C6BE61",
"%.	c #E7E684",
"&.	c #CECA4C",
"*.	c #234516",
"=.	c #86A880",
"-.	c #94C87C",
";.	c #4BA524",
">.	c #3A960C",
",.	c #328E0C",
"'.	c #25820F",
").	c #8EB288",
"!.	c #EAE4EC",
"~.	c #837E41",
"{.	c #DDDB79",
"].	c #1C4408",
"^.	c #A2CE8C",
"/.	c #66AE4C",
"(.	c #3A8A1C",
"_.	c #E4DEE4",
":.	c #CAC6C8",
"<.	c #6A664C",
"[.	c #ADAB58",
"}.	c #D6CE4C",
"|.	c #9EC68C",
"1.	c #82C264",
"2.	c #9ABE8C",
"3.	c #16760C",
"4.	c #96B68C",
"5.	c #D2CED2",
"6.	c #CBCACA",
"7.	c #C3C2C1",
"8.	c #ABA451",
"9.	c #BAB659",
"0.	c #BEBA54",
"a.	c #D6CE74",
"b.	c #7EB264",
"c.	c #409420",
"d.	c #86B684",
"e.	c #BEBABC",
"f.	c #A6A351",
"g.	c #B6B25C",
"h.	c #C0BC67",
"i.	c #60A844",
"j.	c #66AA4C",
"k.	c #167E04",
"l.	c #80B27C",
"m.	c #CAD2C4",
"n.	c #C6C6C4",
"o.	c #A29E4F",
"p.	c #B2AD57",
"q.	c #3E8624",
"r.	c #4E9E34",
"s.	c #92BA8C",
"t.	c #BEBEBC",
"u.	c #16360C",
"v.	c #32721C",
"w.	c #3E8E24",
"x.	c #E2E2D4",
"y.	c #B2B2AF",
"z.	c #76763C",
"A.	c #9E962C",
"B.	c #4A5A2C",
"C.	c #164410",
"D.	c #72A264",
"E.	c #363624",
"F.	c #82823C",
"G.	c #9B9547",
"H.	c #9E9A48",
"I.	c #E8EA9C",
"J.	c #425A34",
"K.	c #1A5204",
"L.	c #1D710C",
"M.	c #6E9C64",
"N.	c #2A3A24",
"O.	c #666E34",
"P.	c #8C8C42",
"Q.	c #928E44",
"R.	c #929248",
"S.	c #ACAA28",
"T.	c #D2BA8C",
"U.	c #66764C",
"V.	c #062E04",
"W.	c #165604",
"X.	c #5A7A54",
"Y.	c #1E321C",
"Z.	c #A6A62C",
"`.	c #CABA84",
" +	c #FEFE94",
".+	c #FEFDB1",
"++	c #033304",
"@+	c #12520C",
"#+	c #1E660C",
"$+	c #125E04",
"%+	c #628E5C",
"&+	c #9EA29C",
"*+	c #042404",
"=+	c #2E3E1C",
"-+	c #8A8640",
";+	c #726E1C",
">+	c #EEE274",
",+	c #FDFCA1",
"'+	c #EAEEB4",
")+	c #525E44",
"!+	c #021A04",
"~+	c #0C3A04",
"{+	c #1A4E04",
"]+	c #0C4404",
"^+	c #BAAE34",
"/+	c #F6E878",
"(+	c #525634",
"_+	c #122E0C",
":+	c #566A5C",
"<+	c #3A4E20",
"[+	c #C6BE44",
"}+	c #AAAE74",
"|+	c #76825C",
"1+	c #565E2C",
"2+	c #3A522C",
"3+	c #5A6E2C",
"4+	c #BEB654",
"5+	c #D2CA64",
"6+	c #DECE6C",
"7+	c #FAEE88",
"8+	c #C6C26C",
"9+	c #E0D458",
"0+	c #F6F68C",
"a+	c #FDF694",
"b+	c #D7D25C",
"c+	c #181804",
"                                                                    ",
"                          . .                                       ",
"                          . + . .                                   ",
"                          . @ # $ . . .                             ",
"                        . % @ @ @ @ @ & . . . .                     ",
"                    . * = - ; > , ' ) @ ! ~ { & . . . .             ",
"                  * ] ^ / ( _ : < [ ^ ' } | 1 2 3 @ $ & . . .       ",
"                * 4 5 6 7 8 9 : : 0 a [ b = c d # e f ~ # $ & . .   ",
"              * g 5 6 _ h < i j k l m n o p ' q r s t t 1 u e v .   ",
"            * w x 7 9 y < i z A A B C D x E F ' G r H I I f J K .   ",
"            L M 6 N < : O P A B B l Q R S E T U V s r s I 3 W X .   ",
"          Y Z N 9 ` : z k B A l B Q  ...+.@.T ^ ' #.$.s I %.&..     ",
"          *.=.n ` -.;.P >.>.B ,.Q  .'.).!./ E T , ~.#.G s I {..     ",
"          ].^.N -./.k B B B '.(. ...+._./ E E :.4 <.[.$.s I }..     ",
"          *.|.y 1.z A ,.,.R 2.'.3.4._.5.E 6.7.7.F ' 8.9.0.a.K .     ",
"          *.b.< i c.,.,.'.d.( '.=._.5./ 6.6.E e.F ' f.[.g.h.X .     ",
"          ].i.0 j.>.C k.l.n _.m./ 5.E m.n.7.n.T 4 ' o.8.p.h..       ",
"          *.q.i.r. .'.s.!.o @.E 5.m.7.6.n.t.t.T 4 <.o.f.p.9..       ",
"          u.v.c.w.R l.x.[ E / E 5.6.n.n.7.t.T y.) z.o.f.9.A..       ",
"        . B.C.....D.( @./ @.E 6.6.E n.t.T T y.F E.F.G.H.9.X .       ",
"        . I.J.K...L.M.o 5.E E E n.n.7.T e.7.b N.O.P.Q.R.S..         ",
"      . T.@ U.V.W.L.L.M.[ E 7.6.7.e.7.n.y.X.N.Y.F.P.G.H.Z.. .       ",
"    . `.~  +.+> ++@+#+$+%+/ E y.&+&+b C.++*+=+~.-+Q.f.8.;+. . . .   ",
"  . ;+>+u ,+ +'+)+!+~+{+@+Z 6.X.]+]+~+V.*+Y -+Q.G.G.8.p.. . . . .   ",
"    . . ^+/+,+,+3 G (+_+V.++:+)+++++V._+<+P.H.o.8.o.0.Z.. . . .     ",
"        . . [+J ,+.+.+}+|+1+L <+2+1+3+F.o.H.f.[.4+h.5+K . . .       ",
"            . . ^+6+7+,+~ I.%.t $ 8+h.0.0.4+$.$.0.8+&.X . . .       ",
"                . . . ^+9+%.0+ +a+3 f >+{.{.{.W I >+A.. . .         ",
"                      . . . ^+b+/+,+ + +u u 0+u u }.X . .           ",
"                            . . . ^+6+%.u  +u u 7+K . .             ",
"                                  . . . ^+b+%.7+b+X .               ",
"                                        c+c+. K X .                 ",
"                                              . .                   ",
"                                                                    "};
