/* XPM */
static char * trash_xpm[] = {
"32 32 3 1",
" 	c None",
".	c #517996",
"X	c white",
"            .......             ",
"          ............          ",
"        ................        ",
"      ....................      ",
"     ............XX........     ",
"    .............XXXX......     ",
"   ..............XXXXX......    ",
"   .........XXXXXXXXXXX......   ",
"  ........XXXXXXXXXXXXXX......  ",
" .......XXXXXXXXXXXXXXXXX.....  ",
" ......XXXXXXXXXXXXXXXXXX...... ",
" .....XXXXXXXXXXXXXXXXXXX...... ",
".....XXXXXXXXXXXXXXXXXXX......X.",
".....XXXXXXXXXXXXXXXXXX.......X.",
"....XXXXXXXXXXXXXXXXXX........X.",
"....XXXXXXXXXXX..XXXX.........X.",
"...XXXXXXXXXX....XX...........X.",
"...XXXXXXXX..................XX.",
"...XXXXXXX...................XX.",
"...XXXXXX....................XX.",
" ..XXXXX....................XX. ",
" ..XXXX.....................XX. ",
"  ..XXX....................XXX. ",
"  ..XXX...................XXX.  ",
"   ..XXX.................XXXX.  ",
"   ..XXXX..............XXXXX.   ",
"    ..XXXX...........XXXXXX.    ",
"     ..XXXX......XXXXXXXXX.     ",
"      ..XXXXX....XXXXXXXX.      ",
"       ...XXXXX..XXXXXX..       ",
"          ..XXXXXXXX...         ",
"            ........            "};
