/* XPM */
/* Drawn  by Mark Donohoe for the K Desktop Environment */
/* See http://www.kde.org */
static char*unknown[]={
"32 32 17 1",
"b c #000000",
"d c #ffffff",
"i c #808080",
"g c #c0c0c0",
"# c #000080",
"j c #a0a0a4",
"a c #585858",
"n c #004000",
"o c #000040",
"h c #0000c0",
"m c #004040",
"l c #404000",
"k c #c0c000",
"e c #ffff00",
"f c #bebeff",
"c c #ffffbe",
". c None",
"................................",
"...................####a........",
"...................######.......",
"........................a#......",
".............b....bbb....a#.....",
"............bcbb.bdcdbb...#a....",
"...........bccccbdcddcdbb.##....",
"..........bceccbddcdccdcdb##a...",
".........bceccbddcccddccdf###...",
"........bcecebdcccccdcddgah#ibb.",
".......beeeebcdcdcdbijfah##hiddb",
"......beeeebddccccbja##h###iddb.",
".....bekeebcccccdbddah####ifcb..",
"....bekeebcccccdbdcdahaffbddb...",
"...bkkekbcceccdbdcddahfdddbb....",
"..bkkkkbceccccbcdcdda#ccddddbb..",
".bkkkkbeecceclddkdcdahddcdcdcdb.",
"bkkkkbeeeeecldcdckkcdccdcdcddddb",
"bikkklmkeeelddkcdcckkddcdccdcdbi",
".bnikkklnklcccckkcdcckkcccdccbi.",
"...bbikkknddkcccckkcaifdkcccbj..",
".....bbibcccckkccccih##icccbj...",
"......bbeckcccckkcch###hccbi....",
"......beeeekkcccckk###hacoj.....",
".....beeeeeeekkcccckjiidbj......",
".....bieeeeeeeekkccccdcbj.......",
"......bbieeeeeeeekkeecni........",
"........bbieeeeeeeeeebi.........",
"..........bbjeeeeeeeni..........",
"............bbieeeebi...........",
"..............bniibj............",
"................bbj............."};

