/* XPM */
static char * utilities_package_xpm[] = {
"32 32 238 2",
"  	c None",
". 	c #020204",
"+ 	c #FEF6B4",
"@ 	c #FEFEFA",
"# 	c #FAF6D4",
"$ 	c #FAFAE4",
"% 	c #F2EAA4",
"& 	c #F6EEB8",
"* 	c #F6F2CC",
"= 	c #FEFAEC",
"- 	c #EEE294",
"; 	c #D6C664",
"> 	c #F2E69C",
", 	c #E6DA84",
"' 	c #BEAE5C",
") 	c #B6B604",
"! 	c #EEDE84",
"~ 	c #DECE75",
"{ 	c #D8CA74",
"] 	c #A2A204",
"^ 	c #AAAA04",
"/ 	c #AEAE04",
"( 	c #B2B204",
"_ 	c #D6C674",
": 	c #9A8A44",
"< 	c #827E0C",
"[ 	c #8A8604",
"} 	c #8E8E04",
"| 	c #949204",
"1 	c #9E9E04",
"2 	c #CABE6C",
"3 	c #C8BA6C",
"4 	c #C2B664",
"5 	c #BEB264",
"6 	c #EEE284",
"7 	c #CEBA54",
"8 	c #726234",
"9 	c #625E0C",
"0 	c #6A660C",
"a 	c #726E0C",
"b 	c #76720A",
"c 	c #7E7A0A",
"d 	c #828204",
"e 	c #868604",
"f 	c #B6AA5C",
"g 	c #AEA65C",
"h 	c #AEA25C",
"i 	c #AAA254",
"j 	c #FEEE95",
"k 	c #5E5E5C",
"l 	c #4A4611",
"m 	c #504E0C",
"n 	c #56520C",
"o 	c #5E5A0C",
"p 	c #72720C",
"q 	c #7A7A0C",
"r 	c #A69E54",
"s 	c #A49A54",
"t 	c #9E964C",
"u 	c #9C924C",
"v 	c #968E4C",
"w 	c #928A44",
"x 	c #82763C",
"y 	c #6E5E24",
"z 	c #6E6A5C",
"A 	c #423E0C",
"B 	c #5A5604",
"C 	c #8E8644",
"D 	c #8A8244",
"E 	c #7E6E34",
"F 	c #7A7A5C",
"G 	c #3E3A0C",
"H 	c #46420C",
"I 	c #827A3C",
"J 	c #908952",
"K 	c #8D8652",
"L 	c #89864B",
"M 	c #7A7634",
"N 	c #665E2C",
"O 	c #FEFADF",
"P 	c #B2AE94",
"Q 	c #928E6C",
"R 	c #FEF2AC",
"S 	c #F6EEA4",
"T 	c #36320C",
"U 	c #827F4B",
"V 	c #000000",
"W 	c #828384",
"X 	c #746D44",
"Y 	c #FEF2B8",
"Z 	c #FEF6CE",
"` 	c #6A5614",
" .	c #E2DABC",
"..	c #FEF6C4",
"+.	c #322A0C",
"@.	c #4A4328",
"#.	c #CECED0",
"$.	c #C1C1C3",
"%.	c #C3C3C7",
"&.	c #7A6614",
"*.	c #7A760A",
"=.	c #9E9B21",
"-.	c #D6D6D5",
";.	c #B0B0B0",
">.	c #9A9A99",
",.	c #C9C9C4",
"'.	c #E2E2E4",
").	c #947F2F",
"!.	c #909021",
"~.	c #9C9A04",
"{.	c #A09E21",
"].	c #FEFEE6",
"^.	c #C3C3C0",
"/.	c #B5B4B4",
"(.	c #ABAAA6",
"_.	c #B4B4B6",
":.	c #CFCFCB",
"<.	c #797977",
"[.	c #525250",
"}.	c #A2A221",
"|.	c #C7EDF3",
"1.	c #3C8082",
"2.	c #FEFAD1",
"3.	c #D1D1CF",
"4.	c #A9A9A8",
"5.	c #9D9D9B",
"6.	c #BCBCBE",
"7.	c #434341",
"8.	c #102322",
"9.	c #C6C6C3",
"0.	c #CBCBC9",
"a.	c #BDBDBE",
"b.	c #9E9E9D",
"c.	c #438888",
"d.	c #307072",
"e.	c #282500",
"f.	c #90D0D2",
"g.	c #B7E5E3",
"h.	c #FEFAC4",
"i.	c #D8D8D9",
"j.	c #CACACA",
"k.	c #8D8D8A",
"l.	c #3B3D3F",
"m.	c #4F4E4A",
"n.	c #9E7641",
"o.	c #9B9B21",
"p.	c #BEF6F6",
"q.	c #B9D9DC",
"r.	c #292E26",
"s.	c #C2E9EB",
"t.	c #4D9A9F",
"u.	c #E0E0E0",
"v.	c #C3C3C1",
"w.	c #A0A0A3",
"x.	c #474948",
"y.	c #4A4641",
"z.	c #DDC292",
"A.	c #C1A470",
"B.	c #999721",
"C.	c #C3F1F2",
"D.	c #69AEB2",
"E.	c #A2E1DD",
"F.	c #B7EBE9",
"G.	c #4B9E9E",
"H.	c #B2B2B4",
"I.	c #D4D4D3",
"J.	c #A1A1A2",
"K.	c #686867",
"L.	c #46494A",
"M.	c #AC8861",
"N.	c #E3C898",
"O.	c #DEC491",
"P.	c #71B7BA",
"Q.	c #78C1C2",
"R.	c #4E9A9A",
"S.	c #55A6A3",
"T.	c #458D8E",
"U.	c #FEFAB7",
"V.	c #8F9094",
"W.	c #A1A1A4",
"X.	c #B6B6B7",
"Y.	c #6A6A65",
"Z.	c #5E5E60",
"`.	c #4A4A49",
" +	c #7A5D3D",
".+	c #CCAC7F",
"++	c #E7C7A2",
"@+	c #DCBA91",
"#+	c #5EA0A6",
"$+	c #51A4A9",
"%+	c #2C686A",
"&+	c #FEFAAC",
"*+	c #7C7D82",
"=+	c #B3B3B2",
"-+	c #696967",
";+	c #DABD97",
">+	c #F3D8B8",
",+	c #D8B289",
"'+	c #747028",
")+	c #FEF6A4",
"!+	c #FEF69C",
"~+	c #949495",
"{+	c #CFAF7E",
"]+	c #F5E2C8",
"^+	c #DFC79C",
"/+	c #FEF690",
"(+	c #D3B180",
"_+	c #EFD7B4",
":+	c #696928",
"<+	c #FEF684",
"[+	c #87D4D9",
"}+	c #70BCC5",
"|+	c #C3A366",
"1+	c #EACAA5",
"2+	c #D2AE83",
"3+	c #6FB6B9",
"4+	c #68ACB2",
"5+	c #CBB076",
"6+	c #E4C7A1",
"7+	c #D8B78D",
"8+	c #FEF26C",
"9+	c #64AAA9",
"0+	c #706D28",
"a+	c #D3B384",
"b+	c #DCC097",
"c+	c #D4B589",
"d+	c #6DB4B4",
"e+	c #747428",
"f+	c #C39C6A",
"g+	c #D7B588",
"h+	c #D1AC80",
"i+	c #7BC0C2",
"j+	c #C9A470",
"k+	c #B79658",
"l+	c #916F34",
"m+	c #816C20",
"n+	c #91CDD3",
"o+	c #A78446",
"                        .             .                         ",
"                    . . + .         . @ . .                     ",
"                . . + + + + .     . # $ @ @ . .                 ",
"            . . % % % % % % % . . & & * * # = @ . .             ",
"        . . - - - - - - - - ; ; @ @ > % & & * * # $ . .         ",
"    . . , , , , , , , , ' ' ) ) ! ! @ @ > > % & & * * # . .     ",
"  . ~ ~ { ~ ~ ~ ~ ~ ' ' ] ^ / ( ~ { _ _ @ @ - - > % & & * * .   ",
"    . ; ; ; ; ; : : < [ } | 1 ] 2 2 3 4 4 5 @ @ ! 6 > > % .     ",
"      . 7 7 8 8 9 0 a b c d e } f f f g g g h i @ @ 6 6 .       ",
"  . . j k l l l m n o 9 0 a p q r s s t u u v v w x y z @ . .   ",
"      . j j j l l A l m n B 9 0 w w C C C D D E E = = @ .       ",
"        . F j j j l l G H l m n I J K L M N N O O = H .         ",
"        . P Q F R R S G G T G H U V W V X Y Z Z H H ` .         ",
"        . @  .P Q F ......+.+.@.V #.$.%.V Z H H &.*.=.V         ",
"        . @ = @  .P Q F $ $ $ V -.;.>.,.'.V ).!.~.{.V V V       ",
"        . @ ].= ].O  .P Q F V ^./.(._.:.<.[.V }.{.V |.1.V       ",
"        . ].= ].O ].O 2. .V 3.4.5.4.6.<.[.7.V {.V |.1.8.  V V   ",
"        . ].O ].2.2.2.2.V '.9.0.a.b.<.7.7.V {.V |.c.d.e.V f.g.V ",
"        . O O 2.2.2.h.V '.i.j.:.k.l.m.n.V {.o.V p.q.1.r.f.s.t.V ",
"        . ].2.2.2.h.V u.'.'.v.w.x.y.z.A.V o.B.V C.D.E.F.s.G.V   ",
"        . 2.2.h.h.h.V H.I.'.J.K.L.M.N.O.n.V V C.P.Q.R.S.T.V     ",
"        . 2.h.U.+ U.V V.W.X.Y.Z.`. +.+++@+n.V #+$+%+V V V       ",
"        . h.h.h.U.+ &+V *+=+-+Z.V }.V ;+>+,+n.V %+V '+. . . .   ",
"        . U.+ U.U.)+)+!+V ~+-+V }.| B.V {+]+^+n.V '+B . . . . . ",
"        . + &++ )+&+!+!+!+V V /+| B.V C.V (+_+@+n.V :+. . . .   ",
"        . + &+&+!+!+/+/+/+/+<+<+B.V C.[+}+V |+1+2+n.V . .       ",
"          . . !+!+!+/+/+<+<+<+<+V s.3+4+%+V V 5+6+7+n.V         ",
"              . . /+/+<+<+8+<+V C.9+4+%+V '+0+V a+b+c+n.V       ",
"                  . . 8+<+8+V C.d+4+%+V e+. .   V f+g+h+n.V     ",
"                      . . V C.i+4+%+V . .         V j+k+l+m+V   ",
"                          V n+4+%+V .               V o+l+V     ",
"                            V V V                     V V       "};
