/* XPM */
/* Drawn  by Nico Shirwing for the K Desktop Environment */
/* See http://www.kde.org */
static char*utilities_package[]={
"32 32 15 1",
"# c #000000",
"i c #c0c0c0",
"a c #ffffff",
"e c #808080",
"f c #585858",
"g c #a0a0a4",
"c c #808000",
"k c #00c0c0",
"d c #c0c000",
"h c #c0ffff",
"b c #ffffc0",
"l c #ff8000",
"m c #ffa858",
"j c #ffdca8",
". c None",
"............##.....#............",
"..........##aa#...#a##..........",
"........##aabba#.#abaa##........",
"......##aabbbbb##abbbbaa##......",
"....##aabbbbb##cd##bbbbbaa##....",
"..##aabbbbb##ccccdc##bbbbbaa##..",
"##aabbbbb##cccccdcdcd##bbbbbaa##",
".#abbbb##ccccccccdcdcdc##bbbbb#.",
"..#ab##cccccccccdcdcdcdcd##bb#..",
"#####ccccccccccccdcdcdcdcdc#####",
".##bb##cccccccccdcdcdcdcd##bb##.",
"...##bb##cccccccdc#######bb##...",
"...#a##bb##cccccc#efff#bb##d#...",
"...#abb##bb##ccc#eeeee###ddd#...",
"...#abbbb##bb###eegfff#ddd####..",
"...#abbbbbb##b#eegffff#dd#hi#...",
"...#abbbbbbbb#eegfffff#d#hi#...#",
"...#abbbbbbb#eegfffff#dd#hi#..##",
"...#abbbbbbb#egfffff#ddd#hih##i#",
"...#abbbbbbb#gfffff#j#d#hikihhk#",
"...#abbbbbbb#fffff#lmj#hikikkk#.",
"...#abbbbbbbb#fff#d#l#hikik###..",
"...#abbbbbbbbb#f#ddd#hikik#d#...",
"...#abbbbbbbbbb#ddd#hikik#dd#...",
"...#dbbbbbbbbbbbdd#hikik#j#d#...",
"...##ddbbbbbbbbbd#hikik#lmj##...",
".....##ddbbbbbbb#hikik#d#lmj#...",
".......##ddbbbb#hikik#d###lmj#..",
".........##ddb#hikik###...#lmj#.",
"...........##d#hkik##......#lmj#",
".............##kkk#.........#lm#",
"...............###...........##."};

