/* XPM */
/* Drawn  by Mark Donohoe for the K Desktop Environment */
/* See http://www.kde.org */
static char*www[]={
"32 32 15 1",
"j c #000000",
"g c #008000",
"l c #ff0000",
"a c #c0c0ff",
"h c #004000",
"# c #000080",
"m c #ffff00",
"d c #00ff00",
"c c #0000ff",
"e c #c0ffc0",
"f c #00c000",
"k c #808080",
"i c #0000c0",
"b c #ffffff",
". c None",
"................................",
"................................",
"................................",
"................................",
"................................",
"................................",
"..........######a...............",
"........##aabaaa###.............",
".......#caadeeccccc#............",
"......#cafdffffghccc#...........",
".....#dccdfffffghcccc#..........",
"....#dgccdffffghccccci#.........",
"....#dgcchdffghcccccci#.........",
"...#idgcccgffhcccccccii#........",
"...#igccccggggcccccccii#........",
"...#iiccccchggghcccccii#........",
"...#iiiccccchgdffccciii#........",
"....#iiicccccgffffiiii#....j....",
"....#iiiiiiccchfgghiii#.k.jk....",
".....#iiiiiiiihggghii#bkllk..j..",
"......#iiiiiiiihggii#bkllll.jk..",
".......#iiiiiiiigii#.kllllllk...",
"........###iiiii###..kllllllk...",
"...........#####.....klllllkj...",
".....................kllllkj....",
"....................kmkkkkj.....",
"...................kmkkjjj......",
"..................kmkk..........",
"...................kk...........",
"...................k............",
"................................",
"................................"};

