/* XPM */
static char * zip_unmount_xpm[] = {
"32 32 31 1",
" 	c None",
".	c #000000",
"+	c #848484",
"@	c #474747",
"#	c #575757",
"$	c #C0C0C0",
"%	c #FFFFFF",
"&	c #6F6F6F",
"*	c #7D7D7D",
"=	c #808080",
"-	c #7A7A7A",
";	c #777777",
">	c #008080",
",	c #737373",
"'	c #FF0000",
")	c #1E8282",
"!	c #707070",
"~	c #6A6A6A",
"{	c #6D6D6D",
"]	c #676767",
"^	c #A0A0A0",
"/	c #636363",
"(	c #BFBFBF",
"_	c #606060",
":	c #5D5D5D",
"<	c #AAAAAA",
"[	c #5A5A5A",
"}	c #B1B1B1",
"|	c #A5A5A5",
"1	c #303030",
"2	c #979797",
"              ..                ",
"             .++.               ",
"            .++++..             ",
"           .++++.@#.            ",
"          .++++.$%&#.           ",
"         .++++.%%$%&#.          ",
"        .++++.%$%%$%&#.         ",
"       .*===.$%%$%%$%&#.        ",
"      .****.%%$%%$%%$%&#.       ",
"     .----..%%%$%%$%%$%&#.      ",
"    .;;;;.>>.%%%$%%$%%$%&#.     ",
"   .,,,,.>>').%%%$%%$%%$%&#.    ",
"  .!!!!.~.>>>>.%%%$%%$%%%%&.    ",
" .{{{{.~{{.>>>>.%%%$%%%%%%.{.   ",
".~~~~.~~~~~.>>>>.%%%$%%%%.~~~.  ",
".]]].~]]]]]].>>>'.%%%%%%.]]]]^. ",
".//.(.///////.>''%.%%%%.////^.  ",
".^.(((._______.'%$%.%%.____^.   ",
" ..%(((.:::::::.%%$%..::::^.    ",
"  .<%(((.[[[[[[[.%%>.[[[[^.     ",
"   .#%(((.#######.>.####^.      ",
"    .#%}}}.#######.####^.       ",
"     .<%|||.#####1####^.        ",
"      .<%2.#####1####^.         ",
"       .<.#####1####^.          ",
"        ..####1####^.           ",
"         .^##1####^.            ",
"          .^1####^.             ",
"           .1^##^.              ",
"            ..^^.               ",
"              ..                ",
"                                "};
