/* XPM */
static char *mini-titlebar[] = {
/* width height num_colors chars_per_pixel */
"    16    16       15            1",
/* colors */
". c #000000",
"# c #c0c0c0",
"a c #ffffff",
"b c #808080",
"c c #a0a0a0",
"d c #000080",
"e c #008080",
"f c #0000be",
"g c #00bebe",
"h c #bebe00",
"i c #0000ff",
"j c #00ffff",
"k c #bebeff",
"l c #beffff",
"m c #ffffbe",
/* pixels */
"a...............",
"a.....iiiiii...b",
"a..b#.ddaddd#.bb",
"a.#####aa######b",
"a.bbbbakbbbbbbbb",
"a.bmmagammmmma.b",
"a.bmakkmmmmmm..b",
"...........mmc.b",
".jjjjjjjjjjhm..b",
".gggggggggghma.b",
".eeeeeeeeeehmb.b",
"a.bhhhhhhhhhmc.b",
"a.bmmmmmmmmmmc.b",
"a.bmmmmmmmmmma.b",
"a.b............b",
"a.bbbbbbbbbbbbbb"
};
