/* XPM */
static char * close_xpm[] = {
/* width height num_colors chars_per_pixel */
"16 16 3 1",
/* colors */
" 	s None	c None",
".	c white",
"X	c #707070",
/* pixels */
"                ",
"                ",
"  .X        .X  ",
"  .XX      .XX  ",
"   .XX    .XX   ",
"    .XX  .XX    ",
"     .XX.XX     ",
"      .XXX      ",
"      .XXX      ",
"     .XX.XX     ",
"    .XX  .XX    ",
"   .XX    .XX   ",
"  .XX      .XX  ",
"  .X        .X  ",
"                ",
"                "};
