/* XPM */
static char * bryce_title_dn2_xpm[] = {
"11 18 28 1",
" 	c None",
".	c #575757",
"+	c #828282",
"@	c #6B6B6B",
"#	c #939393",
"$	c #616161",
"%	c #A1A1A1",
"&	c #8F8F8F",
"*	c #5F5F5F",
"=	c #767676",
"-	c #979797",
";	c #666666",
">	c #5A5A5A",
",	c #898989",
"'	c #929292",
")	c #7C7C7C",
"!	c #999999",
"~	c #707070",
"{	c #949494",
"]	c #656565",
"^	c #A2A2A2",
"/	c #909090",
"(	c #606060",
"_	c #777777",
":	c #696969",
"<	c #5B5B5B",
"[	c #8A8A8A",
"}	c #9A9A9A",
">>>><*<<<><",
"..>>.>><<<<",
"...>>>>><>>",
":::;@:@@@@@",
",,,,,,,,[[[",
"%%%%%%%^^^^",
"//////&&'&&",
"=======____",
"]]]]]];]]]]",
"*******$$((",
"****$$$$$$$",
"]]];;]];;;;",
"::::::@@@@@",
"~~~~~~~~~~~",
")))+)++++++",
"{{{{{{#{{{{",
"-----}}!!!!",
"'/''{-{#{''"};
