/* XPM */
/* Drawn  by Nico Shirwing for the K Desktop Environment */
/* See http://www.kde.org */
static char*kfm[]={
"32 32 8 1",
"b c #ffffff",
"d c #ffdca8",
"e c #ffa858",
"c c #c0c0c0",
"a c #a0a0a4",
"f c #808080",
"# c #000000",
". c None",
".##################.............",
"#abbbcbcbcbcbcbcbcb##...........",
"#aaabbcbcbcbcbcbcbcbc##.........",
"#aaaaabbbcbcbcbcbcbcbcb##.......",
"#aaaaaaabbbbb#####bbbbbbb#......",
"#aaaaaaaabcc#ddd#####cccc#......",
"#aaaaaaaabc##de#ddd####cc#......",
"#aaaaaaaabc##de#dd#bbbb######...",
"#aaaaaaaabc##de#de#bdddbbbbbb#..",
"#aaaaaaaabc##de#de#bdddddddde#..",
"#aaaaaaaabc##de#de#bdddddddde#..",
"#aaaaaaaabc#c###de#b########e##.",
"#aaaaaaaabc#acc##e##bbbbbbbbbbc#",
"#aaaaaaaabc#faacc###bccccccccca#",
"#aaaaaaaabc##ffaaccabccfffffcca#",
"#aaaaaaaabc#b##ffaaabccfcccfcca#",
"#aaaaaaaabc#bcc##ffabccccccccca#",
"#aaaaaaaabc#bccff##faaaaaaaaaaa#",
"#aaaaaaaabc#bccfccc############.",
"#aaaaaaaabc#bccccccccca#c#......",
"#aaaaaaaabc#aaaaaaaaaaa#c#......",
"#aaaaaaaabcc###########cc#......",
"#aaaaaaaabc#bbbbbbbbbbb#c#......",
"#aaaaaaaabc#bccccccccca#c#......",
"#aaaaaaaabc#bccfffffcca#c#......",
"#aaaaaaaabc#bccfcccfcca#c#......",
"#faaaaaaabc#bccccccccca#c#......",
"##ffaaaaabc#aaaaaaaaaaa#c#......",
"..##ffaaabcc###########cc#......",
"....##ffabccccccccccccccc#......",
"......##faaaaaaaaaaaaaaaa#......",
"........#################......."};

