/* XPM */
static char * bottom_xpm[] = {
"22 22 4 1",
" 	c None",
".	c #000000000000",
"X	c #861782078617",
"o	c #FFFFFFFFFFFF",
"                      ",
"                      ",
"                      ",
"                      ",
"        .....         ",
"        .   .X        ",
"        .   .X        ",
"        .   .X        ",
"        .o  .X        ",
"        .o  .X        ",
"        .o  .X        ",
"     ....o  ....      ",
"      .ooo    .X      ",
"       .oo   .X       ",
"        .ooo.X        ",
"         .o.X         ",
"          .X          ",
"    .............     ",
"    .............     ",
"                      ",
"                      ",
"                      "};
