/* XPM */
static char * finish_xpm[] = {
"22 22 4 1",
" 	c None",
".	c #618561856185",
"X	c #FFFFFFFFFFFF",
"o	c #ffffffffffff",
"                      ",
"                      ",
"                      ",
"                      ",
"                      ",
"            .     .   ",
"            ..    .   ",
"            .X.   .   ",
"     ........XX.  .   ",
"     .XXXXXXX XX. .   ",
"     .         XX..   ",
"     .         X. .   ",
"     ........ X.o .   ",
"     ooooooo.X.o  .   ",
"           o..o   .   ",
"           o.o    .   ",
"           oo         ",
"           o          ",
"                      ",
"                      ",
"                      ",
"                      "};
