/* XPM */
static char * mini_lock_xpm[] = {
"22 22 4 1",
" 	c None",
".	c #ffffffffffff",
"X	c #618561856185",
"o	c #FFFFFFFFFFFF",
"                      ",
"                      ",
"                      ",
"                      ",
"        .XXX.         ",
"        .ooo.X        ",
"      ..oXXXo..       ",
"      XoX...XoX       ",
"      XoX.  XoX.      ",
"      XoX.  XoX.      ",
"     XXXXXXXXXXX      ",
"     X         X.     ",
"     X ....... X.     ",
"     X ooooooo X.     ",
"     X ....... X.     ",
"     X         X.     ",
"     XXXXXXXXXXX.     ",
"      ...........     ",
"                      ",
"                      ",
"                      ",
"                      "};
