/* XPM */
static char * OpenBook_xpm[] = {
"16 16 7 1",
" 	s mask c none",
".	c black",
"X	c white",
"o	c gray50",
"O	c #000082078207",
"+	c gray70",
"@	c cyan",
"                ",
"  .             ",
" .X.            ",
"..Xoo    ...    ",
".OXX.  ..XX..   ",
".OXXX..XXXX.+.. ",
".OXXX.+XXXX.+@. ",
".OXXX.+XXXX.+O. ",
".OXXX.+XXXX.+@. ",
".OXXX.+XXXX.+O. ",
".OOXX.+Xoo..+@. ",
" .OOX.+.o++++O. ",
"  .OO........@. ",
"  .O..OOOOOOOO. ",
"  .OOO......... ",
"   ...          "};
