/* XPM */
static char * viewmag+_xpm[] = {
"22 22 3 1",
" 	c None",
".	c #618561856185",
"X	c #FFFFFFFFFFFF",
"                      ",
"                      ",
"                      ",
"                      ",
"                      ",
"       ....           ",
"      .    .          ",
"     .  X   .         ",
"     . X    .         ",
"     .      .         ",
"     .      .         ",
"      .    ..         ",
"       .......        ",
"            ...       ",
"      .      ...      ",
"      .       ...     ",
"    .....      ..     ",
"      .               ",
"      .               ",
"                      ",
"                      ",
"                      "};
