/* XPM */
static char *close[] = {
/* width height num_colors chars_per_pixel */
"    16    16       50            1",
/* colors */
". c #0b210a",
"# c #0f270f",
"a c #153113",
"b c #173613",
"c c #193917",
"d c #1d3e16",
"e c #1e3f1a",
"f c #204215",
"g c #1e401a",
"h c #264914",
"i c #2e501a",
"j c #435d18",
"k c #23451e",
"l c #294b22",
"m c #2f5022",
"n c #34531c",
"o c #305122",
"p c #2d4e25",
"q c #305126",
"r c #35542a",
"s c #3b5820",
"t c #3a5728",
"u c #435d2a",
"v c #4b611b",
"w c #54661b",
"x c #4b6128",
"y c #3c592f",
"z c #435d2e",
"A c #445d35",
"B c #475f35",
"C c #4e632e",
"D c #4c613a",
"E c #a19a85",
"F c #5c6b1c",
"G c #596921",
"H c #5d6b20",
"I c #606d1c",
"J c #636f20",
"K c #5a6a29",
"L c #667027",
"M c #6f7529",
"N c #5d6b2f",
"O c #596937",
"P c #5f6c37",
"Q c #767a2f",
"R c #5d6b47",
"S c #626e41",
"T c #66704d",
"U c #677047",
"V c #6b7352",
/* pixels */
"RRRTRTRTTTREAAyr",
"RDDDDDEEEDArturl",
"EBPCyyAAAylmMxyl",
"DAxQxpqrpegLPRrk",
"DAAAJskeaaGNTAle",
"AyyytFi..vKTDpee",
"AyyyrmFhjGTErkee",
"AyypledIGADrlkee",
"Ayrpc#iHJxlkkkee",
"Ayre#fIUPJneekee",
"ArlcfISVEuInceee",
"zlcdFOTDrrqwiece",
"rebwxEylkllojikc",
"pkjuDykeekklmnle",
"llptpedcccceklke",
"kkkecaaaaaaaaccc"
};
