/* XPM */
static char * right_xpm[] = {
"7 100 24 1",
" 	c None",
".	c #405D57",
"+	c #3C564F",
"@	c #34463C",
"#	c #2C4634",
"$	c #34423C",
"%	c #405C56",
"&	c #395851",
"*	c #344234",
"=	c #2C463C",
"-	c #2C4644",
";	c #2C4244",
">	c #425F58",
",	c #415E58",
"'	c #425E58",
")	c #2C4A44",
"!	c #42615A",
"~	c #43615A",
"{	c #618B87",
"]	c #375953",
"^	c #244244",
"/	c #355852",
"(	c #2C4A4C",
"_	c #244644",
"    .+@",
"    ++#",
"    ++$",
"    ++#",
"    %&#",
"    %+@",
"    %&#",
"    +&#",
"    ++*",
"    ++=",
"    ++@",
"    ++=",
"    ++@",
"    ++=",
"    ++@",
"    ++@",
"    .+=",
"    ++@",
"    ++=",
"    ++@",
"    ++@",
"    ++@",
"    ++-",
"    ++@",
"    ++@",
"    ++@",
"    ++@",
"    ++=",
"    ++;",
"    ++@",
"    ++=",
"    ++=",
"    +&=",
"    >+@",
"    ,+=",
"    '+@",
"    ,+@",
"    ,+@",
"    '+=",
"    ,+@",
"    >+)",
"    '+@",
"    ,+-",
"    ++-",
"    >+-",
"    >+)",
"    ++=",
"    ++-",
"    ++-",
"    ++-",
"    ++=",
"    ++=",
"    ++-",
"    ++-",
"    ++-",
"    ++-",
"    ++)",
"    ++)",
"    !+-",
"    ++-",
"    !+-",
"    !+-",
"    !+-",
"    ~+-",
"    !+-",
"    {+-",
"    !+-",
"    ~+-",
"    ++-",
"    ++)",
"    ++-",
"    ++-",
"    ++-",
"    ++-",
"    ~+-",
"    +]-",
"    ++;",
"    ++^",
"    ++-",
"    ++-",
"    ++-",
"    +/(",
"    ++(",
"    ++-",
"    ++(",
"    ++-",
"    ++_",
"    ++(",
"    ++^",
"    ++-",
"    ++-",
"    ++_",
"    +/)",
"    ++_",
"    ++-",
"    +/(",
"    ++^",
"    ++-",
"    +/-",
"    ++_"};
