/* XPM */
/* Drawn for the K Desktop Environment */
/* See http://www.kde.org */
static char*ksamba[]={
"32 32 14 1",
"# c #000000",
"d c #c0c0c0",
"a c #ffffff",
"b c #808080",
"e c #585858",
"i c #ff0000",
"l c #00ff00",
"c c #0000ff",
"h c #ffff00",
"g c #ffc0c0",
"f c #c0c0ff",
"k c #ffa858",
"j c #ffdca8",
". c None",
".........#########....#########.",
"........#aaaaaaaaa#..#aaaaaaaaa#",
"........#abbbbbbbb#..#abbbbbbbb#",
"........#abcccccab#..#abcccccab#",
".########################ccccab#",
"#aaaaaaaaaaaaaaaaaaaaaaaa#cccab#",
"#addddddddddddddddddddddb#aaaab#",
"#adeeeeeeeeeeeeeeeeeeeedb#bbbbb#",
"#adeffffffffffffffffffadb######.",
"#adef###ffff#ff###ffffadb#aaaaa#",
"#adef#gg###f#ff#hh###fadb#ddidb#",
"#adef#gggg##i###hhhh#fadb#bbbbb#",
"#adef######f#ff######fadb######.",
"#adeffffffff#fffffffffadb#......",
"#adeffffffff#fffffffffadb#......",
"#adeff##ffff#ff###ffffadb######.",
"#adef#jk#fff#ff#hh###fadb#aaaaa#",
"#adef#jk#fffi###hhhh#fadb#bbbbb#",
"#adef#jk#ffffff######fadb#cccab#",
"#adef#jk#fffffffffffffadb#cccab#",
"#adaa#jk#aaaaaaaaaaaaaadb#cccab#",
"#addd#jk###d##ddddddddddb#aaaab#",
"#eee##jk#jk#jk###bbbbbbbb#bbbbb#",
".###k#jk#jk#jk#jk##############.",
"#a#jk#jk#jk#jk#jk#aaaaaaa#aaaaa#",
"#a#jk#jkkjkkjkkjk#ddddddb#ddidb#",
"#a#jkkjjjjjjjjjjk#dlliidb#bbbbb#",
"#a#jjjjjjjjjjjjjk#ddddddb######.",
"#b#kjjjjjjjjjjjjk#bbbbbbb#......",
".###kjjjjjjjjjjk#########.......",
"....#kkkkkkkkkk#................",
".....##########................."};

