/* XPM */
/* Drawn for the K Desktop Environment */
/* See http://www.kde.org */
static char*kmenuedit[]={
"32 32 18 1",
"g c #000000",
"b c #808080",
"k c #ff8000",
". c None",
"i c #ffdca8",
"j c #ffffc0",
"c c #c0c0c0",
"o c #585858",
"n c #a0a0a4",
"e c #00c0c0",
"d c #00ffff",
"# c #000000",
"p c #808080",
"h c #ffa858",
"f c #008080",
"m c #c0c0c0",
"a c #ffffff",
"l c #c05800",
"......####################......",
"......#aaaaaaaaaaaaaaaaab#......",
"......#accccccccccccccccb#......",
"......#accccccccccccccccb#......",
"......#accccccccccccccccb#......",
"......#abbbbbbbbbbbb############",
"......#adddddddddddd#aaaaaaaaab#",
"......#aeeeeeeeeeeee#accccccccb#",
"......#aeeeeeeeeeeee#accccccccb#",
"......#aeeeeeeeeeeee#accccccccb#",
"......#affffffffffff#abbbbbbbbb#",
"..ggg.#aaaaaaaaaaaaa#addddddddb#",
".ghijg#acccccccccccc#aeeeeeeeeb#",
".gkhijgacccccccccccc#aeeeeeeeeb#",
".glkhijgcccccccccccc#aeeeeeeeeb#",
"..glkhijgbbbbbbbbbbb#affffffffb#",
"...glkhijgaaaaaaaaaa#aaaaaaaaab#",
"....glkhijgccccccccc#accccccccb#",
".....glkhijgcccccccc#accccccccb#",
"......glkhijgccccccc#accccccccb#",
"......#glkhijgbbbbbb#bbbbbbbbbb#",
"......#aglkhijgaaaaa############",
"......#acglkhimgcccccnnno#......",
"......#accglkmmgccccccccb#......",
"......#acccgmmpgccccccccb#......",
"......#abbbbggggbbbbbbbbb#......",
"......#aaaaaaaaaaaaaaaaab#......",
"......#accccccccccccccccb#......",
"......#accccccccccccccccb#......",
"......#accccccccccccccccb#......",
"......#bbbbbbbbbbbbbbbbbb#......",
"......####################......"};
