/* XPM */
/* Drawn  by Nico Schirwing for the K Desktop Environment */
/* See http://www.kde.org */
static char*application_settings[]={
"32 32 11 1",
"# c #000000",
"b c #c0c0c0",
"f c #ffffff",
"a c #808080",
"h c #000080",
"e c #008080",
"c c #0000c0",
"g c #00c0c0",
"d c #0000ff",
"i c #c0ffff",
". c None",
"..............##................",
"..............#a##..............",
"..............#bb###............",
"......##......#bb#cc##..........",
"......#a##....##a#ddcc##........",
"......#bb###..#b##ccddcc##......",
"......#bb#ee###ffb##ccddc###....",
"......##a#ggee##bffb##ccd#ba##..",
"......#b##eeggee##bffb##c#bb#a##",
"......#ffb##eegge###bffb##ab#bb#",
"......#ffffb##eeg#ba##bffb###bb#",
"......#ffffffb##e#bb#a##fffb##a#",
".##...#ffffffffb##ab#bb#bffffb##",
"#cd##.#ffffffffffb###bb#bbffffb#",
"#daff##bfffffffffffb##a#bbffffb#",
"#dabbff##bfffffffffffb##bbffffb#",
"#daffbbff##bffffffffffb#bbffffb#",
"#daffffbbcd#ffffffffffb#bbffffb#",
"#dafffffadc#bfffffffffb#bbffffb#",
"#dafffffadc#bbffffffffb#bbffffb#",
"#dabffffadc#bbffffffffb#bbffffb#",
"#ddaabffadc#bbffffffffb#bbbfffb#",
"#dhddaabadc#bbbfffffffb###bbbfb#",
"#dhhhddaadc###bbbfffffb#..##bbb#",
"#dhighhdddc#..##bbbfffb#....##b#",
"#dhidighhdc#....##bbbfb#......##",
"##hidiidedc#......##bbb#........",
"..##giidedc#........##b#........",
"....##gdedc#..........##........",
"......##edc#....................",
"........##c#....................",
"..........#....................."};

