/* XPM */
static char * kcontrol_xpm[] = {
"32 32 120 2",
"  	c None",
". 	c #020204",
"+ 	c #1E1E1C",
"@ 	c #66DA54",
"# 	c #62DA4C",
"$ 	c #4EB63C",
"% 	c #225A04",
"& 	c #8E8E8C",
"* 	c #FEFEFC",
"= 	c #AEAEAC",
"- 	c #DEE2A4",
"; 	c #E2E28C",
"> 	c #AAB66C",
", 	c #CADA94",
"' 	c #626264",
") 	c #CECECC",
"! 	c #CACACC",
"~ 	c #C6C6C4",
"{ 	c #C2C2C4",
"] 	c #BEBEBC",
"^ 	c #BABABC",
"/ 	c #BABAB4",
"( 	c #B6B6B4",
"_ 	c #B2B2B4",
": 	c #B2B2AC",
"< 	c #767674",
"[ 	c #C6C624",
"} 	c #AEAA24",
"| 	c #46BE3C",
"1 	c #4AC23C",
"2 	c #FE0204",
"3 	c #D22A2C",
"4 	c #46BA34",
"5 	c #46B634",
"6 	c #42B22C",
"7 	c #4E4E4C",
"8 	c #6A6A6C",
"9 	c #66666C",
"0 	c #666664",
"a 	c #5A5A5C",
"b 	c #AAAAAC",
"c 	c #525254",
"d 	c #42B234",
"e 	c #5E5E5C",
"f 	c #161614",
"g 	c #42AE2C",
"h 	c #3EAE2C",
"i 	c #028284",
"j 	c #028204",
"k 	c #828204",
"l 	c #C25A04",
"m 	c #820204",
"n 	c #42B634",
"o 	c #3EAA2C",
"p 	c #AAAAA4",
"q 	c #3AA624",
"r 	c #A6A6A4",
"s 	c #3EA624",
"t 	c #3AA224",
"u 	c #02C2C4",
"v 	c #02C204",
"w 	c #C2C204",
"x 	c #FE8204",
"y 	c #C20A0C",
"z 	c #4E4254",
"A 	c #A2A29C",
"B 	c #369E24",
"C 	c #4A4A4C",
"D 	c #262EC4",
"E 	c #3A9E24",
"F 	c #A2A2A4",
"G 	c #9E9EA4",
"H 	c #3E3E3C",
"I 	c #36862C",
"J 	c #021AFC",
"K 	c #02FEFC",
"L 	c #02FE04",
"M 	c #FEFE04",
"N 	c #FEAA5C",
"O 	c #9E9E9C",
"P 	c #2A7624",
"Q 	c #369E1C",
"R 	c #369A1C",
"S 	c #32961C",
"T 	c #9A9A9C",
"U 	c #9A9A94",
"V 	c #36961C",
"W 	c #329214",
"X 	c #2E8E14",
"Y 	c #C2FEFC",
"Z 	c #C2FEC4",
"` 	c #FEFEC4",
" .	c #FEDEAC",
"..	c #FEC2C4",
"+.	c #969694",
"@.	c #32921C",
"#.	c #328E14",
"$.	c #2E8A14",
"%.	c #92928C",
"&.	c #929294",
"*.	c #4E424C",
"=.	c #2A860C",
"-.	c #2E860C",
";.	c #2A820C",
">.	c #009000",
",.	c #38FB30",
"'.	c #32762C",
").	c #424244",
"!.	c #1A4E0C",
"~.	c #1A1A1C",
"{.	c #0A0A0C",
"].	c #262624",
"^.	c #323234",
"/.	c #EEEEEC",
"(.	c #3A3A3C",
"_.	c #DADAD4",
":.	c #DEDEDC",
"<.	c #D2D2D4",
"[.	c #868684",
"}.	c #828284",
"    . . . . . . . . . . . . . . . . . . . . . . . . . . . . .   ",
". + @ # # # # @ @ # # # # @ $ % & * * * * * * * * * * * * * = . ",
". - ; > , > , , , , , , , , , % ' ) ) ! ~ ~ { { ] ^ / ( _ : < . ",
". [ } | 1 2 3 4 > 5 5 5 6 6 , % 7 8 9 0 0 0 0 0 0 ' ' a _ = < . ",
". - ; > , > 4 4 b b b c d d , % . . . . . . . . . . . * : : < . ",
". [ } | 4 4 4 5 b ' e f g h , % . i . j . k . l . m . * = b < . ",
". - ; > , , , > b e 7 f h h , % . i . j . k . l . m . * = = < . ",
". [ } 4 n d d d c f f f o o , % . i . j . k . l . m . * b p < . ",
". - ; > , , , g > o > o o q , % . . . . . . . . . . . * p r < . ",
". [ } d d 6 > o , h , s 3 t , % . u . v . w . x . y . * b r < . ",
". - ; > > b b z , s , > 2 > , % . u . v . w . x . y . * r A < . ",
". [ } h o b 0 f , q , t t B , % . u . v . w . x . y . * r A < . ",
". - ; > o C f f , q , t D E , % . . . . . . . . . . . * F G < . ",
". H I , s t q q , t , > J > , % . K . L . M . N . 2 . * A O < . ",
". * P , , , t , , B , Q R S , % . K . L . M . N . 2 . * O T < . ",
". * P , q , E , E Q , R D S , % . K . L . M . N . 2 . * O U < . ",
". * P , E , B , R V , > J > , % . . . . . . . . . . . * T U < . ",
". * P , B , R , R V , V W W X % . Y . Z . ` .  .. ... * +.+.< . ",
". * P , R > R > S S > W @.X #.% . Y . Z . ` .  .. ... * T +.< . ",
". * P , R b b z W W b b z X $.% . Y . Z . ` .  .. ... * +.%.< . ",
". * P , S b ' f @.X b ' f $.$.% . . . . . . . . . . . * %.&.< . ",
". * P , @.*.f f W X *.f f =.=.% & * * * * * * * * * * * %.& < . ",
". * P , W @.> , , , , > =.-.;.% ' = r r A O O T U +.&.&.& & < . ",
". * P , > *.*.*.*.*.*.*.*.;.;.% e b r r F O O T +.+.>.,.& & < . ",
". = '.$.$.=.$.$.$.$.$.$.$.-.=.% ).< < < < < < < < < < < < < < . ",
"  . !.% % % % % % % % % % % % % . . . . . . . + + ~.+ ~.~.~.~.  ",
"    . . . . . . . {.f ].^.).C c * /.] & ' ^..                   ",
"                . ].(.7 ' & { /.* /.] & ' (..                   ",
"          . . . H ).).).).).).H H H ).).).).).. . .             ",
"        . _.:.:.:.:.:.:.:.:.:.:.:.:.:.:.:.:.:.:.:.<..           ",
"        . [.[.[.}.}.}.[.}.}.[.[.[.}.[.}.}.}.}.}.}.[..           ",
"        . . . . . . . . . . . . . . . . . . . . . . .           "};
